  0
SECTION
  2
HEADER
  9
$ACADVER
  1
AC1014
  9
$HANDSEED
  5
FFFF
  9
$MEASUREMENT
 70
     1
  0
ENDSEC
  0
SECTION
  2
TABLES
  0
TABLE
  2
VPORT
  5
8
330
0
100
AcDbSymbolTable
 70
     4
  0
VPORT
  5
2E
330
8
100
AcDbSymbolTableRecord
100
AcDbViewportTableRecord
  2
*ACTIVE
 70
     0
 10
0.0
 20
0.0
 11
1.0
 21
1.0
 12
210.0
 22
148.5
 13
0.0
 23
0.0
 14
10.0
 24
10.0
 15
10.0
 25
10.0
 16
0.0
 26
0.0
 36
1.0
 17
0.0
 27
0.0
 37
0.0
 40
341.0
 41
1.24
 42
50.0
 43
0.0
 44
0.0
 50
0.0
 51
0.0
 71
     0
 72
   100
 73
     1
 74
     3
 75
     0
 76
     0
 77
     0
 78
     0
  0
ENDTAB
  0
TABLE
  2
LTYPE
  5
5
330
0
100
AcDbSymbolTable
 70
     1
  0
LTYPE
  5
14
330
5
100
AcDbSymbolTableRecord
100
AcDbLinetypeTableRecord
  2
BYBLOCK
 70
     0
  3

 72
    65
 73
     0
 40
0.0
  0
LTYPE
  5
15
330
5
100
AcDbSymbolTableRecord
100
AcDbLinetypeTableRecord
  2
BYLAYER
 70
     0
  3

 72
    65
 73
     0
 40
0.0
  0
LTYPE
  5
16
330
5
100
AcDbSymbolTableRecord
100
AcDbLinetypeTableRecord
  2
CONTINUOUS
 70
     0
  3
Solid line
 72
    65
 73
     0
 40
0.0
  0
ENDTAB
  0
TABLE
  2
LAYER
  5
2
100
AcDbSymbolTable
 70
1
  0
LAYER
  5
50
100
AcDbSymbolTableRecord
100
AcDbLayerTableRecord
  2
0
 70
0
  6
CONTINUOUS
  0
ENDTAB
  0
TABLE
  2
STYLE
  5
3
330
0
100
AcDbSymbolTable
 70
     1
  0
STYLE
  5
11
330
3
100
AcDbSymbolTableRecord
100
AcDbTextStyleTableRecord
  2
STANDARD
 70
     0
 40
0.0
 41
1.0
 50
0.0
 71
     0
 42
2.5
  3
txt
  4

  0
ENDTAB
  0
TABLE
  2
VIEW
  5
6
330
0
100
AcDbSymbolTable
 70
     0
  0
ENDTAB
  0
TABLE
  2
UCS
  5
7
330
0
100
AcDbSymbolTable
 70
     0
  0
ENDTAB
  0
TABLE
  2
APPID
  5
9
330
0
100
AcDbSymbolTable
 70
     2
  0
APPID
  5
12
330
9
100
AcDbSymbolTableRecord
100
AcDbRegAppTableRecord
  2
ACAD
 70
     0
  0
ENDTAB
  0
TABLE
  2
DIMSTYLE
  5
A
330
0
100
AcDbSymbolTable
 70
     1
  0
DIMSTYLE
105
27
330
A
100
AcDbSymbolTableRecord
100
AcDbDimStyleTableRecord
  2
ISO-25
 70
     0
  3

  4

  5

  6

  7

 40
1.0
 41
2.5
 42
0.625
 43
3.75
 44
1.25
 45
0.0
 46
0.0
 47
0.0
 48
0.0
140
2.5
141
2.5
142
0.0
143
0.03937007874016
144
1.0
145
0.0
146
1.0
147
0.625
 71
     0
 72
     0
 73
     0
 74
     0
 75
     0
 76
     0
 77
     1
 78
     8
170
     0
171
     3
172
     1
173
     0
174
     0
175
     0
176
     0
177
     0
178
     0
270
     2
271
     2
272
     2
273
     2
274
     3
340
11
275
     0
280
     0
281
     0
282
     0
283
     0
284
     8
285
     0
286
     0
287
     3
288
     0
  0
ENDTAB
  0
TABLE
  2
BLOCK_RECORD
  5
1
330
0
100
AcDbSymbolTable
 70
     1
  0
BLOCK_RECORD
  5
1F
330
1
100
AcDbSymbolTableRecord
100
AcDbBlockTableRecord
  2
*MODEL_SPACE
  0
BLOCK_RECORD
  5
1B
330
1
100
AcDbSymbolTableRecord
100
AcDbBlockTableRecord
  2
*PAPER_SPACE
  0
ENDTAB
  0
ENDSEC
  0
SECTION
  2
BLOCKS
  0
BLOCK
  5
20
330
1F
100
AcDbEntity
  8
0
100
AcDbBlockBegin
  2
*MODEL_SPACE
 70
     0
 10
0.0
 20
0.0
 30
0.0
  3
*MODEL_SPACE
  1

  0
ENDBLK
  5
21
330
1F
100
AcDbEntity
  8
0
100
AcDbBlockEnd
  0
BLOCK
  5
1C
330
1B
100
AcDbEntity
 67
     1
  8
0
100
AcDbBlockBegin
  2
*PAPER_SPACE
  1

  0
ENDBLK
  5
1D
330
1B
100
AcDbEntity
 67
     1
  8
0
100
AcDbBlockEnd
  0
ENDSEC
  0
SECTION
  2
ENTITIES
  0
SPLINE
  5
100
100
AcDbEntity
  8
0
 62
7
100
AcDbSpline
 70
8
 71
3
 72
8
 73
4
 74
0
 40
0
 40
0
 40
0
 40
0
 40
1
 40
1
 40
1
 40
1
 10
344.850798
 20
93.926116
 30
0.0
 10
11.285856
 20
93.926116
 30
0.0
 10
11.285856
 20
93.926116
 30
0.0
 10
11.285856
 20
93.926116
 30
0.0
  0
LWPOLYLINE
  5
101
100
AcDbEntity
  8
0
 62
7
100
AcDbPolyline
 90
4
 70
0
 10
352.103457
 20
93.926116
 30
0.0
 10
352.103457
 20
84.351654
 30
0.0
 10
344.850798
 20
84.351654
 30
0.0
 10
344.850798
 20
93.926116
 30
0.0
  0
SPLINE
  5
102
100
AcDbEntity
  8
0
 62
7
100
AcDbSpline
 70
8
 71
3
 72
8
 73
4
 74
0
 40
0
 40
0
 40
0
 40
0
 40
1
 40
1
 40
1
 40
1
 10
4.033245
 20
93.926116
 30
0.0
 10
-0.203473
 20
93.926116
 30
0.0
 10
-0.203473
 20
93.926116
 30
0.0
 10
-0.203473
 20
93.926116
 30
0.0
  0
LWPOLYLINE
  5
103
100
AcDbEntity
  8
0
 62
7
100
AcDbPolyline
 90
4
 70
0
 10
11.285856
 20
93.926116
 30
0.0
 10
11.285856
 20
84.351654
 30
0.0
 10
4.033245
 20
84.351654
 30
0.0
 10
4.033245
 20
93.926116
 30
0.0
  0
SPLINE
  5
104
100
AcDbEntity
  8
0
 62
7
100
AcDbSpline
 70
8
 71
3
 72
8
 73
4
 74
0
 40
0
 40
0
 40
0
 40
0
 40
1
 40
1
 40
1
 40
1
 10
356.340160
 20
-14.136374
 30
0.0
 10
215.892287
 20
77.821152
 30
0.0
 10
215.892287
 20
77.821152
 30
0.0
 10
215.892287
 20
77.821152
 30
0.0
  0
LWPOLYLINE
  5
105
100
AcDbEntity
  8
0
 62
7
100
AcDbPolyline
 90
3
 70
0
 10
-0.203473
 20
93.926116
 30
0.0
 10
-0.203473
 20
-14.136374
 30
0.0
 10
356.340160
 20
-14.136374
 30
0.0
  0
SPLINE
  5
106
100
AcDbEntity
  8
0
 62
7
100
AcDbSpline
 70
8
 71
3
 72
8
 73
4
 74
0
 40
0
 40
0
 40
0
 40
0
 40
1
 40
1
 40
1
 40
1
 10
215.892287
 20
77.821152
 30
0.0
 10
337.191223
 20
74.473681
 30
0.0
 10
337.191223
 20
74.473681
 30
0.0
 10
337.191223
 20
74.473681
 30
0.0
  0
LWPOLYLINE
  5
107
100
AcDbEntity
  8
0
 62
7
100
AcDbPolyline
 90
30
 70
1
 10
215.892287
 20
77.821152
 30
0.0
 10
214.862074
 20
78.155780
 30
0.0
 10
213.924255
 20
78.697215
 30
0.0
 10
213.119282
 20
79.422003
 30
0.0
 10
212.482580
 20
80.298305
 30
0.0
 10
212.042154
 20
81.287826
 30
0.0
 10
211.816915
 20
82.347240
 30
0.0
 10
211.816915
 20
83.430591
 30
0.0
 10
212.042154
 20
84.490005
 30
0.0
 10
212.482580
 20
85.479526
 30
0.0
 10
213.119282
 20
86.355828
 30
0.0
 10
213.924255
 20
87.080376
 30
0.0
 10
214.862074
 20
87.622051
 30
0.0
 10
215.892287
 20
87.956679
 30
0.0
 10
216.969654
 20
88.069897
 30
0.0
 10
218.046782
 20
87.956679
 30
0.0
 10
219.076995
 20
87.622051
 30
0.0
 10
220.014814
 20
87.080376
 30
0.0
 10
220.819787
 20
86.355828
 30
0.0
 10
221.456489
 20
85.479526
 30
0.0
 10
221.896915
 20
84.490005
 30
0.0
 10
222.122154
 20
83.430591
 30
0.0
 10
222.122154
 20
82.347240
 30
0.0
 10
221.896915
 20
81.287826
 30
0.0
 10
221.456489
 20
80.298305
 30
0.0
 10
220.819787
 20
79.422003
 30
0.0
 10
220.014814
 20
78.697215
 30
0.0
 10
219.076995
 20
78.155780
 30
0.0
 10
218.046782
 20
77.821152
 30
0.0
 10
216.969654
 20
77.707934
 30
0.0
  0
SPLINE
  5
108
100
AcDbEntity
  8
0
 62
7
100
AcDbSpline
 70
8
 71
3
 72
8
 73
4
 74
0
 40
0
 40
0
 40
0
 40
0
 40
1
 40
1
 40
1
 40
1
 10
337.191223
 20
74.473681
 30
0.0
 10
11.692843
 20
74.473681
 30
0.0
 10
11.692843
 20
74.473681
 30
0.0
 10
11.692843
 20
74.473681
 30
0.0
  0
LWPOLYLINE
  5
109
100
AcDbEntity
  8
0
 62
7
100
AcDbPolyline
 90
4
 70
1
 10
337.191223
 20
74.473681
 30
0.0
 10
337.191223
 20
81.928597
 30
0.0
 10
344.443883
 20
81.928597
 30
0.0
 10
344.443883
 20
74.473681
 30
0.0
  0
SPLINE
  5
10a
100
AcDbEntity
  8
0
 62
7
100
AcDbSpline
 70
8
 71
3
 72
8
 73
4
 74
0
 40
0
 40
0
 40
0
 40
0
 40
1
 40
1
 40
1
 40
1
 10
11.692843
 20
74.473681
 30
0.0
 10
182.465665
 20
6.496633
 30
0.0
 10
182.465665
 20
6.496633
 30
0.0
 10
182.465665
 20
6.496633
 30
0.0
  0
LWPOLYLINE
  5
10b
100
AcDbEntity
  8
0
 62
7
100
AcDbPolyline
 90
4
 70
1
 10
11.692843
 20
74.473681
 30
0.0
 10
11.692843
 20
81.928597
 30
0.0
 10
18.945431
 20
81.928597
 30
0.0
 10
18.945431
 20
74.473681
 30
0.0
  0
SPLINE
  5
10c
100
AcDbEntity
  8
0
 62
7
100
AcDbSpline
 70
8
 71
3
 72
8
 73
4
 74
0
 40
0
 40
0
 40
0
 40
0
 40
1
 40
1
 40
1
 40
1
 10
182.465665
 20
6.496633
 30
0.0
 10
340.274202
 20
57.324854
 30
0.0
 10
340.274202
 20
57.324854
 30
0.0
 10
340.274202
 20
57.324854
 30
0.0
  0
LWPOLYLINE
  5
10d
100
AcDbEntity
  8
0
 62
7
100
AcDbPolyline
 90
4
 70
1
 10
182.465665
 20
6.496633
 30
0.0
 10
182.465665
 20
75.504611
 30
0.0
 10
265.835106
 20
75.504611
 30
0.0
 10
265.835106
 20
6.496633
 30
0.0
  0
SPLINE
  5
10e
100
AcDbEntity
  8
0
 62
7
100
AcDbSpline
 70
8
 71
3
 72
8
 73
4
 74
0
 40
0
 40
0
 40
0
 40
0
 40
1
 40
1
 40
1
 40
1
 10
340.274202
 20
57.324854
 30
0.0
 10
14.777521
 20
57.324854
 30
0.0
 10
14.777521
 20
57.324854
 30
0.0
 10
14.777521
 20
57.324854
 30
0.0
  0
LWPOLYLINE
  5
10f
100
AcDbEntity
  8
0
 62
7
100
AcDbPolyline
 90
30
 70
1
 10
340.274202
 20
57.324854
 30
0.0
 10
339.216223
 20
57.550093
 30
0.0
 10
338.225266
 20
57.990519
 30
0.0
 10
337.349202
 20
58.627221
 30
0.0
 10
336.623936
 20
59.432194
 30
0.0
 10
336.082979
 20
60.370013
 30
0.0
 10
335.747872
 20
61.400226
 30
0.0
 10
335.635372
 20
62.477354
 30
0.0
 10
335.747872
 20
63.554721
 30
0.0
 10
336.082979
 20
64.584694
 30
0.0
 10
336.623936
 20
65.522753
 30
0.0
 10
337.349202
 20
66.327726
 30
0.0
 10
338.225266
 20
66.964428
 30
0.0
 10
339.216223
 20
67.404854
 30
0.0
 10
340.274202
 20
67.630093
 30
0.0
 10
341.358511
 20
67.630093
 30
0.0
 10
342.416489
 20
67.404854
 30
0.0
 10
343.407447
 20
66.964428
 30
0.0
 10
344.283511
 20
66.327726
 30
0.0
 10
345.008777
 20
65.522753
 30
0.0
 10
345.549734
 20
64.584694
 30
0.0
 10
345.884840
 20
63.554721
 30
0.0
 10
345.997340
 20
62.477354
 30
0.0
 10
345.884840
 20
61.400226
 30
0.0
 10
345.549734
 20
60.370013
 30
0.0
 10
345.008777
 20
59.432194
 30
0.0
 10
344.283511
 20
58.627221
 30
0.0
 10
343.407447
 20
57.990519
 30
0.0
 10
342.416489
 20
57.550093
 30
0.0
 10
341.358511
 20
57.324854
 30
0.0
  0
SPLINE
  5
110
100
AcDbEntity
  8
0
 62
7
100
AcDbSpline
 70
8
 71
3
 72
8
 73
4
 74
0
 40
0
 40
0
 40
0
 40
0
 40
1
 40
1
 40
1
 40
1
 10
14.777521
 20
57.324854
 30
0.0
 10
130.886569
 20
16.430146
 30
0.0
 10
130.886569
 20
16.430146
 30
0.0
 10
130.886569
 20
16.430146
 30
0.0
  0
LWPOLYLINE
  5
111
100
AcDbEntity
  8
0
 62
7
100
AcDbPolyline
 90
30
 70
1
 10
14.777521
 20
57.324854
 30
0.0
 10
13.718106
 20
57.550093
 30
0.0
 10
12.728609
 20
57.990519
 30
0.0
 10
11.852306
 20
58.627221
 30
0.0
 10
11.127566
 20
59.432194
 30
0.0
 10
10.586035
 20
60.370013
 30
0.0
 10
10.251335
 20
61.400226
 30
0.0
 10
10.138069
 20
62.477354
 30
0.0
 10
10.251335
 20
63.554721
 30
0.0
 10
10.586035
 20
64.584694
 30
0.0
 10
11.127566
 20
65.522753
 30
0.0
 10
11.852306
 20
66.327726
 30
0.0
 10
12.728585
 20
66.964428
 30
0.0
 10
13.718106
 20
67.404854
 30
0.0
 10
14.777521
 20
67.630093
 30
0.0
 10
15.860753
 20
67.630093
 30
0.0
 10
16.920144
 20
67.404854
 30
0.0
 10
17.909689
 20
66.964428
 30
0.0
 10
18.785968
 20
66.327726
 30
0.0
 10
19.510707
 20
65.522753
 30
0.0
 10
20.052239
 20
64.584694
 30
0.0
 10
20.386939
 20
63.554721
 30
0.0
 10
20.500205
 20
62.477354
 30
0.0
 10
20.386939
 20
61.400226
 30
0.0
 10
20.052239
 20
60.370013
 30
0.0
 10
19.510707
 20
59.432194
 30
0.0
 10
18.785968
 20
58.627221
 30
0.0
 10
17.909689
 20
57.990519
 30
0.0
 10
16.920144
 20
57.550093
 30
0.0
 10
15.860753
 20
57.324854
 30
0.0
  0
SPLINE
  5
112
100
AcDbEntity
  8
0
 62
7
100
AcDbSpline
 70
8
 71
3
 72
8
 73
4
 74
0
 40
0
 40
0
 40
0
 40
0
 40
1
 40
1
 40
1
 40
1
 10
130.886569
 20
16.430146
 30
0.0
 10
147.057846
 20
8.612639
 30
0.0
 10
147.057846
 20
8.612639
 30
0.0
 10
147.057846
 20
8.612639
 30
0.0
  0
LWPOLYLINE
  5
113
100
AcDbEntity
  8
0
 62
7
100
AcDbPolyline
 90
4
 70
1
 10
130.886569
 20
16.430146
 30
0.0
 10
130.886569
 20
59.491316
 30
0.0
 10
132.250931
 20
59.491316
 30
0.0
 10
132.250931
 20
16.430146
 30
0.0
  0
SPLINE
  5
114
100
AcDbEntity
  8
0
 62
7
100
AcDbSpline
 70
8
 71
3
 72
8
 73
4
 74
0
 40
0
 40
0
 40
0
 40
0
 40
1
 40
1
 40
1
 40
1
 10
147.057846
 20
8.612639
 30
0.0
 10
337.191223
 20
43.026343
 30
0.0
 10
337.191223
 20
43.026343
 30
0.0
 10
337.191223
 20
43.026343
 30
0.0
  0
LWPOLYLINE
  5
115
100
AcDbEntity
  8
0
 62
7
100
AcDbPolyline
 90
4
 70
1
 10
147.057846
 20
8.612639
 30
0.0
 10
147.057846
 20
56.451423
 30
0.0
 10
157.422207
 20
56.451423
 30
0.0
 10
157.422207
 20
8.612615
 30
0.0
  0
SPLINE
  5
116
100
AcDbEntity
  8
0
 62
7
100
AcDbSpline
 70
8
 71
3
 72
8
 73
4
 74
0
 40
0
 40
0
 40
0
 40
0
 40
1
 40
1
 40
1
 40
1
 10
337.191223
 20
43.026343
 30
0.0
 10
11.692843
 20
43.026343
 30
0.0
 10
11.692843
 20
43.026343
 30
0.0
 10
11.692843
 20
43.026343
 30
0.0
  0
LWPOLYLINE
  5
117
100
AcDbEntity
  8
0
 62
7
100
AcDbPolyline
 90
4
 70
1
 10
337.191223
 20
43.026343
 30
0.0
 10
337.191223
 20
50.481263
 30
0.0
 10
344.443883
 20
50.481263
 30
0.0
 10
344.443883
 20
43.026343
 30
0.0
  0
SPLINE
  5
118
100
AcDbEntity
  8
0
 62
7
100
AcDbSpline
 70
8
 71
3
 72
8
 73
4
 74
0
 40
0
 40
0
 40
0
 40
0
 40
1
 40
1
 40
1
 40
1
 10
11.692843
 20
43.026343
 30
0.0
 10
215.892287
 20
-5.955496
 30
0.0
 10
215.892287
 20
-5.955496
 30
0.0
 10
215.892287
 20
-5.955496
 30
0.0
  0
LWPOLYLINE
  5
119
100
AcDbEntity
  8
0
 62
7
100
AcDbPolyline
 90
4
 70
1
 10
11.692843
 20
43.026343
 30
0.0
 10
11.692843
 20
50.481263
 30
0.0
 10
18.945431
 20
50.481263
 30
0.0
 10
18.945431
 20
43.026343
 30
0.0
  0
LWPOLYLINE
  5
11a
100
AcDbEntity
  8
0
 62
7
100
AcDbPolyline
 90
30
 70
1
 10
215.892287
 20
-5.955496
 30
0.0
 10
214.862074
 20
-5.620797
 30
0.0
 10
213.924255
 20
-5.079265
 30
0.0
 10
213.119282
 20
-4.354526
 30
0.0
 10
212.482580
 20
-3.478244
 30
0.0
 10
212.042154
 20
-2.488699
 30
0.0
 10
211.816915
 20
-1.429308
 30
0.0
 10
211.816915
 20
-0.346052
 30
0.0
 10
212.042154
 20
0.713365
 30
0.0
 10
212.482580
 20
1.702862
 30
0.0
 10
213.119282
 20
2.579189
 30
0.0
 10
213.924255
 20
3.303929
 30
0.0
 10
214.862074
 20
3.845461
 30
0.0
 10
215.892287
 20
4.180160
 30
0.0
 10
216.969654
 20
4.293378
 30
0.0
 10
218.046782
 20
4.180160
 30
0.0
 10
219.076995
 20
3.845461
 30
0.0
 10
220.014814
 20
3.303929
 30
0.0
 10
220.819787
 20
2.579189
 30
0.0
 10
221.456489
 20
1.702862
 30
0.0
 10
221.896915
 20
0.713365
 30
0.0
 10
222.122154
 20
-0.346052
 30
0.0
 10
222.122154
 20
-1.429308
 30
0.0
 10
221.896915
 20
-2.488699
 30
0.0
 10
221.456489
 20
-3.478244
 30
0.0
 10
220.819787
 20
-4.354526
 30
0.0
 10
220.014814
 20
-5.079265
 30
0.0
 10
219.076995
 20
-5.620797
 30
0.0
 10
218.046782
 20
-5.955496
 30
0.0
 10
216.969654
 20
-6.068762
 30
0.0
  0
SPLINE
  5
11b
100
AcDbEntity
  8
0
 62
7
100
AcDbSpline
 70
8
 71
3
 72
8
 73
4
 74
0
 40
0
 40
0
 40
0
 40
0
 40
1
 40
1
 40
1
 40
1
 10
344.850798
 20
157.227697
 30
0.0
 10
11.285856
 20
157.227697
 30
0.0
 10
11.285856
 20
157.227697
 30
0.0
 10
11.285856
 20
157.227697
 30
0.0
  0
LWPOLYLINE
  5
11c
100
AcDbEntity
  8
0
 62
7
100
AcDbPolyline
 90
4
 70
0
 10
352.103457
 20
157.227697
 30
0.0
 10
352.103457
 20
147.653229
 30
0.0
 10
344.850798
 20
147.653229
 30
0.0
 10
344.850798
 20
157.227697
 30
0.0
  0
SPLINE
  5
11d
100
AcDbEntity
  8
0
 62
7
100
AcDbSpline
 70
8
 71
3
 72
8
 73
4
 74
0
 40
0
 40
0
 40
0
 40
0
 40
1
 40
1
 40
1
 40
1
 10
4.033245
 20
157.227697
 30
0.0
 10
-0.203473
 20
157.227697
 30
0.0
 10
-0.203473
 20
157.227697
 30
0.0
 10
-0.203473
 20
157.227697
 30
0.0
  0
LWPOLYLINE
  5
11e
100
AcDbEntity
  8
0
 62
7
100
AcDbPolyline
 90
4
 70
0
 10
11.285856
 20
157.227697
 30
0.0
 10
11.285856
 20
147.653229
 30
0.0
 10
4.033245
 20
147.653229
 30
0.0
 10
4.033245
 20
157.227697
 30
0.0
  0
SPLINE
  5
11f
100
AcDbEntity
  8
0
 62
7
100
AcDbSpline
 70
8
 71
3
 72
8
 73
4
 74
0
 40
0
 40
0
 40
0
 40
0
 40
1
 40
1
 40
1
 40
1
 10
356.340160
 20
93.926116
 30
0.0
 10
337.191223
 20
137.775490
 30
0.0
 10
337.191223
 20
137.775490
 30
0.0
 10
337.191223
 20
137.775490
 30
0.0
  0
LWPOLYLINE
  5
120
100
AcDbEntity
  8
0
 62
7
100
AcDbPolyline
 90
3
 70
0
 10
-0.203473
 20
157.227697
 30
0.0
 10
-0.203473
 20
93.926116
 30
0.0
 10
356.340160
 20
93.926116
 30
0.0
  0
SPLINE
  5
121
100
AcDbEntity
  8
0
 62
7
100
AcDbSpline
 70
8
 71
3
 72
8
 73
4
 74
0
 40
0
 40
0
 40
0
 40
0
 40
1
 40
1
 40
1
 40
1
 10
337.191223
 20
137.775490
 30
0.0
 10
11.692843
 20
137.775490
 30
0.0
 10
11.692843
 20
137.775490
 30
0.0
 10
11.692843
 20
137.775490
 30
0.0
  0
LWPOLYLINE
  5
122
100
AcDbEntity
  8
0
 62
7
100
AcDbPolyline
 90
4
 70
1
 10
337.191223
 20
137.775490
 30
0.0
 10
337.191223
 20
145.230410
 30
0.0
 10
344.443883
 20
145.230410
 30
0.0
 10
344.443883
 20
137.775490
 30
0.0
  0
SPLINE
  5
123
100
AcDbEntity
  8
0
 62
7
100
AcDbSpline
 70
8
 71
3
 72
8
 73
4
 74
0
 40
0
 40
0
 40
0
 40
0
 40
1
 40
1
 40
1
 40
1
 10
11.692843
 20
137.775490
 30
0.0
 10
293.103191
 20
99.818480
 30
0.0
 10
293.103191
 20
99.818480
 30
0.0
 10
293.103191
 20
99.818480
 30
0.0
  0
LWPOLYLINE
  5
124
100
AcDbEntity
  8
0
 62
7
100
AcDbPolyline
 90
4
 70
1
 10
11.692843
 20
137.775490
 30
0.0
 10
11.692843
 20
145.230410
 30
0.0
 10
18.945431
 20
145.230410
 30
0.0
 10
18.945431
 20
137.775490
 30
0.0
  0
SPLINE
  5
125
100
AcDbEntity
  8
0
 62
7
100
AcDbSpline
 70
8
 71
3
 72
8
 73
4
 74
0
 40
0
 40
0
 40
0
 40
0
 40
1
 40
1
 40
1
 40
1
 10
293.103191
 20
99.818480
 30
0.0
 10
340.274202
 20
120.626421
 30
0.0
 10
340.274202
 20
120.626421
 30
0.0
 10
340.274202
 20
120.626421
 30
0.0
  0
LWPOLYLINE
  5
126
100
AcDbEntity
  8
0
 62
7
100
AcDbPolyline
 90
16
 70
1
 10
293.103191
 20
99.818480
 30
0.0
 10
291.501862
 20
101.258957
 30
0.0
 10
290.625798
 20
103.225792
 30
0.0
 10
290.625798
 20
138.889479
 30
0.0
 10
291.501862
 20
140.856314
 30
0.0
 10
293.103191
 20
142.296793
 30
0.0
 10
295.149734
 20
142.962219
 30
0.0
 10
297.292021
 20
142.737219
 30
0.0
 10
299.156649
 20
141.660809
 30
0.0
 10
300.420479
 20
139.918974
 30
0.0
 10
300.872872
 20
137.791527
 30
0.0
 10
300.872872
 20
104.323504
 30
0.0
 10
300.420479
 20
102.196298
 30
0.0
 10
299.156649
 20
100.454463
 30
0.0
 10
297.292021
 20
99.378055
 30
0.0
 10
295.149734
 20
99.153055
 30
0.0
  0
SPLINE
  5
127
100
AcDbEntity
  8
0
 62
7
100
AcDbSpline
 70
8
 71
3
 72
8
 73
4
 74
0
 40
0
 40
0
 40
0
 40
0
 40
1
 40
1
 40
1
 40
1
 10
340.274202
 20
120.626421
 30
0.0
 10
14.777521
 20
120.626421
 30
0.0
 10
14.777521
 20
120.626421
 30
0.0
 10
14.777521
 20
120.626421
 30
0.0
  0
LWPOLYLINE
  5
128
100
AcDbEntity
  8
0
 62
7
100
AcDbPolyline
 90
30
 70
1
 10
340.274202
 20
120.626421
 30
0.0
 10
339.216223
 20
120.851660
 30
0.0
 10
338.225266
 20
121.292325
 30
0.0
 10
337.349202
 20
121.928788
 30
0.0
 10
336.623936
 20
122.733761
 30
0.0
 10
336.082979
 20
123.671820
 30
0.0
 10
335.747872
 20
124.702032
 30
0.0
 10
335.635372
 20
125.779160
 30
0.0
 10
335.747872
 20
126.856288
 30
0.0
 10
336.082979
 20
127.886501
 30
0.0
 10
336.623936
 20
128.824559
 30
0.0
 10
337.349202
 20
129.629532
 30
0.0
 10
338.225266
 20
130.265995
 30
0.0
 10
339.216223
 20
130.706660
 30
0.0
 10
340.274202
 20
130.931899
 30
0.0
 10
341.358511
 20
130.931899
 30
0.0
 10
342.416489
 20
130.706660
 30
0.0
 10
343.407447
 20
130.265995
 30
0.0
 10
344.283511
 20
129.629532
 30
0.0
 10
345.008777
 20
128.824559
 30
0.0
 10
345.549734
 20
127.886501
 30
0.0
 10
345.884840
 20
126.856288
 30
0.0
 10
345.997340
 20
125.779160
 30
0.0
 10
345.884840
 20
124.702032
 30
0.0
 10
345.549734
 20
123.671820
 30
0.0
 10
345.008777
 20
122.733761
 30
0.0
 10
344.283511
 20
121.928788
 30
0.0
 10
343.407447
 20
121.292325
 30
0.0
 10
342.416489
 20
120.851660
 30
0.0
 10
341.358511
 20
120.626421
 30
0.0
  0
SPLINE
  5
129
100
AcDbEntity
  8
0
 62
7
100
AcDbSpline
 70
8
 71
3
 72
8
 73
4
 74
0
 40
0
 40
0
 40
0
 40
0
 40
1
 40
1
 40
1
 40
1
 10
14.777521
 20
120.626421
 30
0.0
 10
337.191223
 20
106.327917
 30
0.0
 10
337.191223
 20
106.327917
 30
0.0
 10
337.191223
 20
106.327917
 30
0.0
  0
LWPOLYLINE
  5
12a
100
AcDbEntity
  8
0
 62
7
100
AcDbPolyline
 90
30
 70
1
 10
14.777521
 20
120.626421
 30
0.0
 10
13.718106
 20
120.851660
 30
0.0
 10
12.728609
 20
121.292325
 30
0.0
 10
11.852306
 20
121.928788
 30
0.0
 10
11.127566
 20
122.733761
 30
0.0
 10
10.586035
 20
123.671820
 30
0.0
 10
10.251335
 20
124.702032
 30
0.0
 10
10.138069
 20
125.779160
 30
0.0
 10
10.251335
 20
126.856288
 30
0.0
 10
10.586035
 20
127.886501
 30
0.0
 10
11.127566
 20
128.824559
 30
0.0
 10
11.852306
 20
129.629532
 30
0.0
 10
12.728585
 20
130.265995
 30
0.0
 10
13.718106
 20
130.706660
 30
0.0
 10
14.777521
 20
130.931899
 30
0.0
 10
15.860753
 20
130.931899
 30
0.0
 10
16.920144
 20
130.706660
 30
0.0
 10
17.909689
 20
130.265995
 30
0.0
 10
18.785968
 20
129.629532
 30
0.0
 10
19.510707
 20
128.824559
 30
0.0
 10
20.052239
 20
127.886501
 30
0.0
 10
20.386939
 20
126.856288
 30
0.0
 10
20.500205
 20
125.779160
 30
0.0
 10
20.386939
 20
124.702032
 30
0.0
 10
20.052239
 20
123.671820
 30
0.0
 10
19.510707
 20
122.733761
 30
0.0
 10
18.785968
 20
121.928788
 30
0.0
 10
17.909689
 20
121.292325
 30
0.0
 10
16.920144
 20
120.851660
 30
0.0
 10
15.860753
 20
120.626421
 30
0.0
  0
SPLINE
  5
12b
100
AcDbEntity
  8
0
 62
7
100
AcDbSpline
 70
8
 71
3
 72
8
 73
4
 74
0
 40
0
 40
0
 40
0
 40
0
 40
1
 40
1
 40
1
 40
1
 10
337.191223
 20
106.327917
 30
0.0
 10
11.692843
 20
106.327917
 30
0.0
 10
11.692843
 20
106.327917
 30
0.0
 10
11.692843
 20
106.327917
 30
0.0
  0
LWPOLYLINE
  5
12c
100
AcDbEntity
  8
0
 62
7
100
AcDbPolyline
 90
4
 70
1
 10
337.191223
 20
106.327917
 30
0.0
 10
337.191223
 20
113.782834
 30
0.0
 10
344.443883
 20
113.782834
 30
0.0
 10
344.443883
 20
106.327917
 30
0.0
  0
SPLINE
  5
12d
100
AcDbEntity
  8
0
 62
7
100
AcDbSpline
 70
8
 71
3
 72
8
 73
4
 74
0
 40
0
 40
0
 40
0
 40
0
 40
1
 40
1
 40
1
 40
1
 10
11.692843
 20
106.327917
 30
0.0
 10
157.773351
 20
99.149704
 30
0.0
 10
157.773351
 20
99.149704
 30
0.0
 10
157.773351
 20
99.149704
 30
0.0
  0
LWPOLYLINE
  5
12e
100
AcDbEntity
  8
0
 62
7
100
AcDbPolyline
 90
4
 70
1
 10
11.692843
 20
106.327917
 30
0.0
 10
11.692843
 20
113.782834
 30
0.0
 10
18.945431
 20
113.782834
 30
0.0
 10
18.945431
 20
106.327917
 30
0.0
  0
LWPOLYLINE
  5
12f
100
AcDbEntity
  8
0
 62
7
100
AcDbPolyline
 90
30
 70
1
 10
157.773351
 20
99.149704
 30
0.0
 10
156.713936
 20
99.374943
 30
0.0
 10
155.724415
 20
99.815368
 30
0.0
 10
154.848112
 20
100.452070
 30
0.0
 10
154.123564
 20
101.257042
 30
0.0
 10
153.581888
 20
102.194862
 30
0.0
 10
153.247261
 20
103.225074
 30
0.0
 10
153.134043
 20
104.302440
 30
0.0
 10
153.247261
 20
105.379567
 30
0.0
 10
153.581888
 20
106.409779
 30
0.0
 10
154.123564
 20
107.347598
 30
0.0
 10
154.848112
 20
108.152571
 30
0.0
 10
155.724415
 20
108.789273
 30
0.0
 10
156.713936
 20
109.229698
 30
0.0
 10
157.773351
 20
109.454937
 30
0.0
 10
158.856702
 20
109.454937
 30
0.0
 10
159.916117
 20
109.229698
 30
0.0
 10
160.905638
 20
108.789273
 30
0.0
 10
161.781941
 20
108.152571
 30
0.0
 10
162.506729
 20
107.347598
 30
0.0
 10
163.048165
 20
106.409779
 30
0.0
 10
163.382793
 20
105.379567
 30
0.0
 10
163.496011
 20
104.302440
 30
0.0
 10
163.382793
 20
103.225074
 30
0.0
 10
163.048165
 20
102.194862
 30
0.0
 10
162.506729
 20
101.257042
 30
0.0
 10
161.781941
 20
100.452070
 30
0.0
 10
160.905638
 20
99.815368
 30
0.0
 10
159.916117
 20
99.374943
 30
0.0
 10
158.856702
 20
99.149704
 30
0.0
  0
SPLINE
  5
130
100
AcDbEntity
  8
0
 62
7
100
AcDbSpline
 70
8
 71
3
 72
8
 73
4
 74
0
 40
0
 40
0
 40
0
 40
0
 40
1
 40
1
 40
1
 40
1
 10
356.340160
 20
354.389074
 30
0.0
 10
337.191223
 20
279.868912
 30
0.0
 10
337.191223
 20
279.868912
 30
0.0
 10
337.191223
 20
279.868912
 30
0.0
  0
LWPOLYLINE
  5
131
100
AcDbEntity
  8
0
 62
7
100
AcDbPolyline
 90
4
 70
0
 10
-0.203473
 20
354.389074
 30
0.0
 10
-0.203473
 20
157.227697
 30
0.0
 10
356.340160
 20
157.227697
 30
0.0
 10
356.340160
 20
354.389074
 30
0.0
  0
SPLINE
  5
132
100
AcDbEntity
  8
0
 62
7
100
AcDbSpline
 70
8
 71
3
 72
8
 73
4
 74
0
 40
0
 40
0
 40
0
 40
0
 40
1
 40
1
 40
1
 40
1
 10
337.191223
 20
279.868912
 30
0.0
 10
47.465426
 20
194.735676
 30
0.0
 10
47.465426
 20
194.735676
 30
0.0
 10
47.465426
 20
194.735676
 30
0.0
  0
LWPOLYLINE
  5
133
100
AcDbEntity
  8
0
 62
7
100
AcDbPolyline
 90
4
 70
1
 10
337.191223
 20
279.868912
 30
0.0
 10
337.191223
 20
327.173692
 30
0.0
 10
344.443883
 20
327.173692
 30
0.0
 10
344.443883
 20
279.868912
 30
0.0
  0
SPLINE
  5
134
100
AcDbEntity
  8
0
 62
7
100
AcDbSpline
 70
8
 71
3
 72
8
 73
4
 74
0
 40
0
 40
0
 40
0
 40
0
 40
1
 40
1
 40
1
 40
1
 10
47.465426
 20
194.735676
 30
0.0
 10
11.692843
 20
279.868912
 30
0.0
 10
11.692843
 20
279.868912
 30
0.0
 10
11.692843
 20
279.868912
 30
0.0
  0
LWPOLYLINE
  5
135
100
AcDbEntity
  8
0
 62
7
100
AcDbPolyline
 90
4
 70
1
 10
47.465426
 20
194.735676
 30
0.0
 10
47.465426
 20
327.173692
 30
0.0
 10
291.686170
 20
327.173692
 30
0.0
 10
291.686170
 20
194.735676
 30
0.0
  0
SPLINE
  5
136
100
AcDbEntity
  8
0
 62
7
100
AcDbSpline
 70
8
 71
3
 72
8
 73
4
 74
0
 40
0
 40
0
 40
0
 40
0
 40
1
 40
1
 40
1
 40
1
 10
11.692843
 20
279.868912
 30
0.0
 10
14.241973
 20
250.741151
 30
0.0
 10
14.241973
 20
250.741151
 30
0.0
 10
14.241973
 20
250.741151
 30
0.0
  0
LWPOLYLINE
  5
137
100
AcDbEntity
  8
0
 62
7
100
AcDbPolyline
 90
4
 70
1
 10
11.692843
 20
279.868912
 30
0.0
 10
11.692843
 20
327.173692
 30
0.0
 10
18.945431
 20
327.173692
 30
0.0
 10
18.945431
 20
279.868912
 30
0.0
  0
SPLINE
  5
138
100
AcDbEntity
  8
0
 62
7
100
AcDbSpline
 70
8
 71
3
 72
8
 73
4
 74
0
 40
0
 40
0
 40
0
 40
0
 40
1
 40
1
 40
1
 40
1
 10
14.241973
 20
250.741151
 30
0.0
 10
339.740426
 20
250.741151
 30
0.0
 10
339.740426
 20
250.741151
 30
0.0
 10
339.740426
 20
250.741151
 30
0.0
  0
LWPOLYLINE
  5
139
100
AcDbEntity
  8
0
 62
7
100
AcDbPolyline
 90
30
 70
1
 10
14.241973
 20
250.741151
 30
0.0
 10
13.211785
 20
251.076251
 30
0.0
 10
12.273822
 20
251.617208
 30
0.0
 10
11.468872
 20
252.342467
 30
0.0
 10
10.832242
 20
253.218531
 30
0.0
 10
10.391697
 20
254.207087
 30
0.0
 10
10.166481
 20
255.267452
 30
0.0
 10
10.166481
 20
256.349360
 30
0.0
 10
10.391697
 20
257.409725
 30
0.0
 10
10.832242
 20
258.398282
 30
0.0
 10
11.468872
 20
259.276739
 30
0.0
 10
12.273822
 20
259.999605
 30
0.0
 10
13.211785
 20
260.542956
 30
0.0
 10
14.241973
 20
260.875668
 30
0.0
 10
15.319125
 20
260.990562
 30
0.0
 10
16.396301
 20
260.875668
 30
0.0
 10
17.426489
 20
260.542956
 30
0.0
 10
18.364452
 20
259.999605
 30
0.0
 10
19.169378
 20
259.276739
 30
0.0
 10
19.806032
 20
258.398282
 30
0.0
 10
20.246577
 20
257.409725
 30
0.0
 10
20.471793
 20
256.349360
 30
0.0
 10
20.471793
 20
255.267452
 30
0.0
 10
20.246577
 20
254.207087
 30
0.0
 10
19.806032
 20
253.218531
 30
0.0
 10
19.169378
 20
252.342467
 30
0.0
 10
18.364452
 20
251.617208
 30
0.0
 10
17.426489
 20
251.076251
 30
0.0
 10
16.396301
 20
250.741151
 30
0.0
 10
15.319125
 20
250.628651
 30
0.0
  0
SPLINE
  5
13a
100
AcDbEntity
  8
0
 62
7
100
AcDbSpline
 70
8
 71
3
 72
8
 73
4
 74
0
 40
0
 40
0
 40
0
 40
0
 40
1
 40
1
 40
1
 40
1
 10
339.740426
 20
250.741151
 30
0.0
 10
337.191223
 20
184.443123
 30
0.0
 10
337.191223
 20
184.443123
 30
0.0
 10
337.191223
 20
184.443123
 30
0.0
  0
LWPOLYLINE
  5
13b
100
AcDbEntity
  8
0
 62
7
100
AcDbPolyline
 90
30
 70
1
 10
339.740426
 20
250.741151
 30
0.0
 10
338.708777
 20
251.076251
 30
0.0
 10
337.770479
 20
251.617208
 30
0.0
 10
336.966223
 20
252.342467
 30
0.0
 10
336.329521
 20
253.218531
 30
0.0
 10
335.889096
 20
254.207087
 30
0.0
 10
335.664096
 20
255.267452
 30
0.0
 10
335.664096
 20
256.349360
 30
0.0
 10
335.889096
 20
257.409725
 30
0.0
 10
336.329521
 20
258.398282
 30
0.0
 10
336.966223
 20
259.276739
 30
0.0
 10
337.770479
 20
259.999605
 30
0.0
 10
338.708777
 20
260.542956
 30
0.0
 10
339.740426
 20
260.875668
 30
0.0
 10
340.817553
 20
260.990562
 30
0.0
 10
341.894681
 20
260.875668
 30
0.0
 10
342.923936
 20
260.542956
 30
0.0
 10
343.862234
 20
259.999605
 30
0.0
 10
344.666489
 20
259.276739
 30
0.0
 10
345.303191
 20
258.398282
 30
0.0
 10
345.743617
 20
257.409725
 30
0.0
 10
345.968617
 20
256.349360
 30
0.0
 10
345.968617
 20
255.267452
 30
0.0
 10
345.743617
 20
254.207087
 30
0.0
 10
345.303191
 20
253.218531
 30
0.0
 10
344.666489
 20
252.342467
 30
0.0
 10
343.862234
 20
251.617208
 30
0.0
 10
342.923936
 20
251.076251
 30
0.0
 10
341.894681
 20
250.741151
 30
0.0
 10
340.817553
 20
250.628651
 30
0.0
  0
SPLINE
  5
13c
100
AcDbEntity
  8
0
 62
7
100
AcDbSpline
 70
8
 71
3
 72
8
 73
4
 74
0
 40
0
 40
0
 40
0
 40
0
 40
1
 40
1
 40
1
 40
1
 10
337.191223
 20
184.443123
 30
0.0
 10
11.692843
 20
184.443123
 30
0.0
 10
11.692843
 20
184.443123
 30
0.0
 10
11.692843
 20
184.443123
 30
0.0
  0
LWPOLYLINE
  5
13d
100
AcDbEntity
  8
0
 62
7
100
AcDbPolyline
 90
4
 70
1
 10
337.191223
 20
184.443123
 30
0.0
 10
337.191223
 20
231.747908
 30
0.0
 10
344.443883
 20
231.747908
 30
0.0
 10
344.443883
 20
184.443123
 30
0.0
  0
LWPOLYLINE
  5
13e
100
AcDbEntity
  8
0
 62
7
100
AcDbPolyline
 90
4
 70
1
 10
11.692843
 20
184.443123
 30
0.0
 10
11.692843
 20
231.747908
 30
0.0
 10
18.945431
 20
231.747908
 30
0.0
 10
18.945431
 20
184.443123
 30
0.0
  0
SPLINE
  5
13f
100
AcDbEntity
  8
0
 62
7
100
AcDbSpline
 70
8
 71
3
 72
8
 73
4
 74
0
 40
0
 40
0
 40
0
 40
0
 40
1
 40
1
 40
1
 40
1
 10
356.340160
 20
313.218984
 30
0.0
 10
356.340160
 20
169.674506
 30
0.0
 10
356.340160
 20
169.674506
 30
0.0
 10
356.340160
 20
169.674506
 30
0.0
  0
LWPOLYLINE
  5
140
100
AcDbEntity
  8
0
 62
7
100
AcDbPolyline
 90
56
 70
0
 10
376.602128
 20
169.674506
 30
0.0
 10
383.009840
 20
169.674506
 30
0.0
 10
383.009840
 20
176.783548
 30
0.0
 10
379.778457
 20
176.783548
 30
0.0
 10
379.778457
 20
184.514931
 30
0.0
 10
383.009840
 20
184.514931
 30
0.0
 10
383.009840
 20
193.131953
 30
0.0
 10
393.374202
 20
193.131953
 30
0.0
 10
393.374202
 20
184.514931
 30
0.0
 10
396.605585
 20
184.514931
 30
0.0
 10
396.605585
 20
176.783548
 30
0.0
 10
393.374202
 20
176.783548
 30
0.0
 10
393.374202
 20
169.674506
 30
0.0
 10
399.781915
 20
169.674506
 30
0.0
 10
399.781915
 20
162.014931
 30
0.0
 10
408.049468
 20
162.014931
 30
0.0
 10
408.049468
 20
169.674506
 30
0.0
 10
427.301330
 20
169.674506
 30
0.0
 10
427.301330
 20
217.794346
 30
0.0
 10
419.641755
 20
217.794346
 30
0.0
 10
419.641755
 20
236.264635
 30
0.0
 10
412.532713
 20
236.264635
 30
0.0
 10
412.532713
 20
233.033266
 30
0.0
 10
404.801330
 20
233.033266
 30
0.0
 10
404.801330
 20
236.264635
 30
0.0
 10
396.184309
 20
236.264635
 30
0.0
 10
396.184309
 20
246.628939
 30
0.0
 10
404.801330
 20
246.628939
 30
0.0
 10
404.801330
 20
249.860300
 30
0.0
 10
412.532713
 20
249.860300
 30
0.0
 10
412.532713
 20
246.628939
 30
0.0
 10
419.641755
 20
246.628939
 30
0.0
 10
419.641755
 20
265.100374
 30
0.0
 10
427.301330
 20
265.100374
 30
0.0
 10
427.301330
 20
313.218984
 30
0.0
 10
408.049468
 20
313.218984
 30
0.0
 10
408.049468
 20
320.878515
 30
0.0
 10
399.781915
 20
320.878515
 30
0.0
 10
399.781915
 20
313.218984
 30
0.0
 10
393.374202
 20
313.218984
 30
0.0
 10
393.374202
 20
306.109984
 30
0.0
 10
396.605585
 20
306.109984
 30
0.0
 10
396.605585
 20
298.378644
 30
0.0
 10
393.374202
 20
298.378644
 30
0.0
 10
393.374202
 20
289.761673
 30
0.0
 10
383.009840
 20
289.761673
 30
0.0
 10
383.009840
 20
298.378644
 30
0.0
 10
379.778457
 20
298.378644
 30
0.0
 10
379.778457
 20
306.109984
 30
0.0
 10
383.009840
 20
306.109984
 30
0.0
 10
383.009840
 20
313.218984
 30
0.0
 10
376.602128
 20
313.218984
 30
0.0
 10
376.602128
 20
320.878515
 30
0.0
 10
368.334574
 20
320.878515
 30
0.0
 10
368.334574
 20
313.218984
 30
0.0
 10
356.340160
 20
313.218984
 30
0.0
  0
SPLINE
  5
141
100
AcDbEntity
  8
0
 62
7
100
AcDbSpline
 70
8
 71
3
 72
8
 73
4
 74
0
 40
0
 40
0
 40
0
 40
0
 40
1
 40
1
 40
1
 40
1
 10
376.602128
 20
169.674506
 30
0.0
 10
369.588830
 20
236.379528
 30
0.0
 10
369.588830
 20
236.379528
 30
0.0
 10
369.588830
 20
236.379528
 30
0.0
  0
LWPOLYLINE
  5
142
100
AcDbEntity
  8
0
 62
7
100
AcDbPolyline
 90
5
 70
0
 10
356.340160
 20
169.674506
 30
0.0
 10
368.334574
 20
169.674506
 30
0.0
 10
368.334574
 20
162.014931
 30
0.0
 10
376.602128
 20
162.014931
 30
0.0
 10
376.602128
 20
169.674506
 30
0.0
  0
LWPOLYLINE
  5
143
100
AcDbEntity
  8
0
 62
7
100
AcDbPolyline
 90
30
 70
1
 10
369.588830
 20
236.379528
 30
0.0
 10
368.557181
 20
236.714635
 30
0.0
 10
367.618883
 20
237.255585
 30
0.0
 10
366.814628
 20
237.980851
 30
0.0
 10
366.177926
 20
238.856907
 30
0.0
 10
365.737500
 20
239.845464
 30
0.0
 10
365.512500
 20
240.905829
 30
0.0
 10
365.512500
 20
241.987737
 30
0.0
 10
365.737500
 20
243.048109
 30
0.0
 10
366.177926
 20
244.036666
 30
0.0
 10
366.814628
 20
244.912723
 30
0.0
 10
367.618883
 20
245.637989
 30
0.0
 10
368.557181
 20
246.181332
 30
0.0
 10
369.588830
 20
246.514045
 30
0.0
 10
370.665957
 20
246.628939
 30
0.0
 10
371.743085
 20
246.514045
 30
0.0
 10
372.772340
 20
246.181332
 30
0.0
 10
373.710638
 20
245.637989
 30
0.0
 10
374.514894
 20
244.912723
 30
0.0
 10
375.151596
 20
244.036666
 30
0.0
 10
375.592021
 20
243.048109
 30
0.0
 10
375.817021
 20
241.987737
 30
0.0
 10
375.817021
 20
240.905829
 30
0.0
 10
375.592021
 20
239.845464
 30
0.0
 10
375.151596
 20
238.856907
 30
0.0
 10
374.514894
 20
237.980851
 30
0.0
 10
373.710638
 20
237.255585
 30
0.0
 10
372.772340
 20
236.714635
 30
0.0
 10
371.743085
 20
236.379528
 30
0.0
 10
370.665957
 20
236.267028
 30
0.0
  0
SPLINE
  5
144
100
AcDbEntity
  8
0
 62
7
100
AcDbSpline
 70
8
 71
3
 72
8
 73
4
 74
0
 40
0
 40
0
 40
0
 40
0
 40
1
 40
1
 40
1
 40
1
 10
408.049468
 20
162.014931
 30
0.0
 10
399.781915
 20
162.014931
 30
0.0
 10
399.781915
 20
162.014931
 30
0.0
 10
399.781915
 20
162.014931
 30
0.0
  0
LWPOLYLINE
  5
145
100
AcDbEntity
  8
0
 62
7
100
AcDbPolyline
 90
37
 70
0
 10
376.602128
 20
10.810173
 30
0.0
 10
383.009840
 20
10.810173
 30
0.0
 10
383.009840
 20
17.919215
 30
0.0
 10
379.778457
 20
17.919215
 30
0.0
 10
379.778457
 20
25.650598
 30
0.0
 10
383.009840
 20
25.650598
 30
0.0
 10
383.009840
 20
34.267620
 30
0.0
 10
393.374202
 20
34.267620
 30
0.0
 10
393.374202
 20
25.650598
 30
0.0
 10
396.605585
 20
25.650598
 30
0.0
 10
396.605585
 20
17.919215
 30
0.0
 10
393.374202
 20
17.919215
 30
0.0
 10
393.374202
 20
10.810173
 30
0.0
 10
399.781915
 20
10.810173
 30
0.0
 10
399.781915
 20
3.150713
 30
0.0
 10
408.049468
 20
3.150713
 30
0.0
 10
408.049468
 20
10.810173
 30
0.0
 10
427.301330
 20
10.810173
 30
0.0
 10
427.301330
 20
58.930013
 30
0.0
 10
419.641755
 20
58.930013
 30
0.0
 10
419.641755
 20
77.400833
 30
0.0
 10
412.532713
 20
77.400833
 30
0.0
 10
412.532713
 20
74.169452
 30
0.0
 10
404.801330
 20
74.169452
 30
0.0
 10
404.801330
 20
77.400833
 30
0.0
 10
396.184309
 20
77.400833
 30
0.0
 10
396.184309
 20
87.764950
 30
0.0
 10
404.801330
 20
87.764950
 30
0.0
 10
404.801330
 20
90.996331
 30
0.0
 10
412.532713
 20
90.996331
 30
0.0
 10
412.532713
 20
87.764950
 30
0.0
 10
419.641755
 20
87.764950
 30
0.0
 10
419.641755
 20
106.235764
 30
0.0
 10
427.301330
 20
106.235764
 30
0.0
 10
427.301330
 20
154.355357
 30
0.0
 10
408.049468
 20
154.355357
 30
0.0
 10
408.049468
 20
162.014931
 30
0.0
  0
SPLINE
  5
146
100
AcDbEntity
  8
0
 62
7
100
AcDbSpline
 70
8
 71
3
 72
8
 73
4
 74
0
 40
0
 40
0
 40
0
 40
0
 40
1
 40
1
 40
1
 40
1
 10
376.602128
 20
162.014931
 30
0.0
 10
368.334574
 20
162.014931
 30
0.0
 10
368.334574
 20
162.014931
 30
0.0
 10
368.334574
 20
162.014931
 30
0.0
  0
LWPOLYLINE
  5
147
100
AcDbEntity
  8
0
 62
7
100
AcDbPolyline
 90
16
 70
0
 10
399.781915
 20
162.014931
 30
0.0
 10
399.781915
 20
154.355357
 30
0.0
 10
393.374202
 20
154.355357
 30
0.0
 10
393.374202
 20
147.246314
 30
0.0
 10
396.605585
 20
147.246314
 30
0.0
 10
396.605585
 20
139.515171
 30
0.0
 10
393.374202
 20
139.515171
 30
0.0
 10
393.374202
 20
130.898149
 30
0.0
 10
383.009840
 20
130.898149
 30
0.0
 10
383.009840
 20
139.515171
 30
0.0
 10
379.778457
 20
139.515171
 30
0.0
 10
379.778457
 20
147.246314
 30
0.0
 10
383.009840
 20
147.246314
 30
0.0
 10
383.009840
 20
154.355357
 30
0.0
 10
376.602128
 20
154.355357
 30
0.0
 10
376.602128
 20
162.014931
 30
0.0
  0
SPLINE
  5
148
100
AcDbEntity
  8
0
 62
7
100
AcDbSpline
 70
8
 71
3
 72
8
 73
4
 74
0
 40
0
 40
0
 40
0
 40
0
 40
1
 40
1
 40
1
 40
1
 10
356.340160
 20
154.355357
 30
0.0
 10
356.340160
 20
157.227697
 30
0.0
 10
356.340160
 20
157.227697
 30
0.0
 10
356.340160
 20
157.227697
 30
0.0
  0
LWPOLYLINE
  5
149
100
AcDbEntity
  8
0
 62
7
100
AcDbPolyline
 90
3
 70
0
 10
368.334574
 20
162.014931
 30
0.0
 10
368.334574
 20
154.355357
 30
0.0
 10
356.340160
 20
154.355357
 30
0.0
  0
SPLINE
  5
14a
100
AcDbEntity
  8
0
 62
7
100
AcDbSpline
 70
8
 71
3
 72
8
 73
4
 74
0
 40
0
 40
0
 40
0
 40
0
 40
1
 40
1
 40
1
 40
1
 10
356.340160
 20
-14.136374
 30
0.0
 10
356.340160
 20
10.810173
 30
0.0
 10
356.340160
 20
10.810173
 30
0.0
 10
356.340160
 20
10.810173
 30
0.0
  0
LWPOLYLINE
  5
14b
100
AcDbEntity
  8
0
 62
7
100
AcDbPolyline
 90
2
 70
0
 10
356.340160
 20
157.227697
 30
0.0
 10
356.340160
 20
-14.136374
 30
0.0
  0
SPLINE
  5
14c
100
AcDbEntity
  8
0
 62
7
100
AcDbSpline
 70
8
 71
3
 72
8
 73
4
 74
0
 40
0
 40
0
 40
0
 40
0
 40
1
 40
1
 40
1
 40
1
 10
376.602128
 20
10.810173
 30
0.0
 10
369.588830
 20
77.515009
 30
0.0
 10
369.588830
 20
77.515009
 30
0.0
 10
369.588830
 20
77.515009
 30
0.0
  0
LWPOLYLINE
  5
14d
100
AcDbEntity
  8
0
 62
7
100
AcDbPolyline
 90
5
 70
0
 10
356.340160
 20
10.810173
 30
0.0
 10
368.334574
 20
10.810173
 30
0.0
 10
368.334574
 20
3.150713
 30
0.0
 10
376.602128
 20
3.150713
 30
0.0
 10
376.602128
 20
10.810173
 30
0.0
  0
LWPOLYLINE
  5
14e
100
AcDbEntity
  8
0
 62
7
100
AcDbPolyline
 90
30
 70
1
 10
369.588830
 20
77.515009
 30
0.0
 10
368.557181
 20
77.849636
 30
0.0
 10
367.618883
 20
78.391312
 30
0.0
 10
366.814628
 20
79.116098
 30
0.0
 10
366.177926
 20
79.992401
 30
0.0
 10
365.737500
 20
80.981921
 30
0.0
 10
365.512500
 20
82.041336
 30
0.0
 10
365.512500
 20
83.124447
 30
0.0
 10
365.737500
 20
84.183862
 30
0.0
 10
366.177926
 20
85.173382
 30
0.0
 10
366.814628
 20
86.049685
 30
0.0
 10
367.618883
 20
86.774472
 30
0.0
 10
368.557181
 20
87.315907
 30
0.0
 10
369.588830
 20
87.650774
 30
0.0
 10
370.665957
 20
87.763992
 30
0.0
 10
371.743085
 20
87.650774
 30
0.0
 10
372.772340
 20
87.315907
 30
0.0
 10
373.710638
 20
86.774472
 30
0.0
 10
374.514894
 20
86.049685
 30
0.0
 10
375.151596
 20
85.173382
 30
0.0
 10
375.592021
 20
84.183862
 30
0.0
 10
375.817021
 20
83.124447
 30
0.0
 10
375.817021
 20
82.041336
 30
0.0
 10
375.592021
 20
80.981921
 30
0.0
 10
375.151596
 20
79.992401
 30
0.0
 10
374.514894
 20
79.116098
 30
0.0
 10
373.710638
 20
78.391312
 30
0.0
 10
372.772340
 20
77.849636
 30
0.0
 10
371.743085
 20
77.515009
 30
0.0
 10
370.665957
 20
77.401791
 30
0.0
  0
LWPOLYLINE
  5
14f
100
AcDbEntity
  8
0
 62
7
100
AcDbPolyline
 90
20
 70
1
 10
114.458697
 20
111.342063
 30
0.0
 10
150.283245
 20
111.342063
 30
0.0
 10
150.283245
 20
117.086741
 30
0.0
 10
157.942819
 20
117.086741
 30
0.0
 10
157.942819
 20
136.642830
 30
0.0
 10
150.283245
 20
136.642830
 30
0.0
 10
150.283245
 20
150.046846
 30
0.0
 10
114.051782
 20
150.046846
 30
0.0
 10
114.051782
 20
142.387272
 30
0.0
 10
78.634388
 20
142.387272
 30
0.0
 10
78.634388
 20
150.046846
 30
0.0
 10
42.402926
 20
150.046846
 30
0.0
 10
42.402926
 20
136.642830
 30
0.0
 10
27.083777
 20
136.642830
 30
0.0
 10
27.083777
 20
117.086741
 30
0.0
 10
42.402926
 20
117.086741
 30
0.0
 10
42.402926
 20
111.342063
 30
0.0
 10
78.227234
 20
111.342063
 30
0.0
 10
78.227234
 20
103.682494
 30
0.0
 10
114.458697
 20
103.682494
 30
0.0
  0
SPLINE
  5
150
100
AcDbEntity
  8
0
 62
7
100
AcDbSpline
 70
8
 71
3
 72
8
 73
4
 74
0
 40
0
 40
0
 40
0
 40
0
 40
1
 40
1
 40
1
 40
1
 10
79.104973
 20
354.389074
 30
0.0
 10
115.336436
 20
354.389074
 30
0.0
 10
115.336436
 20
354.389074
 30
0.0
 10
115.336436
 20
354.389074
 30
0.0
  0
LWPOLYLINE
  5
151
100
AcDbEntity
  8
0
 62
7
100
AcDbPolyline
 90
3
 70
0
 10
43.687580
 20
362.048649
 30
0.0
 10
79.104973
 20
362.048649
 30
0.0
 10
79.104973
 20
354.389074
 30
0.0
  0
SPLINE
  5
152
100
AcDbEntity
  8
0
 62
7
100
AcDbSpline
 70
8
 71
3
 72
8
 73
4
 74
0
 40
0
 40
0
 40
0
 40
0
 40
1
 40
1
 40
1
 40
1
 10
7.456141
 20
354.389074
 30
0.0
 10
43.687580
 20
354.389074
 30
0.0
 10
43.687580
 20
354.389074
 30
0.0
 10
43.687580
 20
354.389074
 30
0.0
  0
LWPOLYLINE
  5
153
100
AcDbEntity
  8
0
 62
7
100
AcDbPolyline
 90
16
 70
0
 10
115.336436
 20
354.389074
 30
0.0
 10
115.336436
 20
367.793330
 30
0.0
 10
130.655585
 20
367.793330
 30
0.0
 10
130.655585
 20
387.349181
 30
0.0
 10
115.336436
 20
387.349181
 30
0.0
 10
115.336436
 20
393.093862
 30
0.0
 10
79.512128
 20
393.093862
 30
0.0
 10
79.512128
 20
400.753436
 30
0.0
 10
43.280665
 20
400.753436
 30
0.0
 10
43.280665
 20
393.093862
 30
0.0
 10
7.456141
 20
393.093862
 30
0.0
 10
7.456141
 20
387.349181
 30
0.0
 10
-0.203473
 20
387.349181
 30
0.0
 10
-0.203473
 20
367.793330
 30
0.0
 10
7.456141
 20
367.793330
 30
0.0
 10
7.456141
 20
354.389074
 30
0.0
  0
LWPOLYLINE
  5
154
100
AcDbEntity
  8
0
 62
7
100
AcDbPolyline
 90
2
 70
0
 10
43.687580
 20
354.389074
 30
0.0
 10
43.687580
 20
362.048649
 30
0.0
  0
SPLINE
  5
155
100
AcDbEntity
  8
0
 62
7
100
AcDbSpline
 70
8
 71
3
 72
8
 73
4
 74
0
 40
0
 40
0
 40
0
 40
0
 40
1
 40
1
 40
1
 40
1
 10
209.964016
 20
354.389074
 30
0.0
 10
246.195479
 20
354.389074
 30
0.0
 10
246.195479
 20
354.389074
 30
0.0
 10
246.195479
 20
354.389074
 30
0.0
  0
LWPOLYLINE
  5
156
100
AcDbEntity
  8
0
 62
7
100
AcDbPolyline
 90
3
 70
0
 10
174.546622
 20
362.048649
 30
0.0
 10
209.964016
 20
362.048649
 30
0.0
 10
209.964016
 20
354.389074
 30
0.0
  0
SPLINE
  5
157
100
AcDbEntity
  8
0
 62
7
100
AcDbSpline
 70
8
 71
3
 72
8
 73
4
 74
0
 40
0
 40
0
 40
0
 40
0
 40
1
 40
1
 40
1
 40
1
 10
130.655585
 20
387.349181
 30
0.0
 10
130.655585
 20
367.793330
 30
0.0
 10
130.655585
 20
367.793330
 30
0.0
 10
130.655585
 20
367.793330
 30
0.0
  0
LWPOLYLINE
  5
158
100
AcDbEntity
  8
0
 62
7
100
AcDbPolyline
 90
13
 70
0
 10
246.195479
 20
354.389074
 30
0.0
 10
246.195479
 20
367.793330
 30
0.0
 10
261.514628
 20
367.793330
 30
0.0
 10
261.514628
 20
387.349181
 30
0.0
 10
246.195479
 20
387.349181
 30
0.0
 10
246.195479
 20
393.093862
 30
0.0
 10
210.371170
 20
393.093862
 30
0.0
 10
210.371170
 20
400.753436
 30
0.0
 10
174.139707
 20
400.753436
 30
0.0
 10
174.139707
 20
393.093862
 30
0.0
 10
138.315160
 20
393.093862
 30
0.0
 10
138.315160
 20
387.349181
 30
0.0
 10
130.655585
 20
387.349181
 30
0.0
  0
SPLINE
  5
159
100
AcDbEntity
  8
0
 62
7
100
AcDbSpline
 70
8
 71
3
 72
8
 73
4
 74
0
 40
0
 40
0
 40
0
 40
0
 40
1
 40
1
 40
1
 40
1
 10
138.315160
 20
354.389074
 30
0.0
 10
174.546622
 20
354.389074
 30
0.0
 10
174.546622
 20
354.389074
 30
0.0
 10
174.546622
 20
354.389074
 30
0.0
  0
LWPOLYLINE
  5
15a
100
AcDbEntity
  8
0
 62
7
100
AcDbPolyline
 90
3
 70
0
 10
130.655585
 20
367.793330
 30
0.0
 10
138.315160
 20
367.793330
 30
0.0
 10
138.315160
 20
354.389074
 30
0.0
  0
LWPOLYLINE
  5
15b
100
AcDbEntity
  8
0
 62
7
100
AcDbPolyline
 90
2
 70
0
 10
174.546622
 20
354.389074
 30
0.0
 10
174.546622
 20
362.048649
 30
0.0
  0
SPLINE
  5
15c
100
AcDbEntity
  8
0
 62
7
100
AcDbSpline
 70
8
 71
3
 72
8
 73
4
 74
0
 40
0
 40
0
 40
0
 40
0
 40
1
 40
1
 40
1
 40
1
 10
340.822340
 20
354.389074
 30
0.0
 10
-0.203473
 20
354.389074
 30
0.0
 10
-0.203473
 20
354.389074
 30
0.0
 10
-0.203473
 20
354.389074
 30
0.0
  0
LWPOLYLINE
  5
15d
100
AcDbEntity
  8
0
 62
7
100
AcDbPolyline
 90
3
 70
0
 10
305.406383
 20
362.048649
 30
0.0
 10
340.822340
 20
362.048649
 30
0.0
 10
340.822340
 20
354.389074
 30
0.0
  0
SPLINE
  5
15e
100
AcDbEntity
  8
0
 62
7
100
AcDbSpline
 70
8
 71
3
 72
8
 73
4
 74
0
 40
0
 40
0
 40
0
 40
0
 40
1
 40
1
 40
1
 40
1
 10
261.514628
 20
387.349181
 30
0.0
 10
261.514628
 20
367.793330
 30
0.0
 10
261.514628
 20
367.793330
 30
0.0
 10
261.514628
 20
367.793330
 30
0.0
  0
LWPOLYLINE
  5
15f
100
AcDbEntity
  8
0
 62
7
100
AcDbPolyline
 90
14
 70
0
 10
-0.203473
 20
354.389074
 30
0.0
 10
377.054521
 20
354.389074
 30
0.0
 10
377.054521
 20
367.793330
 30
0.0
 10
392.373670
 20
367.793330
 30
0.0
 10
392.373670
 20
387.349181
 30
0.0
 10
377.054521
 20
387.349181
 30
0.0
 10
377.054521
 20
393.093862
 30
0.0
 10
341.229255
 20
393.093862
 30
0.0
 10
341.229255
 20
400.753436
 30
0.0
 10
304.999468
 20
400.753436
 30
0.0
 10
304.999468
 20
393.093862
 30
0.0
 10
269.174202
 20
393.093862
 30
0.0
 10
269.174202
 20
387.349181
 30
0.0
 10
261.514628
 20
387.349181
 30
0.0
  0
SPLINE
  5
160
100
AcDbEntity
  8
0
 62
7
100
AcDbSpline
 70
8
 71
3
 72
8
 73
4
 74
0
 40
0
 40
0
 40
0
 40
0
 40
1
 40
1
 40
1
 40
1
 10
269.174202
 20
354.389074
 30
0.0
 10
305.406383
 20
354.389074
 30
0.0
 10
305.406383
 20
354.389074
 30
0.0
 10
305.406383
 20
354.389074
 30
0.0
  0
LWPOLYLINE
  5
161
100
AcDbEntity
  8
0
 62
7
100
AcDbPolyline
 90
3
 70
0
 10
261.514628
 20
367.793330
 30
0.0
 10
269.174202
 20
367.793330
 30
0.0
 10
269.174202
 20
354.389074
 30
0.0
  0
LWPOLYLINE
  5
162
100
AcDbEntity
  8
0
 62
7
100
AcDbPolyline
 90
2
 70
0
 10
305.406383
 20
354.389074
 30
0.0
 10
305.406383
 20
362.048649
 30
0.0
  0
LWPOLYLINE
  5
163
100
AcDbEntity
  8
0
 62
7
100
AcDbPolyline
 90
12
 70
1
 10
35.150266
 20
30.116848
 30
0.0
 10
42.402926
 20
30.116848
 30
0.0
 10
42.402926
 20
17.579082
 30
0.0
 10
81.107713
 20
17.579082
 30
0.0
 10
81.107713
 20
30.116848
 30
0.0
 10
88.360372
 20
30.116848
 30
0.0
 10
88.360372
 20
6.180724
 30
0.0
 10
94.990691
 20
6.180724
 30
0.0
 10
94.990691
 20
40.098231
 30
0.0
 10
28.519947
 20
40.098231
 30
0.0
 10
28.519947
 20
6.180724
 30
0.0
 10
35.150266
 20
6.180724
 30
0.0
  0
SPLINE
  5
164
100
AcDbEntity
  8
0
 62
7
100
AcDbSpline
 70
8
 71
3
 72
8
 73
4
 74
0
 40
0
 40
0
 40
0
 40
0
 40
1
 40
1
 40
1
 40
1
 10
28.519947
 20
40.098231
 30
0.0
 10
94.990691
 20
40.098231
 30
0.0
 10
94.990691
 20
40.098231
 30
0.0
 10
94.990691
 20
40.098231
 30
0.0
  0
LWPOLYLINE
  5
165
100
AcDbEntity
  8
0
 62
7
100
AcDbPolyline
 90
11
 70
0
 10
94.990691
 20
74.015782
 30
0.0
 10
88.360372
 20
74.015782
 30
0.0
 10
88.360372
 20
50.079614
 30
0.0
 10
81.107713
 20
50.079614
 30
0.0
 10
81.107713
 20
62.617620
 30
0.0
 10
42.402926
 20
62.617620
 30
0.0
 10
42.402926
 20
50.079614
 30
0.0
 10
35.150266
 20
50.079614
 30
0.0
 10
35.150266
 20
74.015782
 30
0.0
 10
28.519947
 20
74.015782
 30
0.0
 10
28.519947
 20
40.098231
 30
0.0
  0
LWPOLYLINE
  5
166
100
AcDbEntity
  8
0
 62
7
100
AcDbPolyline
 90
2
 70
0
 10
94.990691
 20
40.098231
 30
0.0
 10
94.990691
 20
74.015782
 30
0.0
  0
SPLINE
  5
167
100
AcDbEntity
  8
0
 62
7
100
AcDbSpline
 70
8
 71
3
 72
8
 73
4
 74
0
 40
0
 40
0
 40
0
 40
0
 40
1
 40
1
 40
1
 40
1
 10
116.048059
 20
203.513070
 30
0.0
 10
108.678590
 20
310.456764
 30
0.0
 10
108.678590
 20
310.456764
 30
0.0
 10
108.678590
 20
310.456764
 30
0.0
  0
LWPOLYLINE
  5
168
100
AcDbEntity
  8
0
 62
7
100
AcDbPolyline
 90
60
 70
1
 10
116.048059
 20
203.513070
 30
0.0
 10
122.019415
 20
204.459027
 30
0.0
 10
127.859122
 20
206.023735
 30
0.0
 10
133.503271
 20
208.190197
 30
0.0
 10
138.889867
 20
210.934958
 30
0.0
 10
143.960266
 20
214.227618
 30
0.0
 10
148.658697
 20
218.032272
 30
0.0
 10
152.933697
 20
222.307272
 30
0.0
 10
156.738351
 20
227.006174
 30
0.0
 10
160.031011
 20
232.075826
 30
0.0
 10
162.775771
 20
237.463830
 30
0.0
 10
164.942234
 20
243.105556
 30
0.0
 10
166.506941
 20
248.945946
 30
0.0
 10
167.452899
 20
254.917984
 30
0.0
 10
167.769096
 20
260.954651
 30
0.0
 10
167.452899
 20
266.991324
 30
0.0
 10
166.506941
 20
272.963363
 30
0.0
 10
164.942234
 20
278.803752
 30
0.0
 10
162.775771
 20
284.447872
 30
0.0
 10
160.031011
 20
289.833482
 30
0.0
 10
156.738351
 20
294.903134
 30
0.0
 10
152.933697
 20
299.601776
 30
0.0
 10
148.658697
 20
303.876754
 30
0.0
 10
143.960266
 20
307.682584
 30
0.0
 10
138.889867
 20
310.973785
 30
0.0
 10
133.503271
 20
313.719250
 30
0.0
 10
127.859122
 20
315.885459
 30
0.0
 10
122.019415
 20
317.450877
 30
0.0
 10
116.048059
 20
318.396349
 30
0.0
 10
110.010878
 20
318.712306
 30
0.0
 10
103.973457
 20
318.396349
 30
0.0
 10
98.002101
 20
317.450877
 30
0.0
 10
92.162394
 20
315.885459
 30
0.0
 10
86.518245
 20
313.719250
 30
0.0
 10
81.131649
 20
310.973785
 30
0.0
 10
76.061250
 20
307.682584
 30
0.0
 10
71.362819
 20
303.876754
 30
0.0
 10
67.088059
 20
299.601776
 30
0.0
 10
63.283165
 20
294.903134
 30
0.0
 10
59.990505
 20
289.833482
 30
0.0
 10
57.245745
 20
284.447872
 30
0.0
 10
55.079282
 20
278.803752
 30
0.0
 10
53.514574
 20
272.963363
 30
0.0
 10
52.568856
 20
266.991324
 30
0.0
 10
52.252420
 20
260.954651
 30
0.0
 10
52.568856
 20
254.917984
 30
0.0
 10
53.514574
 20
248.945946
 30
0.0
 10
55.079282
 20
243.105556
 30
0.0
 10
57.245745
 20
237.463830
 30
0.0
 10
59.990505
 20
232.075826
 30
0.0
 10
63.283165
 20
227.006174
 30
0.0
 10
67.088059
 20
222.307272
 30
0.0
 10
71.362819
 20
218.032272
 30
0.0
 10
76.061250
 20
214.227618
 30
0.0
 10
81.131649
 20
210.934958
 30
0.0
 10
86.518245
 20
208.190197
 30
0.0
 10
92.162394
 20
206.023735
 30
0.0
 10
98.002101
 20
204.459027
 30
0.0
 10
103.973457
 20
203.513070
 30
0.0
 10
110.010878
 20
203.196873
 30
0.0
  0
SPLINE
  5
169
100
AcDbEntity
  8
0
 62
7
100
AcDbSpline
 70
8
 71
3
 72
8
 73
4
 74
0
 40
0
 40
0
 40
0
 40
0
 40
1
 40
1
 40
1
 40
1
 10
108.678590
 20
310.456757
 30
0.0
 10
100.573803
 20
309.820062
 30
0.0
 10
100.573803
 20
309.820062
 30
0.0
 10
100.573803
 20
309.820062
 30
0.0
  0
LWPOLYLINE
  5
16a
100
AcDbEntity
  8
0
 62
7
100
AcDbPolyline
 90
15
 70
1
 10
108.678590
 20
310.456764
 30
0.0
 10
107.855426
 20
311.198785
 30
0.0
 10
107.404707
 20
312.211278
 30
0.0
 10
107.404707
 20
313.319516
 30
0.0
 10
107.855426
 20
314.329615
 30
0.0
 10
108.678590
 20
315.071636
 30
0.0
 10
109.732261
 20
315.413916
 30
0.0
 10
110.834043
 20
315.299023
 30
0.0
 10
111.793644
 20
314.743703
 30
0.0
 10
112.444707
 20
313.848498
 30
0.0
 10
112.675213
 20
312.764197
 30
0.0
 10
112.444707
 20
311.679888
 30
0.0
 10
111.793644
 20
310.784682
 30
0.0
 10
110.834043
 20
310.231764
 30
0.0
 10
109.732261
 20
310.114477
 30
0.0
  0
SPLINE
  5
16b
100
AcDbEntity
  8
0
 62
7
100
AcDbSpline
 70
8
 71
3
 72
8
 73
4
 74
0
 40
0
 40
0
 40
0
 40
0
 40
1
 40
1
 40
1
 40
1
 10
100.573803
 20
309.820062
 30
0.0
 10
116.783378
 20
309.820062
 30
0.0
 10
116.783378
 20
309.820062
 30
0.0
 10
116.783378
 20
309.820062
 30
0.0
  0
LWPOLYLINE
  5
16c
100
AcDbEntity
  8
0
 62
7
100
AcDbPolyline
 90
15
 70
1
 10
100.573803
 20
309.820062
 30
0.0
 10
99.750399
 20
310.559682
 30
0.0
 10
99.299920
 20
311.572175
 30
0.0
 10
99.299920
 20
312.680420
 30
0.0
 10
99.750399
 20
313.692913
 30
0.0
 10
100.573803
 20
314.434927
 30
0.0
 10
101.627473
 20
314.777214
 30
0.0
 10
102.729255
 20
314.659927
 30
0.0
 10
103.688617
 20
314.107001
 30
0.0
 10
104.339920
 20
313.209402
 30
0.0
 10
104.570186
 20
312.127494
 30
0.0
 10
104.339920
 20
311.043193
 30
0.0
 10
103.688617
 20
310.145594
 30
0.0
 10
102.729255
 20
309.592668
 30
0.0
 10
101.627473
 20
309.477775
 30
0.0
  0
SPLINE
  5
16d
100
AcDbEntity
  8
0
 62
7
100
AcDbSpline
 70
8
 71
3
 72
8
 73
4
 74
0
 40
0
 40
0
 40
0
 40
0
 40
1
 40
1
 40
1
 40
1
 10
116.783378
 20
309.820062
 30
0.0
 10
92.668404
 20
307.921931
 30
0.0
 10
92.668404
 20
307.921931
 30
0.0
 10
92.668404
 20
307.921931
 30
0.0
  0
LWPOLYLINE
  5
16e
100
AcDbEntity
  8
0
 62
7
100
AcDbPolyline
 90
15
 70
1
 10
116.783378
 20
309.820062
 30
0.0
 10
115.960213
 20
310.559682
 30
0.0
 10
115.509495
 20
311.572175
 30
0.0
 10
115.509495
 20
312.680420
 30
0.0
 10
115.960213
 20
313.692913
 30
0.0
 10
116.783378
 20
314.434927
 30
0.0
 10
117.837287
 20
314.777214
 30
0.0
 10
118.939069
 20
314.659927
 30
0.0
 10
119.898431
 20
314.107001
 30
0.0
 10
120.549734
 20
313.209402
 30
0.0
 10
120.780000
 20
312.127494
 30
0.0
 10
120.549734
 20
311.043193
 30
0.0
 10
119.898431
 20
310.145594
 30
0.0
 10
118.939069
 20
309.592668
 30
0.0
 10
117.837048
 20
309.477775
 30
0.0
  0
SPLINE
  5
16f
100
AcDbEntity
  8
0
 62
7
100
AcDbSpline
 70
8
 71
3
 72
8
 73
4
 74
0
 40
0
 40
0
 40
0
 40
0
 40
1
 40
1
 40
1
 40
1
 10
92.668404
 20
307.921924
 30
0.0
 10
124.688777
 20
307.921924
 30
0.0
 10
124.688777
 20
307.921924
 30
0.0
 10
124.688777
 20
307.921924
 30
0.0
  0
LWPOLYLINE
  5
170
100
AcDbEntity
  8
0
 62
7
100
AcDbPolyline
 90
15
 70
1
 10
92.668404
 20
307.921931
 30
0.0
 10
91.845239
 20
308.663952
 30
0.0
 10
91.394521
 20
309.674051
 30
0.0
 10
91.394521
 20
310.782289
 30
0.0
 10
91.845239
 20
311.794782
 30
0.0
 10
92.668404
 20
312.536803
 30
0.0
 10
93.722074
 20
312.879083
 30
0.0
 10
94.824096
 20
312.761796
 30
0.0
 10
95.783457
 20
312.208870
 30
0.0
 10
96.434521
 20
311.313665
 30
0.0
 10
96.665027
 20
310.229363
 30
0.0
 10
96.434521
 20
309.145055
 30
0.0
 10
95.783457
 20
308.249849
 30
0.0
 10
94.824096
 20
307.694537
 30
0.0
 10
93.722074
 20
307.579644
 30
0.0
  0
SPLINE
  5
171
100
AcDbEntity
  8
0
 62
7
100
AcDbSpline
 70
8
 71
3
 72
8
 73
4
 74
0
 40
0
 40
0
 40
0
 40
0
 40
1
 40
1
 40
1
 40
1
 10
124.688777
 20
307.921916
 30
0.0
 10
85.157473
 20
304.810236
 30
0.0
 10
85.157473
 20
304.810236
 30
0.0
 10
85.157473
 20
304.810236
 30
0.0
  0
LWPOLYLINE
  5
172
100
AcDbEntity
  8
0
 62
7
100
AcDbPolyline
 90
15
 70
1
 10
124.688777
 20
307.921924
 30
0.0
 10
123.865372
 20
308.663945
 30
0.0
 10
123.414894
 20
309.674044
 30
0.0
 10
123.414894
 20
310.782282
 30
0.0
 10
123.865372
 20
311.794774
 30
0.0
 10
124.688777
 20
312.536796
 30
0.0
 10
125.742447
 20
312.879076
 30
0.0
 10
126.844229
 20
312.761789
 30
0.0
 10
127.803830
 20
312.208863
 30
0.0
 10
128.454894
 20
311.313657
 30
0.0
 10
128.685399
 20
310.229356
 30
0.0
 10
128.454894
 20
309.145048
 30
0.0
 10
127.803830
 20
308.249842
 30
0.0
 10
126.844229
 20
307.694530
 30
0.0
 10
125.742447
 20
307.579636
 30
0.0
  0
SPLINE
  5
173
100
AcDbEntity
  8
0
 62
7
100
AcDbSpline
 70
8
 71
3
 72
8
 73
4
 74
0
 40
0
 40
0
 40
0
 40
0
 40
1
 40
1
 40
1
 40
1
 10
85.157473
 20
304.810236
 30
0.0
 10
132.199947
 20
304.810236
 30
0.0
 10
132.199947
 20
304.810236
 30
0.0
 10
132.199947
 20
304.810236
 30
0.0
  0
LWPOLYLINE
  5
174
100
AcDbEntity
  8
0
 62
7
100
AcDbPolyline
 90
15
 70
1
 10
85.157473
 20
304.810236
 30
0.0
 10
84.334069
 20
305.552250
 30
0.0
 10
83.883351
 20
306.564743
 30
0.0
 10
83.883351
 20
307.670594
 30
0.0
 10
84.334069
 20
308.683087
 30
0.0
 10
85.157473
 20
309.425101
 30
0.0
 10
86.211144
 20
309.767388
 30
0.0
 10
87.312926
 20
309.652494
 30
0.0
 10
88.272287
 20
309.097175
 30
0.0
 10
88.923590
 20
308.201970
 30
0.0
 10
89.153856
 20
307.117668
 30
0.0
 10
88.923590
 20
306.033367
 30
0.0
 10
88.272287
 20
305.138161
 30
0.0
 10
87.312926
 20
304.582842
 30
0.0
 10
86.211144
 20
304.467949
 30
0.0
  0
SPLINE
  5
175
100
AcDbEntity
  8
0
 62
7
100
AcDbSpline
 70
8
 71
3
 72
8
 73
4
 74
0
 40
0
 40
0
 40
0
 40
0
 40
1
 40
1
 40
1
 40
1
 10
132.199947
 20
304.810236
 30
0.0
 10
78.225559
 20
300.561587
 30
0.0
 10
78.225559
 20
300.561587
 30
0.0
 10
78.225559
 20
300.561587
 30
0.0
  0
LWPOLYLINE
  5
176
100
AcDbEntity
  8
0
 62
7
100
AcDbPolyline
 90
15
 70
1
 10
132.199947
 20
304.810236
 30
0.0
 10
131.376543
 20
305.552250
 30
0.0
 10
130.926064
 20
306.564743
 30
0.0
 10
130.926064
 20
307.670594
 30
0.0
 10
131.376543
 20
308.683087
 30
0.0
 10
132.199947
 20
309.425101
 30
0.0
 10
133.253617
 20
309.767388
 30
0.0
 10
134.355399
 20
309.652494
 30
0.0
 10
135.314761
 20
309.097175
 30
0.0
 10
135.966064
 20
308.201970
 30
0.0
 10
136.196330
 20
307.117668
 30
0.0
 10
135.966064
 20
306.033367
 30
0.0
 10
135.314761
 20
305.138161
 30
0.0
 10
134.355399
 20
304.582842
 30
0.0
 10
133.253617
 20
304.467949
 30
0.0
  0
SPLINE
  5
177
100
AcDbEntity
  8
0
 62
7
100
AcDbSpline
 70
8
 71
3
 72
8
 73
4
 74
0
 40
0
 40
0
 40
0
 40
0
 40
1
 40
1
 40
1
 40
1
 10
78.225559
 20
300.561587
 30
0.0
 10
139.131862
 20
300.561587
 30
0.0
 10
139.131862
 20
300.561587
 30
0.0
 10
139.131862
 20
300.561587
 30
0.0
  0
LWPOLYLINE
  5
178
100
AcDbEntity
  8
0
 62
7
100
AcDbPolyline
 90
15
 70
1
 10
78.225559
 20
300.561587
 30
0.0
 10
77.402154
 20
301.303609
 30
0.0
 10
76.951676
 20
302.316101
 30
0.0
 10
76.951676
 20
303.424339
 30
0.0
 10
77.402154
 20
304.436832
 30
0.0
 10
78.225559
 20
305.176459
 30
0.0
 10
79.279229
 20
305.518739
 30
0.0
 10
80.381011
 20
305.403846
 30
0.0
 10
81.340372
 20
304.850927
 30
0.0
 10
81.991676
 20
303.953328
 30
0.0
 10
82.221941
 20
302.869020
 30
0.0
 10
81.991676
 20
301.787112
 30
0.0
 10
81.340372
 20
300.889513
 30
0.0
 10
80.381011
 20
300.336587
 30
0.0
 10
79.279229
 20
300.219300
 30
0.0
  0
SPLINE
  5
179
100
AcDbEntity
  8
0
 62
7
100
AcDbSpline
 70
8
 71
3
 72
8
 73
4
 74
0
 40
0
 40
0
 40
0
 40
0
 40
1
 40
1
 40
1
 40
1
 10
139.131862
 20
300.561587
 30
0.0
 10
72.043324
 20
295.283690
 30
0.0
 10
72.043324
 20
295.283690
 30
0.0
 10
72.043324
 20
295.283690
 30
0.0
  0
LWPOLYLINE
  5
17a
100
AcDbEntity
  8
0
 62
7
100
AcDbPolyline
 90
15
 70
1
 10
139.131862
 20
300.561587
 30
0.0
 10
138.308457
 20
301.303609
 30
0.0
 10
137.857739
 20
302.316101
 30
0.0
 10
137.857739
 20
303.424339
 30
0.0
 10
138.308457
 20
304.436832
 30
0.0
 10
139.131862
 20
305.176459
 30
0.0
 10
140.185532
 20
305.518739
 30
0.0
 10
141.287314
 20
305.403846
 30
0.0
 10
142.246676
 20
304.850927
 30
0.0
 10
142.897979
 20
303.953328
 30
0.0
 10
143.128245
 20
302.869020
 30
0.0
 10
142.897979
 20
301.787112
 30
0.0
 10
142.246676
 20
300.889513
 30
0.0
 10
141.287314
 20
300.336587
 30
0.0
 10
140.185532
 20
300.219300
 30
0.0
  0
SPLINE
  5
17b
100
AcDbEntity
  8
0
 62
7
100
AcDbSpline
 70
8
 71
3
 72
8
 73
4
 74
0
 40
0
 40
0
 40
0
 40
0
 40
1
 40
1
 40
1
 40
1
 10
72.043324
 20
295.283683
 30
0.0
 10
145.313856
 20
295.283683
 30
0.0
 10
145.313856
 20
295.283683
 30
0.0
 10
145.313856
 20
295.283683
 30
0.0
  0
LWPOLYLINE
  5
17c
100
AcDbEntity
  8
0
 62
7
100
AcDbPolyline
 90
15
 70
1
 10
72.043324
 20
295.283690
 30
0.0
 10
71.220160
 20
296.023318
 30
0.0
 10
70.769441
 20
297.035811
 30
0.0
 10
70.769441
 20
298.144048
 30
0.0
 10
71.220160
 20
299.156541
 30
0.0
 10
72.043324
 20
299.896169
 30
0.0
 10
73.096995
 20
300.240843
 30
0.0
 10
74.199016
 20
300.123555
 30
0.0
 10
75.158378
 20
299.570630
 30
0.0
 10
75.809681
 20
298.673031
 30
0.0
 10
76.039947
 20
297.591123
 30
0.0
 10
75.809681
 20
296.506814
 30
0.0
 10
75.158378
 20
295.609215
 30
0.0
 10
74.199016
 20
295.056297
 30
0.0
 10
73.097234
 20
294.939010
 30
0.0
  0
SPLINE
  5
17d
100
AcDbEntity
  8
0
 62
7
100
AcDbSpline
 70
8
 71
3
 72
8
 73
4
 74
0
 40
0
 40
0
 40
0
 40
0
 40
1
 40
1
 40
1
 40
1
 10
145.313856
 20
295.283676
 30
0.0
 10
66.763484
 20
289.100999
 30
0.0
 10
66.763484
 20
289.100999
 30
0.0
 10
66.763484
 20
289.100999
 30
0.0
  0
LWPOLYLINE
  5
17e
100
AcDbEntity
  8
0
 62
7
100
AcDbPolyline
 90
15
 70
1
 10
145.313856
 20
295.283683
 30
0.0
 10
144.490452
 20
296.023311
 30
0.0
 10
144.039973
 20
297.035804
 30
0.0
 10
144.039973
 20
298.144041
 30
0.0
 10
144.490452
 20
299.156534
 30
0.0
 10
145.313856
 20
299.896162
 30
0.0
 10
146.367527
 20
300.240835
 30
0.0
 10
147.469309
 20
300.123548
 30
0.0
 10
148.428670
 20
299.570623
 30
0.0
 10
149.079973
 20
298.673023
 30
0.0
 10
149.310239
 20
297.591116
 30
0.0
 10
149.079973
 20
296.506807
 30
0.0
 10
148.428670
 20
295.609208
 30
0.0
 10
147.469309
 20
295.056290
 30
0.0
 10
146.367527
 20
294.939002
 30
0.0
  0
SPLINE
  5
17f
100
AcDbEntity
  8
0
 62
7
100
AcDbSpline
 70
8
 71
3
 72
8
 73
4
 74
0
 40
0
 40
0
 40
0
 40
0
 40
1
 40
1
 40
1
 40
1
 10
66.763484
 20
289.100992
 30
0.0
 10
150.593697
 20
289.100992
 30
0.0
 10
150.593697
 20
289.100992
 30
0.0
 10
150.593697
 20
289.100992
 30
0.0
  0
LWPOLYLINE
  5
180
100
AcDbEntity
  8
0
 62
7
100
AcDbPolyline
 90
15
 70
1
 10
66.763484
 20
289.100999
 30
0.0
 10
65.940080
 20
289.843020
 30
0.0
 10
65.489601
 20
290.853120
 30
0.0
 10
65.489601
 20
291.961357
 30
0.0
 10
65.940080
 20
292.973850
 30
0.0
 10
66.763484
 20
293.715871
 30
0.0
 10
67.817154
 20
294.058151
 30
0.0
 10
68.918936
 20
293.940864
 30
0.0
 10
69.878298
 20
293.387946
 30
0.0
 10
70.529601
 20
292.492740
 30
0.0
 10
70.760106
 20
291.408432
 30
0.0
 10
70.529601
 20
290.324130
 30
0.0
 10
69.878298
 20
289.428925
 30
0.0
 10
68.918936
 20
288.873606
 30
0.0
 10
67.817154
 20
288.758712
 30
0.0
  0
SPLINE
  5
181
100
AcDbEntity
  8
0
 62
7
100
AcDbSpline
 70
8
 71
3
 72
8
 73
4
 74
0
 40
0
 40
0
 40
0
 40
0
 40
1
 40
1
 40
1
 40
1
 10
150.593697
 20
289.100985
 30
0.0
 10
62.515532
 20
282.169113
 30
0.0
 10
62.515532
 20
282.169113
 30
0.0
 10
62.515532
 20
282.169113
 30
0.0
  0
LWPOLYLINE
  5
182
100
AcDbEntity
  8
0
 62
7
100
AcDbPolyline
 90
15
 70
1
 10
150.593697
 20
289.100992
 30
0.0
 10
149.770532
 20
289.843013
 30
0.0
 10
149.319814
 20
290.853120
 30
0.0
 10
149.319814
 20
291.961357
 30
0.0
 10
149.770532
 20
292.973850
 30
0.0
 10
150.593697
 20
293.715871
 30
0.0
 10
151.647367
 20
294.058151
 30
0.0
 10
152.749388
 20
293.940864
 30
0.0
 10
153.708750
 20
293.387946
 30
0.0
 10
154.360053
 20
292.492740
 30
0.0
 10
154.590319
 20
291.408432
 30
0.0
 10
154.360053
 20
290.324130
 30
0.0
 10
153.708750
 20
289.428918
 30
0.0
 10
152.749388
 20
288.873598
 30
0.0
 10
151.647367
 20
288.758705
 30
0.0
  0
SPLINE
  5
183
100
AcDbEntity
  8
0
 62
7
100
AcDbSpline
 70
8
 71
3
 72
8
 73
4
 74
0
 40
0
 40
0
 40
0
 40
0
 40
1
 40
1
 40
1
 40
1
 10
62.515532
 20
282.169127
 30
0.0
 10
154.841649
 20
282.169127
 30
0.0
 10
154.841649
 20
282.169127
 30
0.0
 10
154.841649
 20
282.169127
 30
0.0
  0
LWPOLYLINE
  5
184
100
AcDbEntity
  8
0
 62
7
100
AcDbPolyline
 90
15
 70
1
 10
62.515532
 20
282.169113
 30
0.0
 10
61.692367
 20
282.911127
 30
0.0
 10
61.241649
 20
283.921226
 30
0.0
 10
61.241649
 20
285.029478
 30
0.0
 10
61.692367
 20
286.041978
 30
0.0
 10
62.515532
 20
286.783992
 30
0.0
 10
63.569202
 20
287.126280
 30
0.0
 10
64.671223
 20
287.008992
 30
0.0
 10
65.630585
 20
286.456067
 30
0.0
 10
66.281649
 20
285.560861
 30
0.0
 10
66.512154
 20
284.476560
 30
0.0
 10
66.281649
 20
283.392259
 30
0.0
 10
65.630585
 20
282.497046
 30
0.0
 10
64.671223
 20
281.941734
 30
0.0
 10
63.569202
 20
281.826840
 30
0.0
  0
SPLINE
  5
185
100
AcDbEntity
  8
0
 62
7
100
AcDbSpline
 70
8
 71
3
 72
8
 73
4
 74
0
 40
0
 40
0
 40
0
 40
0
 40
1
 40
1
 40
1
 40
1
 10
154.841649
 20
282.169127
 30
0.0
 10
100.639867
 20
276.477135
 30
0.0
 10
100.639867
 20
276.477135
 30
0.0
 10
100.639867
 20
276.477135
 30
0.0
  0
LWPOLYLINE
  5
186
100
AcDbEntity
  8
0
 62
7
100
AcDbPolyline
 90
15
 70
1
 10
154.841649
 20
282.169127
 30
0.0
 10
154.018484
 20
282.911141
 30
0.0
 10
153.567766
 20
283.921241
 30
0.0
 10
153.567766
 20
285.029478
 30
0.0
 10
154.018484
 20
286.041978
 30
0.0
 10
154.841649
 20
286.783992
 30
0.0
 10
155.895319
 20
287.126280
 30
0.0
 10
156.997101
 20
287.008992
 30
0.0
 10
157.956702
 20
286.456067
 30
0.0
 10
158.607766
 20
285.560861
 30
0.0
 10
158.838271
 20
284.476560
 30
0.0
 10
158.607766
 20
283.392259
 30
0.0
 10
157.956702
 20
282.497046
 30
0.0
 10
156.997101
 20
281.941734
 30
0.0
 10
155.895319
 20
281.826840
 30
0.0
  0
SPLINE
  5
187
100
AcDbEntity
  8
0
 62
7
100
AcDbSpline
 70
8
 71
3
 72
8
 73
4
 74
0
 40
0
 40
0
 40
0
 40
0
 40
1
 40
1
 40
1
 40
1
 10
100.639867
 20
276.477135
 30
0.0
 10
59.404309
 20
274.658000
 30
0.0
 10
59.404309
 20
274.658000
 30
0.0
 10
59.404309
 20
274.658000
 30
0.0
  0
LWPOLYLINE
  5
188
100
AcDbEntity
  8
0
 62
7
100
AcDbPolyline
 90
4
 70
1
 10
100.639867
 20
276.477135
 30
0.0
 10
100.639867
 20
283.729751
 30
0.0
 10
119.381888
 20
283.729751
 30
0.0
 10
119.381649
 20
276.477135
 30
0.0
  0
SPLINE
  5
189
100
AcDbEntity
  8
0
 62
7
100
AcDbSpline
 70
8
 71
3
 72
8
 73
4
 74
0
 40
0
 40
0
 40
0
 40
0
 40
1
 40
1
 40
1
 40
1
 10
59.404309
 20
274.658000
 30
0.0
 10
157.952872
 20
274.658000
 30
0.0
 10
157.952872
 20
274.658000
 30
0.0
 10
157.952872
 20
274.658000
 30
0.0
  0
LWPOLYLINE
  5
18a
100
AcDbEntity
  8
0
 62
7
100
AcDbPolyline
 90
15
 70
1
 10
59.404309
 20
274.658000
 30
0.0
 10
58.581144
 20
275.400014
 30
0.0
 10
58.130426
 20
276.410114
 30
0.0
 10
58.130426
 20
277.518351
 30
0.0
 10
58.581144
 20
278.530851
 30
0.0
 10
59.404309
 20
279.272865
 30
0.0
 10
60.457979
 20
279.615152
 30
0.0
 10
61.560000
 20
279.497865
 30
0.0
 10
62.519362
 20
278.944940
 30
0.0
 10
63.170665
 20
278.049734
 30
0.0
 10
63.400931
 20
276.965433
 30
0.0
 10
63.170665
 20
275.881131
 30
0.0
 10
62.519362
 20
274.985919
 30
0.0
 10
61.560000
 20
274.430607
 30
0.0
 10
60.457979
 20
274.315713
 30
0.0
  0
SPLINE
  5
18b
100
AcDbEntity
  8
0
 62
7
100
AcDbSpline
 70
8
 71
3
 72
8
 73
4
 74
0
 40
0
 40
0
 40
0
 40
0
 40
1
 40
1
 40
1
 40
1
 10
157.952872
 20
274.658000
 30
0.0
 10
57.506410
 20
266.751926
 30
0.0
 10
57.506410
 20
266.751926
 30
0.0
 10
57.506410
 20
266.751926
 30
0.0
  0
LWPOLYLINE
  5
18c
100
AcDbEntity
  8
0
 62
7
100
AcDbPolyline
 90
15
 70
1
 10
157.952872
 20
274.658000
 30
0.0
 10
157.129468
 20
275.400014
 30
0.0
 10
156.678989
 20
276.410114
 30
0.0
 10
156.678989
 20
277.518351
 30
0.0
 10
157.129468
 20
278.530851
 30
0.0
 10
157.952872
 20
279.272865
 30
0.0
 10
159.006543
 20
279.615152
 30
0.0
 10
160.108324
 20
279.497865
 30
0.0
 10
161.067926
 20
278.944940
 30
0.0
 10
161.718989
 20
278.049734
 30
0.0
 10
161.949255
 20
276.965433
 30
0.0
 10
161.718989
 20
275.881131
 30
0.0
 10
161.067926
 20
274.985919
 30
0.0
 10
160.108324
 20
274.430607
 30
0.0
 10
159.006543
 20
274.315713
 30
0.0
  0
SPLINE
  5
18d
100
AcDbEntity
  8
0
 62
7
100
AcDbSpline
 70
8
 71
3
 72
8
 73
4
 74
0
 40
0
 40
0
 40
0
 40
0
 40
1
 40
1
 40
1
 40
1
 10
57.506410
 20
266.751926
 30
0.0
 10
159.850771
 20
266.751926
 30
0.0
 10
159.850771
 20
266.751926
 30
0.0
 10
159.850771
 20
266.751926
 30
0.0
  0
LWPOLYLINE
  5
18e
100
AcDbEntity
  8
0
 62
7
100
AcDbPolyline
 90
15
 70
1
 10
57.506410
 20
266.751926
 30
0.0
 10
56.683245
 20
267.493940
 30
0.0
 10
56.232527
 20
268.506433
 30
0.0
 10
56.232527
 20
269.614678
 30
0.0
 10
56.683245
 20
270.624777
 30
0.0
 10
57.506410
 20
271.366791
 30
0.0
 10
58.560080
 20
271.709078
 30
0.0
 10
59.662101
 20
271.594185
 30
0.0
 10
60.621463
 20
271.038866
 30
0.0
 10
61.272766
 20
270.143660
 30
0.0
 10
61.503032
 20
269.059359
 30
0.0
 10
61.272766
 20
267.975057
 30
0.0
 10
60.621463
 20
267.079852
 30
0.0
 10
59.662101
 20
266.526926
 30
0.0
 10
58.560080
 20
266.409639
 30
0.0
  0
SPLINE
  5
18f
100
AcDbEntity
  8
0
 62
7
100
AcDbSpline
 70
8
 71
3
 72
8
 73
4
 74
0
 40
0
 40
0
 40
0
 40
0
 40
1
 40
1
 40
1
 40
1
 10
159.850771
 20
266.751926
 30
0.0
 10
125.533484
 20
251.583661
 30
0.0
 10
125.533484
 20
251.583661
 30
0.0
 10
125.533484
 20
251.583661
 30
0.0
  0
LWPOLYLINE
  5
190
100
AcDbEntity
  8
0
 62
7
100
AcDbPolyline
 90
15
 70
1
 10
159.850771
 20
266.751926
 30
0.0
 10
159.027367
 20
267.493940
 30
0.0
 10
158.576888
 20
268.506433
 30
0.0
 10
158.576888
 20
269.614678
 30
0.0
 10
159.027367
 20
270.624777
 30
0.0
 10
159.850771
 20
271.366791
 30
0.0
 10
160.904441
 20
271.709078
 30
0.0
 10
162.006223
 20
271.594185
 30
0.0
 10
162.965824
 20
271.038866
 30
0.0
 10
163.616888
 20
270.143660
 30
0.0
 10
163.847394
 20
269.059359
 30
0.0
 10
163.616888
 20
267.975057
 30
0.0
 10
162.965824
 20
267.079852
 30
0.0
 10
162.006223
 20
266.526926
 30
0.0
 10
160.904441
 20
266.409639
 30
0.0
  0
SPLINE
  5
191
100
AcDbEntity
  8
0
 62
7
100
AcDbSpline
 70
8
 71
3
 72
8
 73
4
 74
0
 40
0
 40
0
 40
0
 40
0
 40
1
 40
1
 40
1
 40
1
 10
125.533484
 20
251.583661
 30
0.0
 10
87.235612
 20
251.583661
 30
0.0
 10
87.235612
 20
251.583661
 30
0.0
 10
87.235612
 20
251.583661
 30
0.0
  0
LWPOLYLINE
  5
192
100
AcDbEntity
  8
0
 62
7
100
AcDbPolyline
 90
4
 70
1
 10
125.533484
 20
251.583661
 30
0.0
 10
125.533484
 20
270.325575
 30
0.0
 10
132.786144
 20
270.325575
 30
0.0
 10
132.786144
 20
251.583661
 30
0.0
  0
SPLINE
  5
193
100
AcDbEntity
  8
0
 62
7
100
AcDbSpline
 70
8
 71
3
 72
8
 73
4
 74
0
 40
0
 40
0
 40
0
 40
0
 40
1
 40
1
 40
1
 40
1
 10
87.235612
 20
251.583661
 30
0.0
 10
109.316250
 20
255.458906
 30
0.0
 10
109.316250
 20
255.458906
 30
0.0
 10
109.316250
 20
255.458906
 30
0.0
  0
LWPOLYLINE
  5
194
100
AcDbEntity
  8
0
 62
7
100
AcDbPolyline
 90
4
 70
1
 10
87.235612
 20
251.583661
 30
0.0
 10
87.235612
 20
270.325575
 30
0.0
 10
94.488271
 20
270.325575
 30
0.0
 10
94.488271
 20
251.583661
 30
0.0
  0
SPLINE
  5
195
100
AcDbEntity
  8
0
 62
7
100
AcDbSpline
 70
8
 71
3
 72
8
 73
4
 74
0
 40
0
 40
0
 40
0
 40
0
 40
1
 40
1
 40
1
 40
1
 10
109.316250
 20
255.458906
 30
0.0
 10
146.132713
 20
257.093739
 30
0.0
 10
146.132713
 20
257.093739
 30
0.0
 10
146.132713
 20
257.093739
 30
0.0
  0
LWPOLYLINE
  5
196
100
AcDbEntity
  8
0
 62
7
100
AcDbPolyline
 90
34
 70
1
 10
109.316250
 20
255.458906
 30
0.0
 10
108.632872
 20
255.588161
 30
0.0
 10
107.971037
 20
255.803587
 30
0.0
 10
107.341516
 20
256.100388
 30
0.0
 10
106.754122
 20
256.471399
 30
0.0
 10
106.623910
 20
256.579111
 30
0.0
 10
106.623910
 20
260.159941
 30
0.0
 10
98.246250
 20
260.159941
 30
0.0
 10
98.246250
 20
261.749295
 30
0.0
 10
106.623910
 20
261.749295
 30
0.0
 10
106.623910
 20
265.330125
 30
0.0
 10
106.754122
 20
265.437838
 30
0.0
 10
107.341516
 20
265.811242
 30
0.0
 10
107.971037
 20
266.105650
 30
0.0
 10
108.632872
 20
266.321075
 30
0.0
 10
109.316250
 20
266.452724
 30
0.0
 10
110.010878
 20
266.495809
 30
0.0
 10
110.705266
 20
266.452724
 30
0.0
 10
111.388883
 20
266.321075
 30
0.0
 10
112.050479
 20
266.105650
 30
0.0
 10
112.680000
 20
265.811242
 30
0.0
 10
113.267633
 20
265.437838
 30
0.0
 10
113.397846
 20
265.330125
 30
0.0
 10
113.397846
 20
261.749295
 30
0.0
 10
121.775505
 20
261.749295
 30
0.0
 10
121.775505
 20
260.159941
 30
0.0
 10
113.397846
 20
260.159941
 30
0.0
 10
113.397606
 20
256.579111
 30
0.0
 10
113.267394
 20
256.471399
 30
0.0
 10
112.680000
 20
256.100388
 30
0.0
 10
112.050479
 20
255.803587
 30
0.0
 10
111.388644
 20
255.588161
 30
0.0
 10
110.705266
 20
255.458906
 30
0.0
 10
110.010878
 20
255.413427
 30
0.0
  0
SPLINE
  5
197
100
AcDbEntity
  8
0
 62
7
100
AcDbSpline
 70
8
 71
3
 72
8
 73
4
 74
0
 40
0
 40
0
 40
0
 40
0
 40
1
 40
1
 40
1
 40
1
 10
146.132713
 20
257.093739
 30
0.0
 10
56.868511
 20
258.647182
 30
0.0
 10
56.868511
 20
258.647182
 30
0.0
 10
56.868511
 20
258.647182
 30
0.0
  0
LWPOLYLINE
  5
198
100
AcDbEntity
  8
0
 62
7
100
AcDbPolyline
 90
15
 70
1
 10
146.132713
 20
257.093739
 30
0.0
 10
144.754707
 20
258.333626
 30
0.0
 10
144.000479
 20
260.028292
 30
0.0
 10
144.000479
 20
261.883338
 30
0.0
 10
144.754707
 20
263.575611
 30
0.0
 10
146.132713
 20
264.817891
 30
0.0
 10
147.896330
 20
265.389965
 30
0.0
 10
149.740612
 20
265.196082
 30
0.0
 10
151.346489
 20
264.269760
 30
0.0
 10
152.436543
 20
262.768969
 30
0.0
 10
152.822154
 20
260.954615
 30
0.0
 10
152.436543
 20
259.140267
 30
0.0
 10
151.346489
 20
257.641870
 30
0.0
 10
149.740612
 20
256.713154
 30
0.0
 10
147.896330
 20
256.519271
 30
0.0
  0
SPLINE
  5
199
100
AcDbEntity
  8
0
 62
7
100
AcDbSpline
 70
8
 71
3
 72
8
 73
4
 74
0
 40
0
 40
0
 40
0
 40
0
 40
1
 40
1
 40
1
 40
1
 10
56.868511
 20
258.647175
 30
0.0
 10
160.488670
 20
258.647175
 30
0.0
 10
160.488670
 20
258.647175
 30
0.0
 10
160.488670
 20
258.647175
 30
0.0
  0
LWPOLYLINE
  5
19a
100
AcDbEntity
  8
0
 62
7
100
AcDbPolyline
 90
15
 70
1
 10
56.868511
 20
258.647182
 30
0.0
 10
56.045346
 20
259.389203
 30
0.0
 10
55.594628
 20
260.401696
 30
0.0
 10
55.594628
 20
261.509934
 30
0.0
 10
56.045346
 20
262.520033
 30
0.0
 10
56.868511
 20
263.262054
 30
0.0
 10
57.922420
 20
263.604334
 30
0.0
 10
59.024202
 20
263.489441
 30
0.0
 10
59.983564
 20
262.934129
 30
0.0
 10
60.634867
 20
262.038923
 30
0.0
 10
60.865133
 20
260.954615
 30
0.0
 10
60.634867
 20
259.870313
 30
0.0
 10
59.983564
 20
258.975108
 30
0.0
 10
59.024202
 20
258.422182
 30
0.0
 10
57.922420
 20
258.304895
 30
0.0
  0
SPLINE
  5
19b
100
AcDbEntity
  8
0
 62
7
100
AcDbSpline
 70
8
 71
3
 72
8
 73
4
 74
0
 40
0
 40
0
 40
0
 40
0
 40
1
 40
1
 40
1
 40
1
 10
160.488670
 20
258.647168
 30
0.0
 10
57.506410
 20
250.542431
 30
0.0
 10
57.506410
 20
250.542431
 30
0.0
 10
57.506410
 20
250.542431
 30
0.0
  0
LWPOLYLINE
  5
19c
100
AcDbEntity
  8
0
 62
7
100
AcDbPolyline
 90
15
 70
1
 10
160.488670
 20
258.647175
 30
0.0
 10
159.665266
 20
259.389196
 30
0.0
 10
159.214787
 20
260.401696
 30
0.0
 10
159.214787
 20
261.509934
 30
0.0
 10
159.665266
 20
262.520033
 30
0.0
 10
160.488670
 20
263.262054
 30
0.0
 10
161.542340
 20
263.604334
 30
0.0
 10
162.644122
 20
263.489441
 30
0.0
 10
163.603484
 20
262.934129
 30
0.0
 10
164.254787
 20
262.038923
 30
0.0
 10
164.485053
 20
260.954615
 30
0.0
 10
164.254787
 20
259.870313
 30
0.0
 10
163.603484
 20
258.975101
 30
0.0
 10
162.644122
 20
258.422175
 30
0.0
 10
161.542340
 20
258.304888
 30
0.0
  0
SPLINE
  5
19d
100
AcDbEntity
  8
0
 62
7
100
AcDbSpline
 70
8
 71
3
 72
8
 73
4
 74
0
 40
0
 40
0
 40
0
 40
0
 40
1
 40
1
 40
1
 40
1
 10
57.506410
 20
250.542431
 30
0.0
 10
159.850771
 20
250.542431
 30
0.0
 10
159.850771
 20
250.542431
 30
0.0
 10
159.850771
 20
250.542431
 30
0.0
  0
LWPOLYLINE
  5
19e
100
AcDbEntity
  8
0
 62
7
100
AcDbPolyline
 90
15
 70
1
 10
57.506410
 20
250.542431
 30
0.0
 10
56.683245
 20
251.284445
 30
0.0
 10
56.232527
 20
252.296938
 30
0.0
 10
56.232527
 20
253.405175
 30
0.0
 10
56.683245
 20
254.415282
 30
0.0
 10
57.506410
 20
255.157296
 30
0.0
 10
58.560080
 20
255.499583
 30
0.0
 10
59.662101
 20
255.384689
 30
0.0
 10
60.621463
 20
254.829370
 30
0.0
 10
61.272766
 20
253.934165
 30
0.0
 10
61.503032
 20
252.849863
 30
0.0
 10
61.272766
 20
251.765562
 30
0.0
 10
60.621463
 20
250.870349
 30
0.0
 10
59.662101
 20
250.315037
 30
0.0
 10
58.560080
 20
250.200144
 30
0.0
  0
SPLINE
  5
19f
100
AcDbEntity
  8
0
 62
7
100
AcDbSpline
 70
8
 71
3
 72
8
 73
4
 74
0
 40
0
 40
0
 40
0
 40
0
 40
1
 40
1
 40
1
 40
1
 10
159.850771
 20
250.542431
 30
0.0
 10
59.404309
 20
242.636357
 30
0.0
 10
59.404309
 20
242.636357
 30
0.0
 10
59.404309
 20
242.636357
 30
0.0
  0
LWPOLYLINE
  5
1a0
100
AcDbEntity
  8
0
 62
7
100
AcDbPolyline
 90
15
 70
1
 10
159.850771
 20
250.542431
 30
0.0
 10
159.027367
 20
251.284445
 30
0.0
 10
158.576888
 20
252.296938
 30
0.0
 10
158.576888
 20
253.405175
 30
0.0
 10
159.027367
 20
254.415282
 30
0.0
 10
159.850771
 20
255.157296
 30
0.0
 10
160.904441
 20
255.499583
 30
0.0
 10
162.006223
 20
255.384689
 30
0.0
 10
162.965824
 20
254.829370
 30
0.0
 10
163.616888
 20
253.934165
 30
0.0
 10
163.847394
 20
252.849863
 30
0.0
 10
163.616888
 20
251.765562
 30
0.0
 10
162.965824
 20
250.870349
 30
0.0
 10
162.006223
 20
250.315037
 30
0.0
 10
160.904441
 20
250.200144
 30
0.0
  0
SPLINE
  5
1a1
100
AcDbEntity
  8
0
 62
7
100
AcDbSpline
 70
8
 71
3
 72
8
 73
4
 74
0
 40
0
 40
0
 40
0
 40
0
 40
1
 40
1
 40
1
 40
1
 10
59.404309
 20
242.636357
 30
0.0
 10
157.952872
 20
242.636357
 30
0.0
 10
157.952872
 20
242.636357
 30
0.0
 10
157.952872
 20
242.636357
 30
0.0
  0
LWPOLYLINE
  5
1a2
100
AcDbEntity
  8
0
 62
7
100
AcDbPolyline
 90
15
 70
1
 10
59.404309
 20
242.636357
 30
0.0
 10
58.581144
 20
243.378371
 30
0.0
 10
58.130426
 20
244.390871
 30
0.0
 10
58.130426
 20
245.499109
 30
0.0
 10
58.581144
 20
246.511601
 30
0.0
 10
59.404309
 20
247.251222
 30
0.0
 10
60.457979
 20
247.593509
 30
0.0
 10
61.560000
 20
247.478615
 30
0.0
 10
62.519362
 20
246.925697
 30
0.0
 10
63.170665
 20
246.028091
 30
0.0
 10
63.400931
 20
244.943789
 30
0.0
 10
63.170665
 20
243.861882
 30
0.0
 10
62.519362
 20
242.964282
 30
0.0
 10
61.560000
 20
242.411357
 30
0.0
 10
60.457979
 20
242.294070
 30
0.0
  0
SPLINE
  5
1a3
100
AcDbEntity
  8
0
 62
7
100
AcDbSpline
 70
8
 71
3
 72
8
 73
4
 74
0
 40
0
 40
0
 40
0
 40
0
 40
1
 40
1
 40
1
 40
1
 10
157.952872
 20
242.636357
 30
0.0
 10
100.639867
 20
238.179464
 30
0.0
 10
100.639867
 20
238.179464
 30
0.0
 10
100.639867
 20
238.179464
 30
0.0
  0
LWPOLYLINE
  5
1a4
100
AcDbEntity
  8
0
 62
7
100
AcDbPolyline
 90
15
 70
1
 10
157.952872
 20
242.636357
 30
0.0
 10
157.129468
 20
243.378371
 30
0.0
 10
156.678989
 20
244.390871
 30
0.0
 10
156.678989
 20
245.499109
 30
0.0
 10
157.129468
 20
246.511601
 30
0.0
 10
157.952872
 20
247.251222
 30
0.0
 10
159.006543
 20
247.593509
 30
0.0
 10
160.108324
 20
247.478615
 30
0.0
 10
161.067926
 20
246.925697
 30
0.0
 10
161.718989
 20
246.028091
 30
0.0
 10
161.949255
 20
244.943789
 30
0.0
 10
161.718989
 20
243.861882
 30
0.0
 10
161.067926
 20
242.964282
 30
0.0
 10
160.108324
 20
242.411357
 30
0.0
 10
159.006543
 20
242.294070
 30
0.0
  0
SPLINE
  5
1a5
100
AcDbEntity
  8
0
 62
7
100
AcDbSpline
 70
8
 71
3
 72
8
 73
4
 74
0
 40
0
 40
0
 40
0
 40
0
 40
1
 40
1
 40
1
 40
1
 10
100.639867
 20
238.179464
 30
0.0
 10
62.515532
 20
235.127623
 30
0.0
 10
62.515532
 20
235.127623
 30
0.0
 10
62.515532
 20
235.127623
 30
0.0
  0
LWPOLYLINE
  5
1a6
100
AcDbEntity
  8
0
 62
7
100
AcDbPolyline
 90
4
 70
1
 10
100.639867
 20
238.179464
 30
0.0
 10
100.639867
 20
245.432087
 30
0.0
 10
119.381888
 20
245.432087
 30
0.0
 10
119.381649
 20
238.179464
 30
0.0
  0
SPLINE
  5
1a7
100
AcDbEntity
  8
0
 62
7
100
AcDbSpline
 70
8
 71
3
 72
8
 73
4
 74
0
 40
0
 40
0
 40
0
 40
0
 40
1
 40
1
 40
1
 40
1
 10
62.515532
 20
235.127623
 30
0.0
 10
154.841649
 20
235.127623
 30
0.0
 10
154.841649
 20
235.127623
 30
0.0
 10
154.841649
 20
235.127623
 30
0.0
  0
LWPOLYLINE
  5
1a8
100
AcDbEntity
  8
0
 62
7
100
AcDbPolyline
 90
15
 70
1
 10
62.515532
 20
235.127623
 30
0.0
 10
61.692367
 20
235.867244
 30
0.0
 10
61.241649
 20
236.879737
 30
0.0
 10
61.241649
 20
237.987981
 30
0.0
 10
61.692367
 20
239.000474
 30
0.0
 10
62.515532
 20
239.740095
 30
0.0
 10
63.569202
 20
240.082382
 30
0.0
 10
64.671223
 20
239.967488
 30
0.0
 10
65.630585
 20
239.414563
 30
0.0
 10
66.281649
 20
238.516964
 30
0.0
 10
66.512154
 20
237.432662
 30
0.0
 10
66.281649
 20
236.350755
 30
0.0
 10
65.630585
 20
235.453155
 30
0.0
 10
64.671223
 20
234.900230
 30
0.0
 10
63.569202
 20
234.782943
 30
0.0
  0
SPLINE
  5
1a9
100
AcDbEntity
  8
0
 62
7
100
AcDbSpline
 70
8
 71
3
 72
8
 73
4
 74
0
 40
0
 40
0
 40
0
 40
0
 40
1
 40
1
 40
1
 40
1
 10
154.841649
 20
235.127623
 30
0.0
 10
66.763484
 20
228.195744
 30
0.0
 10
66.763484
 20
228.195744
 30
0.0
 10
66.763484
 20
228.195744
 30
0.0
  0
LWPOLYLINE
  5
1aa
100
AcDbEntity
  8
0
 62
7
100
AcDbPolyline
 90
15
 70
1
 10
154.841649
 20
235.127623
 30
0.0
 10
154.018484
 20
235.867244
 30
0.0
 10
153.567766
 20
236.879737
 30
0.0
 10
153.567766
 20
237.987981
 30
0.0
 10
154.018484
 20
239.000474
 30
0.0
 10
154.841649
 20
239.740095
 30
0.0
 10
155.895319
 20
240.082382
 30
0.0
 10
156.997101
 20
239.967488
 30
0.0
 10
157.956702
 20
239.414563
 30
0.0
 10
158.607766
 20
238.516964
 30
0.0
 10
158.838271
 20
237.432662
 30
0.0
 10
158.607766
 20
236.350755
 30
0.0
 10
157.956702
 20
235.453155
 30
0.0
 10
156.997101
 20
234.900230
 30
0.0
 10
155.895319
 20
234.782943
 30
0.0
  0
SPLINE
  5
1ab
100
AcDbEntity
  8
0
 62
7
100
AcDbSpline
 70
8
 71
3
 72
8
 73
4
 74
0
 40
0
 40
0
 40
0
 40
0
 40
1
 40
1
 40
1
 40
1
 10
66.763484
 20
228.195737
 30
0.0
 10
150.593697
 20
228.195737
 30
0.0
 10
150.593697
 20
228.195737
 30
0.0
 10
150.593697
 20
228.195737
 30
0.0
  0
LWPOLYLINE
  5
1ac
100
AcDbEntity
  8
0
 62
7
100
AcDbPolyline
 90
15
 70
1
 10
66.763484
 20
228.195744
 30
0.0
 10
65.940080
 20
228.935372
 30
0.0
 10
65.489601
 20
229.947865
 30
0.0
 10
65.489601
 20
231.056102
 30
0.0
 10
65.940080
 20
232.068595
 30
0.0
 10
66.763484
 20
232.808223
 30
0.0
 10
67.817154
 20
233.150503
 30
0.0
 10
68.918936
 20
233.035609
 30
0.0
 10
69.878298
 20
232.482691
 30
0.0
 10
70.529601
 20
231.585092
 30
0.0
 10
70.760106
 20
230.500783
 30
0.0
 10
70.529601
 20
229.418876
 30
0.0
 10
69.878298
 20
228.521276
 30
0.0
 10
68.918936
 20
227.968351
 30
0.0
 10
67.817154
 20
227.851064
 30
0.0
  0
SPLINE
  5
1ad
100
AcDbEntity
  8
0
 62
7
100
AcDbSpline
 70
8
 71
3
 72
8
 73
4
 74
0
 40
0
 40
0
 40
0
 40
0
 40
1
 40
1
 40
1
 40
1
 10
150.593697
 20
228.195730
 30
0.0
 10
72.043324
 20
222.012553
 30
0.0
 10
72.043324
 20
222.012553
 30
0.0
 10
72.043324
 20
222.012553
 30
0.0
  0
LWPOLYLINE
  5
1ae
100
AcDbEntity
  8
0
 62
7
100
AcDbPolyline
 90
15
 70
1
 10
150.593697
 20
228.195737
 30
0.0
 10
149.770532
 20
228.935365
 30
0.0
 10
149.319814
 20
229.947865
 30
0.0
 10
149.319814
 20
231.056102
 30
0.0
 10
149.770532
 20
232.068595
 30
0.0
 10
150.593697
 20
232.808223
 30
0.0
 10
151.647367
 20
233.150503
 30
0.0
 10
152.749388
 20
233.035609
 30
0.0
 10
153.708750
 20
232.482691
 30
0.0
 10
154.360053
 20
231.585092
 30
0.0
 10
154.590319
 20
230.500783
 30
0.0
 10
154.360053
 20
229.418876
 30
0.0
 10
153.708750
 20
228.521269
 30
0.0
 10
152.749388
 20
227.968344
 30
0.0
 10
151.647367
 20
227.851056
 30
0.0
  0
SPLINE
  5
1af
100
AcDbEntity
  8
0
 62
7
100
AcDbSpline
 70
8
 71
3
 72
8
 73
4
 74
0
 40
0
 40
0
 40
0
 40
0
 40
1
 40
1
 40
1
 40
1
 10
72.043324
 20
222.012553
 30
0.0
 10
145.313856
 20
222.012553
 30
0.0
 10
145.313856
 20
222.012553
 30
0.0
 10
145.313856
 20
222.012553
 30
0.0
  0
LWPOLYLINE
  5
1b0
100
AcDbEntity
  8
0
 62
7
100
AcDbPolyline
 90
15
 70
1
 10
72.043324
 20
222.012553
 30
0.0
 10
71.220160
 20
222.753856
 30
0.0
 10
70.769441
 20
223.765877
 30
0.0
 10
70.769441
 20
224.873883
 30
0.0
 10
71.220160
 20
225.885904
 30
0.0
 10
72.043324
 20
226.627925
 30
0.0
 10
73.097234
 20
226.970205
 30
0.0
 10
74.199016
 20
226.852918
 30
0.0
 10
75.158378
 20
226.300000
 30
0.0
 10
75.809681
 20
225.403590
 30
0.0
 10
76.039947
 20
224.320000
 30
0.0
 10
75.809681
 20
223.236170
 30
0.0
 10
75.158378
 20
222.339760
 30
0.0
 10
74.199016
 20
221.785877
 30
0.0
 10
73.096995
 20
221.670266
 30
0.0
  0
SPLINE
  5
1b1
100
AcDbEntity
  8
0
 62
7
100
AcDbSpline
 70
8
 71
3
 72
8
 73
4
 74
0
 40
0
 40
0
 40
0
 40
0
 40
1
 40
1
 40
1
 40
1
 10
145.313856
 20
222.012553
 30
0.0
 10
78.225559
 20
216.732473
 30
0.0
 10
78.225559
 20
216.732473
 30
0.0
 10
78.225559
 20
216.732473
 30
0.0
  0
LWPOLYLINE
  5
1b2
100
AcDbEntity
  8
0
 62
7
100
AcDbPolyline
 90
15
 70
1
 10
145.313856
 20
222.012553
 30
0.0
 10
144.490452
 20
222.753856
 30
0.0
 10
144.039973
 20
223.765877
 30
0.0
 10
144.039973
 20
224.873883
 30
0.0
 10
144.490452
 20
225.885904
 30
0.0
 10
145.313856
 20
226.627925
 30
0.0
 10
146.367527
 20
226.970205
 30
0.0
 10
147.469309
 20
226.852918
 30
0.0
 10
148.428670
 20
226.300000
 30
0.0
 10
149.079973
 20
225.403590
 30
0.0
 10
149.310239
 20
224.320000
 30
0.0
 10
149.079973
 20
223.236170
 30
0.0
 10
148.428670
 20
222.339760
 30
0.0
 10
147.469309
 20
221.785877
 30
0.0
 10
146.367527
 20
221.670266
 30
0.0
  0
SPLINE
  5
1b3
100
AcDbEntity
  8
0
 62
7
100
AcDbSpline
 70
8
 71
3
 72
8
 73
4
 74
0
 40
0
 40
0
 40
0
 40
0
 40
1
 40
1
 40
1
 40
1
 10
78.225559
 20
216.732473
 30
0.0
 10
139.131862
 20
216.732473
 30
0.0
 10
139.131862
 20
216.732473
 30
0.0
 10
139.131862
 20
216.732473
 30
0.0
  0
LWPOLYLINE
  5
1b4
100
AcDbEntity
  8
0
 62
7
100
AcDbPolyline
 90
15
 70
1
 10
78.225559
 20
216.732473
 30
0.0
 10
77.402154
 20
217.473776
 30
0.0
 10
76.951676
 20
218.486037
 30
0.0
 10
76.951676
 20
219.593803
 30
0.0
 10
77.402154
 20
220.606064
 30
0.0
 10
78.225559
 20
221.347367
 30
0.0
 10
79.279229
 20
221.689654
 30
0.0
 10
80.381011
 20
221.573803
 30
0.0
 10
81.340372
 20
221.019920
 30
0.0
 10
81.991676
 20
220.123750
 30
0.0
 10
82.221941
 20
219.039920
 30
0.0
 10
81.991676
 20
217.956330
 30
0.0
 10
81.340372
 20
217.059920
 30
0.0
 10
80.381011
 20
216.506037
 30
0.0
 10
79.279229
 20
216.390186
 30
0.0
  0
SPLINE
  5
1b5
100
AcDbEntity
  8
0
 62
7
100
AcDbSpline
 70
8
 71
3
 72
8
 73
4
 74
0
 40
0
 40
0
 40
0
 40
0
 40
1
 40
1
 40
1
 40
1
 10
139.131862
 20
216.732473
 30
0.0
 10
85.157473
 20
212.484760
 30
0.0
 10
85.157473
 20
212.484760
 30
0.0
 10
85.157473
 20
212.484760
 30
0.0
  0
LWPOLYLINE
  5
1b6
100
AcDbEntity
  8
0
 62
7
100
AcDbPolyline
 90
15
 70
1
 10
139.131862
 20
216.732473
 30
0.0
 10
138.308457
 20
217.473776
 30
0.0
 10
137.857739
 20
218.486037
 30
0.0
 10
137.857739
 20
219.593803
 30
0.0
 10
138.308457
 20
220.606064
 30
0.0
 10
139.131862
 20
221.347367
 30
0.0
 10
140.185532
 20
221.689654
 30
0.0
 10
141.287314
 20
221.573803
 30
0.0
 10
142.246676
 20
221.019920
 30
0.0
 10
142.897979
 20
220.123750
 30
0.0
 10
143.128245
 20
219.039920
 30
0.0
 10
142.897979
 20
217.956330
 30
0.0
 10
142.246676
 20
217.059920
 30
0.0
 10
141.287314
 20
216.506037
 30
0.0
 10
140.185532
 20
216.390186
 30
0.0
  0
SPLINE
  5
1b7
100
AcDbEntity
  8
0
 62
7
100
AcDbSpline
 70
8
 71
3
 72
8
 73
4
 74
0
 40
0
 40
0
 40
0
 40
0
 40
1
 40
1
 40
1
 40
1
 10
85.157473
 20
212.484760
 30
0.0
 10
132.199947
 20
212.484760
 30
0.0
 10
132.199947
 20
212.484760
 30
0.0
 10
132.199947
 20
212.484760
 30
0.0
  0
LWPOLYLINE
  5
1b8
100
AcDbEntity
  8
0
 62
7
100
AcDbPolyline
 90
15
 70
1
 10
85.157473
 20
212.484760
 30
0.0
 10
84.334069
 20
213.226064
 30
0.0
 10
83.883351
 20
214.238085
 30
0.0
 10
83.883351
 20
215.346090
 30
0.0
 10
84.334069
 20
216.358111
 30
0.0
 10
85.157473
 20
217.099415
 30
0.0
 10
86.211144
 20
217.441702
 30
0.0
 10
87.312926
 20
217.326090
 30
0.0
 10
88.272287
 20
216.772207
 30
0.0
 10
88.923590
 20
215.875798
 30
0.0
 10
89.153856
 20
214.791968
 30
0.0
 10
88.923590
 20
213.708377
 30
0.0
 10
88.272287
 20
212.811968
 30
0.0
 10
87.312926
 20
212.258085
 30
0.0
 10
86.211144
 20
212.142234
 30
0.0
  0
SPLINE
  5
1b9
100
AcDbEntity
  8
0
 62
7
100
AcDbSpline
 70
8
 71
3
 72
8
 73
4
 74
0
 40
0
 40
0
 40
0
 40
0
 40
1
 40
1
 40
1
 40
1
 10
132.199947
 20
212.484760
 30
0.0
 10
92.668404
 20
209.373537
 30
0.0
 10
92.668404
 20
209.373537
 30
0.0
 10
92.668404
 20
209.373537
 30
0.0
  0
LWPOLYLINE
  5
1ba
100
AcDbEntity
  8
0
 62
7
100
AcDbPolyline
 90
15
 70
1
 10
132.199947
 20
212.484760
 30
0.0
 10
131.376543
 20
213.226064
 30
0.0
 10
130.926064
 20
214.238085
 30
0.0
 10
130.926064
 20
215.346090
 30
0.0
 10
131.376543
 20
216.358111
 30
0.0
 10
132.199947
 20
217.099415
 30
0.0
 10
133.253617
 20
217.441702
 30
0.0
 10
134.355399
 20
217.326090
 30
0.0
 10
135.314761
 20
216.772207
 30
0.0
 10
135.966064
 20
215.875798
 30
0.0
 10
136.196330
 20
214.791968
 30
0.0
 10
135.966064
 20
213.708377
 30
0.0
 10
135.314761
 20
212.811968
 30
0.0
 10
134.355399
 20
212.258085
 30
0.0
 10
133.253617
 20
212.142234
 30
0.0
  0
SPLINE
  5
1bb
100
AcDbEntity
  8
0
 62
7
100
AcDbSpline
 70
8
 71
3
 72
8
 73
4
 74
0
 40
0
 40
0
 40
0
 40
0
 40
1
 40
1
 40
1
 40
1
 10
92.668404
 20
209.373537
 30
0.0
 10
124.688777
 20
209.373537
 30
0.0
 10
124.688777
 20
209.373537
 30
0.0
 10
124.688777
 20
209.373537
 30
0.0
  0
LWPOLYLINE
  5
1bc
100
AcDbEntity
  8
0
 62
7
100
AcDbPolyline
 90
15
 70
1
 10
92.668404
 20
209.373537
 30
0.0
 10
91.845239
 20
210.114840
 30
0.0
 10
91.394521
 20
211.126861
 30
0.0
 10
91.394521
 20
212.234867
 30
0.0
 10
91.845239
 20
213.246888
 30
0.0
 10
92.668404
 20
213.988191
 30
0.0
 10
93.722074
 20
214.330478
 30
0.0
 10
94.824096
 20
214.214867
 30
0.0
 10
95.783457
 20
213.660984
 30
0.0
 10
96.434521
 20
212.764574
 30
0.0
 10
96.665027
 20
211.680984
 30
0.0
 10
96.434521
 20
210.597154
 30
0.0
 10
95.783457
 20
209.700744
 30
0.0
 10
94.824096
 20
209.146861
 30
0.0
 10
93.722074
 20
209.031250
 30
0.0
  0
SPLINE
  5
1bd
100
AcDbEntity
  8
0
 62
7
100
AcDbSpline
 70
8
 71
3
 72
8
 73
4
 74
0
 40
0
 40
0
 40
0
 40
0
 40
1
 40
1
 40
1
 40
1
 10
124.688777
 20
209.373537
 30
0.0
 10
100.573803
 20
207.475638
 30
0.0
 10
100.573803
 20
207.475638
 30
0.0
 10
100.573803
 20
207.475638
 30
0.0
  0
LWPOLYLINE
  5
1be
100
AcDbEntity
  8
0
 62
7
100
AcDbPolyline
 90
15
 70
1
 10
124.688777
 20
209.373537
 30
0.0
 10
123.865372
 20
210.114840
 30
0.0
 10
123.414894
 20
211.126861
 30
0.0
 10
123.414894
 20
212.234867
 30
0.0
 10
123.865372
 20
213.246888
 30
0.0
 10
124.688777
 20
213.988191
 30
0.0
 10
125.742447
 20
214.330478
 30
0.0
 10
126.844229
 20
214.214867
 30
0.0
 10
127.803830
 20
213.660984
 30
0.0
 10
128.454894
 20
212.764574
 30
0.0
 10
128.685399
 20
211.680984
 30
0.0
 10
128.454894
 20
210.597154
 30
0.0
 10
127.803830
 20
209.700744
 30
0.0
 10
126.844229
 20
209.146861
 30
0.0
 10
125.742447
 20
209.031250
 30
0.0
  0
SPLINE
  5
1bf
100
AcDbEntity
  8
0
 62
7
100
AcDbSpline
 70
8
 71
3
 72
8
 73
4
 74
0
 40
0
 40
0
 40
0
 40
0
 40
1
 40
1
 40
1
 40
1
 10
100.573803
 20
207.475638
 30
0.0
 10
116.783378
 20
207.475638
 30
0.0
 10
116.783378
 20
207.475638
 30
0.0
 10
116.783378
 20
207.475638
 30
0.0
  0
LWPOLYLINE
  5
1c0
100
AcDbEntity
  8
0
 62
7
100
AcDbPolyline
 90
15
 70
1
 10
100.573803
 20
207.475638
 30
0.0
 10
99.750399
 20
208.216941
 30
0.0
 10
99.299920
 20
209.228962
 30
0.0
 10
99.299920
 20
210.336968
 30
0.0
 10
99.750399
 20
211.348989
 30
0.0
 10
100.573803
 20
212.090292
 30
0.0
 10
101.627473
 20
212.432819
 30
0.0
 10
102.729255
 20
212.316968
 30
0.0
 10
103.688617
 20
211.763085
 30
0.0
 10
104.339920
 20
210.866675
 30
0.0
 10
104.570186
 20
209.783085
 30
0.0
 10
104.339920
 20
208.699255
 30
0.0
 10
103.688617
 20
207.802845
 30
0.0
 10
102.729255
 20
207.248962
 30
0.0
 10
101.627473
 20
207.133351
 30
0.0
  0
SPLINE
  5
1c1
100
AcDbEntity
  8
0
 62
7
100
AcDbSpline
 70
8
 71
3
 72
8
 73
4
 74
0
 40
0
 40
0
 40
0
 40
0
 40
1
 40
1
 40
1
 40
1
 10
116.783378
 20
207.475638
 30
0.0
 10
108.678590
 20
206.837739
 30
0.0
 10
108.678590
 20
206.837739
 30
0.0
 10
108.678590
 20
206.837739
 30
0.0
  0
LWPOLYLINE
  5
1c2
100
AcDbEntity
  8
0
 62
7
100
AcDbPolyline
 90
15
 70
1
 10
116.783378
 20
207.475638
 30
0.0
 10
115.960213
 20
208.216941
 30
0.0
 10
115.509495
 20
209.228962
 30
0.0
 10
115.509495
 20
210.336968
 30
0.0
 10
115.960213
 20
211.348989
 30
0.0
 10
116.783378
 20
212.090292
 30
0.0
 10
117.837048
 20
212.432819
 30
0.0
 10
118.939069
 20
212.316968
 30
0.0
 10
119.898431
 20
211.763085
 30
0.0
 10
120.549734
 20
210.866675
 30
0.0
 10
120.780000
 20
209.783085
 30
0.0
 10
120.549734
 20
208.699255
 30
0.0
 10
119.898431
 20
207.802845
 30
0.0
 10
118.939069
 20
207.248962
 30
0.0
 10
117.837287
 20
207.133351
 30
0.0
  0
LWPOLYLINE
  5
1c3
100
AcDbEntity
  8
0
 62
7
100
AcDbPolyline
 90
15
 70
1
 10
108.678590
 20
206.837739
 30
0.0
 10
107.855426
 20
207.579042
 30
0.0
 10
107.404707
 20
208.591064
 30
0.0
 10
107.404707
 20
209.699069
 30
0.0
 10
107.855426
 20
210.711090
 30
0.0
 10
108.678590
 20
211.452393
 30
0.0
 10
109.732261
 20
211.794920
 30
0.0
 10
110.834043
 20
211.679069
 30
0.0
 10
111.793644
 20
211.125186
 30
0.0
 10
112.444707
 20
210.228776
 30
0.0
 10
112.675213
 20
209.145186
 30
0.0
 10
112.444707
 20
208.061356
 30
0.0
 10
111.793644
 20
207.165186
 30
0.0
 10
110.834043
 20
206.611064
 30
0.0
 10
109.732261
 20
206.495452
 30
0.0
  0
SPLINE
  5
1c4
100
AcDbEntity
  8
0
 62
7
100
AcDbSpline
 70
8
 71
3
 72
8
 73
4
 74
0
 40
0
 40
0
 40
0
 40
0
 40
1
 40
1
 40
1
 40
1
 10
235.944814
 20
203.513070
 30
0.0
 10
228.575346
 20
310.456764
 30
0.0
 10
228.575346
 20
310.456764
 30
0.0
 10
228.575346
 20
310.456764
 30
0.0
  0
LWPOLYLINE
  5
1c5
100
AcDbEntity
  8
0
 62
7
100
AcDbPolyline
 90
60
 70
1
 10
235.944814
 20
203.513070
 30
0.0
 10
241.915691
 20
204.459027
 30
0.0
 10
247.756117
 20
206.023735
 30
0.0
 10
253.400266
 20
208.190197
 30
0.0
 10
258.785904
 20
210.934958
 30
0.0
 10
263.857979
 20
214.227618
 30
0.0
 10
268.554255
 20
218.032272
 30
0.0
 10
272.829255
 20
222.307272
 30
0.0
 10
276.635106
 20
227.006174
 30
0.0
 10
279.928723
 20
232.075826
 30
0.0
 10
282.671809
 20
237.463830
 30
0.0
 10
284.838032
 20
243.105556
 30
0.0
 10
286.403457
 20
248.945946
 30
0.0
 10
287.348936
 20
254.917984
 30
0.0
 10
287.664894
 20
260.954651
 30
0.0
 10
287.348936
 20
266.991324
 30
0.0
 10
286.403457
 20
272.963363
 30
0.0
 10
284.838032
 20
278.803752
 30
0.0
 10
282.671809
 20
284.447872
 30
0.0
 10
279.928723
 20
289.833482
 30
0.0
 10
276.635106
 20
294.903134
 30
0.0
 10
272.829255
 20
299.601776
 30
0.0
 10
268.554255
 20
303.876754
 30
0.0
 10
263.857979
 20
307.682584
 30
0.0
 10
258.785904
 20
310.973785
 30
0.0
 10
253.400266
 20
313.719250
 30
0.0
 10
247.756117
 20
315.885459
 30
0.0
 10
241.915691
 20
317.450877
 30
0.0
 10
235.944814
 20
318.396349
 30
0.0
 10
229.907394
 20
318.712306
 30
0.0
 10
223.869973
 20
318.396349
 30
0.0
 10
217.898856
 20
317.450877
 30
0.0
 10
212.059149
 20
315.885459
 30
0.0
 10
206.415000
 20
313.719250
 30
0.0
 10
201.028165
 20
310.973785
 30
0.0
 10
195.958005
 20
307.682584
 30
0.0
 10
191.259574
 20
303.876754
 30
0.0
 10
186.984574
 20
299.601776
 30
0.0
 10
183.179920
 20
294.903134
 30
0.0
 10
179.887261
 20
289.833482
 30
0.0
 10
177.142500
 20
284.447872
 30
0.0
 10
174.976037
 20
278.803752
 30
0.0
 10
173.411090
 20
272.963363
 30
0.0
 10
172.465372
 20
266.991324
 30
0.0
 10
172.148936
 20
260.954651
 30
0.0
 10
172.465372
 20
254.917984
 30
0.0
 10
173.411090
 20
248.945946
 30
0.0
 10
174.976037
 20
243.105556
 30
0.0
 10
177.142500
 20
237.463830
 30
0.0
 10
179.887261
 20
232.075826
 30
0.0
 10
183.179920
 20
227.006174
 30
0.0
 10
186.984574
 20
222.307272
 30
0.0
 10
191.259574
 20
218.032272
 30
0.0
 10
195.958005
 20
214.227618
 30
0.0
 10
201.028165
 20
210.934958
 30
0.0
 10
206.415000
 20
208.190197
 30
0.0
 10
212.059149
 20
206.023735
 30
0.0
 10
217.898856
 20
204.459027
 30
0.0
 10
223.869973
 20
203.513070
 30
0.0
 10
229.907394
 20
203.196873
 30
0.0
  0
SPLINE
  5
1c6
100
AcDbEntity
  8
0
 62
7
100
AcDbSpline
 70
8
 71
3
 72
8
 73
4
 74
0
 40
0
 40
0
 40
0
 40
0
 40
1
 40
1
 40
1
 40
1
 10
228.575346
 20
310.456757
 30
0.0
 10
220.470319
 20
309.820062
 30
0.0
 10
220.470319
 20
309.820062
 30
0.0
 10
220.470319
 20
309.820062
 30
0.0
  0
LWPOLYLINE
  5
1c7
100
AcDbEntity
  8
0
 62
7
100
AcDbPolyline
 90
15
 70
1
 10
228.575346
 20
310.456764
 30
0.0
 10
227.751941
 20
311.198785
 30
0.0
 10
227.301463
 20
312.211278
 30
0.0
 10
227.301463
 20
313.319516
 30
0.0
 10
227.751941
 20
314.329615
 30
0.0
 10
228.575346
 20
315.071636
 30
0.0
 10
229.629016
 20
315.413916
 30
0.0
 10
230.730798
 20
315.299023
 30
0.0
 10
231.690160
 20
314.743703
 30
0.0
 10
232.341463
 20
313.848498
 30
0.0
 10
232.571729
 20
312.764197
 30
0.0
 10
232.341463
 20
311.679888
 30
0.0
 10
231.690160
 20
310.784682
 30
0.0
 10
230.730798
 20
310.231764
 30
0.0
 10
229.629016
 20
310.114477
 30
0.0
  0
SPLINE
  5
1c8
100
AcDbEntity
  8
0
 62
7
100
AcDbSpline
 70
8
 71
3
 72
8
 73
4
 74
0
 40
0
 40
0
 40
0
 40
0
 40
1
 40
1
 40
1
 40
1
 10
220.470319
 20
309.820062
 30
0.0
 10
236.680133
 20
309.820062
 30
0.0
 10
236.680133
 20
309.820062
 30
0.0
 10
236.680133
 20
309.820062
 30
0.0
  0
LWPOLYLINE
  5
1c9
100
AcDbEntity
  8
0
 62
7
100
AcDbPolyline
 90
15
 70
1
 10
220.470319
 20
309.820062
 30
0.0
 10
219.647154
 20
310.559682
 30
0.0
 10
219.196436
 20
311.572175
 30
0.0
 10
219.196436
 20
312.680420
 30
0.0
 10
219.647154
 20
313.692913
 30
0.0
 10
220.470319
 20
314.434927
 30
0.0
 10
221.524229
 20
314.777214
 30
0.0
 10
222.626011
 20
314.659927
 30
0.0
 10
223.585372
 20
314.107001
 30
0.0
 10
224.236436
 20
313.209402
 30
0.0
 10
224.466941
 20
312.127494
 30
0.0
 10
224.236436
 20
311.043193
 30
0.0
 10
223.585372
 20
310.145594
 30
0.0
 10
222.626011
 20
309.592668
 30
0.0
 10
221.523989
 20
309.477775
 30
0.0
  0
SPLINE
  5
1ca
100
AcDbEntity
  8
0
 62
7
100
AcDbSpline
 70
8
 71
3
 72
8
 73
4
 74
0
 40
0
 40
0
 40
0
 40
0
 40
1
 40
1
 40
1
 40
1
 10
236.680133
 20
309.820062
 30
0.0
 10
212.565160
 20
307.921931
 30
0.0
 10
212.565160
 20
307.921931
 30
0.0
 10
212.565160
 20
307.921931
 30
0.0
  0
LWPOLYLINE
  5
1cb
100
AcDbEntity
  8
0
 62
7
100
AcDbPolyline
 90
15
 70
1
 10
236.680133
 20
309.820062
 30
0.0
 10
235.856729
 20
310.559682
 30
0.0
 10
235.406250
 20
311.572175
 30
0.0
 10
235.406250
 20
312.680420
 30
0.0
 10
235.856729
 20
313.692913
 30
0.0
 10
236.680133
 20
314.434927
 30
0.0
 10
237.733803
 20
314.777214
 30
0.0
 10
238.835585
 20
314.659927
 30
0.0
 10
239.794947
 20
314.107001
 30
0.0
 10
240.446011
 20
313.209402
 30
0.0
 10
240.675798
 20
312.127494
 30
0.0
 10
240.446011
 20
311.043193
 30
0.0
 10
239.794947
 20
310.145594
 30
0.0
 10
238.835585
 20
309.592668
 30
0.0
 10
237.733803
 20
309.477775
 30
0.0
  0
SPLINE
  5
1cc
100
AcDbEntity
  8
0
 62
7
100
AcDbSpline
 70
8
 71
3
 72
8
 73
4
 74
0
 40
0
 40
0
 40
0
 40
0
 40
1
 40
1
 40
1
 40
1
 10
212.565160
 20
307.921924
 30
0.0
 10
244.584574
 20
307.921924
 30
0.0
 10
244.584574
 20
307.921924
 30
0.0
 10
244.584574
 20
307.921924
 30
0.0
  0
LWPOLYLINE
  5
1cd
100
AcDbEntity
  8
0
 62
7
100
AcDbPolyline
 90
15
 70
1
 10
212.565160
 20
307.921931
 30
0.0
 10
211.741755
 20
308.663952
 30
0.0
 10
211.291277
 20
309.674051
 30
0.0
 10
211.291277
 20
310.782289
 30
0.0
 10
211.741755
 20
311.794782
 30
0.0
 10
212.565160
 20
312.536803
 30
0.0
 10
213.618830
 20
312.879083
 30
0.0
 10
214.720612
 20
312.761796
 30
0.0
 10
215.679973
 20
312.208870
 30
0.0
 10
216.331277
 20
311.313665
 30
0.0
 10
216.561543
 20
310.229363
 30
0.0
 10
216.331277
 20
309.145055
 30
0.0
 10
215.679973
 20
308.249849
 30
0.0
 10
214.720612
 20
307.694537
 30
0.0
 10
213.618830
 20
307.579644
 30
0.0
  0
SPLINE
  5
1ce
100
AcDbEntity
  8
0
 62
7
100
AcDbSpline
 70
8
 71
3
 72
8
 73
4
 74
0
 40
0
 40
0
 40
0
 40
0
 40
1
 40
1
 40
1
 40
1
 10
244.584574
 20
307.921916
 30
0.0
 10
205.053989
 20
304.810236
 30
0.0
 10
205.053989
 20
304.810236
 30
0.0
 10
205.053989
 20
304.810236
 30
0.0
  0
LWPOLYLINE
  5
1cf
100
AcDbEntity
  8
0
 62
7
100
AcDbPolyline
 90
15
 70
1
 10
244.584574
 20
307.921924
 30
0.0
 10
243.761170
 20
308.663945
 30
0.0
 10
243.311170
 20
309.674044
 30
0.0
 10
243.311170
 20
310.782282
 30
0.0
 10
243.761170
 20
311.794774
 30
0.0
 10
244.584574
 20
312.536796
 30
0.0
 10
245.640160
 20
312.879076
 30
0.0
 10
246.741223
 20
312.761789
 30
0.0
 10
247.701064
 20
312.208863
 30
0.0
 10
248.352128
 20
311.313657
 30
0.0
 10
248.581915
 20
310.229356
 30
0.0
 10
248.352128
 20
309.145048
 30
0.0
 10
247.701064
 20
308.249842
 30
0.0
 10
246.741223
 20
307.694530
 30
0.0
 10
245.640160
 20
307.579636
 30
0.0
  0
SPLINE
  5
1d0
100
AcDbEntity
  8
0
 62
7
100
AcDbSpline
 70
8
 71
3
 72
8
 73
4
 74
0
 40
0
 40
0
 40
0
 40
0
 40
1
 40
1
 40
1
 40
1
 10
205.053989
 20
304.810236
 30
0.0
 10
252.095745
 20
304.810236
 30
0.0
 10
252.095745
 20
304.810236
 30
0.0
 10
252.095745
 20
304.810236
 30
0.0
  0
LWPOLYLINE
  5
1d1
100
AcDbEntity
  8
0
 62
7
100
AcDbPolyline
 90
15
 70
1
 10
205.053989
 20
304.810236
 30
0.0
 10
204.230824
 20
305.552250
 30
0.0
 10
203.780106
 20
306.564743
 30
0.0
 10
203.780106
 20
307.670594
 30
0.0
 10
204.230824
 20
308.683087
 30
0.0
 10
205.053989
 20
309.425101
 30
0.0
 10
206.107660
 20
309.767388
 30
0.0
 10
207.209681
 20
309.652494
 30
0.0
 10
208.169043
 20
309.097175
 30
0.0
 10
208.820106
 20
308.201970
 30
0.0
 10
209.050612
 20
307.117668
 30
0.0
 10
208.820106
 20
306.033367
 30
0.0
 10
208.169043
 20
305.138161
 30
0.0
 10
207.209681
 20
304.582842
 30
0.0
 10
206.107660
 20
304.467949
 30
0.0
  0
SPLINE
  5
1d2
100
AcDbEntity
  8
0
 62
7
100
AcDbSpline
 70
8
 71
3
 72
8
 73
4
 74
0
 40
0
 40
0
 40
0
 40
0
 40
1
 40
1
 40
1
 40
1
 10
252.095745
 20
304.810236
 30
0.0
 10
198.122074
 20
300.561587
 30
0.0
 10
198.122074
 20
300.561587
 30
0.0
 10
198.122074
 20
300.561587
 30
0.0
  0
LWPOLYLINE
  5
1d3
100
AcDbEntity
  8
0
 62
7
100
AcDbPolyline
 90
15
 70
1
 10
252.095745
 20
304.810236
 30
0.0
 10
251.272340
 20
305.552250
 30
0.0
 10
250.822340
 20
306.564743
 30
0.0
 10
250.822340
 20
307.670594
 30
0.0
 10
251.272340
 20
308.683087
 30
0.0
 10
252.095745
 20
309.425101
 30
0.0
 10
253.151330
 20
309.767388
 30
0.0
 10
254.252394
 20
309.652494
 30
0.0
 10
255.212234
 20
309.097175
 30
0.0
 10
255.863298
 20
308.201970
 30
0.0
 10
256.093085
 20
307.117668
 30
0.0
 10
255.863298
 20
306.033367
 30
0.0
 10
255.212234
 20
305.138161
 30
0.0
 10
254.252394
 20
304.582842
 30
0.0
 10
253.151330
 20
304.467949
 30
0.0
  0
SPLINE
  5
1d4
100
AcDbEntity
  8
0
 62
7
100
AcDbSpline
 70
8
 71
3
 72
8
 73
4
 74
0
 40
0
 40
0
 40
0
 40
0
 40
1
 40
1
 40
1
 40
1
 10
198.122074
 20
300.561587
 30
0.0
 10
259.027660
 20
300.561587
 30
0.0
 10
259.027660
 20
300.561587
 30
0.0
 10
259.027660
 20
300.561587
 30
0.0
  0
LWPOLYLINE
  5
1d5
100
AcDbEntity
  8
0
 62
7
100
AcDbPolyline
 90
15
 70
1
 10
198.122074
 20
300.561587
 30
0.0
 10
197.298910
 20
301.303609
 30
0.0
 10
196.848191
 20
302.316101
 30
0.0
 10
196.848191
 20
303.424339
 30
0.0
 10
197.298910
 20
304.436832
 30
0.0
 10
198.122074
 20
305.176459
 30
0.0
 10
199.175745
 20
305.518739
 30
0.0
 10
200.277766
 20
305.403846
 30
0.0
 10
201.237128
 20
304.850927
 30
0.0
 10
201.888191
 20
303.953328
 30
0.0
 10
202.118697
 20
302.869020
 30
0.0
 10
201.888191
 20
301.787112
 30
0.0
 10
201.237128
 20
300.889513
 30
0.0
 10
200.277766
 20
300.336587
 30
0.0
 10
199.175745
 20
300.219300
 30
0.0
  0
SPLINE
  5
1d6
100
AcDbEntity
  8
0
 62
7
100
AcDbSpline
 70
8
 71
3
 72
8
 73
4
 74
0
 40
0
 40
0
 40
0
 40
0
 40
1
 40
1
 40
1
 40
1
 10
259.027660
 20
300.561587
 30
0.0
 10
191.940080
 20
295.283690
 30
0.0
 10
191.940080
 20
295.283690
 30
0.0
 10
191.940080
 20
295.283690
 30
0.0
  0
LWPOLYLINE
  5
1d7
100
AcDbEntity
  8
0
 62
7
100
AcDbPolyline
 90
15
 70
1
 10
259.027660
 20
300.561587
 30
0.0
 10
258.204255
 20
301.303609
 30
0.0
 10
257.754255
 20
302.316101
 30
0.0
 10
257.754255
 20
303.424339
 30
0.0
 10
258.204255
 20
304.436832
 30
0.0
 10
259.027660
 20
305.176459
 30
0.0
 10
260.083245
 20
305.518739
 30
0.0
 10
261.184309
 20
305.403846
 30
0.0
 10
262.144149
 20
304.850927
 30
0.0
 10
262.795213
 20
303.953328
 30
0.0
 10
263.025000
 20
302.869020
 30
0.0
 10
262.795213
 20
301.787112
 30
0.0
 10
262.144149
 20
300.889513
 30
0.0
 10
261.184309
 20
300.336587
 30
0.0
 10
260.083245
 20
300.219300
 30
0.0
  0
SPLINE
  5
1d8
100
AcDbEntity
  8
0
 62
7
100
AcDbSpline
 70
8
 71
3
 72
8
 73
4
 74
0
 40
0
 40
0
 40
0
 40
0
 40
1
 40
1
 40
1
 40
1
 10
191.940080
 20
295.283683
 30
0.0
 10
265.210372
 20
295.283683
 30
0.0
 10
265.210372
 20
295.283683
 30
0.0
 10
265.210372
 20
295.283683
 30
0.0
  0
LWPOLYLINE
  5
1d9
100
AcDbEntity
  8
0
 62
7
100
AcDbPolyline
 90
15
 70
1
 10
191.940080
 20
295.283690
 30
0.0
 10
191.116676
 20
296.023318
 30
0.0
 10
190.666197
 20
297.035811
 30
0.0
 10
190.666197
 20
298.144048
 30
0.0
 10
191.116676
 20
299.156541
 30
0.0
 10
191.940080
 20
299.896169
 30
0.0
 10
192.993750
 20
300.240843
 30
0.0
 10
194.095532
 20
300.123555
 30
0.0
 10
195.055133
 20
299.570630
 30
0.0
 10
195.706197
 20
298.673031
 30
0.0
 10
195.936463
 20
297.591123
 30
0.0
 10
195.706197
 20
296.506814
 30
0.0
 10
195.055133
 20
295.609215
 30
0.0
 10
194.095532
 20
295.056297
 30
0.0
 10
192.993750
 20
294.939010
 30
0.0
  0
SPLINE
  5
1da
100
AcDbEntity
  8
0
 62
7
100
AcDbSpline
 70
8
 71
3
 72
8
 73
4
 74
0
 40
0
 40
0
 40
0
 40
0
 40
1
 40
1
 40
1
 40
1
 10
265.210372
 20
295.283676
 30
0.0
 10
186.660000
 20
289.100999
 30
0.0
 10
186.660000
 20
289.100999
 30
0.0
 10
186.660000
 20
289.100999
 30
0.0
  0
LWPOLYLINE
  5
1db
100
AcDbEntity
  8
0
 62
7
100
AcDbPolyline
 90
15
 70
1
 10
265.210372
 20
295.283683
 30
0.0
 10
264.386968
 20
296.023311
 30
0.0
 10
263.936968
 20
297.035804
 30
0.0
 10
263.936968
 20
298.144041
 30
0.0
 10
264.386968
 20
299.156534
 30
0.0
 10
265.210372
 20
299.896162
 30
0.0
 10
266.263564
 20
300.240835
 30
0.0
 10
267.367021
 20
300.123548
 30
0.0
 10
268.324468
 20
299.570623
 30
0.0
 10
268.975532
 20
298.673023
 30
0.0
 10
269.207713
 20
297.591116
 30
0.0
 10
268.975532
 20
296.506807
 30
0.0
 10
268.324468
 20
295.609208
 30
0.0
 10
267.367021
 20
295.056290
 30
0.0
 10
266.263564
 20
294.939002
 30
0.0
  0
SPLINE
  5
1dc
100
AcDbEntity
  8
0
 62
7
100
AcDbSpline
 70
8
 71
3
 72
8
 73
4
 74
0
 40
0
 40
0
 40
0
 40
0
 40
1
 40
1
 40
1
 40
1
 10
186.660000
 20
289.100992
 30
0.0
 10
270.490691
 20
289.100992
 30
0.0
 10
270.490691
 20
289.100992
 30
0.0
 10
270.490691
 20
289.100992
 30
0.0
  0
LWPOLYLINE
  5
1dd
100
AcDbEntity
  8
0
 62
7
100
AcDbPolyline
 90
15
 70
1
 10
186.660000
 20
289.100999
 30
0.0
 10
185.836835
 20
289.843020
 30
0.0
 10
185.386117
 20
290.853120
 30
0.0
 10
185.386117
 20
291.961357
 30
0.0
 10
185.836835
 20
292.973850
 30
0.0
 10
186.660000
 20
293.715871
 30
0.0
 10
187.713910
 20
294.058151
 30
0.0
 10
188.815691
 20
293.940864
 30
0.0
 10
189.775053
 20
293.387946
 30
0.0
 10
190.426356
 20
292.492740
 30
0.0
 10
190.656622
 20
291.408432
 30
0.0
 10
190.426356
 20
290.324130
 30
0.0
 10
189.775053
 20
289.428925
 30
0.0
 10
188.815691
 20
288.873606
 30
0.0
 10
187.713670
 20
288.758712
 30
0.0
  0
SPLINE
  5
1de
100
AcDbEntity
  8
0
 62
7
100
AcDbSpline
 70
8
 71
3
 72
8
 73
4
 74
0
 40
0
 40
0
 40
0
 40
0
 40
1
 40
1
 40
1
 40
1
 10
270.490691
 20
289.100985
 30
0.0
 10
182.412287
 20
282.169113
 30
0.0
 10
182.412287
 20
282.169113
 30
0.0
 10
182.412287
 20
282.169113
 30
0.0
  0
LWPOLYLINE
  5
1df
100
AcDbEntity
  8
0
 62
7
100
AcDbPolyline
 90
15
 70
1
 10
270.490691
 20
289.100992
 30
0.0
 10
269.667287
 20
289.843013
 30
0.0
 10
269.217287
 20
290.853120
 30
0.0
 10
269.217287
 20
291.961357
 30
0.0
 10
269.667287
 20
292.973850
 30
0.0
 10
270.490691
 20
293.715871
 30
0.0
 10
271.543883
 20
294.058151
 30
0.0
 10
272.644947
 20
293.940864
 30
0.0
 10
273.604787
 20
293.387946
 30
0.0
 10
274.255851
 20
292.492740
 30
0.0
 10
274.488032
 20
291.408432
 30
0.0
 10
274.255851
 20
290.324130
 30
0.0
 10
273.604787
 20
289.428918
 30
0.0
 10
272.644947
 20
288.873598
 30
0.0
 10
271.543883
 20
288.758705
 30
0.0
  0
SPLINE
  5
1e0
100
AcDbEntity
  8
0
 62
7
100
AcDbSpline
 70
8
 71
3
 72
8
 73
4
 74
0
 40
0
 40
0
 40
0
 40
0
 40
1
 40
1
 40
1
 40
1
 10
182.412287
 20
282.169127
 30
0.0
 10
274.739362
 20
282.169127
 30
0.0
 10
274.739362
 20
282.169127
 30
0.0
 10
274.739362
 20
282.169127
 30
0.0
  0
LWPOLYLINE
  5
1e1
100
AcDbEntity
  8
0
 62
7
100
AcDbPolyline
 90
15
 70
1
 10
182.412287
 20
282.169113
 30
0.0
 10
181.588883
 20
282.911127
 30
0.0
 10
181.138404
 20
283.921226
 30
0.0
 10
181.138404
 20
285.029478
 30
0.0
 10
181.588883
 20
286.041978
 30
0.0
 10
182.412287
 20
286.783992
 30
0.0
 10
183.465957
 20
287.126280
 30
0.0
 10
184.567739
 20
287.008992
 30
0.0
 10
185.527101
 20
286.456067
 30
0.0
 10
186.178404
 20
285.560861
 30
0.0
 10
186.408670
 20
284.476560
 30
0.0
 10
186.178404
 20
283.392259
 30
0.0
 10
185.527101
 20
282.497046
 30
0.0
 10
184.567739
 20
281.941734
 30
0.0
 10
183.465957
 20
281.826840
 30
0.0
  0
SPLINE
  5
1e2
100
AcDbEntity
  8
0
 62
7
100
AcDbSpline
 70
8
 71
3
 72
8
 73
4
 74
0
 40
0
 40
0
 40
0
 40
0
 40
1
 40
1
 40
1
 40
1
 10
274.739362
 20
282.169127
 30
0.0
 10
220.536383
 20
276.477135
 30
0.0
 10
220.536383
 20
276.477135
 30
0.0
 10
220.536383
 20
276.477135
 30
0.0
  0
LWPOLYLINE
  5
1e3
100
AcDbEntity
  8
0
 62
7
100
AcDbPolyline
 90
15
 70
1
 10
274.739362
 20
282.169127
 30
0.0
 10
273.915957
 20
282.911141
 30
0.0
 10
273.463564
 20
283.921241
 30
0.0
 10
273.463564
 20
285.029478
 30
0.0
 10
273.915957
 20
286.041978
 30
0.0
 10
274.739362
 20
286.783992
 30
0.0
 10
275.792553
 20
287.126280
 30
0.0
 10
276.893617
 20
287.008992
 30
0.0
 10
277.853457
 20
286.456067
 30
0.0
 10
278.504521
 20
285.560861
 30
0.0
 10
278.734309
 20
284.476560
 30
0.0
 10
278.504521
 20
283.392259
 30
0.0
 10
277.853457
 20
282.497046
 30
0.0
 10
276.893617
 20
281.941734
 30
0.0
 10
275.792553
 20
281.826840
 30
0.0
  0
SPLINE
  5
1e4
100
AcDbEntity
  8
0
 62
7
100
AcDbSpline
 70
8
 71
3
 72
8
 73
4
 74
0
 40
0
 40
0
 40
0
 40
0
 40
1
 40
1
 40
1
 40
1
 10
220.536383
 20
276.477135
 30
0.0
 10
179.301064
 20
274.658000
 30
0.0
 10
179.301064
 20
274.658000
 30
0.0
 10
179.301064
 20
274.658000
 30
0.0
  0
LWPOLYLINE
  5
1e5
100
AcDbEntity
  8
0
 62
7
100
AcDbPolyline
 90
4
 70
1
 10
220.536383
 20
276.477135
 30
0.0
 10
220.536383
 20
283.729751
 30
0.0
 10
239.278404
 20
283.729751
 30
0.0
 10
239.278404
 20
276.477135
 30
0.0
  0
SPLINE
  5
1e6
100
AcDbEntity
  8
0
 62
7
100
AcDbSpline
 70
8
 71
3
 72
8
 73
4
 74
0
 40
0
 40
0
 40
0
 40
0
 40
1
 40
1
 40
1
 40
1
 10
179.301064
 20
274.658000
 30
0.0
 10
277.848670
 20
274.658000
 30
0.0
 10
277.848670
 20
274.658000
 30
0.0
 10
277.848670
 20
274.658000
 30
0.0
  0
LWPOLYLINE
  5
1e7
100
AcDbEntity
  8
0
 62
7
100
AcDbPolyline
 90
15
 70
1
 10
179.301064
 20
274.658000
 30
0.0
 10
178.477660
 20
275.400014
 30
0.0
 10
178.027181
 20
276.410114
 30
0.0
 10
178.027181
 20
277.518351
 30
0.0
 10
178.477660
 20
278.530851
 30
0.0
 10
179.301064
 20
279.272865
 30
0.0
 10
180.354734
 20
279.615152
 30
0.0
 10
181.456516
 20
279.497865
 30
0.0
 10
182.415878
 20
278.944940
 30
0.0
 10
183.067181
 20
278.049734
 30
0.0
 10
183.297447
 20
276.965433
 30
0.0
 10
183.067181
 20
275.881131
 30
0.0
 10
182.415878
 20
274.985919
 30
0.0
 10
181.456516
 20
274.430607
 30
0.0
 10
180.354734
 20
274.315713
 30
0.0
  0
SPLINE
  5
1e8
100
AcDbEntity
  8
0
 62
7
100
AcDbSpline
 70
8
 71
3
 72
8
 73
4
 74
0
 40
0
 40
0
 40
0
 40
0
 40
1
 40
1
 40
1
 40
1
 10
277.848670
 20
274.658000
 30
0.0
 10
177.403165
 20
266.751926
 30
0.0
 10
177.403165
 20
266.751926
 30
0.0
 10
177.403165
 20
266.751926
 30
0.0
  0
LWPOLYLINE
  5
1e9
100
AcDbEntity
  8
0
 62
7
100
AcDbPolyline
 90
15
 70
1
 10
277.848670
 20
274.658000
 30
0.0
 10
277.025266
 20
275.400014
 30
0.0
 10
276.575266
 20
276.410114
 30
0.0
 10
276.575266
 20
277.518351
 30
0.0
 10
277.025266
 20
278.530851
 30
0.0
 10
277.848670
 20
279.272865
 30
0.0
 10
278.904255
 20
279.615152
 30
0.0
 10
280.005319
 20
279.497865
 30
0.0
 10
280.965160
 20
278.944940
 30
0.0
 10
281.616223
 20
278.049734
 30
0.0
 10
281.846011
 20
276.965433
 30
0.0
 10
281.616223
 20
275.881131
 30
0.0
 10
280.965160
 20
274.985919
 30
0.0
 10
280.005319
 20
274.430607
 30
0.0
 10
278.904255
 20
274.315713
 30
0.0
  0
SPLINE
  5
1ea
100
AcDbEntity
  8
0
 62
7
100
AcDbSpline
 70
8
 71
3
 72
8
 73
4
 74
0
 40
0
 40
0
 40
0
 40
0
 40
1
 40
1
 40
1
 40
1
 10
177.403165
 20
266.751926
 30
0.0
 10
279.746809
 20
266.751926
 30
0.0
 10
279.746809
 20
266.751926
 30
0.0
 10
279.746809
 20
266.751926
 30
0.0
  0
LWPOLYLINE
  5
1eb
100
AcDbEntity
  8
0
 62
7
100
AcDbPolyline
 90
15
 70
1
 10
177.403165
 20
266.751926
 30
0.0
 10
176.579761
 20
267.493940
 30
0.0
 10
176.129282
 20
268.506433
 30
0.0
 10
176.129282
 20
269.614678
 30
0.0
 10
176.579761
 20
270.624777
 30
0.0
 10
177.403165
 20
271.366791
 30
0.0
 10
178.456835
 20
271.709078
 30
0.0
 10
179.558617
 20
271.594185
 30
0.0
 10
180.517979
 20
271.038866
 30
0.0
 10
181.169282
 20
270.143660
 30
0.0
 10
181.399548
 20
269.059359
 30
0.0
 10
181.169282
 20
267.975057
 30
0.0
 10
180.517979
 20
267.079852
 30
0.0
 10
179.558617
 20
266.526926
 30
0.0
 10
178.456835
 20
266.409639
 30
0.0
  0
SPLINE
  5
1ec
100
AcDbEntity
  8
0
 62
7
100
AcDbSpline
 70
8
 71
3
 72
8
 73
4
 74
0
 40
0
 40
0
 40
0
 40
0
 40
1
 40
1
 40
1
 40
1
 10
279.746809
 20
266.751926
 30
0.0
 10
245.429521
 20
251.583661
 30
0.0
 10
245.429521
 20
251.583661
 30
0.0
 10
245.429521
 20
251.583661
 30
0.0
  0
LWPOLYLINE
  5
1ed
100
AcDbEntity
  8
0
 62
7
100
AcDbPolyline
 90
15
 70
1
 10
279.746809
 20
266.751926
 30
0.0
 10
278.923404
 20
267.493940
 30
0.0
 10
278.473404
 20
268.506433
 30
0.0
 10
278.473404
 20
269.614678
 30
0.0
 10
278.923404
 20
270.624777
 30
0.0
 10
279.746809
 20
271.366791
 30
0.0
 10
280.800000
 20
271.709078
 30
0.0
 10
281.903457
 20
271.594185
 30
0.0
 10
282.863298
 20
271.038866
 30
0.0
 10
283.514362
 20
270.143660
 30
0.0
 10
283.744149
 20
269.059359
 30
0.0
 10
283.514362
 20
267.975057
 30
0.0
 10
282.863298
 20
267.079852
 30
0.0
 10
281.903457
 20
266.526926
 30
0.0
 10
280.800000
 20
266.409639
 30
0.0
  0
SPLINE
  5
1ee
100
AcDbEntity
  8
0
 62
7
100
AcDbSpline
 70
8
 71
3
 72
8
 73
4
 74
0
 40
0
 40
0
 40
0
 40
0
 40
1
 40
1
 40
1
 40
1
 10
245.429521
 20
251.583661
 30
0.0
 10
207.132128
 20
251.583661
 30
0.0
 10
207.132128
 20
251.583661
 30
0.0
 10
207.132128
 20
251.583661
 30
0.0
  0
LWPOLYLINE
  5
1ef
100
AcDbEntity
  8
0
 62
7
100
AcDbPolyline
 90
4
 70
1
 10
245.429521
 20
251.583661
 30
0.0
 10
245.429521
 20
270.325575
 30
0.0
 10
252.682181
 20
270.325575
 30
0.0
 10
252.682181
 20
251.583661
 30
0.0
  0
SPLINE
  5
1f0
100
AcDbEntity
  8
0
 62
7
100
AcDbSpline
 70
8
 71
3
 72
8
 73
4
 74
0
 40
0
 40
0
 40
0
 40
0
 40
1
 40
1
 40
1
 40
1
 10
207.132128
 20
251.583661
 30
0.0
 10
225.068218
 20
252.574612
 30
0.0
 10
225.068218
 20
252.574612
 30
0.0
 10
225.068218
 20
252.574612
 30
0.0
  0
LWPOLYLINE
  5
1f1
100
AcDbEntity
  8
0
 62
7
100
AcDbPolyline
 90
4
 70
1
 10
207.132128
 20
251.583661
 30
0.0
 10
207.132128
 20
270.325575
 30
0.0
 10
214.384787
 20
270.325575
 30
0.0
 10
214.384787
 20
251.583661
 30
0.0
  0
SPLINE
  5
1f2
100
AcDbEntity
  8
0
 62
7
100
AcDbSpline
 70
8
 71
3
 72
8
 73
4
 74
0
 40
0
 40
0
 40
0
 40
0
 40
1
 40
1
 40
1
 40
1
 10
225.068218
 20
252.574612
 30
0.0
 10
176.765266
 20
258.647182
 30
0.0
 10
176.765266
 20
258.647182
 30
0.0
 10
176.765266
 20
258.647182
 30
0.0
  0
LWPOLYLINE
  5
1f3
100
AcDbEntity
  8
0
 62
7
100
AcDbPolyline
 90
6
 70
1
 10
225.068218
 20
252.574612
 30
0.0
 10
220.229282
 20
260.954615
 30
0.0
 10
225.068218
 20
269.337018
 30
0.0
 10
234.746569
 20
269.337018
 30
0.0
 10
239.586702
 20
260.954615
 30
0.0
 10
234.746569
 20
252.574612
 30
0.0
  0
SPLINE
  5
1f4
100
AcDbEntity
  8
0
 62
7
100
AcDbSpline
 70
8
 71
3
 72
8
 73
4
 74
0
 40
0
 40
0
 40
0
 40
0
 40
1
 40
1
 40
1
 40
1
 10
176.765266
 20
258.647175
 30
0.0
 10
280.385904
 20
258.647175
 30
0.0
 10
280.385904
 20
258.647175
 30
0.0
 10
280.385904
 20
258.647175
 30
0.0
  0
LWPOLYLINE
  5
1f5
100
AcDbEntity
  8
0
 62
7
100
AcDbPolyline
 90
15
 70
1
 10
176.765266
 20
258.647182
 30
0.0
 10
175.941862
 20
259.389203
 30
0.0
 10
175.491383
 20
260.401696
 30
0.0
 10
175.491383
 20
261.509934
 30
0.0
 10
175.941862
 20
262.520033
 30
0.0
 10
176.765266
 20
263.262054
 30
0.0
 10
177.818936
 20
263.604334
 30
0.0
 10
178.920718
 20
263.489441
 30
0.0
 10
179.880319
 20
262.934129
 30
0.0
 10
180.531383
 20
262.038923
 30
0.0
 10
180.761649
 20
260.954615
 30
0.0
 10
180.531383
 20
259.870313
 30
0.0
 10
179.880319
 20
258.975108
 30
0.0
 10
178.920718
 20
258.422182
 30
0.0
 10
177.818936
 20
258.304895
 30
0.0
  0
SPLINE
  5
1f6
100
AcDbEntity
  8
0
 62
7
100
AcDbSpline
 70
8
 71
3
 72
8
 73
4
 74
0
 40
0
 40
0
 40
0
 40
0
 40
1
 40
1
 40
1
 40
1
 10
280.385904
 20
258.647168
 30
0.0
 10
177.403165
 20
250.542431
 30
0.0
 10
177.403165
 20
250.542431
 30
0.0
 10
177.403165
 20
250.542431
 30
0.0
  0
LWPOLYLINE
  5
1f7
100
AcDbEntity
  8
0
 62
7
100
AcDbPolyline
 90
15
 70
1
 10
280.385904
 20
258.647175
 30
0.0
 10
279.562500
 20
259.389196
 30
0.0
 10
279.112500
 20
260.401696
 30
0.0
 10
279.112500
 20
261.509934
 30
0.0
 10
279.562500
 20
262.520033
 30
0.0
 10
280.385904
 20
263.262054
 30
0.0
 10
281.439096
 20
263.604334
 30
0.0
 10
282.540160
 20
263.489441
 30
0.0
 10
283.500000
 20
262.934129
 30
0.0
 10
284.151064
 20
262.038923
 30
0.0
 10
284.380851
 20
260.954615
 30
0.0
 10
284.151064
 20
259.870313
 30
0.0
 10
283.500000
 20
258.975101
 30
0.0
 10
282.540160
 20
258.422175
 30
0.0
 10
281.439096
 20
258.304888
 30
0.0
  0
SPLINE
  5
1f8
100
AcDbEntity
  8
0
 62
7
100
AcDbSpline
 70
8
 71
3
 72
8
 73
4
 74
0
 40
0
 40
0
 40
0
 40
0
 40
1
 40
1
 40
1
 40
1
 10
177.403165
 20
250.542431
 30
0.0
 10
279.746809
 20
250.542431
 30
0.0
 10
279.746809
 20
250.542431
 30
0.0
 10
279.746809
 20
250.542431
 30
0.0
  0
LWPOLYLINE
  5
1f9
100
AcDbEntity
  8
0
 62
7
100
AcDbPolyline
 90
15
 70
1
 10
177.403165
 20
250.542431
 30
0.0
 10
176.579761
 20
251.284445
 30
0.0
 10
176.129282
 20
252.296938
 30
0.0
 10
176.129282
 20
253.405175
 30
0.0
 10
176.579761
 20
254.415282
 30
0.0
 10
177.403165
 20
255.157296
 30
0.0
 10
178.456835
 20
255.499583
 30
0.0
 10
179.558617
 20
255.384689
 30
0.0
 10
180.517979
 20
254.829370
 30
0.0
 10
181.169282
 20
253.934165
 30
0.0
 10
181.399548
 20
252.849863
 30
0.0
 10
181.169282
 20
251.765562
 30
0.0
 10
180.517979
 20
250.870349
 30
0.0
 10
179.558617
 20
250.315037
 30
0.0
 10
178.456835
 20
250.200144
 30
0.0
  0
SPLINE
  5
1fa
100
AcDbEntity
  8
0
 62
7
100
AcDbSpline
 70
8
 71
3
 72
8
 73
4
 74
0
 40
0
 40
0
 40
0
 40
0
 40
1
 40
1
 40
1
 40
1
 10
279.746809
 20
250.542431
 30
0.0
 10
179.301064
 20
242.636357
 30
0.0
 10
179.301064
 20
242.636357
 30
0.0
 10
179.301064
 20
242.636357
 30
0.0
  0
LWPOLYLINE
  5
1fb
100
AcDbEntity
  8
0
 62
7
100
AcDbPolyline
 90
15
 70
1
 10
279.746809
 20
250.542431
 30
0.0
 10
278.923404
 20
251.284445
 30
0.0
 10
278.473404
 20
252.296938
 30
0.0
 10
278.473404
 20
253.405175
 30
0.0
 10
278.923404
 20
254.415282
 30
0.0
 10
279.746809
 20
255.157296
 30
0.0
 10
280.800000
 20
255.499583
 30
0.0
 10
281.903457
 20
255.384689
 30
0.0
 10
282.863298
 20
254.829370
 30
0.0
 10
283.514362
 20
253.934165
 30
0.0
 10
283.744149
 20
252.849863
 30
0.0
 10
283.514362
 20
251.765562
 30
0.0
 10
282.863298
 20
250.870349
 30
0.0
 10
281.903457
 20
250.315037
 30
0.0
 10
280.800000
 20
250.200144
 30
0.0
  0
SPLINE
  5
1fc
100
AcDbEntity
  8
0
 62
7
100
AcDbSpline
 70
8
 71
3
 72
8
 73
4
 74
0
 40
0
 40
0
 40
0
 40
0
 40
1
 40
1
 40
1
 40
1
 10
179.301064
 20
242.636357
 30
0.0
 10
277.848670
 20
242.636357
 30
0.0
 10
277.848670
 20
242.636357
 30
0.0
 10
277.848670
 20
242.636357
 30
0.0
  0
LWPOLYLINE
  5
1fd
100
AcDbEntity
  8
0
 62
7
100
AcDbPolyline
 90
15
 70
1
 10
179.301064
 20
242.636357
 30
0.0
 10
178.477660
 20
243.378371
 30
0.0
 10
178.027181
 20
244.390871
 30
0.0
 10
178.027181
 20
245.499109
 30
0.0
 10
178.477660
 20
246.511601
 30
0.0
 10
179.301064
 20
247.251222
 30
0.0
 10
180.354734
 20
247.593509
 30
0.0
 10
181.456516
 20
247.478615
 30
0.0
 10
182.415878
 20
246.925697
 30
0.0
 10
183.067181
 20
246.028091
 30
0.0
 10
183.297447
 20
244.943789
 30
0.0
 10
183.067181
 20
243.861882
 30
0.0
 10
182.415878
 20
242.964282
 30
0.0
 10
181.456516
 20
242.411357
 30
0.0
 10
180.354734
 20
242.294070
 30
0.0
  0
SPLINE
  5
1fe
100
AcDbEntity
  8
0
 62
7
100
AcDbSpline
 70
8
 71
3
 72
8
 73
4
 74
0
 40
0
 40
0
 40
0
 40
0
 40
1
 40
1
 40
1
 40
1
 10
277.848670
 20
242.636357
 30
0.0
 10
220.536383
 20
238.179464
 30
0.0
 10
220.536383
 20
238.179464
 30
0.0
 10
220.536383
 20
238.179464
 30
0.0
  0
LWPOLYLINE
  5
1ff
100
AcDbEntity
  8
0
 62
7
100
AcDbPolyline
 90
15
 70
1
 10
277.848670
 20
242.636357
 30
0.0
 10
277.025266
 20
243.378371
 30
0.0
 10
276.575266
 20
244.390871
 30
0.0
 10
276.575266
 20
245.499109
 30
0.0
 10
277.025266
 20
246.511601
 30
0.0
 10
277.848670
 20
247.251222
 30
0.0
 10
278.904255
 20
247.593509
 30
0.0
 10
280.005319
 20
247.478615
 30
0.0
 10
280.965160
 20
246.925697
 30
0.0
 10
281.616223
 20
246.028091
 30
0.0
 10
281.846011
 20
244.943789
 30
0.0
 10
281.616223
 20
243.861882
 30
0.0
 10
280.965160
 20
242.964282
 30
0.0
 10
280.005319
 20
242.411357
 30
0.0
 10
278.904255
 20
242.294070
 30
0.0
  0
SPLINE
  5
200
100
AcDbEntity
  8
0
 62
7
100
AcDbSpline
 70
8
 71
3
 72
8
 73
4
 74
0
 40
0
 40
0
 40
0
 40
0
 40
1
 40
1
 40
1
 40
1
 10
220.536383
 20
238.179464
 30
0.0
 10
182.412287
 20
235.127623
 30
0.0
 10
182.412287
 20
235.127623
 30
0.0
 10
182.412287
 20
235.127623
 30
0.0
  0
LWPOLYLINE
  5
201
100
AcDbEntity
  8
0
 62
7
100
AcDbPolyline
 90
4
 70
1
 10
220.536383
 20
238.179464
 30
0.0
 10
220.536383
 20
245.432087
 30
0.0
 10
239.278404
 20
245.432087
 30
0.0
 10
239.278404
 20
238.179464
 30
0.0
  0
SPLINE
  5
202
100
AcDbEntity
  8
0
 62
7
100
AcDbSpline
 70
8
 71
3
 72
8
 73
4
 74
0
 40
0
 40
0
 40
0
 40
0
 40
1
 40
1
 40
1
 40
1
 10
182.412287
 20
235.127623
 30
0.0
 10
274.739362
 20
235.127623
 30
0.0
 10
274.739362
 20
235.127623
 30
0.0
 10
274.739362
 20
235.127623
 30
0.0
  0
LWPOLYLINE
  5
203
100
AcDbEntity
  8
0
 62
7
100
AcDbPolyline
 90
15
 70
1
 10
182.412287
 20
235.127623
 30
0.0
 10
181.588883
 20
235.867244
 30
0.0
 10
181.138404
 20
236.879737
 30
0.0
 10
181.138404
 20
237.987981
 30
0.0
 10
181.588883
 20
239.000474
 30
0.0
 10
182.412287
 20
239.740095
 30
0.0
 10
183.465957
 20
240.082382
 30
0.0
 10
184.567739
 20
239.967488
 30
0.0
 10
185.527101
 20
239.414563
 30
0.0
 10
186.178404
 20
238.516964
 30
0.0
 10
186.408670
 20
237.432662
 30
0.0
 10
186.178404
 20
236.350755
 30
0.0
 10
185.527101
 20
235.453155
 30
0.0
 10
184.567739
 20
234.900230
 30
0.0
 10
183.465957
 20
234.782943
 30
0.0
  0
SPLINE
  5
204
100
AcDbEntity
  8
0
 62
7
100
AcDbSpline
 70
8
 71
3
 72
8
 73
4
 74
0
 40
0
 40
0
 40
0
 40
0
 40
1
 40
1
 40
1
 40
1
 10
274.739362
 20
235.127623
 30
0.0
 10
186.660000
 20
228.195744
 30
0.0
 10
186.660000
 20
228.195744
 30
0.0
 10
186.660000
 20
228.195744
 30
0.0
  0
LWPOLYLINE
  5
205
100
AcDbEntity
  8
0
 62
7
100
AcDbPolyline
 90
15
 70
1
 10
274.739362
 20
235.127623
 30
0.0
 10
273.915957
 20
235.867244
 30
0.0
 10
273.463564
 20
236.879737
 30
0.0
 10
273.463564
 20
237.987981
 30
0.0
 10
273.915957
 20
239.000474
 30
0.0
 10
274.739362
 20
239.740095
 30
0.0
 10
275.792553
 20
240.082382
 30
0.0
 10
276.893617
 20
239.967488
 30
0.0
 10
277.853457
 20
239.414563
 30
0.0
 10
278.504521
 20
238.516964
 30
0.0
 10
278.734309
 20
237.432662
 30
0.0
 10
278.504521
 20
236.350755
 30
0.0
 10
277.853457
 20
235.453155
 30
0.0
 10
276.893617
 20
234.900230
 30
0.0
 10
275.792553
 20
234.782943
 30
0.0
  0
SPLINE
  5
206
100
AcDbEntity
  8
0
 62
7
100
AcDbSpline
 70
8
 71
3
 72
8
 73
4
 74
0
 40
0
 40
0
 40
0
 40
0
 40
1
 40
1
 40
1
 40
1
 10
186.660000
 20
228.195737
 30
0.0
 10
270.490691
 20
228.195737
 30
0.0
 10
270.490691
 20
228.195737
 30
0.0
 10
270.490691
 20
228.195737
 30
0.0
  0
LWPOLYLINE
  5
207
100
AcDbEntity
  8
0
 62
7
100
AcDbPolyline
 90
15
 70
1
 10
186.660000
 20
228.195744
 30
0.0
 10
185.836835
 20
228.935372
 30
0.0
 10
185.386117
 20
229.947865
 30
0.0
 10
185.386117
 20
231.056102
 30
0.0
 10
185.836835
 20
232.068595
 30
0.0
 10
186.660000
 20
232.808223
 30
0.0
 10
187.713670
 20
233.150503
 30
0.0
 10
188.815691
 20
233.035609
 30
0.0
 10
189.775053
 20
232.482691
 30
0.0
 10
190.426356
 20
231.585092
 30
0.0
 10
190.656622
 20
230.500783
 30
0.0
 10
190.426356
 20
229.418876
 30
0.0
 10
189.775053
 20
228.521276
 30
0.0
 10
188.815691
 20
227.968351
 30
0.0
 10
187.713910
 20
227.851064
 30
0.0
  0
SPLINE
  5
208
100
AcDbEntity
  8
0
 62
7
100
AcDbSpline
 70
8
 71
3
 72
8
 73
4
 74
0
 40
0
 40
0
 40
0
 40
0
 40
1
 40
1
 40
1
 40
1
 10
270.490691
 20
228.195730
 30
0.0
 10
191.940080
 20
222.012553
 30
0.0
 10
191.940080
 20
222.012553
 30
0.0
 10
191.940080
 20
222.012553
 30
0.0
  0
LWPOLYLINE
  5
209
100
AcDbEntity
  8
0
 62
7
100
AcDbPolyline
 90
15
 70
1
 10
270.490691
 20
228.195737
 30
0.0
 10
269.667287
 20
228.935365
 30
0.0
 10
269.217287
 20
229.947865
 30
0.0
 10
269.217287
 20
231.056102
 30
0.0
 10
269.667287
 20
232.068595
 30
0.0
 10
270.490691
 20
232.808223
 30
0.0
 10
271.543883
 20
233.150503
 30
0.0
 10
272.644947
 20
233.035609
 30
0.0
 10
273.604787
 20
232.482691
 30
0.0
 10
274.255851
 20
231.585092
 30
0.0
 10
274.488032
 20
230.500783
 30
0.0
 10
274.255851
 20
229.418876
 30
0.0
 10
273.604787
 20
228.521269
 30
0.0
 10
272.644947
 20
227.968344
 30
0.0
 10
271.543883
 20
227.851056
 30
0.0
  0
SPLINE
  5
20a
100
AcDbEntity
  8
0
 62
7
100
AcDbSpline
 70
8
 71
3
 72
8
 73
4
 74
0
 40
0
 40
0
 40
0
 40
0
 40
1
 40
1
 40
1
 40
1
 10
191.940080
 20
222.012553
 30
0.0
 10
265.210372
 20
222.012553
 30
0.0
 10
265.210372
 20
222.012553
 30
0.0
 10
265.210372
 20
222.012553
 30
0.0
  0
LWPOLYLINE
  5
20b
100
AcDbEntity
  8
0
 62
7
100
AcDbPolyline
 90
15
 70
1
 10
191.940080
 20
222.012553
 30
0.0
 10
191.116676
 20
222.753856
 30
0.0
 10
190.666197
 20
223.765877
 30
0.0
 10
190.666197
 20
224.873883
 30
0.0
 10
191.116676
 20
225.885904
 30
0.0
 10
191.940080
 20
226.627925
 30
0.0
 10
192.993750
 20
226.970205
 30
0.0
 10
194.095532
 20
226.852918
 30
0.0
 10
195.055133
 20
226.300000
 30
0.0
 10
195.706197
 20
225.403590
 30
0.0
 10
195.936463
 20
224.320000
 30
0.0
 10
195.706197
 20
223.236170
 30
0.0
 10
195.055133
 20
222.339760
 30
0.0
 10
194.095532
 20
221.785877
 30
0.0
 10
192.993750
 20
221.670266
 30
0.0
  0
SPLINE
  5
20c
100
AcDbEntity
  8
0
 62
7
100
AcDbSpline
 70
8
 71
3
 72
8
 73
4
 74
0
 40
0
 40
0
 40
0
 40
0
 40
1
 40
1
 40
1
 40
1
 10
265.210372
 20
222.012553
 30
0.0
 10
198.122074
 20
216.732473
 30
0.0
 10
198.122074
 20
216.732473
 30
0.0
 10
198.122074
 20
216.732473
 30
0.0
  0
LWPOLYLINE
  5
20d
100
AcDbEntity
  8
0
 62
7
100
AcDbPolyline
 90
15
 70
1
 10
265.210372
 20
222.012553
 30
0.0
 10
264.386968
 20
222.753856
 30
0.0
 10
263.936968
 20
223.765877
 30
0.0
 10
263.936968
 20
224.873883
 30
0.0
 10
264.386968
 20
225.885904
 30
0.0
 10
265.210372
 20
226.627925
 30
0.0
 10
266.263564
 20
226.970205
 30
0.0
 10
267.367021
 20
226.852918
 30
0.0
 10
268.324468
 20
226.300000
 30
0.0
 10
268.975532
 20
225.403590
 30
0.0
 10
269.207713
 20
224.320000
 30
0.0
 10
268.975532
 20
223.236170
 30
0.0
 10
268.324468
 20
222.339760
 30
0.0
 10
267.367021
 20
221.785877
 30
0.0
 10
266.263564
 20
221.670266
 30
0.0
  0
SPLINE
  5
20e
100
AcDbEntity
  8
0
 62
7
100
AcDbSpline
 70
8
 71
3
 72
8
 73
4
 74
0
 40
0
 40
0
 40
0
 40
0
 40
1
 40
1
 40
1
 40
1
 10
198.122074
 20
216.732473
 30
0.0
 10
259.027660
 20
216.732473
 30
0.0
 10
259.027660
 20
216.732473
 30
0.0
 10
259.027660
 20
216.732473
 30
0.0
  0
LWPOLYLINE
  5
20f
100
AcDbEntity
  8
0
 62
7
100
AcDbPolyline
 90
15
 70
1
 10
198.122074
 20
216.732473
 30
0.0
 10
197.298910
 20
217.473776
 30
0.0
 10
196.848191
 20
218.486037
 30
0.0
 10
196.848191
 20
219.593803
 30
0.0
 10
197.298910
 20
220.606064
 30
0.0
 10
198.122074
 20
221.347367
 30
0.0
 10
199.175745
 20
221.689654
 30
0.0
 10
200.277766
 20
221.573803
 30
0.0
 10
201.237128
 20
221.019920
 30
0.0
 10
201.888191
 20
220.123750
 30
0.0
 10
202.118697
 20
219.039920
 30
0.0
 10
201.888191
 20
217.956330
 30
0.0
 10
201.237128
 20
217.059920
 30
0.0
 10
200.277766
 20
216.506037
 30
0.0
 10
199.175745
 20
216.390186
 30
0.0
  0
SPLINE
  5
210
100
AcDbEntity
  8
0
 62
7
100
AcDbSpline
 70
8
 71
3
 72
8
 73
4
 74
0
 40
0
 40
0
 40
0
 40
0
 40
1
 40
1
 40
1
 40
1
 10
259.027660
 20
216.732473
 30
0.0
 10
205.053989
 20
212.484760
 30
0.0
 10
205.053989
 20
212.484760
 30
0.0
 10
205.053989
 20
212.484760
 30
0.0
  0
LWPOLYLINE
  5
211
100
AcDbEntity
  8
0
 62
7
100
AcDbPolyline
 90
15
 70
1
 10
259.027660
 20
216.732473
 30
0.0
 10
258.204255
 20
217.473776
 30
0.0
 10
257.754255
 20
218.486037
 30
0.0
 10
257.754255
 20
219.593803
 30
0.0
 10
258.204255
 20
220.606064
 30
0.0
 10
259.027660
 20
221.347367
 30
0.0
 10
260.083245
 20
221.689654
 30
0.0
 10
261.184309
 20
221.573803
 30
0.0
 10
262.144149
 20
221.019920
 30
0.0
 10
262.795213
 20
220.123750
 30
0.0
 10
263.025000
 20
219.039920
 30
0.0
 10
262.795213
 20
217.956330
 30
0.0
 10
262.144149
 20
217.059920
 30
0.0
 10
261.184309
 20
216.506037
 30
0.0
 10
260.083245
 20
216.390186
 30
0.0
  0
SPLINE
  5
212
100
AcDbEntity
  8
0
 62
7
100
AcDbSpline
 70
8
 71
3
 72
8
 73
4
 74
0
 40
0
 40
0
 40
0
 40
0
 40
1
 40
1
 40
1
 40
1
 10
205.053989
 20
212.484760
 30
0.0
 10
252.095745
 20
212.484760
 30
0.0
 10
252.095745
 20
212.484760
 30
0.0
 10
252.095745
 20
212.484760
 30
0.0
  0
LWPOLYLINE
  5
213
100
AcDbEntity
  8
0
 62
7
100
AcDbPolyline
 90
15
 70
1
 10
205.053989
 20
212.484760
 30
0.0
 10
204.230824
 20
213.226064
 30
0.0
 10
203.780106
 20
214.238085
 30
0.0
 10
203.780106
 20
215.346090
 30
0.0
 10
204.230824
 20
216.358111
 30
0.0
 10
205.053989
 20
217.099415
 30
0.0
 10
206.107660
 20
217.441702
 30
0.0
 10
207.209681
 20
217.326090
 30
0.0
 10
208.169043
 20
216.772207
 30
0.0
 10
208.820106
 20
215.875798
 30
0.0
 10
209.050612
 20
214.791968
 30
0.0
 10
208.820106
 20
213.708377
 30
0.0
 10
208.169043
 20
212.811968
 30
0.0
 10
207.209681
 20
212.258085
 30
0.0
 10
206.107660
 20
212.142234
 30
0.0
  0
SPLINE
  5
214
100
AcDbEntity
  8
0
 62
7
100
AcDbSpline
 70
8
 71
3
 72
8
 73
4
 74
0
 40
0
 40
0
 40
0
 40
0
 40
1
 40
1
 40
1
 40
1
 10
252.095745
 20
212.484760
 30
0.0
 10
212.565160
 20
209.373537
 30
0.0
 10
212.565160
 20
209.373537
 30
0.0
 10
212.565160
 20
209.373537
 30
0.0
  0
LWPOLYLINE
  5
215
100
AcDbEntity
  8
0
 62
7
100
AcDbPolyline
 90
15
 70
1
 10
252.095745
 20
212.484760
 30
0.0
 10
251.272340
 20
213.226064
 30
0.0
 10
250.822340
 20
214.238085
 30
0.0
 10
250.822340
 20
215.346090
 30
0.0
 10
251.272340
 20
216.358111
 30
0.0
 10
252.095745
 20
217.099415
 30
0.0
 10
253.151330
 20
217.441702
 30
0.0
 10
254.252394
 20
217.326090
 30
0.0
 10
255.212234
 20
216.772207
 30
0.0
 10
255.863298
 20
215.875798
 30
0.0
 10
256.093085
 20
214.791968
 30
0.0
 10
255.863298
 20
213.708377
 30
0.0
 10
255.212234
 20
212.811968
 30
0.0
 10
254.252394
 20
212.258085
 30
0.0
 10
253.151330
 20
212.142234
 30
0.0
  0
SPLINE
  5
216
100
AcDbEntity
  8
0
 62
7
100
AcDbSpline
 70
8
 71
3
 72
8
 73
4
 74
0
 40
0
 40
0
 40
0
 40
0
 40
1
 40
1
 40
1
 40
1
 10
212.565160
 20
209.373537
 30
0.0
 10
244.584574
 20
209.373537
 30
0.0
 10
244.584574
 20
209.373537
 30
0.0
 10
244.584574
 20
209.373537
 30
0.0
  0
LWPOLYLINE
  5
217
100
AcDbEntity
  8
0
 62
7
100
AcDbPolyline
 90
15
 70
1
 10
212.565160
 20
209.373537
 30
0.0
 10
211.741755
 20
210.114840
 30
0.0
 10
211.291277
 20
211.126861
 30
0.0
 10
211.291277
 20
212.234867
 30
0.0
 10
211.741755
 20
213.246888
 30
0.0
 10
212.565160
 20
213.988191
 30
0.0
 10
213.618830
 20
214.330478
 30
0.0
 10
214.720612
 20
214.214867
 30
0.0
 10
215.679973
 20
213.660984
 30
0.0
 10
216.331277
 20
212.764574
 30
0.0
 10
216.561543
 20
211.680984
 30
0.0
 10
216.331277
 20
210.597154
 30
0.0
 10
215.679973
 20
209.700744
 30
0.0
 10
214.720612
 20
209.146861
 30
0.0
 10
213.618830
 20
209.031250
 30
0.0
  0
SPLINE
  5
218
100
AcDbEntity
  8
0
 62
7
100
AcDbSpline
 70
8
 71
3
 72
8
 73
4
 74
0
 40
0
 40
0
 40
0
 40
0
 40
1
 40
1
 40
1
 40
1
 10
244.584574
 20
209.373537
 30
0.0
 10
220.470319
 20
207.475638
 30
0.0
 10
220.470319
 20
207.475638
 30
0.0
 10
220.470319
 20
207.475638
 30
0.0
  0
LWPOLYLINE
  5
219
100
AcDbEntity
  8
0
 62
7
100
AcDbPolyline
 90
15
 70
1
 10
244.584574
 20
209.373537
 30
0.0
 10
243.761170
 20
210.114840
 30
0.0
 10
243.311170
 20
211.126861
 30
0.0
 10
243.311170
 20
212.234867
 30
0.0
 10
243.761170
 20
213.246888
 30
0.0
 10
244.584574
 20
213.988191
 30
0.0
 10
245.640160
 20
214.330478
 30
0.0
 10
246.741223
 20
214.214867
 30
0.0
 10
247.701064
 20
213.660984
 30
0.0
 10
248.352128
 20
212.764574
 30
0.0
 10
248.581915
 20
211.680984
 30
0.0
 10
248.352128
 20
210.597154
 30
0.0
 10
247.701064
 20
209.700744
 30
0.0
 10
246.741223
 20
209.146861
 30
0.0
 10
245.640160
 20
209.031250
 30
0.0
  0
SPLINE
  5
21a
100
AcDbEntity
  8
0
 62
7
100
AcDbSpline
 70
8
 71
3
 72
8
 73
4
 74
0
 40
0
 40
0
 40
0
 40
0
 40
1
 40
1
 40
1
 40
1
 10
220.470319
 20
207.475638
 30
0.0
 10
236.680133
 20
207.475638
 30
0.0
 10
236.680133
 20
207.475638
 30
0.0
 10
236.680133
 20
207.475638
 30
0.0
  0
LWPOLYLINE
  5
21b
100
AcDbEntity
  8
0
 62
7
100
AcDbPolyline
 90
15
 70
1
 10
220.470319
 20
207.475638
 30
0.0
 10
219.647154
 20
208.216941
 30
0.0
 10
219.196436
 20
209.228962
 30
0.0
 10
219.196436
 20
210.336968
 30
0.0
 10
219.647154
 20
211.348989
 30
0.0
 10
220.470319
 20
212.090292
 30
0.0
 10
221.523989
 20
212.432819
 30
0.0
 10
222.626011
 20
212.316968
 30
0.0
 10
223.585372
 20
211.763085
 30
0.0
 10
224.236436
 20
210.866675
 30
0.0
 10
224.466941
 20
209.783085
 30
0.0
 10
224.236436
 20
208.699255
 30
0.0
 10
223.585372
 20
207.802845
 30
0.0
 10
222.626011
 20
207.248962
 30
0.0
 10
221.524229
 20
207.133351
 30
0.0
  0
SPLINE
  5
21c
100
AcDbEntity
  8
0
 62
7
100
AcDbSpline
 70
8
 71
3
 72
8
 73
4
 74
0
 40
0
 40
0
 40
0
 40
0
 40
1
 40
1
 40
1
 40
1
 10
236.680133
 20
207.475638
 30
0.0
 10
228.575346
 20
206.837739
 30
0.0
 10
228.575346
 20
206.837739
 30
0.0
 10
228.575346
 20
206.837739
 30
0.0
  0
LWPOLYLINE
  5
21d
100
AcDbEntity
  8
0
 62
7
100
AcDbPolyline
 90
15
 70
1
 10
236.680133
 20
207.475638
 30
0.0
 10
235.856729
 20
208.216941
 30
0.0
 10
235.406250
 20
209.228962
 30
0.0
 10
235.406250
 20
210.336968
 30
0.0
 10
235.856729
 20
211.348989
 30
0.0
 10
236.680133
 20
212.090292
 30
0.0
 10
237.733803
 20
212.432819
 30
0.0
 10
238.835585
 20
212.316968
 30
0.0
 10
239.794947
 20
211.763085
 30
0.0
 10
240.446011
 20
210.866675
 30
0.0
 10
240.675798
 20
209.783085
 30
0.0
 10
240.446011
 20
208.699255
 30
0.0
 10
239.794947
 20
207.802845
 30
0.0
 10
238.835585
 20
207.248962
 30
0.0
 10
237.733803
 20
207.133351
 30
0.0
  0
LWPOLYLINE
  5
21e
100
AcDbEntity
  8
0
 62
7
100
AcDbPolyline
 90
15
 70
1
 10
228.575346
 20
206.837739
 30
0.0
 10
227.751941
 20
207.579042
 30
0.0
 10
227.301463
 20
208.591064
 30
0.0
 10
227.301463
 20
209.699069
 30
0.0
 10
227.751941
 20
210.711090
 30
0.0
 10
228.575346
 20
211.452393
 30
0.0
 10
229.629016
 20
211.794920
 30
0.0
 10
230.730798
 20
211.679069
 30
0.0
 10
231.690160
 20
211.125186
 30
0.0
 10
232.341463
 20
210.228776
 30
0.0
 10
232.571729
 20
209.145186
 30
0.0
 10
232.341463
 20
208.061356
 30
0.0
 10
231.690160
 20
207.165186
 30
0.0
 10
230.730798
 20
206.611064
 30
0.0
 10
229.629016
 20
206.495452
 30
0.0
  0
SPLINE
  5
21f
100
AcDbEntity
  8
0
 62
7
100
AcDbSpline
 70
8
 71
3
 72
8
 73
4
 74
0
 40
0
 40
0
 40
0
 40
0
 40
1
 40
1
 40
1
 40
1
 10
215.018617
 20
6.496609
 30
0.0
 10
228.830027
 20
6.496609
 30
0.0
 10
228.830027
 20
6.496609
 30
0.0
 10
228.830027
 20
6.496609
 30
0.0
  0
LWPOLYLINE
  5
220
100
AcDbEntity
  8
0
 62
7
100
AcDbPolyline
 90
3
 70
0
 10
196.276835
 20
14.156210
 30
0.0
 10
215.018856
 20
14.156210
 30
0.0
 10
215.018617
 20
6.496609
 30
0.0
  0
SPLINE
  5
221
100
AcDbEntity
  8
0
 62
7
100
AcDbSpline
 70
8
 71
3
 72
8
 73
4
 74
0
 40
0
 40
0
 40
0
 40
0
 40
1
 40
1
 40
1
 40
1
 10
182.465665
 20
52.860997
 30
0.0
 10
182.465665
 20
39.049827
 30
0.0
 10
182.465665
 20
39.049827
 30
0.0
 10
182.465665
 20
39.049827
 30
0.0
  0
LWPOLYLINE
  5
222
100
AcDbEntity
  8
0
 62
7
100
AcDbPolyline
 90
11
 70
0
 10
228.830027
 20
6.496609
 30
0.0
 10
228.830027
 20
20.307806
 30
0.0
 10
221.170452
 20
20.307806
 30
0.0
 10
221.170452
 20
39.049827
 30
0.0
 10
228.830027
 20
39.049827
 30
0.0
 10
228.830027
 20
52.860997
 30
0.0
 10
215.018856
 20
52.860997
 30
0.0
 10
215.018617
 20
45.201423
 30
0.0
 10
196.276835
 20
45.201423
 30
0.0
 10
196.276835
 20
52.860997
 30
0.0
 10
182.465665
 20
52.860997
 30
0.0
  0
SPLINE
  5
223
100
AcDbEntity
  8
0
 62
7
100
AcDbSpline
 70
8
 71
3
 72
8
 73
4
 74
0
 40
0
 40
0
 40
0
 40
0
 40
1
 40
1
 40
1
 40
1
 10
182.465665
 20
20.307806
 30
0.0
 10
196.276835
 20
6.496609
 30
0.0
 10
196.276835
 20
6.496609
 30
0.0
 10
196.276835
 20
6.496609
 30
0.0
  0
LWPOLYLINE
  5
224
100
AcDbEntity
  8
0
 62
7
100
AcDbPolyline
 90
4
 70
0
 10
182.465665
 20
39.049827
 30
0.0
 10
190.125239
 20
39.049827
 30
0.0
 10
190.125239
 20
20.307806
 30
0.0
 10
182.465665
 20
20.307806
 30
0.0
  0
SPLINE
  5
225
100
AcDbEntity
  8
0
 62
7
100
AcDbSpline
 70
8
 71
3
 72
8
 73
4
 74
0
 40
0
 40
0
 40
0
 40
0
 40
1
 40
1
 40
1
 40
1
 10
196.276835
 20
14.156210
 30
0.0
 10
205.106170
 20
24.526077
 30
0.0
 10
205.106170
 20
24.526077
 30
0.0
 10
205.106170
 20
24.526077
 30
0.0
  0
LWPOLYLINE
  5
226
100
AcDbEntity
  8
0
 62
7
100
AcDbPolyline
 90
2
 70
0
 10
196.276835
 20
6.496609
 30
0.0
 10
196.276835
 20
14.156210
 30
0.0
  0
LWPOLYLINE
  5
227
100
AcDbEntity
  8
0
 62
7
100
AcDbPolyline
 90
30
 70
1
 10
205.106170
 20
24.526077
 30
0.0
 10
204.046755
 20
24.751316
 30
0.0
 10
203.057234
 20
25.191981
 30
0.0
 10
202.180931
 20
25.828444
 30
0.0
 10
201.456144
 20
26.633418
 30
0.0
 10
200.914707
 20
27.571476
 30
0.0
 10
200.580080
 20
28.601689
 30
0.0
 10
200.466622
 20
29.678816
 30
0.0
 10
200.580080
 20
30.755944
 30
0.0
 10
200.914707
 20
31.786157
 30
0.0
 10
201.456144
 20
32.723976
 30
0.0
 10
202.180931
 20
33.528949
 30
0.0
 10
203.057234
 20
34.165652
 30
0.0
 10
204.046755
 20
34.606316
 30
0.0
 10
205.106170
 20
34.831556
 30
0.0
 10
206.189282
 20
34.831556
 30
0.0
 10
207.248697
 20
34.606316
 30
0.0
 10
208.238218
 20
34.165652
 30
0.0
 10
209.114521
 20
33.528949
 30
0.0
 10
209.839309
 20
32.723976
 30
0.0
 10
210.380984
 20
31.786157
 30
0.0
 10
210.715612
 20
30.755944
 30
0.0
 10
210.828830
 20
29.678816
 30
0.0
 10
210.715612
 20
28.601689
 30
0.0
 10
210.380984
 20
27.571476
 30
0.0
 10
209.839309
 20
26.633418
 30
0.0
 10
209.114521
 20
25.828444
 30
0.0
 10
208.238218
 20
25.191981
 30
0.0
 10
207.248697
 20
24.751316
 30
0.0
 10
206.189282
 20
24.526077
 30
0.0
  0
ENDSEC
  0
SECTION
  2
OBJECTS
  0
DICTIONARY
  5
C
330
0
100
AcDbDictionary
  3
ACAD_GROUP
350
D
  3
ACAD_MLINESTYLE
350
17
  0
DICTIONARY
  5
D
330
C
100
AcDbDictionary
  0
DICTIONARY
  5
1A
330
C
100
AcDbDictionary
  0
DICTIONARY
  5
17
330
C
100
AcDbDictionary
  3
STANDARD
350
18
  0
DICTIONARY
  5
19
330
C
100
AcDbDictionary
  0
ENDSEC
  0
EOF
