<?xml version="1.0" encoding="UTF-8" standalone="no"?>
<svg
   xmlns:dc="http://purl.org/dc/elements/1.1/"
   xmlns:cc="http://creativecommons.org/ns#"
   xmlns:rdf="http://www.w3.org/1999/02/22-rdf-syntax-ns#"
   xmlns:svg="http://www.w3.org/2000/svg"
   xmlns="http://www.w3.org/2000/svg"
   xmlns:sodipodi="http://sodipodi.sourceforge.net/DTD/sodipodi-0.dtd"
   xmlns:inkscape="http://www.inkscape.org/namespaces/inkscape"
   height="47mm"
   version="1.1"
   viewBox="-1 -46 150 47"
   width="150mm"
   id="svg118"
   sodipodi:docname="3d_laser_vector.svg"
   inkscape:version="1.0beta2 (2b71d25, 2019-12-03)">
  <metadata
     id="metadata124">
    <rdf:RDF>
      <cc:Work
         rdf:about="">
        <dc:format>image/svg+xml</dc:format>
        <dc:type
           rdf:resource="http://purl.org/dc/dcmitype/StillImage" />
      </cc:Work>
    </rdf:RDF>
  </metadata>
  <defs
     id="defs122" />
  <sodipodi:namedview
     pagecolor="#ffffff"
     bordercolor="#666666"
     inkscape:document-rotation="0"
     borderopacity="1"
     objecttolerance="10"
     gridtolerance="10"
     guidetolerance="10"
     inkscape:pageopacity="0"
     inkscape:pageshadow="2"
     inkscape:window-width="1558"
     inkscape:window-height="1085"
     id="namedview120"
     showgrid="false"
     inkscape:zoom="0.71610471"
     inkscape:cx="123.04928"
     inkscape:cy="-144.27269"
     inkscape:window-x="0"
     inkscape:window-y="23"
     inkscape:window-maximized="0"
     inkscape:current-layer="svg118" />
  <title
     id="title86">OpenSCAD Model</title>
  <path
     d="m 147.101,0.4472559 v 3.9999975 h -3.03 V 0.4472559 m -139.35602,0 V 4.4472534 H 1.685 V 0.4472559 m -1.7700067,0 V 45.593363 H 148.871 M 90.195,7.1755519 l -0.4304,-0.1398 -0.3918,-0.2261997 -0.3363,-0.3028 -0.266,-0.3660997 -0.184,-0.4133997 -0.0941,-0.4425997 v -0.4526 l 0.0941,-0.4425997 0.184,-0.4133997 0.266,-0.3660997 0.3363,-0.3027 0.3918,-0.2262997 0.4304,-0.1398 0.4501,-0.0473 0.45,0.0473 0.4304,0.1398 0.3918,0.2262997 0.3363,0.3027 0.266,0.3660997 0.184,0.4133997 0.0941,0.4425997 v 0.4526 l -0.0941,0.4425997 -0.184,0.4133997 -0.266,0.3660997 -0.3363,0.3028 -0.3918,0.2261997 -0.4304,0.1398 -0.45,0.0473 -0.4501,-0.0473 M 140.871,8.574051 V 5.4595528 h 3.03 V 8.574051 h -3.03 m -135.98599,0 V 5.4595528 H 7.91498 V 8.574051 H 4.88501 m 71.34509,28.3993 V 8.1433513 H 111.06 V 36.973351 H 76.2301 m 65.9289,-21.234901 -0.442,-0.0941 -0.414,-0.184 -0.366,-0.266 -0.303,-0.3363 -0.226,-0.3918 -0.14,-0.4304 -0.047,-0.45 0.047,-0.4501 0.14,-0.4303 0.226,-0.3919 0.303,-0.3363 0.366,-0.266 0.414,-0.184 0.442,-0.0941 h 0.453 l 0.442,0.0941 0.414,0.184 0.366,0.266 0.303,0.3363 0.226,0.3919 0.14,0.4303 0.047,0.4501 -0.047,0.45 -0.14,0.4304 -0.226,0.3918 -0.303,0.3363 -0.366,0.266 -0.414,0.184 -0.442,0.0941 h -0.453 m -135.98528,0 -0.4426,-0.0941 -0.41339,-0.184 -0.3661,-0.266 -0.30278,-0.3363 -0.22624,-0.3918 -0.13983,-0.4304 -0.04732,-0.45 0.04732,-0.4501 0.13983,-0.4303 0.22624,-0.3919 0.30278,-0.3363 0.36609,-0.266 0.4134,-0.184 0.4426,-0.0941 h 0.45255 l 0.44259,0.0941 0.41341,0.184 0.36609,0.266 0.30278,0.3363 0.22624,0.3919 0.13983,0.4303 0.04732,0.4501 -0.04732,0.45 -0.13983,0.4304 -0.22624,0.3918 -0.30278,0.3363 -0.36609,0.266 -0.41341,0.184 -0.44259,0.0941 H 6.17372 m 48.50778,17.0849 v -17.99 h 0.57 v 17.99 h -0.57 m 6.756,3.265981 V 16.10335 h 4.33 v 19.985991 l -4.33,-10e-6 M 140.871,21.71205 v -3.1145 h 3.03 v 3.1145 h -3.03 m -135.98599,0 v -3.1145 h 3.02997 v 3.1145 H 4.88501 m 85.30999,20.463524 -0.4304,-0.13983 -0.3918,-0.22624 -0.3363,-0.30278 -0.266,-0.366091 -0.184,-0.41341 -0.0941,-0.44259 v -0.45256 l 0.0941,-0.442601 0.184,-0.41339 0.266,-0.36611 0.3363,-0.30278 0.3918,-0.22624 0.4304,-0.13983 0.4501,-0.0473 0.45,0.0473 0.4304,0.13983 0.3918,0.22624 0.3363,0.30278 0.266,0.36611 0.184,0.41339 0.0941,0.442601 v 0.45256 l -0.0941,0.44259 -0.184,0.41341 -0.266,0.366091 -0.3363,0.30278 -0.3918,0.22624 -0.4304,0.13983 -0.45,0.04732 -0.4501,-0.04732"
     fill="none"
     stroke="#0000ff"
     stroke-width="0.01"
     id="path88"
     inkscape:connector-curvature="0" />
  <path
     d="m 147.101,-25.998738 v 4 h -3.03 v -4 m -139.35602,0 v 4 H 1.685 v -4 m -1.7700067,0 V 0.4472559 H 148.871 m -8,-18.3192939 v -3.1145 h 3.03 v 3.1145 h -3.03 m -135.98599,0 v -3.1145 h 3.02997 v 3.1145 H 4.88501 M 122.452,-2.0144428 121.783,-2.6162422 121.417,-3.4379419 V -18.337438 l 0.366,-0.8217 0.669,-0.6018 0.855,-0.278 0.895,0.094 0.779,0.4497 0.528,0.7277 0.189,0.8888 v 13.9821964 l -0.189,0.8886994 -0.528,0.7276997 -0.779,0.4496997 -0.895,0.094 -0.855,-0.278 m 19.707,-8.6930952 -0.442,-0.0941 -0.414,-0.1841 -0.366,-0.2659 -0.303,-0.3363 -0.226,-0.3919 -0.14,-0.4304 -0.047,-0.45 0.047,-0.45 0.14,-0.4304 0.226,-0.3919 0.303,-0.3363 0.366,-0.2659 0.414,-0.1841 0.442,-0.0941 h 0.453 l 0.442,0.0941 0.414,0.1841 0.366,0.2659 0.303,0.3363 0.226,0.3919 0.14,0.4304 0.047,0.45 -0.047,0.45 -0.14,0.4304 -0.226,0.3919 -0.303,0.3363 -0.366,0.2659 -0.414,0.1841 -0.442,0.0941 h -0.453 m -135.98528,0 -0.4426,-0.0941 -0.41339,-0.1841 -0.3661,-0.2659 -0.30278,-0.3363 -0.22624,-0.3919 -0.13983,-0.4304 -0.04732,-0.45 0.04732,-0.45 0.13983,-0.4304 0.22624,-0.3919 0.30278,-0.3363 0.36609,-0.2659 0.4134,-0.1841 0.4426,-0.0941 h 0.45255 l 0.44259,0.0941 0.41341,0.1841 0.36609,0.2659 0.30278,0.3363 0.22624,0.3919 0.13983,0.4304 0.04732,0.45 -0.04732,0.45 -0.13983,0.4304 -0.22624,0.3919 -0.30278,0.3363 -0.36609,0.2659 -0.41341,0.1841 -0.44259,0.0941 H 6.17372 M 140.871,-4.733941 v -3.1144985 h 3.03 v 3.1144985 h -3.03 m -135.98599,0 V -7.8484395 H 7.91498 V -4.733941 H 4.88501 m 61.02919,2.9988982 -0.4426,-0.0941 -0.4134,-0.184 -0.3661,-0.2659997 -0.3027,-0.3362997 -0.2263,-0.3918 -0.1398,-0.4303997 -0.0473,-0.4500997 0.0473,-0.4499997 0.1398,-0.4303997 0.2263,-0.3918 0.3027,-0.3362997 0.3661,-0.266 0.4134,-0.1839997 0.4426,-0.0941 h 0.4526 l 0.4426,0.0941 0.4134,0.1839997 0.3661,0.266 0.3028,0.3362997 0.2262,0.3918 0.1398,0.4303997 0.0473,0.4499997 -0.0473,0.4500997 -0.1398,0.4303997 -0.2262,0.3918 -0.3028,0.3362997 -0.3661,0.2659997 -0.4134,0.184 -0.4426,0.0941 h -0.4526"
     fill="none"
     stroke="#0000ff"
     stroke-width="0.01"
     id="path90"
     inkscape:connector-curvature="0" />
  <path
     d="m -0.0850067,-108.36838 v 82.369642 H 148.871 v -82.369642 m -8,31.132868 v -19.762886 h 3.03 v 19.762886 h -3.03 M 19.83,-41.668738 v -55.32966 h 102.03 v 55.32966 H 19.83 M 4.88501,-77.235512 v -19.762886 h 3.02997 v 19.762886 H 4.88501 m 1.06497,12.168931 -0.43039,-0.139997 -0.39186,-0.226 -0.33629,-0.302997 -0.26597,-0.366 -0.18405,-0.412997 -0.09409,-0.442997 v -0.451997 l 0.09409,-0.442997 0.18405,-0.412997 0.26597,-0.367 0.33629,-0.301997 0.39186,-0.227 0.43039,-0.139 0.45001,-0.048 0.45002,0.048 0.43039,0.139 0.39186,0.227 0.33628,0.301997 0.26598,0.367 0.18405,0.412997 0.09409,0.442997 v 0.451997 l -0.09409,0.442997 -0.18405,0.412997 -0.26598,0.366 -0.33628,0.302997 -0.39186,0.226 -0.43039,0.139997 -0.45002,0.047 -0.45001,-0.047 m 135.98602,0 -0.431,-0.139997 -0.392,-0.226 -0.336,-0.302997 -0.266,-0.366 -0.184,-0.412997 -0.094,-0.442997 v -0.451997 l 0.094,-0.442997 0.184,-0.412997 0.266,-0.367 0.336,-0.301997 0.392,-0.227 0.431,-0.139 0.45,-0.048 0.45,0.048 0.43,0.139 0.392,0.227 0.336,0.301997 0.266,0.367 0.184,0.412997 0.094,0.442997 v 0.451997 l -0.094,0.442997 -0.184,0.412997 -0.266,0.366 -0.336,0.302997 -0.392,0.226 -0.43,0.139997 -0.45,0.047 -0.45,-0.047 m -1.065,27.697843 v -19.762888 h 3.03 v 19.762888 h -3.03 m -135.98599,0 v -19.762888 h 3.02997 v 19.762888 H 4.88501"
     fill="none"
     stroke="#0000ff"
     stroke-width="0.01"
     id="path92"
     inkscape:connector-curvature="0" />
  <path
     d="m 157.336,-31.198738 h 2.677 v -2.97 h -1.35 v -3.23 h 1.35 v -3.6 h 4.33 v 3.6 h 1.35 v 3.23 h -1.35 v 2.97 h 2.677 v 3.2 h 3.454 v -3.2 h 8.043 v -20.1034 h -3.2 v -7.716476 h -2.97 v 1.349994 h -3.23 v -1.349994 h -3.6 v -4.329976 h 3.6 v -1.349991 h 3.23 v 1.349991 h 2.97 v -7.716955 h 3.2 v -20.102886 h -8.043 v -3.199982 h -3.454 v 3.199982 h -2.677 v 2.969982 h 1.35 v 3.229982 h -1.35 v 3.599979 h -4.33 v -3.599979 h -1.35 v -3.229982 h 1.35 v -2.969982 h -2.677 v -3.199982 h -3.454 v 3.199982 h -5.011 m 0,59.969693 h 5.011 v 3.2 h 3.454 v -3.2 m -2.93,-27.867876 -0.431,-0.14 -0.392,-0.225997 -0.336,-0.303 -0.266,-0.365997 -0.184,-0.412997 -0.094,-0.442997 v -0.451997 l 0.094,-0.443 0.184,-0.412997 0.266,-0.365997 0.336,-0.303 0.392,-0.226997 0.431,-0.139 0.45,-0.048 0.45,0.048 0.43,0.139 0.392,0.226997 0.336,0.303 0.266,0.365997 0.184,0.412997 0.094,0.443 v 0.451997 l -0.094,0.442997 -0.184,0.412997 -0.266,0.365997 -0.336,0.303 -0.392,0.225997 -0.43,0.14 -0.45,0.047 -0.45,-0.047"
     fill="none"
     stroke="#0000ff"
     stroke-width="0.01"
     id="path94"
     inkscape:connector-curvature="0" />
  <path
     d="m 157.336,35.17125 h 2.677 v -2.97 h -1.35 v -3.23 h 1.35 v -3.6 h 4.33 v 3.6 h 1.35 v 3.23 h -1.35 v 2.97 h 2.677 v 3.199952 h 3.454 V 35.17125 h 8.043 v -20.1034 h -3.2 V 7.3511519 h -2.97 V 8.701151 h -3.23 V 7.3511519 h -3.6 V 3.0212543 h 3.6 V 1.6712549 h 3.23 v 1.3499994 h 2.97 v -7.7166956 h 3.2 V -24.798738 h -8.043 v -3.2 m -3.454,0 v 3.2 h -2.677 v 2.97 h 1.35 v 3.2299 h -1.35 v 3.6 h -4.33 v -3.6 h -1.35 v -3.2299 h 1.35 v -2.97 h -2.677 v -3.2 m -3.454,0 v 3.2 h -5.011 m 0,-1.2 v 71.592101 m 0,-10.422113 h 5.011 v 3.199952 h 3.454 V 35.17125 m -2.93,-27.8677981 -0.431,-0.1398 -0.392,-0.2263 -0.336,-0.3027997 -0.266,-0.3660997 -0.184,-0.4133997 -0.094,-0.4426 V 4.9599531 l 0.094,-0.4425997 0.184,-0.4133997 0.266,-0.3660997 0.336,-0.3028 0.392,-0.2261997 0.431,-0.1399 0.45,-0.0473 0.45,0.0473 0.43,0.1399 0.392,0.2261997 0.336,0.3028 0.266,0.3660997 0.184,0.4133997 0.094,0.4425997 v 0.4524997 l -0.094,0.4426 -0.184,0.4133997 -0.266,0.3660997 -0.336,0.3027997 -0.392,0.2263 -0.43,0.1398 -0.45,0.0473 -0.45,-0.0473"
     fill="none"
     stroke="#0000ff"
     stroke-width="0.01"
     id="path96"
     inkscape:connector-curvature="0" />
  <path
     d="M 47.8183,-6.8287398 H 62.785 v -2.3999988 h 3.2 v -8.1700994 h -3.2 v -5.5999 H 47.6483 v 3.2 H 32.8517 v -3.2 H 17.715 v 5.5999 h -6.4 v 8.1700994 h 6.4 v 2.3999988 h 14.9666 v 3.1999979 h 15.1367 v -3.1999979"
     fill="none"
     stroke="#0000ff"
     stroke-width="0.01"
     id="path100"
     inkscape:connector-curvature="0" />
  <path
     d="m 18.2517,-111.56838 h 14.7966 v 3.2 m 15.1367,0 v -5.6 h 6.4 v -8.17 h -6.4 v -2.4 H 33.2184 v -3.2 H 18.0817 v 3.2 H 3.11501 v 2.4 h -3.2000167 v 8.17 H 3.11501 v 5.6 m 15.13669,0 v -3.2"
     fill="none"
     stroke="#0000ff"
     stroke-width="0.01"
     id="path102"
     inkscape:connector-curvature="0" />
  <path
     d="m 72.9217,-111.56838 h 14.7966 v 3.2 m 15.1367,0 v -5.6 h 6.4 v -8.17 h -6.4 v -2.4 H 87.8884 v -3.2 H 72.7517 v 3.2 H 57.785 v 2.4 h -3.2 m 0,8.17 h 3.2 v 5.6 m 15.1367,0 v -3.2"
     fill="none"
     stroke="#0000ff"
     stroke-width="0.01"
     id="path104"
     inkscape:connector-curvature="0" />
  <path
     d="m 127.592,-111.56838 h 14.796 v 3.2 m -142.4730067,0 H 157.525 v -5.6 h 6.4 v -8.17 h -6.4 v -2.4 h -14.967 v -3.2 h -15.136 v 3.2 h -14.967 v 2.4 h -3.2 m 0,8.17 h 3.2 v 5.6 m 15.137,0 v -3.2"
     fill="none"
     stroke="#0000ff"
     stroke-width="0.01"
     id="path106"
     inkscape:connector-curvature="0" />
  <path
     d="m 14.685,27.10535 h 3.03 v 5.238 h 16.17 v -5.238 h 3.03 v 9.999981 h 2.77 V 22.93535 h -27.77 v 14.169981 h 2.77 V 27.10535"
     fill="none"
     stroke="#0000ff"
     stroke-width="0.01"
     id="path108"
     inkscape:connector-curvature="0" />
  <path
     d="m 39.685,8.765351 h -2.77 v 9.999999 h -3.03 v -5.2381 h -16.17 v 5.2381 h -3.03 V 8.765351 h -2.77 V 22.93535 m 27.77,0 V 8.765351"
     fill="none"
     stroke="#0000ff"
     stroke-width="0.01"
     id="path110"
     inkscape:connector-curvature="0" />
  <path
     d="m 48.4823,-45.335738 2.4947,-0.3952 2.4397,-0.6537 2.358,-0.9051 2.2504,-1.1467 2.1183,-1.3756 1.9629,-1.5895 1.786,-1.786 1.5895,-1.963097 1.3756,-2.117988 1.1467,-2.250988 0.9051,-2.356988 0.6537,-2.439985 0.3952,-2.494985 0.1321,-2.521985 -0.1321,-2.521988 -0.3952,-2.494985 -0.6537,-2.439985 -0.9051,-2.357988 -1.1467,-2.249988 -1.3756,-2.117988 -1.5895,-1.962988 -1.786,-1.785991 -1.9629,-1.589991 -2.1183,-1.374991 -2.2504,-1.146994 -2.358,-0.904994 -2.4397,-0.653997 -2.4947,-0.394997 -2.5222,-0.132 -2.5223,0.132 -2.4947,0.394997 -2.4397,0.653997 -2.358,0.904994 -2.2504,1.146994 -2.1183,1.374991 -1.9629,1.589991 -1.7859,1.785991 -1.5896,1.962988 -1.3756,2.117988 -1.1467,2.249988 -0.9051,2.357988 -0.6537,2.439985 -0.3951,2.494985 -0.1322,2.521988 0.1322,2.521985 0.3951,2.494985 0.6537,2.439985 0.9051,2.356988 1.1467,2.250988 1.3756,2.117988 1.5896,1.963097 1.7859,1.786 1.9629,1.5895 2.1183,1.3756 2.2504,1.1467 2.358,0.9051 2.4397,0.6537 2.4947,0.3952 2.5223,0.1321 2.5222,-0.1321 m -3.0788,-44.678699 -0.3439,-0.31 -0.1883,-0.422997 v -0.462997 l 0.1883,-0.421997 0.3439,-0.31 0.4402,-0.142997 0.4603,0.048 0.4009,0.232 0.272,0.373997 0.0963,0.452997 -0.0963,0.453 -0.272,0.373997 -0.4009,0.230997 -0.4603,0.049 -0.4402,-0.142997 m -3.386,0.265997 -0.344,-0.308997 -0.1882,-0.422997 v -0.463 l 0.1882,-0.422997 0.344,-0.309997 0.4402,-0.143 0.4603,0.049 0.4008,0.231 0.2721,0.374997 0.0962,0.451997 -0.0962,0.452997 -0.2721,0.374997 -0.4008,0.231 -0.4603,0.048 -0.4402,-0.143 m 6.772,0 -0.3439,-0.308997 -0.1883,-0.422997 v -0.463 l 0.1883,-0.422997 0.3439,-0.309997 0.4403,-0.143 0.4603,0.049 0.4008,0.231 0.2721,0.374997 0.0962,0.451997 -0.0962,0.452997 -0.2721,0.374997 -0.4008,0.231 -0.4604,0.048 -0.4402,-0.143 m -10.0747,0.792997 -0.3439,-0.31 -0.1883,-0.421997 v -0.462997 l 0.1883,-0.422997 0.3439,-0.31 0.4402,-0.142997 0.4604,0.049 0.4008,0.231 0.272,0.373997 0.0963,0.452997 -0.0963,0.453 -0.272,0.373997 -0.4008,0.231997 -0.4604,0.048 -0.4402,-0.142997 m 13.3774,0 -0.344,-0.31 -0.1882,-0.421997 v -0.462997 l 0.1882,-0.422997 0.344,-0.31 0.4402,-0.142997 0.4603,0.049 0.4009,0.231 0.272,0.373997 0.0963,0.452997 -0.0963,0.453 -0.272,0.373997 -0.4009,0.231997 -0.4603,0.048 -0.4402,-0.142997 m -16.5153,1.299991 -0.344,-0.309997 -0.1883,-0.422997 v -0.462 l 0.1883,-0.422997 0.344,-0.309997 0.4402,-0.143 0.4603,0.048 0.4008,0.232 0.2721,0.373997 0.0962,0.452997 -0.0962,0.452997 -0.2721,0.373997 -0.4008,0.232 -0.4603,0.048 -0.4402,-0.143 m 19.6533,0 -0.344,-0.309997 -0.1882,-0.422997 v -0.462 l 0.1882,-0.422997 0.344,-0.309997 0.4402,-0.143 0.4603,0.048 0.4008,0.232 0.2721,0.373997 0.0962,0.452997 -0.0962,0.452997 -0.2721,0.373997 -0.4008,0.232 -0.4603,0.048 -0.4402,-0.143 m -22.5493,1.774991 -0.344,-0.31 -0.1882,-0.422997 v -0.462997 l 0.1882,-0.422997 0.344,-0.309 0.4402,-0.142997 0.4603,0.048 0.4008,0.230997 0.2721,0.374997 0.0962,0.453 -0.0962,0.451997 -0.2721,0.374997 -0.4008,0.231 -0.4603,0.049 -0.4402,-0.143 m 25.4453,0 -0.344,-0.31 -0.1883,-0.422997 v -0.462997 l 0.1883,-0.422997 0.344,-0.309 0.4402,-0.142997 0.4603,0.048 0.4008,0.230997 0.2721,0.374997 0.0962,0.453 -0.0962,0.451997 -0.2721,0.374997 -0.4008,0.231 -0.4603,0.049 -0.4402,-0.143 m -28.0281,2.204988 -0.3439,-0.309 -0.1883,-0.422997 v -0.462997 l 0.1883,-0.422997 0.3439,-0.309 0.4402,-0.143997 0.4604,0.049 0.4008,0.231 0.2721,0.374997 0.0962,0.451997 -0.0962,0.453 -0.2721,0.374997 -0.4008,0.230997 -0.4603,0.049 -0.4403,-0.143997 m 30.6108,0 -0.344,-0.309 -0.1882,-0.422997 v -0.462997 l 0.1882,-0.422997 0.344,-0.309 0.4402,-0.143997 0.4603,0.049 0.4008,0.231 0.2721,0.374997 0.0962,0.451997 -0.0962,0.453 -0.2721,0.374997 -0.4008,0.230997 -0.4603,0.049 -0.4402,-0.143997 m -32.8166,2.582985 -0.344,-0.31 -0.1882,-0.421997 v -0.462997 l 0.1882,-0.422997 0.344,-0.31 0.4402,-0.142997 0.4603,0.049 0.4008,0.230997 0.2721,0.373997 0.0963,0.453 -0.0963,0.452997 -0.2721,0.373997 -0.4008,0.232 -0.4603,0.048 -0.4402,-0.142997 m 35.0224,0 -0.3439,-0.31 -0.1883,-0.422 v -0.462997 l 0.1883,-0.422997 0.3439,-0.31 0.4402,-0.142997 0.4604,0.049 0.4008,0.230997 0.2721,0.373997 0.0962,0.453 -0.0962,0.452997 -0.2721,0.374 -0.4008,0.232 -0.4604,0.048 -0.4402,-0.142997 m -36.7971,2.895982 -0.3439,-0.309997 -0.1883,-0.421997 v -0.463003 l 0.1883,-0.423 0.3439,-0.309997 0.4402,-0.143 0.4604,0.049 0.4008,0.231 0.272,0.373997 0.0963,0.452997 -0.0963,0.452997 -0.272,0.374 -0.4008,0.231997 -0.4604,0.048 -0.4402,-0.143 m 38.5718,0 -0.3439,-0.309997 -0.1883,-0.421997 v -0.462997 l 0.1883,-0.423 0.3439,-0.309997 0.4402,-0.143 0.4603,0.049 0.4009,0.231 0.272,0.373997 0.0963,0.452997 -0.0963,0.452997 -0.272,0.374 -0.4009,0.231997 -0.4603,0.048 -0.4402,-0.143 m -22.6443,2.377988 v -3.029982 h 7.83 l -1e-4,3.029982 h -7.8299 m -17.2273,0.759994 -0.3439,-0.309997 -0.1883,-0.421997 V -76.2535 l 0.1883,-0.423 0.3439,-0.309997 0.4402,-0.143 0.4604,0.049 0.4008,0.231 0.2721,0.373997 0.0962,0.452997 -0.0962,0.452997 -0.2721,0.374 -0.4008,0.231997 -0.4604,0.048 -0.4402,-0.143 m 41.1714,0 -0.344,-0.309997 -0.1882,-0.421997 V -76.2535 l 0.1882,-0.423 0.344,-0.309997 0.4402,-0.143 0.4603,0.049 0.4009,0.231 0.272,0.373997 0.0962,0.452997 -0.0962,0.452997 -0.272,0.374 -0.4009,0.231997 -0.4603,0.048 -0.4402,-0.143 m -41.9643,3.302982 -0.3439,-0.309997 -0.1883,-0.422997 v -0.463 l 0.1883,-0.421997 0.3439,-0.309997 0.4402,-0.143 0.4604,0.048 0.4008,0.232 0.2721,0.373997 0.0962,0.452997 -0.0962,0.452997 -0.2721,0.373997 -0.4008,0.231 -0.4604,0.049 -0.4402,-0.143 m 42.7572,0 -0.344,-0.309997 -0.1882,-0.422997 v -0.463 l 0.1882,-0.421997 0.344,-0.309997 0.4402,-0.143 0.4603,0.048 0.4009,0.232 0.272,0.373997 0.0963,0.452997 -0.0963,0.452997 -0.272,0.373997 -0.4009,0.231 -0.4603,0.049 -0.4402,-0.143 m -14.337,6.336964 v -7.829955 h 3.03 v 7.829955 h -3.03 m -16,0 v -7.829955 h 3.03 v 7.829955 h -3.03 m 9.2248,-1.618991 -0.2855,-0.054 -0.2765,-0.09 -0.263,-0.123997 -0.2454,-0.155 -0.0544,-0.045 v -1.495991 h -3.5 v -0.663997 h 3.5 v -1.495991 l 0.0544,-0.045 0.2454,-0.156 0.263,-0.122997 0.2765,-0.09 0.2855,-0.055 0.2902,-0.018 0.2901,0.018 0.2856,0.055 0.2764,0.09 0.263,0.122997 0.2455,0.156 0.0544,0.045 v 1.495991 h 3.5 v 0.663997 h -3.5 l -1e-4,1.495991 -0.0544,0.045 -0.2454,0.155 -0.263,0.123997 -0.2765,0.09 -0.2855,0.054 -0.2901,0.019 -0.2902,-0.019 m 15.3811,-0.682997 -0.5757,-0.517997 -0.3151,-0.707994 v -0.774997 l 0.3151,-0.706994 0.5757,-0.518997 0.7368,-0.239 0.7705,0.081 0.6709,0.386997 0.4554,0.626997 0.1611,0.757997 -0.1611,0.757994 -0.4554,0.625997 -0.6709,0.387997 -0.7705,0.081 -0.7368,-0.24 m -37.2926,-0.648994 -0.3439,-0.31 -0.1883,-0.422997 v -0.462997 l 0.1883,-0.421997 0.3439,-0.31 0.4403,-0.142997 0.4603,0.048 0.4008,0.231997 0.2721,0.373997 0.0962,0.453 -0.0962,0.452997 -0.2721,0.373997 -0.4008,0.231 -0.4603,0.049 -0.4403,-0.142997 m 43.2902,0 -0.344,-0.31 -0.1882,-0.423 v -0.462997 l 0.1882,-0.421997 0.344,-0.31 0.4402,-0.142997 0.4603,0.048 0.4008,0.231997 0.2721,0.373997 0.0962,0.453 -0.0962,0.452997 -0.2721,0.374 -0.4008,0.231 -0.4603,0.049 -0.4402,-0.142997 m -43.0237,3.385979 -0.3439,-0.309997 -0.1883,-0.422997 v -0.462997 l 0.1883,-0.422 0.3439,-0.309997 0.4402,-0.143 0.4604,0.048 0.4008,0.232 0.2721,0.373997 0.0962,0.452997 -0.0962,0.452997 -0.2721,0.374 -0.4008,0.231997 -0.4604,0.048 -0.4402,-0.143 m 42.7572,0 -0.344,-0.309997 -0.1882,-0.422997 v -0.462997 l 0.1882,-0.422 0.344,-0.309997 0.4402,-0.143 0.4603,0.048 0.4009,0.232 0.272,0.373997 0.0963,0.452997 -0.0963,0.452997 -0.272,0.374 -0.4009,0.231997 -0.4603,0.048 -0.4402,-0.143 m -41.9643,3.302982 -0.3439,-0.309997 -0.1883,-0.423 v -0.462997 l 0.1883,-0.422997 0.3439,-0.308997 0.4402,-0.143 0.4604,0.048 0.4008,0.230997 0.2721,0.375 0.0962,0.452997 -0.0962,0.451997 -0.2721,0.374997 -0.4008,0.231 -0.4604,0.049 -0.4402,-0.143 m 41.1714,0 -0.344,-0.309997 -0.1882,-0.423 v -0.462997 l 0.1882,-0.422997 0.344,-0.308997 0.4402,-0.143 0.4603,0.048 0.4009,0.230997 0.272,0.375 0.0962,0.452997 -0.0962,0.451997 -0.272,0.374997 -0.4009,0.231 -0.4603,0.049 -0.4402,-0.143 m -23.9441,1.861991 v -3.029985 h 7.83 l -1e-4,3.029985 h -7.8299 m -15.9275,1.274991 -0.3439,-0.308997 -0.1883,-0.422997 v -0.463 l 0.1883,-0.422997 0.3439,-0.308997 0.4402,-0.143 0.4604,0.048 0.4008,0.231 0.272,0.374997 0.0963,0.452997 -0.0963,0.451997 -0.272,0.374997 -0.4008,0.231 -0.4604,0.049 -0.4402,-0.144 m 38.5718,0 -0.3439,-0.308997 -0.1883,-0.422997 v -0.463 l 0.1883,-0.422997 0.3439,-0.308997 0.4402,-0.143 0.4603,0.048 0.4009,0.231 0.272,0.374997 0.0963,0.452997 -0.0963,0.451997 -0.272,0.374997 -0.4009,0.231 -0.4603,0.049 -0.4402,-0.144 m -36.7971,2.895985 -0.344,-0.309 -0.1882,-0.422997 v -0.462997 l 0.1882,-0.422997 0.344,-0.309 0.4402,-0.142997 0.4603,0.048 0.4008,0.230997 0.2721,0.374997 0.0963,0.453 -0.0963,0.451997 -0.2721,0.374997 -0.4008,0.231 -0.4603,0.049 -0.4402,-0.143997 m 35.0224,0 -0.3439,-0.309 -0.1883,-0.423 v -0.462997 l 0.1883,-0.422997 0.3439,-0.309 0.4402,-0.142997 0.4604,0.048 0.4008,0.230997 0.2721,0.374997 0.0962,0.453 -0.0962,0.451997 -0.2721,0.375 -0.4008,0.231 -0.4604,0.049 -0.4402,-0.143997 m -32.8166,2.583194 -0.3439,-0.3097 -0.1883,-0.4228 v -0.4629 l 0.1883,-0.4228 0.3439,-0.31 0.4403,-0.142997 0.4603,0.049 0.4008,0.230997 0.2721,0.3745 0.0962,0.4527 -0.0962,0.4528 -0.2721,0.3745 -0.4008,0.2314 -0.4604,0.0483 -0.4402,-0.143 m 30.6108,0 -0.344,-0.3097 -0.1882,-0.4228 v -0.4629 l 0.1882,-0.4228 0.344,-0.31 0.4402,-0.142997 0.4603,0.049 0.4008,0.230997 0.2721,0.3745 0.0962,0.4527 -0.0962,0.4528 -0.2721,0.3745 -0.4008,0.2314 -0.4603,0.0483 -0.4402,-0.143 m -28.028,2.2059 -0.344,-0.3097 -0.1882,-0.4229 v -0.4628 l 0.1882,-0.4229 0.344,-0.3097 0.4402,-0.143 0.4603,0.0484 0.4008,0.2314 0.2721,0.3744 0.0962,0.4528 -0.0962,0.4527 -0.2721,0.3745 -0.4008,0.2314 -0.4603,0.0484 -0.4402,-0.143 m 25.4453,0 -0.344,-0.3097 -0.1883,-0.4229 v -0.4628 l 0.1883,-0.4229 0.344,-0.3097 0.4402,-0.143 0.4603,0.0484 0.4008,0.2314 0.2721,0.3744 0.0962,0.4528 -0.0962,0.4527 -0.2721,0.3745 -0.4008,0.2314 -0.4603,0.0484 -0.4402,-0.143 m -22.5493,1.7746 -0.344,-0.3097 -0.1883,-0.4228 v -0.4629 l 0.1883,-0.4228 0.344,-0.3097 0.4402,-0.143 0.4603,0.0483 0.4008,0.2314 0.2721,0.3745 0.0962,0.4528 -0.0962,0.4527 -0.2721,0.3745 -0.4008,0.2314 -0.4603,0.0484 -0.4402,-0.1431 m 19.6533,0 -0.344,-0.3097 -0.1882,-0.4228 v -0.4629 l 0.1882,-0.4228 0.344,-0.3097 0.4402,-0.143 0.4603,0.0483 0.4008,0.2314 0.2721,0.3745 0.0962,0.4528 -0.0962,0.4527 -0.2721,0.3745 -0.4008,0.2314 -0.4603,0.0484 -0.4402,-0.1431 m -16.5154,1.2998 -0.3439,-0.3097 -0.1883,-0.4228 v -0.4629 l 0.1883,-0.4228 0.3439,-0.3097 0.4402,-0.143 0.4604,0.0483 0.4008,0.2314 0.272,0.3745 0.0963,0.4527 -0.0963,0.4528 -0.272,0.3745 -0.4008,0.2314 -0.4604,0.0483 -0.4402,-0.143 m 13.3774,0 -0.344,-0.3097 -0.1882,-0.4228 v -0.4629 l 0.1882,-0.4228 0.344,-0.3097 0.4402,-0.143 0.4603,0.0483 0.4009,0.2314 0.272,0.3745 0.0963,0.4527 -0.0963,0.4528 -0.272,0.3745 -0.4009,0.2314 -0.4603,0.0483 -0.4402,-0.143 m -10.0747,0.7929 -0.344,-0.3097 -0.1882,-0.4228 v -0.4629 l 0.1882,-0.4228 0.344,-0.3097 0.4402,-0.1431 0.4603,0.0484 0.4008,0.2314 0.2721,0.3745 0.0962,0.4527 -0.0962,0.4528 -0.2721,0.3745 -0.4008,0.2314 -0.4603,0.0483 -0.4402,-0.143 m 6.772,0 -0.3439,-0.3097 -0.1883,-0.4228 v -0.4629 l 0.1883,-0.4228 0.3439,-0.3097 0.4402,-0.1431 0.4604,0.0484 0.4008,0.2314 0.2721,0.3745 0.0962,0.4527 -0.0962,0.4528 -0.2721,0.3745 -0.4008,0.2314 -0.4603,0.0483 -0.4403,-0.143 m -3.386,0.2665 -0.3439,-0.3097 -0.1883,-0.4228 v -0.4629 l 0.1883,-0.4228 0.3439,-0.3097 0.4402,-0.1431 0.4603,0.0484 0.4009,0.2314 0.272,0.3745 0.0963,0.4527 -0.0963,0.4528 -0.272,0.3744 -0.4009,0.2315 -0.4603,0.0483 -0.4402,-0.143"
     fill="none"
     stroke="#0000ff"
     stroke-width="0.01"
     id="path112"
     inkscape:connector-curvature="0" />
  <path
     d="m 98.5725,-45.335738 2.4945,-0.3952 2.44,-0.6537 2.358,-0.9051 2.25,-1.1467 2.119,-1.3756 1.962,-1.5895 1.786,-1.786 1.59,-1.963097 1.376,-2.117988 1.146,-2.250988 0.905,-2.356988 0.654,-2.439985 0.395,-2.494985 0.132,-2.521985 -0.132,-2.521988 -0.395,-2.494985 -0.654,-2.439985 -0.905,-2.357988 -1.146,-2.249988 -1.376,-2.117988 -1.59,-1.962988 -1.786,-1.785991 -1.962,-1.589991 -2.119,-1.374991 -2.25,-1.146994 -2.358,-0.904994 -2.44,-0.653997 -2.4945,-0.394997 -2.5223,-0.132 -2.5223,0.132 -2.4946,0.394997 -2.4397,0.653997 -2.358,0.904994 -2.2505,1.146994 -2.1182,1.374991 -1.9629,1.589991 -1.786,1.785991 -1.5895,1.962988 -1.3756,2.117988 -1.1467,2.249988 -0.9051,2.357988 -0.6538,2.439985 -0.3951,2.494985 -0.1322,2.521988 0.1322,2.521985 0.3951,2.494985 0.6538,2.439985 0.9051,2.356988 1.1467,2.250988 1.3756,2.117988 1.5895,1.963097 1.786,1.786 1.9629,1.5895 2.1182,1.3756 2.2505,1.1467 2.358,0.9051 2.4397,0.6537 2.4946,0.3952 2.5223,0.1321 2.5223,-0.1321 m -3.0788,-44.678699 -0.344,-0.31 -0.1882,-0.422997 v -0.462997 l 0.1882,-0.421997 0.344,-0.31 0.4402,-0.142997 0.4603,0.048 0.4008,0.232 0.2721,0.373997 0.0962,0.452997 -0.0962,0.453 -0.2721,0.373997 -0.4008,0.230997 -0.4603,0.049 -0.4402,-0.142997 m -3.3861,0.265997 -0.3439,-0.308997 -0.1883,-0.422997 v -0.463 l 0.1883,-0.422997 0.3439,-0.309997 0.4403,-0.143 0.4603,0.049 0.4008,0.231 0.272,0.374997 0.0963,0.451997 -0.0963,0.452997 -0.272,0.374997 -0.4008,0.231 -0.4604,0.048 -0.4402,-0.143 m 6.7721,0 -0.344,-0.308997 -0.1882,-0.422997 v -0.463 l 0.1882,-0.422997 0.344,-0.309997 0.4402,-0.143 0.4603,0.049 0.4008,0.231 0.272,0.374997 0.096,0.451997 -0.096,0.452997 -0.272,0.374997 -0.4008,0.231 -0.4603,0.048 -0.4402,-0.143 m -10.0747,0.792997 -0.344,-0.31 -0.1882,-0.421997 v -0.462997 l 0.1882,-0.422997 0.344,-0.31 0.4402,-0.142997 0.4603,0.049 0.4008,0.231 0.2721,0.373997 0.0962,0.452997 -0.0962,0.453 -0.2721,0.373997 -0.4008,0.231997 -0.4603,0.048 -0.4402,-0.142997 m 13.377,0 -0.344,-0.31 -0.188,-0.421997 v -0.462997 l 0.188,-0.422997 0.344,-0.31 0.441,-0.142997 0.46,0.049 0.401,0.231 0.272,0.373997 0.096,0.452997 -0.096,0.453 -0.272,0.373997 -0.401,0.231997 -0.46,0.048 -0.441,-0.142997 m -16.515,1.299991 -0.3439,-0.309997 -0.1883,-0.422997 v -0.462 l 0.1883,-0.422997 0.3439,-0.309997 0.4402,-0.143 0.4604,0.048 0.4008,0.232 0.272,0.373997 0.0963,0.452997 -0.0963,0.452997 -0.272,0.373997 -0.4008,0.232 -0.4604,0.048 -0.4402,-0.143 m 19.653,0 -0.344,-0.309997 -0.188,-0.422997 v -0.462 l 0.188,-0.422997 0.344,-0.309997 0.441,-0.143 0.46,0.048 0.401,0.232 0.272,0.373997 0.096,0.452997 -0.096,0.452997 -0.272,0.373997 -0.401,0.232 -0.46,0.048 -0.441,-0.143 m -22.549,1.774991 -0.3439,-0.31 -0.1883,-0.422997 v -0.462997 l 0.1883,-0.422997 0.3439,-0.309 0.4402,-0.142997 0.4604,0.048 0.4008,0.230997 0.272,0.374997 0.0963,0.453 -0.0963,0.451997 -0.272,0.374997 -0.4008,0.231 -0.4604,0.049 -0.4402,-0.143 m 25.445,0 -0.344,-0.31 -0.188,-0.422997 v -0.462997 l 0.188,-0.422997 0.344,-0.309 0.441,-0.142997 0.46,0.048 0.401,0.230997 0.272,0.374997 0.096,0.453 -0.096,0.451997 -0.272,0.374997 -0.401,0.231 -0.46,0.049 -0.441,-0.143 m -28.0277,2.204988 -0.344,-0.309 -0.1882,-0.422997 v -0.462997 l 0.1882,-0.422997 0.344,-0.309 0.4402,-0.143997 0.4603,0.049 0.4009,0.231 0.272,0.374997 0.0962,0.451997 -0.0962,0.453 -0.272,0.374997 -0.4009,0.230997 -0.4603,0.049 -0.4402,-0.143997 m 30.6107,0 -0.344,-0.309 -0.188,-0.422997 v -0.462997 l 0.188,-0.422997 0.344,-0.309 0.44,-0.143997 0.461,0.049 0.4,0.231 0.272,0.374997 0.097,0.451997 -0.097,0.453 -0.272,0.374997 -0.4,0.230997 -0.461,0.049 -0.44,-0.143997 m -32.8166,2.582985 -0.3439,-0.31 -0.1883,-0.421997 v -0.462997 l 0.1883,-0.422997 0.3439,-0.31 0.4403,-0.142997 0.4603,0.049 0.4008,0.230997 0.2721,0.373997 0.0962,0.453 -0.0962,0.452997 -0.2721,0.373997 -0.4008,0.232 -0.4604,0.048 -0.4402,-0.142997 m 35.0226,0 -0.344,-0.31 -0.188,-0.422 v -0.462997 l 0.188,-0.422997 0.344,-0.31 0.44,-0.142997 0.46,0.049 0.401,0.230997 0.272,0.373997 0.097,0.453 -0.097,0.452997 -0.272,0.374 -0.401,0.232 -0.46,0.048 -0.44,-0.142997 m -36.7972,2.895982 -0.344,-0.309997 -0.1882,-0.421997 v -0.463003 l 0.1882,-0.423 0.344,-0.309997 0.4402,-0.143 0.4603,0.049 0.4008,0.231 0.2721,0.373997 0.0962,0.452997 -0.0962,0.452997 -0.2721,0.374 -0.4008,0.231997 -0.4603,0.048 -0.4402,-0.143 m 38.5722,0 -0.344,-0.309997 -0.189,-0.421997 v -0.462997 l 0.189,-0.423 0.344,-0.309997 0.44,-0.143 0.46,0.049 0.401,0.231 0.272,0.373997 0.096,0.452997 -0.096,0.452997 -0.272,0.374 -0.401,0.231997 -0.46,0.048 -0.44,-0.143 m -22.6448,2.377988 v -3.029982 h 7.83 v 3.029982 h -7.83 m -17.2272,0.759994 -0.344,-0.309997 -0.1882,-0.421997 V -76.2535 l 0.1882,-0.423 0.344,-0.309997 0.4402,-0.143 0.4603,0.049 0.4008,0.231 0.2721,0.373997 0.0962,0.452997 -0.0962,0.452997 -0.2721,0.374 -0.4008,0.231997 -0.4603,0.048 -0.4402,-0.143 m 41.171,0 -0.344,-0.309997 -0.188,-0.421997 V -76.2535 l 0.188,-0.423 0.344,-0.309997 0.441,-0.143 0.46,0.049 0.401,0.231 0.272,0.373997 0.096,0.452997 -0.096,0.452997 -0.272,0.374 -0.401,0.231997 -0.46,0.048 -0.441,-0.143 m -41.9639,3.302982 -0.344,-0.309997 -0.1882,-0.422997 v -0.463 l 0.1882,-0.421997 0.344,-0.309997 0.4402,-0.143 0.4603,0.048 0.4008,0.232 0.2721,0.373997 0.0962,0.452997 -0.0962,0.452997 -0.2721,0.373997 -0.4008,0.231 -0.4603,0.049 -0.4402,-0.143 m 42.7569,0 -0.344,-0.309997 -0.188,-0.422997 v -0.463 l 0.188,-0.421997 0.344,-0.309997 0.44,-0.143 0.461,0.048 0.401,0.232 0.272,0.373997 0.096,0.452997 -0.096,0.452997 -0.272,0.373997 -0.401,0.231 -0.461,0.049 -0.44,-0.143 m -14.337,6.336964 v -7.829955 h 3.03 v 7.829955 h -3.03 m -15.9998,0 v -7.829955 h 3.03 v 7.829955 h -3.03 m 7.4933,-0.413997 -2.0216,-3.500979 2.0216,-3.501982 h 4.0434 l 2.0221,3.501982 -2.0221,3.500979 h -4.0434 m -20.1799,-2.536985 -0.344,-0.31 -0.1882,-0.422997 v -0.462997 l 0.1882,-0.421997 0.344,-0.31 0.4402,-0.142997 0.4603,0.048 0.4009,0.231997 0.272,0.373997 0.0962,0.453 -0.0962,0.452997 -0.272,0.373997 -0.4009,0.231 -0.4603,0.049 -0.4402,-0.142997 m 43.2904,0 -0.344,-0.31 -0.188,-0.423 v -0.462997 l 0.188,-0.421997 0.344,-0.31 0.44,-0.142997 0.46,0.048 0.401,0.231997 0.272,0.373997 0.096,0.453 -0.096,0.452997 -0.272,0.374 -0.401,0.231 -0.46,0.049 -0.44,-0.142997 m -43.0239,3.385979 -0.344,-0.309997 -0.1882,-0.422997 v -0.462997 l 0.1882,-0.422 0.344,-0.309997 0.4402,-0.143 0.4603,0.048 0.4008,0.232 0.2721,0.373997 0.0962,0.452997 -0.0962,0.452997 -0.2721,0.374 -0.4008,0.231997 -0.4603,0.048 -0.4402,-0.143 m 42.7569,0 -0.344,-0.309997 -0.188,-0.422997 v -0.462997 l 0.188,-0.422 0.344,-0.309997 0.44,-0.143 0.461,0.048 0.401,0.232 0.272,0.373997 0.096,0.452997 -0.096,0.452997 -0.272,0.374 -0.401,0.231997 -0.461,0.048 -0.44,-0.143 m -41.964,3.302982 -0.344,-0.309997 -0.1882,-0.423 v -0.462997 l 0.1882,-0.422997 0.344,-0.308997 0.4402,-0.143 0.4603,0.048 0.4008,0.230997 0.2721,0.375 0.0962,0.452997 -0.0962,0.451997 -0.2721,0.374997 -0.4008,0.231 -0.4603,0.049 -0.4402,-0.143 m 41.171,0 -0.344,-0.309997 -0.188,-0.423 v -0.462997 l 0.188,-0.422997 0.344,-0.308997 0.441,-0.143 0.46,0.048 0.401,0.230997 0.272,0.375 0.096,0.452997 -0.096,0.451997 -0.272,0.374997 -0.401,0.231 -0.46,0.049 -0.441,-0.143 m -23.9438,1.861991 v -3.029985 h 7.83 v 3.029985 h -7.83 m -15.9274,1.274991 -0.344,-0.308997 -0.1882,-0.422997 v -0.463 l 0.1882,-0.422997 0.344,-0.308997 0.4402,-0.143 0.4603,0.048 0.4008,0.231 0.2721,0.374997 0.0962,0.452997 -0.0962,0.451997 -0.2721,0.374997 -0.4008,0.231 -0.4603,0.049 -0.4402,-0.144 m 38.5722,0 -0.344,-0.308997 -0.189,-0.422997 v -0.463 l 0.189,-0.422997 0.344,-0.308997 0.44,-0.143 0.46,0.048 0.401,0.231 0.272,0.374997 0.096,0.452997 -0.096,0.451997 -0.272,0.374997 -0.401,0.231 -0.46,0.049 -0.44,-0.144 m -36.7976,2.895985 -0.3439,-0.309 -0.1883,-0.422997 v -0.462997 l 0.1883,-0.422997 0.3439,-0.309 0.4402,-0.142997 0.4604,0.048 0.4008,0.230997 0.2721,0.374997 0.0962,0.453 -0.0962,0.451997 -0.2721,0.374997 -0.4008,0.231 -0.4603,0.049 -0.4403,-0.143997 m 35.0226,0 -0.344,-0.309 -0.188,-0.423 v -0.462997 l 0.188,-0.422997 0.344,-0.309 0.44,-0.142997 0.46,0.048 0.401,0.230997 0.272,0.374997 0.097,0.453 -0.097,0.451997 -0.272,0.375 -0.401,0.231 -0.46,0.049 -0.44,-0.143997 m -32.8167,2.583194 -0.344,-0.3097 -0.1882,-0.4228 v -0.4629 l 0.1882,-0.4228 0.344,-0.31 0.4402,-0.142997 0.4603,0.049 0.4009,0.230997 0.272,0.3745 0.0962,0.4527 -0.0962,0.4528 -0.272,0.3745 -0.4009,0.2314 -0.4603,0.0483 -0.4402,-0.143 m 30.6107,0 -0.344,-0.3097 -0.188,-0.4228 v -0.4629 l 0.188,-0.4228 0.344,-0.31 0.44,-0.142997 0.461,0.049 0.4,0.230997 0.272,0.3745 0.097,0.4527 -0.097,0.4528 -0.272,0.3745 -0.4,0.2314 -0.461,0.0483 -0.44,-0.143 m -28.028,2.2059 -0.3439,-0.3097 -0.1883,-0.4229 v -0.4628 l 0.1883,-0.4229 0.3439,-0.3097 0.4402,-0.143 0.4604,0.0484 0.4008,0.2314 0.272,0.3744 0.0963,0.4528 -0.0963,0.4527 -0.272,0.3745 -0.4008,0.2314 -0.4604,0.0484 -0.4402,-0.143 m 25.445,0 -0.344,-0.3097 -0.188,-0.4229 v -0.4628 l 0.188,-0.4229 0.344,-0.3097 0.441,-0.143 0.46,0.0484 0.401,0.2314 0.272,0.3744 0.096,0.4528 -0.096,0.4527 -0.272,0.3745 -0.401,0.2314 -0.46,0.0484 -0.441,-0.143 m -22.549,1.7746 -0.3439,-0.3097 -0.1883,-0.4228 v -0.4629 l 0.1883,-0.4228 0.3439,-0.3097 0.4402,-0.143 0.4604,0.0483 0.4008,0.2314 0.272,0.3745 0.0963,0.4528 -0.0963,0.4527 -0.272,0.3745 -0.4008,0.2314 -0.4604,0.0484 -0.4402,-0.1431 m 19.653,0 -0.344,-0.3097 -0.188,-0.4228 v -0.4629 l 0.188,-0.4228 0.344,-0.3097 0.441,-0.143 0.46,0.0483 0.401,0.2314 0.272,0.3745 0.096,0.4528 -0.096,0.4527 -0.272,0.3745 -0.401,0.2314 -0.46,0.0484 -0.441,-0.1431 m -16.515,1.2998 -0.344,-0.3097 -0.1882,-0.4228 v -0.4629 l 0.1882,-0.4228 0.344,-0.3097 0.4402,-0.143 0.4603,0.0483 0.4008,0.2314 0.2721,0.3745 0.0962,0.4527 -0.0962,0.4528 -0.2721,0.3745 -0.4008,0.2314 -0.4603,0.0483 -0.4402,-0.143 m 13.377,0 -0.344,-0.3097 -0.188,-0.4228 v -0.4629 l 0.188,-0.4228 0.344,-0.3097 0.441,-0.143 0.46,0.0483 0.401,0.2314 0.272,0.3745 0.096,0.4527 -0.096,0.4528 -0.272,0.3745 -0.401,0.2314 -0.46,0.0483 -0.441,-0.143 m -10.0744,0.7929 -0.3439,-0.3097 -0.1883,-0.4228 v -0.4629 l 0.1883,-0.4228 0.3439,-0.3097 0.4402,-0.1431 0.4604,0.0484 0.4008,0.2314 0.272,0.3745 0.0963,0.4527 -0.0963,0.4528 -0.272,0.3745 -0.4008,0.2314 -0.4603,0.0483 -0.4403,-0.143 m 6.7721,0 -0.344,-0.3097 -0.1882,-0.4228 v -0.4629 l 0.1882,-0.4228 0.344,-0.3097 0.4402,-0.1431 0.4603,0.0484 0.4008,0.2314 0.272,0.3745 0.096,0.4527 -0.096,0.4528 -0.272,0.3745 -0.4008,0.2314 -0.4603,0.0483 -0.4402,-0.143 m -3.386,0.2665 -0.344,-0.3097 -0.1882,-0.4228 v -0.4629 l 0.1882,-0.4228 0.344,-0.3097 0.4402,-0.1431 0.4603,0.0484 0.4008,0.2314 0.2721,0.3745 0.0962,0.4527 -0.0962,0.4528 -0.2721,0.3744 -0.4008,0.2315 -0.4603,0.0483 -0.4402,-0.143"
     fill="none"
     stroke="#0000ff"
     stroke-width="0.01"
     id="path114"
     inkscape:connector-curvature="0" />
  <path
     d="m 82.0001,33.77335 h 7.83 l -1e-4,3.200011 m 5.7701,0 V 31.20335 h -3.2 v -7.83 h 3.2 v -5.77 h -5.77 l -1e-4,3.2 h -7.8299 v -3.2 h -5.77 m 0,5.77 h 3.2 v 7.83 h -3.2 m 5.77,5.770011 V 33.77335 m 3.6887,-4.3323 -0.4426,-0.0941 -0.4134,-0.1841 -0.3661,-0.2659 -0.3028,-0.3363 -0.2262,-0.3919 -0.1398,-0.4304 -0.0474,-0.45 0.0474,-0.45 0.1398,-0.4304 0.2262,-0.3918 0.3028,-0.3363 0.3661,-0.266 0.4134,-0.1841 0.4426,-0.0941 h 0.4525 l 0.4426,0.0941 0.4134,0.1841 0.3661,0.266 0.3028,0.3363 0.2263,0.3918 0.1398,0.4304 0.0473,0.45 -0.0473,0.45 -0.1398,0.4304 -0.2263,0.3919 -0.3028,0.3363 -0.3661,0.2659 -0.4134,0.1841 -0.4426,0.0941 h -0.4525"
     fill="none"
     stroke="#0000ff"
     stroke-width="0.01"
     id="path116"
     inkscape:connector-curvature="0" />
</svg>
