<?xml version="1.0" encoding="UTF-8" standalone="no"?>
<svg
   xmlns:dc="http://purl.org/dc/elements/1.1/"
   xmlns:cc="http://creativecommons.org/ns#"
   xmlns:rdf="http://www.w3.org/1999/02/22-rdf-syntax-ns#"
   xmlns:svg="http://www.w3.org/2000/svg"
   xmlns="http://www.w3.org/2000/svg"
   id="svg22"
   version="1.1"
   viewBox="0 0 210 297"
   height="297mm"
   width="210mm">
  <defs
     id="defs16" />
  <metadata
     id="metadata19">
    <rdf:RDF>
      <cc:Work
         rdf:about="">
        <dc:format>image/svg+xml</dc:format>
        <dc:type
           rdf:resource="http://purl.org/dc/dcmitype/StillImage" />
        <dc:title></dc:title>
      </cc:Work>
    </rdf:RDF>
  </metadata>
  <g
     id="layer1">
    <g
       style="font-size:25.4px;line-height:1.25;font-family:'Arial Narrow';-inkscape-font-specification:'Arial Narrow';stroke-width:0.264583"
       id="text26"
       aria-label="B">
      <path
         id="path28"
         style="stroke-width:0.264583"
         d="m 32.531938,121.70833 v -18.18184 h 5.593457 q 1.699121,0 2.691308,0.5333 0.992188,0.5209 1.624707,1.63711 0.63252,1.11621 0.63252,2.46807 0,1.25264 -0.545703,2.25723 -0.545703,1.00459 -1.537891,1.6123 1.302246,0.47129 2.046387,1.6123 0.756543,1.12862 0.756543,2.79053 0,1.64951 -0.682129,2.90215 -0.669727,1.24023 -1.79834,1.81074 -1.128613,0.55811 -3.100586,0.55811 z m 1.971972,-10.54199 h 3.22461 q 1.265039,0 1.79834,-0.17364 0.768945,-0.26045 1.178222,-0.86816 0.42168,-0.62012 0.42168,-1.67432 0,-0.97978 -0.384473,-1.6247 -0.37207,-0.65733 -1.00459,-0.90538 -0.620117,-0.24804 -2.244824,-0.24804 H 34.50391 Z m 0,8.39638 h 3.708301 q 1.227832,0 1.810742,-0.22324 0.84336,-0.32246 1.277442,-1.0542 0.446484,-0.74414 0.446484,-1.86035 0,-1.02939 -0.42168,-1.73633 -0.421679,-0.71933 -1.141015,-1.0418 -0.706934,-0.33486 -2.232422,-0.33486 H 34.50391 Z" />
    </g>
  </g>
</svg>
