  0
SECTION
  2
BLOCKS
  0
ENDSEC
  0
SECTION
  2
ENTITIES
  0
LINE
  8
0
 10
4.58783
 20
-43.6504
 11
9.12541
 21
-42.9317
  0
LINE
  8
0
 10
9.12541
 20
-42.9317
 11
13.563
 21
-41.7427
  0
LINE
  8
0
 10
13.563
 20
-41.7427
 11
17.852
 21
-40.0963
  0
LINE
  8
0
 10
17.852
 20
-40.0963
 11
21.9454
 21
-38.0106
  0
LINE
  8
0
 10
21.9454
 20
-38.0106
 11
25.7984
 21
-35.5084
  0
LINE
  8
0
 10
25.7984
 20
-35.5084
 11
29.3687
 21
-32.6172
  0
LINE
  8
0
 10
29.3687
 20
-32.6172
 11
32.6172
 21
-29.3687
  0
LINE
  8
0
 10
32.6172
 20
-29.3687
 11
35.5084
 21
-25.7984
  0
LINE
  8
0
 10
35.5084
 20
-25.7984
 11
38.0106
 21
-21.9454
  0
LINE
  8
0
 10
38.0106
 20
-21.9454
 11
40.0963
 21
-17.852
  0
LINE
  8
0
 10
40.0963
 20
-17.852
 11
41.7427
 21
-13.563
  0
LINE
  8
0
 10
41.7427
 20
-13.563
 11
42.9317
 21
-9.12541
  0
LINE
  8
0
 10
42.9317
 20
-9.12541
 11
43.6504
 21
-4.58783
  0
LINE
  8
0
 10
43.6504
 20
-4.58783
 11
43.8908
 21
0
  0
LINE
  8
0
 10
43.8908
 20
0
 11
43.6504
 21
4.58783
  0
LINE
  8
0
 10
43.6504
 20
4.58783
 11
42.9317
 21
9.12541
  0
LINE
  8
0
 10
42.9317
 20
9.12541
 11
41.7427
 21
13.563
  0
LINE
  8
0
 10
41.7427
 20
13.563
 11
40.0963
 21
17.852
  0
LINE
  8
0
 10
40.0963
 20
17.852
 11
38.0106
 21
21.9454
  0
LINE
  8
0
 10
38.0106
 20
21.9454
 11
35.5084
 21
25.7984
  0
LINE
  8
0
 10
35.5084
 20
25.7984
 11
32.6172
 21
29.3687
  0
LINE
  8
0
 10
32.6172
 20
29.3687
 11
29.3687
 21
32.6172
  0
LINE
  8
0
 10
29.3687
 20
32.6172
 11
25.7984
 21
35.5084
  0
LINE
  8
0
 10
25.7984
 20
35.5084
 11
21.9454
 21
38.0106
  0
LINE
  8
0
 10
21.9454
 20
38.0106
 11
17.852
 21
40.0963
  0
LINE
  8
0
 10
17.852
 20
40.0963
 11
13.563
 21
41.7427
  0
LINE
  8
0
 10
13.563
 20
41.7427
 11
9.12541
 21
42.9317
  0
LINE
  8
0
 10
9.12541
 20
42.9317
 11
4.58783
 21
43.6504
  0
LINE
  8
0
 10
4.58783
 20
43.6504
 11
0
 21
43.8908
  0
LINE
  8
0
 10
0
 20
43.8908
 11
-4.58783
 21
43.6504
  0
LINE
  8
0
 10
-4.58783
 20
43.6504
 11
-9.12541
 21
42.9317
  0
LINE
  8
0
 10
-9.12541
 20
42.9317
 11
-13.563
 21
41.7427
  0
LINE
  8
0
 10
-13.563
 20
41.7427
 11
-17.852
 21
40.0963
  0
LINE
  8
0
 10
-17.852
 20
40.0963
 11
-21.9454
 21
38.0106
  0
LINE
  8
0
 10
-21.9454
 20
38.0106
 11
-25.7984
 21
35.5084
  0
LINE
  8
0
 10
-25.7984
 20
35.5084
 11
-29.3687
 21
32.6172
  0
LINE
  8
0
 10
-29.3687
 20
32.6172
 11
-32.6172
 21
29.3687
  0
LINE
  8
0
 10
-32.6172
 20
29.3687
 11
-35.5084
 21
25.7984
  0
LINE
  8
0
 10
-35.5084
 20
25.7984
 11
-38.0106
 21
21.9454
  0
LINE
  8
0
 10
-38.0106
 20
21.9454
 11
-40.0963
 21
17.852
  0
LINE
  8
0
 10
-40.0963
 20
17.852
 11
-41.7427
 21
13.563
  0
LINE
  8
0
 10
-41.7427
 20
13.563
 11
-42.9317
 21
9.12541
  0
LINE
  8
0
 10
-42.9317
 20
9.12541
 11
-43.6504
 21
4.58783
  0
LINE
  8
0
 10
-43.6504
 20
4.58783
 11
-43.8908
 21
0
  0
LINE
  8
0
 10
-43.8908
 20
0
 11
-43.6504
 21
-4.58783
  0
LINE
  8
0
 10
-43.6504
 20
-4.58783
 11
-42.9317
 21
-9.12541
  0
LINE
  8
0
 10
-42.9317
 20
-9.12541
 11
-41.7427
 21
-13.563
  0
LINE
  8
0
 10
-41.7427
 20
-13.563
 11
-40.0963
 21
-17.852
  0
LINE
  8
0
 10
-40.0963
 20
-17.852
 11
-38.0106
 21
-21.9454
  0
LINE
  8
0
 10
-38.0106
 20
-21.9454
 11
-35.5084
 21
-25.7984
  0
LINE
  8
0
 10
-35.5084
 20
-25.7984
 11
-32.6172
 21
-29.3687
  0
LINE
  8
0
 10
-32.6172
 20
-29.3687
 11
-29.3687
 21
-32.6172
  0
LINE
  8
0
 10
-29.3687
 20
-32.6172
 11
-25.7984
 21
-35.5084
  0
LINE
  8
0
 10
-25.7984
 20
-35.5084
 11
-21.9454
 21
-38.0106
  0
LINE
  8
0
 10
-21.9454
 20
-38.0106
 11
-17.852
 21
-40.0963
  0
LINE
  8
0
 10
-17.852
 20
-40.0963
 11
-13.563
 21
-41.7427
  0
LINE
  8
0
 10
-13.563
 20
-41.7427
 11
-9.12541
 21
-42.9317
  0
LINE
  8
0
 10
-9.12541
 20
-42.9317
 11
-4.58783
 21
-43.6504
  0
LINE
  8
0
 10
-4.58783
 20
-43.6504
 11
0
 21
-43.8908
  0
LINE
  8
0
 10
0
 20
-43.8908
 11
4.58783
 21
-43.6504
  0
LINE
  8
0
 10
0.37471
 20
37.6348
 11
-0.243301
 21
38.1913
  0
LINE
  8
0
 10
-0.243301
 20
38.1913
 11
-0.581573
 21
38.951
  0
LINE
  8
0
 10
-0.581573
 20
38.951
 11
-0.581573
 21
39.7827
  0
LINE
  8
0
 10
-0.581573
 20
39.7827
 11
-0.243301
 21
40.5424
  0
LINE
  8
0
 10
-0.243301
 20
40.5424
 11
0.37471
 21
41.0989
  0
LINE
  8
0
 10
0.37471
 20
41.0989
 11
1.16565
 21
41.3559
  0
LINE
  8
0
 10
1.16565
 20
41.3559
 11
1.99275
 21
41.269
  0
LINE
  8
0
 10
1.99275
 20
41.269
 11
2.71297
 21
40.8531
  0
LINE
  8
0
 10
2.71297
 20
40.8531
 11
3.2018
 21
40.1803
  0
LINE
  8
0
 10
3.2018
 20
40.1803
 11
3.37471
 21
39.3669
  0
LINE
  8
0
 10
3.37471
 20
39.3669
 11
3.2018
 21
38.5534
  0
LINE
  8
0
 10
3.2018
 20
38.5534
 11
2.71297
 21
37.8806
  0
LINE
  8
0
 10
2.71297
 20
37.8806
 11
1.99275
 21
37.4647
  0
LINE
  8
0
 10
1.99275
 20
37.4647
 11
1.16565
 21
37.3778
  0
LINE
  8
0
 10
1.16565
 20
37.3778
 11
0.37471
 21
37.6348
  0
LINE
  8
0
 10
-5.11746
 20
37.443
 11
-5.73549
 21
37.9995
  0
LINE
  8
0
 10
-5.73549
 20
37.9995
 11
-6.07375
 21
38.7592
  0
LINE
  8
0
 10
-6.07375
 20
38.7592
 11
-6.07375
 21
39.5909
  0
LINE
  8
0
 10
-6.07375
 20
39.5909
 11
-5.73549
 21
40.3506
  0
LINE
  8
0
 10
-5.73549
 20
40.3506
 11
-5.11746
 21
40.9071
  0
LINE
  8
0
 10
-5.11746
 20
40.9071
 11
-4.32651
 21
41.1641
  0
LINE
  8
0
 10
-4.32651
 20
41.1641
 11
-3.49942
 21
41.0772
  0
LINE
  8
0
 10
-3.49942
 20
41.0772
 11
-2.77919
 21
40.6613
  0
LINE
  8
0
 10
-2.77919
 20
40.6613
 11
-2.29036
 21
39.9885
  0
LINE
  8
0
 10
-2.29036
 20
39.9885
 11
-2.11746
 21
39.175
  0
LINE
  8
0
 10
-2.11746
 20
39.175
 11
-2.29036
 21
38.3616
  0
LINE
  8
0
 10
-2.29036
 20
38.3616
 11
-2.77919
 21
37.6888
  0
LINE
  8
0
 10
-2.77919
 20
37.6888
 11
-3.49942
 21
37.2729
  0
LINE
  8
0
 10
-3.49942
 20
37.2729
 11
-4.32651
 21
37.186
  0
LINE
  8
0
 10
-4.32651
 20
37.186
 11
-5.11746
 21
37.443
  0
LINE
  8
0
 10
5.84015
 20
37.0603
 11
5.22211
 21
37.6168
  0
LINE
  8
0
 10
5.22211
 20
37.6168
 11
4.88385
 21
38.3766
  0
LINE
  8
0
 10
4.88385
 20
38.3766
 11
4.88385
 21
39.2082
  0
LINE
  8
0
 10
4.88385
 20
39.2082
 11
5.22211
 21
39.968
  0
LINE
  8
0
 10
5.22211
 20
39.968
 11
5.84015
 21
40.5245
  0
LINE
  8
0
 10
5.84015
 20
40.5245
 11
6.63109
 21
40.7814
  0
LINE
  8
0
 10
6.63109
 20
40.7814
 11
7.45818
 21
40.6945
  0
LINE
  8
0
 10
7.45818
 20
40.6945
 11
8.17841
 21
40.2787
  0
LINE
  8
0
 10
8.17841
 20
40.2787
 11
8.66724
 21
39.6059
  0
LINE
  8
0
 10
8.66724
 20
39.6059
 11
8.84015
 21
38.7924
  0
LINE
  8
0
 10
8.84015
 20
38.7924
 11
8.66724
 21
37.9789
  0
LINE
  8
0
 10
8.66724
 20
37.9789
 11
8.17841
 21
37.3061
  0
LINE
  8
0
 10
8.17841
 20
37.3061
 11
7.45818
 21
36.8903
  0
LINE
  8
0
 10
7.45818
 20
36.8903
 11
6.63109
 21
36.8034
  0
LINE
  8
0
 10
6.63109
 20
36.8034
 11
5.84015
 21
37.0603
  0
LINE
  8
0
 10
-10.5295
 20
36.4887
 11
-11.1475
 21
37.0452
  0
LINE
  8
0
 10
-11.1475
 20
37.0452
 11
-11.4858
 21
37.8049
  0
LINE
  8
0
 10
-11.4858
 20
37.8049
 11
-11.4858
 21
38.6366
  0
LINE
  8
0
 10
-11.4858
 20
38.6366
 11
-11.1475
 21
39.3963
  0
LINE
  8
0
 10
-11.1475
 20
39.3963
 11
-10.5295
 21
39.9528
  0
LINE
  8
0
 10
-10.5295
 20
39.9528
 11
-9.73856
 21
40.2098
  0
LINE
  8
0
 10
-9.73856
 20
40.2098
 11
-8.91147
 21
40.1229
  0
LINE
  8
0
 10
-8.91147
 20
40.1229
 11
-8.19124
 21
39.707
  0
LINE
  8
0
 10
-8.19124
 20
39.707
 11
-7.70241
 21
39.0342
  0
LINE
  8
0
 10
-7.70241
 20
39.0342
 11
-7.5295
 21
38.2208
  0
LINE
  8
0
 10
-7.5295
 20
38.2208
 11
-7.70241
 21
37.4073
  0
LINE
  8
0
 10
-7.70241
 20
37.4073
 11
-8.19124
 21
36.7345
  0
LINE
  8
0
 10
-8.19124
 20
36.7345
 11
-8.91147
 21
36.3186
  0
LINE
  8
0
 10
-8.91147
 20
36.3186
 11
-9.73856
 21
36.2317
  0
LINE
  8
0
 10
-9.73856
 20
36.2317
 11
-10.5295
 21
36.4887
  0
LINE
  8
0
 10
11.1724
 20
35.7309
 11
10.5544
 21
36.2873
  0
LINE
  8
0
 10
10.5544
 20
36.2873
 11
10.2161
 21
37.0471
  0
LINE
  8
0
 10
10.2161
 20
37.0471
 11
10.2161
 21
37.8787
  0
LINE
  8
0
 10
10.2161
 20
37.8787
 11
10.5544
 21
38.6385
  0
LINE
  8
0
 10
10.5544
 20
38.6385
 11
11.1724
 21
39.195
  0
LINE
  8
0
 10
11.1724
 20
39.195
 11
11.9634
 21
39.452
  0
LINE
  8
0
 10
11.9634
 20
39.452
 11
12.7905
 21
39.365
  0
LINE
  8
0
 10
12.7905
 20
39.365
 11
13.5107
 21
38.9492
  0
LINE
  8
0
 10
13.5107
 20
38.9492
 11
13.9995
 21
38.2764
  0
LINE
  8
0
 10
13.9995
 20
38.2764
 11
14.1724
 21
37.4629
  0
LINE
  8
0
 10
14.1724
 20
37.4629
 11
13.9995
 21
36.6494
  0
LINE
  8
0
 10
13.9995
 20
36.6494
 11
13.5107
 21
35.9766
  0
LINE
  8
0
 10
13.5107
 20
35.9766
 11
12.7905
 21
35.5608
  0
LINE
  8
0
 10
12.7905
 20
35.5608
 11
11.9634
 21
35.4739
  0
LINE
  8
0
 10
11.9634
 20
35.4739
 11
11.1724
 21
35.7309
  0
LINE
  8
0
 10
-15.7561
 20
34.7905
 11
-16.3741
 21
35.347
  0
LINE
  8
0
 10
-16.3741
 20
35.347
 11
-16.7124
 21
36.1067
  0
LINE
  8
0
 10
-16.7124
 20
36.1067
 11
-16.7124
 21
36.9384
  0
LINE
  8
0
 10
-16.7124
 20
36.9384
 11
-16.3741
 21
37.6981
  0
LINE
  8
0
 10
-16.3741
 20
37.6981
 11
-15.7561
 21
38.2546
  0
LINE
  8
0
 10
-15.7561
 20
38.2546
 11
-14.9651
 21
38.5116
  0
LINE
  8
0
 10
-14.9651
 20
38.5116
 11
-14.138
 21
38.4247
  0
LINE
  8
0
 10
-14.138
 20
38.4247
 11
-13.4178
 21
38.0088
  0
LINE
  8
0
 10
-13.4178
 20
38.0088
 11
-12.929
 21
37.336
  0
LINE
  8
0
 10
-12.929
 20
37.336
 11
-12.7561
 21
36.5226
  0
LINE
  8
0
 10
-12.7561
 20
36.5226
 11
-12.929
 21
35.7091
  0
LINE
  8
0
 10
-12.929
 20
35.7091
 11
-13.4178
 21
35.0363
  0
LINE
  8
0
 10
-13.4178
 20
35.0363
 11
-14.138
 21
34.6204
  0
LINE
  8
0
 10
-14.138
 20
34.6204
 11
-14.9651
 21
34.5335
  0
LINE
  8
0
 10
-14.9651
 20
34.5335
 11
-15.7561
 21
34.7905
  0
LINE
  8
0
 10
16.2678
 20
33.6722
 11
15.6498
 21
34.2287
  0
LINE
  8
0
 10
15.6498
 20
34.2287
 11
15.3115
 21
34.9884
  0
LINE
  8
0
 10
15.3115
 20
34.9884
 11
15.3115
 21
35.8201
  0
LINE
  8
0
 10
15.3115
 20
35.8201
 11
15.6498
 21
36.5798
  0
LINE
  8
0
 10
15.6498
 20
36.5798
 11
16.2678
 21
37.1363
  0
LINE
  8
0
 10
16.2678
 20
37.1363
 11
17.0587
 21
37.3933
  0
LINE
  8
0
 10
17.0587
 20
37.3933
 11
17.8858
 21
37.3064
  0
LINE
  8
0
 10
17.8858
 20
37.3064
 11
18.6061
 21
36.8905
  0
LINE
  8
0
 10
18.6061
 20
36.8905
 11
19.0949
 21
36.2177
  0
LINE
  8
0
 10
19.0949
 20
36.2177
 11
19.2678
 21
35.4043
  0
LINE
  8
0
 10
19.2678
 20
35.4043
 11
19.0949
 21
34.5908
  0
LINE
  8
0
 10
19.0949
 20
34.5908
 11
18.6061
 21
33.918
  0
LINE
  8
0
 10
18.6061
 20
33.918
 11
17.8858
 21
33.5021
  0
LINE
  8
0
 10
17.8858
 20
33.5021
 11
17.0587
 21
33.4152
  0
LINE
  8
0
 10
17.0587
 20
33.4152
 11
16.2678
 21
33.6722
  0
LINE
  8
0
 10
-20.6954
 20
32.3814
 11
-21.3134
 21
32.9379
  0
LINE
  8
0
 10
-21.3134
 20
32.9379
 11
-21.6517
 21
33.6976
  0
LINE
  8
0
 10
-21.6517
 20
33.6976
 11
-21.6517
 21
34.5293
  0
LINE
  8
0
 10
-21.6517
 20
34.5293
 11
-21.3134
 21
35.289
  0
LINE
  8
0
 10
-21.3134
 20
35.289
 11
-20.6954
 21
35.8455
  0
LINE
  8
0
 10
-20.6954
 20
35.8455
 11
-19.9045
 21
36.1025
  0
LINE
  8
0
 10
-19.9045
 20
36.1025
 11
-19.0774
 21
36.0156
  0
LINE
  8
0
 10
-19.0774
 20
36.0156
 11
-18.3572
 21
35.5998
  0
LINE
  8
0
 10
-18.3572
 20
35.5998
 11
-17.8683
 21
34.9269
  0
LINE
  8
0
 10
-17.8683
 20
34.9269
 11
-17.6954
 21
34.1135
  0
LINE
  8
0
 10
-17.6954
 20
34.1135
 11
-17.8683
 21
33.3
  0
LINE
  8
0
 10
-17.8683
 20
33.3
 11
-18.3572
 21
32.6272
  0
LINE
  8
0
 10
-18.3572
 20
32.6272
 11
-19.0774
 21
32.2113
  0
LINE
  8
0
 10
-19.0774
 20
32.2113
 11
-19.9045
 21
32.1244
  0
LINE
  8
0
 10
-19.9045
 20
32.1244
 11
-20.6954
 21
32.3814
  0
LINE
  8
0
 10
21.0271
 20
30.9244
 11
20.409
 21
31.4809
  0
LINE
  8
0
 10
20.409
 20
31.4809
 11
20.0708
 21
32.2407
  0
LINE
  8
0
 10
20.0708
 20
32.2407
 11
20.0708
 21
33.0723
  0
LINE
  8
0
 10
20.0708
 20
33.0723
 11
20.409
 21
33.8321
  0
LINE
  8
0
 10
20.409
 20
33.8321
 11
21.0271
 21
34.3885
  0
LINE
  8
0
 10
21.0271
 20
34.3885
 11
21.818
 21
34.6455
  0
LINE
  8
0
 10
21.818
 20
34.6455
 11
22.6451
 21
34.5586
  0
LINE
  8
0
 10
22.6451
 20
34.5586
 11
23.3653
 21
34.1428
  0
LINE
  8
0
 10
23.3653
 20
34.1428
 11
23.8542
 21
33.47
  0
LINE
  8
0
 10
23.8542
 20
33.47
 11
24.0271
 21
32.6565
  0
LINE
  8
0
 10
24.0271
 20
32.6565
 11
23.8542
 21
31.843
  0
LINE
  8
0
 10
23.8542
 20
31.843
 11
23.3653
 21
31.1702
  0
LINE
  8
0
 10
23.3653
 20
31.1702
 11
22.6451
 21
30.7544
  0
LINE
  8
0
 10
22.6451
 20
30.7544
 11
21.818
 21
30.6674
  0
LINE
  8
0
 10
21.818
 20
30.6674
 11
21.0271
 21
30.9244
  0
LINE
  8
0
 10
-25.2514
 20
29.3083
 11
-25.8695
 21
29.8648
  0
LINE
  8
0
 10
-25.8695
 20
29.8648
 11
-26.2077
 21
30.6246
  0
LINE
  8
0
 10
-26.2077
 20
30.6246
 11
-26.2077
 21
31.4562
  0
LINE
  8
0
 10
-26.2077
 20
31.4562
 11
-25.8695
 21
32.216
  0
LINE
  8
0
 10
-25.8695
 20
32.216
 11
-25.2514
 21
32.7725
  0
LINE
  8
0
 10
-25.2514
 20
32.7725
 11
-24.4605
 21
33.0294
  0
LINE
  8
0
 10
-24.4605
 20
33.0294
 11
-23.6334
 21
32.9425
  0
LINE
  8
0
 10
-23.6334
 20
32.9425
 11
-22.9132
 21
32.5267
  0
LINE
  8
0
 10
-22.9132
 20
32.5267
 11
-22.4243
 21
31.8539
  0
LINE
  8
0
 10
-22.4243
 20
31.8539
 11
-22.2514
 21
31.0404
  0
LINE
  8
0
 10
-22.2514
 20
31.0404
 11
-22.4243
 21
30.2269
  0
LINE
  8
0
 10
-22.4243
 20
30.2269
 11
-22.9132
 21
29.5541
  0
LINE
  8
0
 10
-22.9132
 20
29.5541
 11
-23.6334
 21
29.1383
  0
LINE
  8
0
 10
-23.6334
 20
29.1383
 11
-24.4605
 21
29.0514
  0
LINE
  8
0
 10
-24.4605
 20
29.0514
 11
-25.2514
 21
29.3083
  0
LINE
  8
0
 10
25.3576
 20
27.541
 11
24.7396
 21
28.0975
  0
LINE
  8
0
 10
24.7396
 20
28.0975
 11
24.4013
 21
28.8573
  0
LINE
  8
0
 10
24.4013
 20
28.8573
 11
24.4013
 21
29.6889
  0
LINE
  8
0
 10
24.4013
 20
29.6889
 11
24.7396
 21
30.4487
  0
LINE
  8
0
 10
24.7396
 20
30.4487
 11
25.3576
 21
31.0051
  0
LINE
  8
0
 10
25.3576
 20
31.0051
 11
26.1486
 21
31.2621
  0
LINE
  8
0
 10
26.1486
 20
31.2621
 11
26.9756
 21
31.1752
  0
LINE
  8
0
 10
26.9756
 20
31.1752
 11
27.6959
 21
30.7594
  0
LINE
  8
0
 10
27.6959
 20
30.7594
 11
28.1847
 21
30.0866
  0
LINE
  8
0
 10
28.1847
 20
30.0866
 11
28.3576
 21
29.2731
  0
LINE
  8
0
 10
28.3576
 20
29.2731
 11
28.1847
 21
28.4596
  0
LINE
  8
0
 10
28.1847
 20
28.4596
 11
27.6959
 21
27.7868
  0
LINE
  8
0
 10
27.6959
 20
27.7868
 11
26.9756
 21
27.371
  0
LINE
  8
0
 10
26.9756
 20
27.371
 11
26.1486
 21
27.2841
  0
LINE
  8
0
 10
26.1486
 20
27.2841
 11
25.3576
 21
27.541
  0
LINE
  8
0
 10
-29.3354
 20
25.6311
 11
-29.9534
 21
26.1876
  0
LINE
  8
0
 10
-29.9534
 20
26.1876
 11
-30.2917
 21
26.9474
  0
LINE
  8
0
 10
-30.2917
 20
26.9474
 11
-30.2917
 21
27.779
  0
LINE
  8
0
 10
-30.2917
 20
27.779
 11
-29.9534
 21
28.5387
  0
LINE
  8
0
 10
-29.9534
 20
28.5387
 11
-29.3354
 21
29.0952
  0
LINE
  8
0
 10
-29.3354
 20
29.0952
 11
-28.5444
 21
29.3522
  0
LINE
  8
0
 10
-28.5444
 20
29.3522
 11
-27.7174
 21
29.2653
  0
LINE
  8
0
 10
-27.7174
 20
29.2653
 11
-26.9971
 21
28.8495
  0
LINE
  8
0
 10
-26.9971
 20
28.8495
 11
-26.5083
 21
28.1767
  0
LINE
  8
0
 10
-26.5083
 20
28.1767
 11
-26.3354
 21
27.3632
  0
LINE
  8
0
 10
-26.3354
 20
27.3632
 11
-26.5083
 21
26.5497
  0
LINE
  8
0
 10
-26.5083
 20
26.5497
 11
-26.9971
 21
25.8769
  0
LINE
  8
0
 10
-26.9971
 20
25.8769
 11
-27.7174
 21
25.4611
  0
LINE
  8
0
 10
-27.7174
 20
25.4611
 11
-28.5444
 21
25.3741
  0
LINE
  8
0
 10
-28.5444
 20
25.3741
 11
-29.3354
 21
25.6311
  0
LINE
  8
0
 10
29.1751
 20
23.5879
 11
28.5571
 21
24.1444
  0
LINE
  8
0
 10
28.5571
 20
24.1444
 11
28.2188
 21
24.9041
  0
LINE
  8
0
 10
28.2188
 20
24.9041
 11
28.2188
 21
25.7358
  0
LINE
  8
0
 10
28.2188
 20
25.7358
 11
28.5571
 21
26.4955
  0
LINE
  8
0
 10
28.5571
 20
26.4955
 11
29.1751
 21
27.052
  0
LINE
  8
0
 10
29.1751
 20
27.052
 11
29.9661
 21
27.309
  0
LINE
  8
0
 10
29.9661
 20
27.309
 11
30.7932
 21
27.2221
  0
LINE
  8
0
 10
30.7932
 20
27.2221
 11
31.5134
 21
26.8062
  0
LINE
  8
0
 10
31.5134
 20
26.8062
 11
32.0022
 21
26.1334
  0
LINE
  8
0
 10
32.0022
 20
26.1334
 11
32.1751
 21
25.3199
  0
LINE
  8
0
 10
32.1751
 20
25.3199
 11
32.0022
 21
24.5065
  0
LINE
  8
0
 10
32.0022
 20
24.5065
 11
31.5134
 21
23.8336
  0
LINE
  8
0
 10
31.5134
 20
23.8336
 11
30.7932
 21
23.4178
  0
LINE
  8
0
 10
30.7932
 20
23.4178
 11
29.9661
 21
23.3309
  0
LINE
  8
0
 10
29.9661
 20
23.3309
 11
29.1751
 21
23.5879
  0
LINE
  8
0
 10
-32.8679
 20
21.4213
 11
-33.4859
 21
21.9778
  0
LINE
  8
0
 10
-33.4859
 20
21.9778
 11
-33.8242
 21
22.7375
  0
LINE
  8
0
 10
-33.8242
 20
22.7375
 11
-33.8242
 21
23.5692
  0
LINE
  8
0
 10
-33.8242
 20
23.5692
 11
-33.4859
 21
24.3289
  0
LINE
  8
0
 10
-33.4859
 20
24.3289
 11
-32.8679
 21
24.8854
  0
LINE
  8
0
 10
-32.8679
 20
24.8854
 11
-32.0769
 21
25.1424
  0
LINE
  8
0
 10
-32.0769
 20
25.1424
 11
-31.2498
 21
25.0555
  0
LINE
  8
0
 10
-31.2498
 20
25.0555
 11
-30.5296
 21
24.6396
  0
LINE
  8
0
 10
-30.5296
 20
24.6396
 11
-30.0408
 21
23.9668
  0
LINE
  8
0
 10
-30.0408
 20
23.9668
 11
-29.8679
 21
23.1534
  0
LINE
  8
0
 10
-29.8679
 20
23.1534
 11
-30.0408
 21
22.3399
  0
LINE
  8
0
 10
-30.0408
 20
22.3399
 11
-30.5296
 21
21.6671
  0
LINE
  8
0
 10
-30.5296
 20
21.6671
 11
-31.2498
 21
21.2512
  0
LINE
  8
0
 10
-31.2498
 20
21.2512
 11
-32.0769
 21
21.1643
  0
LINE
  8
0
 10
-32.0769
 20
21.1643
 11
-32.8679
 21
21.4213
  0
LINE
  8
0
 10
32.4053
 20
19.1419
 11
31.7873
 21
19.6984
  0
LINE
  8
0
 10
31.7873
 20
19.6984
 11
31.449
 21
20.4581
  0
LINE
  8
0
 10
31.449
 20
20.4581
 11
31.449
 21
21.2898
  0
LINE
  8
0
 10
31.449
 20
21.2898
 11
31.7873
 21
22.0495
  0
LINE
  8
0
 10
31.7873
 20
22.0495
 11
32.4053
 21
22.606
  0
LINE
  8
0
 10
32.4053
 20
22.606
 11
33.1963
 21
22.863
  0
LINE
  8
0
 10
33.1963
 20
22.863
 11
34.0234
 21
22.7761
  0
LINE
  8
0
 10
34.0234
 20
22.7761
 11
34.7436
 21
22.3602
  0
LINE
  8
0
 10
34.7436
 20
22.3602
 11
35.2324
 21
21.6874
  0
LINE
  8
0
 10
35.2324
 20
21.6874
 11
35.4053
 21
20.874
  0
LINE
  8
0
 10
35.4053
 20
20.874
 11
35.2324
 21
20.0605
  0
LINE
  8
0
 10
35.2324
 20
20.0605
 11
34.7436
 21
19.3877
  0
LINE
  8
0
 10
34.7436
 20
19.3877
 11
34.0234
 21
18.9718
  0
LINE
  8
0
 10
34.0234
 20
18.9718
 11
33.1963
 21
18.8849
  0
LINE
  8
0
 10
33.1963
 20
18.8849
 11
32.4053
 21
19.1419
  0
LINE
  8
0
 10
-35.78
 20
16.7608
 11
-36.3981
 21
17.3173
  0
LINE
  8
0
 10
-36.3981
 20
17.3173
 11
-36.7363
 21
18.0771
  0
LINE
  8
0
 10
-36.7363
 20
18.0771
 11
-36.7363
 21
18.9087
  0
LINE
  8
0
 10
-36.7363
 20
18.9087
 11
-36.3981
 21
19.6684
  0
LINE
  8
0
 10
-36.3981
 20
19.6684
 11
-35.78
 21
20.2249
  0
LINE
  8
0
 10
-35.78
 20
20.2249
 11
-34.9891
 21
20.4819
  0
LINE
  8
0
 10
-34.9891
 20
20.4819
 11
-34.162
 21
20.395
  0
LINE
  8
0
 10
-34.162
 20
20.395
 11
-33.4418
 21
19.9792
  0
LINE
  8
0
 10
-33.4418
 20
19.9792
 11
-32.953
 21
19.3064
  0
LINE
  8
0
 10
-32.953
 20
19.3064
 11
-32.78
 21
18.4929
  0
LINE
  8
0
 10
-32.78
 20
18.4929
 11
-32.953
 21
17.6794
  0
LINE
  8
0
 10
-32.953
 20
17.6794
 11
-33.4418
 21
17.0066
  0
LINE
  8
0
 10
-33.4418
 20
17.0066
 11
-34.162
 21
16.5908
  0
LINE
  8
0
 10
-34.162
 20
16.5908
 11
-34.9891
 21
16.5038
  0
LINE
  8
0
 10
-34.9891
 20
16.5038
 11
-35.78
 21
16.7608
  0
LINE
  8
0
 10
34.9853
 20
14.2896
 11
34.3673
 21
14.8461
  0
LINE
  8
0
 10
34.3673
 20
14.8461
 11
34.029
 21
15.6059
  0
LINE
  8
0
 10
34.029
 20
15.6059
 11
34.029
 21
16.4375
  0
LINE
  8
0
 10
34.029
 20
16.4375
 11
34.3673
 21
17.1973
  0
LINE
  8
0
 10
34.3673
 20
17.1973
 11
34.9853
 21
17.7537
  0
LINE
  8
0
 10
34.9853
 20
17.7537
 11
35.7763
 21
18.0107
  0
LINE
  8
0
 10
35.7763
 20
18.0107
 11
36.6034
 21
17.9238
  0
LINE
  8
0
 10
36.6034
 20
17.9238
 11
37.3236
 21
17.508
  0
LINE
  8
0
 10
37.3236
 20
17.508
 11
37.8124
 21
16.8352
  0
LINE
  8
0
 10
37.8124
 20
16.8352
 11
37.9853
 21
16.0217
  0
LINE
  8
0
 10
37.9853
 20
16.0217
 11
37.8124
 21
15.2082
  0
LINE
  8
0
 10
37.8124
 20
15.2082
 11
37.3236
 21
14.5354
  0
LINE
  8
0
 10
37.3236
 20
14.5354
 11
36.6034
 21
14.1196
  0
LINE
  8
0
 10
36.6034
 20
14.1196
 11
35.7763
 21
14.0327
  0
LINE
  8
0
 10
35.7763
 20
14.0327
 11
34.9853
 21
14.2896
  0
LINE
  8
0
 10
-38.0153
 20
11.7404
 11
-38.6333
 21
12.2969
  0
LINE
  8
0
 10
-38.6333
 20
12.2969
 11
-38.9716
 21
13.0566
  0
LINE
  8
0
 10
-38.9716
 20
13.0566
 11
-38.9716
 21
13.8883
  0
LINE
  8
0
 10
-38.9716
 20
13.8883
 11
-38.6333
 21
14.648
  0
LINE
  8
0
 10
-38.6333
 20
14.648
 11
-38.0153
 21
15.2045
  0
LINE
  8
0
 10
-38.0153
 20
15.2045
 11
-37.2243
 21
15.4615
  0
LINE
  8
0
 10
-37.2243
 20
15.4615
 11
-36.3972
 21
15.3746
  0
LINE
  8
0
 10
-36.3972
 20
15.3746
 11
-35.677
 21
14.9587
  0
LINE
  8
0
 10
-35.677
 20
14.9587
 11
-35.1882
 21
14.2859
  0
LINE
  8
0
 10
-35.1882
 20
14.2859
 11
-35.0153
 21
13.4725
  0
LINE
  8
0
 10
-35.0153
 20
13.4725
 11
-35.1882
 21
12.659
  0
LINE
  8
0
 10
-35.1882
 20
12.659
 11
-35.677
 21
11.9862
  0
LINE
  8
0
 10
-35.677
 20
11.9862
 11
-36.3972
 21
11.5703
  0
LINE
  8
0
 10
-36.3972
 20
11.5703
 11
-37.2243
 21
11.4834
  0
LINE
  8
0
 10
-37.2243
 20
11.4834
 11
-38.0153
 21
11.7404
  0
LINE
  8
0
 10
36.8649
 20
9.12553
 11
36.2469
 21
9.68201
  0
LINE
  8
0
 10
36.2469
 20
9.68201
 11
35.9086
 21
10.4418
  0
LINE
  8
0
 10
35.9086
 20
10.4418
 11
35.9086
 21
11.2734
  0
LINE
  8
0
 10
35.9086
 20
11.2734
 11
36.2469
 21
12.0332
  0
LINE
  8
0
 10
36.2469
 20
12.0332
 11
36.8649
 21
12.5896
  0
LINE
  8
0
 10
36.8649
 20
12.5896
 11
37.6559
 21
12.8466
  0
LINE
  8
0
 10
37.6559
 20
12.8466
 11
38.4829
 21
12.7597
  0
LINE
  8
0
 10
38.4829
 20
12.7597
 11
39.2032
 21
12.3439
  0
LINE
  8
0
 10
39.2032
 20
12.3439
 11
39.692
 21
11.6711
  0
LINE
  8
0
 10
39.692
 20
11.6711
 11
39.8649
 21
10.8576
  0
LINE
  8
0
 10
39.8649
 20
10.8576
 11
39.692
 21
10.0441
  0
LINE
  8
0
 10
39.692
 20
10.0441
 11
39.2032
 21
9.37129
  0
LINE
  8
0
 10
39.2032
 20
9.37129
 11
38.4829
 21
8.95547
  0
LINE
  8
0
 10
38.4829
 20
8.95547
 11
37.6559
 21
8.86853
  0
LINE
  8
0
 10
37.6559
 20
8.86853
 11
36.8649
 21
9.12553
  0
LINE
  8
0
 10
-39.5301
 20
6.45776
 11
-40.1481
 21
7.01424
  0
LINE
  8
0
 10
-40.1481
 20
7.01424
 11
-40.4864
 21
7.77399
  0
LINE
  8
0
 10
-40.4864
 20
7.77399
 11
-40.4864
 21
8.60564
  0
LINE
  8
0
 10
-40.4864
 20
8.60564
 11
-40.1481
 21
9.36539
  0
LINE
  8
0
 10
-40.1481
 20
9.36539
 11
-39.5301
 21
9.92186
  0
LINE
  8
0
 10
-39.5301
 20
9.92186
 11
-38.7391
 21
10.1788
  0
LINE
  8
0
 10
-38.7391
 20
10.1788
 11
-37.912
 21
10.0919
  0
LINE
  8
0
 10
-37.912
 20
10.0919
 11
-37.1918
 21
9.6761
  0
LINE
  8
0
 10
-37.1918
 20
9.6761
 11
-36.703
 21
9.00328
  0
LINE
  8
0
 10
-36.703
 20
9.00328
 11
-36.5301
 21
8.1898
  0
LINE
  8
0
 10
-36.5301
 20
8.1898
 11
-36.703
 21
7.37634
  0
LINE
  8
0
 10
-36.703
 20
7.37634
 11
-37.1918
 21
6.70352
  0
LINE
  8
0
 10
-37.1918
 20
6.70352
 11
-37.912
 21
6.2877
  0
LINE
  8
0
 10
-37.912
 20
6.2877
 11
-38.7391
 21
6.20076
  0
LINE
  8
0
 10
-38.7391
 20
6.20076
 11
-39.5301
 21
6.45776
  0
LINE
  8
0
 10
38.0075
 20
3.75009
 11
37.3895
 21
4.30656
  0
LINE
  8
0
 10
37.3895
 20
4.30656
 11
37.0512
 21
5.06631
  0
LINE
  8
0
 10
37.0512
 20
5.06631
 11
37.0512
 21
5.89796
  0
LINE
  8
0
 10
37.0512
 20
5.89796
 11
37.3895
 21
6.65771
  0
LINE
  8
0
 10
37.3895
 20
6.65771
 11
38.0075
 21
7.21419
  0
LINE
  8
0
 10
38.0075
 20
7.21419
 11
38.7984
 21
7.47118
  0
LINE
  8
0
 10
38.7984
 20
7.47118
 11
39.6255
 21
7.38425
  0
LINE
  8
0
 10
39.6255
 20
7.38425
 11
40.3457
 21
6.96843
  0
LINE
  8
0
 10
40.3457
 20
6.96843
 11
40.8346
 21
6.29561
  0
LINE
  8
0
 10
40.8346
 20
6.29561
 11
41.0075
 21
5.48213
  0
LINE
  8
0
 10
41.0075
 20
5.48213
 11
40.8346
 21
4.66867
  0
LINE
  8
0
 10
40.8346
 20
4.66867
 11
40.3457
 21
3.99585
  0
LINE
  8
0
 10
40.3457
 20
3.99585
 11
39.6255
 21
3.58003
  0
LINE
  8
0
 10
39.6255
 20
3.58003
 11
38.7984
 21
3.49309
  0
LINE
  8
0
 10
38.7984
 20
3.49309
 11
38.0075
 21
3.75009
  0
LINE
  8
0
 10
-40.2949
 20
1.0157
 11
-40.9129
 21
1.57219
  0
LINE
  8
0
 10
-40.9129
 20
1.57219
 11
-41.2512
 21
2.33194
  0
LINE
  8
0
 10
-41.2512
 20
2.33194
 11
-41.2512
 21
3.16359
  0
LINE
  8
0
 10
-41.2512
 20
3.16359
 11
-40.9129
 21
3.92332
  0
LINE
  8
0
 10
-40.9129
 20
3.92332
 11
-40.2949
 21
4.47981
  0
LINE
  8
0
 10
-40.2949
 20
4.47981
 11
-39.5039
 21
4.7368
  0
LINE
  8
0
 10
-39.5039
 20
4.7368
 11
-38.6768
 21
4.64987
  0
LINE
  8
0
 10
-38.6768
 20
4.64987
 11
-37.9566
 21
4.23405
  0
LINE
  8
0
 10
-37.9566
 20
4.23405
 11
-37.4678
 21
3.56123
  0
LINE
  8
0
 10
-37.4678
 20
3.56123
 11
-37.2949
 21
2.74776
  0
LINE
  8
0
 10
-37.2949
 20
2.74776
 11
-37.4678
 21
1.93428
  0
LINE
  8
0
 10
-37.4678
 20
1.93428
 11
-37.9566
 21
1.26147
  0
LINE
  8
0
 10
-37.9566
 20
1.26147
 11
-38.6768
 21
0.845642
  0
LINE
  8
0
 10
-38.6768
 20
0.845642
 11
-39.5039
 21
0.758713
  0
LINE
  8
0
 10
-39.5039
 20
0.758713
 11
-40.2949
 21
1.0157
  0
LINE
  8
0
 10
38.3908
 20
-1.73204
 11
37.7728
 21
-1.17557
  0
LINE
  8
0
 10
37.7728
 20
-1.17557
 11
37.4345
 21
-0.415817
  0
LINE
  8
0
 10
37.4345
 20
-0.415817
 11
37.4345
 21
0.415817
  0
LINE
  8
0
 10
37.4345
 20
0.415817
 11
37.7728
 21
1.17557
  0
LINE
  8
0
 10
37.7728
 20
1.17557
 11
38.3908
 21
1.73204
  0
LINE
  8
0
 10
38.3908
 20
1.73204
 11
39.1818
 21
1.98903
  0
LINE
  8
0
 10
39.1818
 20
1.98903
 11
40.0089
 21
1.9021
  0
LINE
  8
0
 10
40.0089
 20
1.9021
 11
40.7291
 21
1.48628
  0
LINE
  8
0
 10
40.7291
 20
1.48628
 11
41.2179
 21
0.813461
  0
LINE
  8
0
 10
41.2179
 20
0.813461
 11
41.3908
 21
0
  0
LINE
  8
0
 10
41.3908
 20
0
 11
41.2179
 21
-0.813461
  0
LINE
  8
0
 10
41.2179
 20
-0.813461
 11
40.7291
 21
-1.48628
  0
LINE
  8
0
 10
40.7291
 20
-1.48628
 11
40.0089
 21
-1.9021
  0
LINE
  8
0
 10
40.0089
 20
-1.9021
 11
39.1818
 21
-1.98903
  0
LINE
  8
0
 10
39.1818
 20
-1.98903
 11
38.3908
 21
-1.73204
  0
LINE
  8
0
 10
-40.2949
 20
-4.47981
 11
-40.9129
 21
-3.92332
  0
LINE
  8
0
 10
-40.9129
 20
-3.92332
 11
-41.2512
 21
-3.16359
  0
LINE
  8
0
 10
-41.2512
 20
-3.16359
 11
-41.2512
 21
-2.33194
  0
LINE
  8
0
 10
-41.2512
 20
-2.33194
 11
-40.9129
 21
-1.57219
  0
LINE
  8
0
 10
-40.9129
 20
-1.57219
 11
-40.2949
 21
-1.0157
  0
LINE
  8
0
 10
-40.2949
 20
-1.0157
 11
-39.5039
 21
-0.758713
  0
LINE
  8
0
 10
-39.5039
 20
-0.758713
 11
-38.6768
 21
-0.845642
  0
LINE
  8
0
 10
-38.6768
 20
-0.845642
 11
-37.9566
 21
-1.26147
  0
LINE
  8
0
 10
-37.9566
 20
-1.26147
 11
-37.4678
 21
-1.93428
  0
LINE
  8
0
 10
-37.4678
 20
-1.93428
 11
-37.2949
 21
-2.74776
  0
LINE
  8
0
 10
-37.2949
 20
-2.74776
 11
-37.4678
 21
-3.56123
  0
LINE
  8
0
 10
-37.4678
 20
-3.56123
 11
-37.9566
 21
-4.23405
  0
LINE
  8
0
 10
-37.9566
 20
-4.23405
 11
-38.6768
 21
-4.64987
  0
LINE
  8
0
 10
-38.6768
 20
-4.64987
 11
-39.5039
 21
-4.7368
  0
LINE
  8
0
 10
-39.5039
 20
-4.7368
 11
-40.2949
 21
-4.47981
  0
LINE
  8
0
 10
38.0075
 20
-7.21419
 11
37.3895
 21
-6.65771
  0
LINE
  8
0
 10
37.3895
 20
-6.65771
 11
37.0512
 21
-5.89796
  0
LINE
  8
0
 10
37.0512
 20
-5.89796
 11
37.0512
 21
-5.06631
  0
LINE
  8
0
 10
37.0512
 20
-5.06631
 11
37.3895
 21
-4.30656
  0
LINE
  8
0
 10
37.3895
 20
-4.30656
 11
38.0075
 21
-3.75009
  0
LINE
  8
0
 10
38.0075
 20
-3.75009
 11
38.7984
 21
-3.49309
  0
LINE
  8
0
 10
38.7984
 20
-3.49309
 11
39.6255
 21
-3.58003
  0
LINE
  8
0
 10
39.6255
 20
-3.58003
 11
40.3457
 21
-3.99585
  0
LINE
  8
0
 10
40.3457
 20
-3.99585
 11
40.8346
 21
-4.66867
  0
LINE
  8
0
 10
40.8346
 20
-4.66867
 11
41.0075
 21
-5.48213
  0
LINE
  8
0
 10
41.0075
 20
-5.48213
 11
40.8346
 21
-6.29561
  0
LINE
  8
0
 10
40.8346
 20
-6.29561
 11
40.3457
 21
-6.96843
  0
LINE
  8
0
 10
40.3457
 20
-6.96843
 11
39.6255
 21
-7.38425
  0
LINE
  8
0
 10
39.6255
 20
-7.38425
 11
38.7984
 21
-7.47118
  0
LINE
  8
0
 10
38.7984
 20
-7.47118
 11
38.0075
 21
-7.21419
  0
LINE
  8
0
 10
-39.5301
 20
-9.92186
 11
-40.1481
 21
-9.36539
  0
LINE
  8
0
 10
-40.1481
 20
-9.36539
 11
-40.4864
 21
-8.60564
  0
LINE
  8
0
 10
-40.4864
 20
-8.60564
 11
-40.4864
 21
-7.77399
  0
LINE
  8
0
 10
-40.4864
 20
-7.77399
 11
-40.1481
 21
-7.01424
  0
LINE
  8
0
 10
-40.1481
 20
-7.01424
 11
-39.5301
 21
-6.45776
  0
LINE
  8
0
 10
-39.5301
 20
-6.45776
 11
-38.7391
 21
-6.20076
  0
LINE
  8
0
 10
-38.7391
 20
-6.20076
 11
-37.912
 21
-6.2877
  0
LINE
  8
0
 10
-37.912
 20
-6.2877
 11
-37.1918
 21
-6.70352
  0
LINE
  8
0
 10
-37.1918
 20
-6.70352
 11
-36.703
 21
-7.37634
  0
LINE
  8
0
 10
-36.703
 20
-7.37634
 11
-36.5301
 21
-8.1898
  0
LINE
  8
0
 10
-36.5301
 20
-8.1898
 11
-36.703
 21
-9.00328
  0
LINE
  8
0
 10
-36.703
 20
-9.00328
 11
-37.1918
 21
-9.6761
  0
LINE
  8
0
 10
-37.1918
 20
-9.6761
 11
-37.912
 21
-10.0919
  0
LINE
  8
0
 10
-37.912
 20
-10.0919
 11
-38.7391
 21
-10.1788
  0
LINE
  8
0
 10
-38.7391
 20
-10.1788
 11
-39.5301
 21
-9.92186
  0
LINE
  8
0
 10
36.8649
 20
-12.5896
 11
36.2469
 21
-12.0332
  0
LINE
  8
0
 10
36.2469
 20
-12.0332
 11
35.9086
 21
-11.2734
  0
LINE
  8
0
 10
35.9086
 20
-11.2734
 11
35.9086
 21
-10.4418
  0
LINE
  8
0
 10
35.9086
 20
-10.4418
 11
36.2469
 21
-9.68201
  0
LINE
  8
0
 10
36.2469
 20
-9.68201
 11
36.8649
 21
-9.12553
  0
LINE
  8
0
 10
36.8649
 20
-9.12553
 11
37.6559
 21
-8.86853
  0
LINE
  8
0
 10
37.6559
 20
-8.86853
 11
38.4829
 21
-8.95547
  0
LINE
  8
0
 10
38.4829
 20
-8.95547
 11
39.2032
 21
-9.37129
  0
LINE
  8
0
 10
39.2032
 20
-9.37129
 11
39.692
 21
-10.0441
  0
LINE
  8
0
 10
39.692
 20
-10.0441
 11
39.8649
 21
-10.8576
  0
LINE
  8
0
 10
39.8649
 20
-10.8576
 11
39.692
 21
-11.6711
  0
LINE
  8
0
 10
39.692
 20
-11.6711
 11
39.2032
 21
-12.3439
  0
LINE
  8
0
 10
39.2032
 20
-12.3439
 11
38.4829
 21
-12.7597
  0
LINE
  8
0
 10
38.4829
 20
-12.7597
 11
37.6559
 21
-12.8466
  0
LINE
  8
0
 10
37.6559
 20
-12.8466
 11
36.8649
 21
-12.5896
  0
LINE
  8
0
 10
-38.0153
 20
-15.2045
 11
-38.6333
 21
-14.648
  0
LINE
  8
0
 10
-38.6333
 20
-14.648
 11
-38.9716
 21
-13.8883
  0
LINE
  8
0
 10
-38.9716
 20
-13.8883
 11
-38.9716
 21
-13.0566
  0
LINE
  8
0
 10
-38.9716
 20
-13.0566
 11
-38.6333
 21
-12.2969
  0
LINE
  8
0
 10
-38.6333
 20
-12.2969
 11
-38.0153
 21
-11.7404
  0
LINE
  8
0
 10
-38.0153
 20
-11.7404
 11
-37.2243
 21
-11.4834
  0
LINE
  8
0
 10
-37.2243
 20
-11.4834
 11
-36.3972
 21
-11.5703
  0
LINE
  8
0
 10
-36.3972
 20
-11.5703
 11
-35.677
 21
-11.9862
  0
LINE
  8
0
 10
-35.677
 20
-11.9862
 11
-35.1882
 21
-12.659
  0
LINE
  8
0
 10
-35.1882
 20
-12.659
 11
-35.0153
 21
-13.4725
  0
LINE
  8
0
 10
-35.0153
 20
-13.4725
 11
-35.1882
 21
-14.2859
  0
LINE
  8
0
 10
-35.1882
 20
-14.2859
 11
-35.677
 21
-14.9587
  0
LINE
  8
0
 10
-35.677
 20
-14.9587
 11
-36.3972
 21
-15.3746
  0
LINE
  8
0
 10
-36.3972
 20
-15.3746
 11
-37.2243
 21
-15.4615
  0
LINE
  8
0
 10
-37.2243
 20
-15.4615
 11
-38.0153
 21
-15.2045
  0
LINE
  8
0
 10
34.9853
 20
-17.7537
 11
34.3673
 21
-17.1973
  0
LINE
  8
0
 10
34.3673
 20
-17.1973
 11
34.029
 21
-16.4375
  0
LINE
  8
0
 10
34.029
 20
-16.4375
 11
34.029
 21
-15.6059
  0
LINE
  8
0
 10
34.029
 20
-15.6059
 11
34.3673
 21
-14.8461
  0
LINE
  8
0
 10
34.3673
 20
-14.8461
 11
34.9853
 21
-14.2896
  0
LINE
  8
0
 10
34.9853
 20
-14.2896
 11
35.7763
 21
-14.0327
  0
LINE
  8
0
 10
35.7763
 20
-14.0327
 11
36.6034
 21
-14.1196
  0
LINE
  8
0
 10
36.6034
 20
-14.1196
 11
37.3236
 21
-14.5354
  0
LINE
  8
0
 10
37.3236
 20
-14.5354
 11
37.8124
 21
-15.2082
  0
LINE
  8
0
 10
37.8124
 20
-15.2082
 11
37.9853
 21
-16.0217
  0
LINE
  8
0
 10
37.9853
 20
-16.0217
 11
37.8124
 21
-16.8352
  0
LINE
  8
0
 10
37.8124
 20
-16.8352
 11
37.3236
 21
-17.508
  0
LINE
  8
0
 10
37.3236
 20
-17.508
 11
36.6034
 21
-17.9238
  0
LINE
  8
0
 10
36.6034
 20
-17.9238
 11
35.7763
 21
-18.0107
  0
LINE
  8
0
 10
35.7763
 20
-18.0107
 11
34.9853
 21
-17.7537
  0
LINE
  8
0
 10
-35.78
 20
-20.2249
 11
-36.3981
 21
-19.6684
  0
LINE
  8
0
 10
-36.3981
 20
-19.6684
 11
-36.7363
 21
-18.9087
  0
LINE
  8
0
 10
-36.7363
 20
-18.9087
 11
-36.7363
 21
-18.0771
  0
LINE
  8
0
 10
-36.7363
 20
-18.0771
 11
-36.3981
 21
-17.3173
  0
LINE
  8
0
 10
-36.3981
 20
-17.3173
 11
-35.78
 21
-16.7608
  0
LINE
  8
0
 10
-35.78
 20
-16.7608
 11
-34.9891
 21
-16.5038
  0
LINE
  8
0
 10
-34.9891
 20
-16.5038
 11
-34.162
 21
-16.5908
  0
LINE
  8
0
 10
-34.162
 20
-16.5908
 11
-33.4418
 21
-17.0066
  0
LINE
  8
0
 10
-33.4418
 20
-17.0066
 11
-32.953
 21
-17.6794
  0
LINE
  8
0
 10
-32.953
 20
-17.6794
 11
-32.78
 21
-18.4929
  0
LINE
  8
0
 10
-32.78
 20
-18.4929
 11
-32.953
 21
-19.3064
  0
LINE
  8
0
 10
-32.953
 20
-19.3064
 11
-33.4418
 21
-19.9792
  0
LINE
  8
0
 10
-33.4418
 20
-19.9792
 11
-34.162
 21
-20.395
  0
LINE
  8
0
 10
-34.162
 20
-20.395
 11
-34.9891
 21
-20.4819
  0
LINE
  8
0
 10
-34.9891
 20
-20.4819
 11
-35.78
 21
-20.2249
  0
LINE
  8
0
 10
32.4053
 20
-22.606
 11
31.7873
 21
-22.0495
  0
LINE
  8
0
 10
31.7873
 20
-22.0495
 11
31.449
 21
-21.2898
  0
LINE
  8
0
 10
31.449
 20
-21.2898
 11
31.449
 21
-20.4581
  0
LINE
  8
0
 10
31.449
 20
-20.4581
 11
31.7873
 21
-19.6984
  0
LINE
  8
0
 10
31.7873
 20
-19.6984
 11
32.4053
 21
-19.1419
  0
LINE
  8
0
 10
32.4053
 20
-19.1419
 11
33.1963
 21
-18.8849
  0
LINE
  8
0
 10
33.1963
 20
-18.8849
 11
34.0234
 21
-18.9718
  0
LINE
  8
0
 10
34.0234
 20
-18.9718
 11
34.7436
 21
-19.3877
  0
LINE
  8
0
 10
34.7436
 20
-19.3877
 11
35.2324
 21
-20.0605
  0
LINE
  8
0
 10
35.2324
 20
-20.0605
 11
35.4053
 21
-20.874
  0
LINE
  8
0
 10
35.4053
 20
-20.874
 11
35.2324
 21
-21.6874
  0
LINE
  8
0
 10
35.2324
 20
-21.6874
 11
34.7436
 21
-22.3602
  0
LINE
  8
0
 10
34.7436
 20
-22.3602
 11
34.0234
 21
-22.7761
  0
LINE
  8
0
 10
34.0234
 20
-22.7761
 11
33.1963
 21
-22.863
  0
LINE
  8
0
 10
33.1963
 20
-22.863
 11
32.4053
 21
-22.606
  0
LINE
  8
0
 10
-32.8679
 20
-24.8854
 11
-33.4859
 21
-24.3289
  0
LINE
  8
0
 10
-33.4859
 20
-24.3289
 11
-33.8242
 21
-23.5692
  0
LINE
  8
0
 10
-33.8242
 20
-23.5692
 11
-33.8242
 21
-22.7375
  0
LINE
  8
0
 10
-33.8242
 20
-22.7375
 11
-33.4859
 21
-21.9778
  0
LINE
  8
0
 10
-33.4859
 20
-21.9778
 11
-32.8679
 21
-21.4213
  0
LINE
  8
0
 10
-32.8679
 20
-21.4213
 11
-32.0769
 21
-21.1643
  0
LINE
  8
0
 10
-32.0769
 20
-21.1643
 11
-31.2498
 21
-21.2512
  0
LINE
  8
0
 10
-31.2498
 20
-21.2512
 11
-30.5296
 21
-21.6671
  0
LINE
  8
0
 10
-30.5296
 20
-21.6671
 11
-30.0408
 21
-22.3399
  0
LINE
  8
0
 10
-30.0408
 20
-22.3399
 11
-29.8679
 21
-23.1534
  0
LINE
  8
0
 10
-29.8679
 20
-23.1534
 11
-30.0408
 21
-23.9668
  0
LINE
  8
0
 10
-30.0408
 20
-23.9668
 11
-30.5296
 21
-24.6396
  0
LINE
  8
0
 10
-30.5296
 20
-24.6396
 11
-31.2498
 21
-25.0555
  0
LINE
  8
0
 10
-31.2498
 20
-25.0555
 11
-32.0769
 21
-25.1424
  0
LINE
  8
0
 10
-32.0769
 20
-25.1424
 11
-32.8679
 21
-24.8854
  0
LINE
  8
0
 10
29.1751
 20
-27.052
 11
28.5571
 21
-26.4955
  0
LINE
  8
0
 10
28.5571
 20
-26.4955
 11
28.2188
 21
-25.7358
  0
LINE
  8
0
 10
28.2188
 20
-25.7358
 11
28.2188
 21
-24.9041
  0
LINE
  8
0
 10
28.2188
 20
-24.9041
 11
28.5571
 21
-24.1444
  0
LINE
  8
0
 10
28.5571
 20
-24.1444
 11
29.1751
 21
-23.5879
  0
LINE
  8
0
 10
29.1751
 20
-23.5879
 11
29.9661
 21
-23.3309
  0
LINE
  8
0
 10
29.9661
 20
-23.3309
 11
30.7932
 21
-23.4178
  0
LINE
  8
0
 10
30.7932
 20
-23.4178
 11
31.5134
 21
-23.8336
  0
LINE
  8
0
 10
31.5134
 20
-23.8336
 11
32.0022
 21
-24.5065
  0
LINE
  8
0
 10
32.0022
 20
-24.5065
 11
32.1751
 21
-25.3199
  0
LINE
  8
0
 10
32.1751
 20
-25.3199
 11
32.0022
 21
-26.1334
  0
LINE
  8
0
 10
32.0022
 20
-26.1334
 11
31.5134
 21
-26.8062
  0
LINE
  8
0
 10
31.5134
 20
-26.8062
 11
30.7932
 21
-27.2221
  0
LINE
  8
0
 10
30.7932
 20
-27.2221
 11
29.9661
 21
-27.309
  0
LINE
  8
0
 10
29.9661
 20
-27.309
 11
29.1751
 21
-27.052
  0
LINE
  8
0
 10
-29.3354
 20
-29.0952
 11
-29.9534
 21
-28.5387
  0
LINE
  8
0
 10
-29.9534
 20
-28.5387
 11
-30.2917
 21
-27.779
  0
LINE
  8
0
 10
-30.2917
 20
-27.779
 11
-30.2917
 21
-26.9474
  0
LINE
  8
0
 10
-30.2917
 20
-26.9474
 11
-29.9534
 21
-26.1876
  0
LINE
  8
0
 10
-29.9534
 20
-26.1876
 11
-29.3354
 21
-25.6311
  0
LINE
  8
0
 10
-29.3354
 20
-25.6311
 11
-28.5444
 21
-25.3741
  0
LINE
  8
0
 10
-28.5444
 20
-25.3741
 11
-27.7174
 21
-25.4611
  0
LINE
  8
0
 10
-27.7174
 20
-25.4611
 11
-26.9971
 21
-25.8769
  0
LINE
  8
0
 10
-26.9971
 20
-25.8769
 11
-26.5083
 21
-26.5497
  0
LINE
  8
0
 10
-26.5083
 20
-26.5497
 11
-26.3354
 21
-27.3632
  0
LINE
  8
0
 10
-26.3354
 20
-27.3632
 11
-26.5083
 21
-28.1767
  0
LINE
  8
0
 10
-26.5083
 20
-28.1767
 11
-26.9971
 21
-28.8495
  0
LINE
  8
0
 10
-26.9971
 20
-28.8495
 11
-27.7174
 21
-29.2653
  0
LINE
  8
0
 10
-27.7174
 20
-29.2653
 11
-28.5444
 21
-29.3522
  0
LINE
  8
0
 10
-28.5444
 20
-29.3522
 11
-29.3354
 21
-29.0952
  0
LINE
  8
0
 10
25.3576
 20
-31.0051
 11
24.7396
 21
-30.4487
  0
LINE
  8
0
 10
24.7396
 20
-30.4487
 11
24.4013
 21
-29.6889
  0
LINE
  8
0
 10
24.4013
 20
-29.6889
 11
24.4013
 21
-28.8573
  0
LINE
  8
0
 10
24.4013
 20
-28.8573
 11
24.7396
 21
-28.0975
  0
LINE
  8
0
 10
24.7396
 20
-28.0975
 11
25.3576
 21
-27.541
  0
LINE
  8
0
 10
25.3576
 20
-27.541
 11
26.1486
 21
-27.2841
  0
LINE
  8
0
 10
26.1486
 20
-27.2841
 11
26.9756
 21
-27.371
  0
LINE
  8
0
 10
26.9756
 20
-27.371
 11
27.6959
 21
-27.7868
  0
LINE
  8
0
 10
27.6959
 20
-27.7868
 11
28.1847
 21
-28.4596
  0
LINE
  8
0
 10
28.1847
 20
-28.4596
 11
28.3576
 21
-29.2731
  0
LINE
  8
0
 10
28.3576
 20
-29.2731
 11
28.1847
 21
-30.0866
  0
LINE
  8
0
 10
28.1847
 20
-30.0866
 11
27.6959
 21
-30.7594
  0
LINE
  8
0
 10
27.6959
 20
-30.7594
 11
26.9756
 21
-31.1752
  0
LINE
  8
0
 10
26.9756
 20
-31.1752
 11
26.1486
 21
-31.2621
  0
LINE
  8
0
 10
26.1486
 20
-31.2621
 11
25.3576
 21
-31.0051
  0
LINE
  8
0
 10
-25.2514
 20
-32.7725
 11
-25.8695
 21
-32.216
  0
LINE
  8
0
 10
-25.8695
 20
-32.216
 11
-26.2077
 21
-31.4562
  0
LINE
  8
0
 10
-26.2077
 20
-31.4562
 11
-26.2077
 21
-30.6246
  0
LINE
  8
0
 10
-26.2077
 20
-30.6246
 11
-25.8695
 21
-29.8648
  0
LINE
  8
0
 10
-25.8695
 20
-29.8648
 11
-25.2514
 21
-29.3083
  0
LINE
  8
0
 10
-25.2514
 20
-29.3083
 11
-24.4605
 21
-29.0514
  0
LINE
  8
0
 10
-24.4605
 20
-29.0514
 11
-23.6334
 21
-29.1383
  0
LINE
  8
0
 10
-23.6334
 20
-29.1383
 11
-22.9132
 21
-29.5541
  0
LINE
  8
0
 10
-22.9132
 20
-29.5541
 11
-22.4243
 21
-30.2269
  0
LINE
  8
0
 10
-22.4243
 20
-30.2269
 11
-22.2514
 21
-31.0404
  0
LINE
  8
0
 10
-22.2514
 20
-31.0404
 11
-22.4243
 21
-31.8539
  0
LINE
  8
0
 10
-22.4243
 20
-31.8539
 11
-22.9132
 21
-32.5267
  0
LINE
  8
0
 10
-22.9132
 20
-32.5267
 11
-23.6334
 21
-32.9425
  0
LINE
  8
0
 10
-23.6334
 20
-32.9425
 11
-24.4605
 21
-33.0294
  0
LINE
  8
0
 10
-24.4605
 20
-33.0294
 11
-25.2514
 21
-32.7725
  0
LINE
  8
0
 10
21.0271
 20
-34.3885
 11
20.409
 21
-33.8321
  0
LINE
  8
0
 10
20.409
 20
-33.8321
 11
20.0708
 21
-33.0723
  0
LINE
  8
0
 10
20.0708
 20
-33.0723
 11
20.0708
 21
-32.2407
  0
LINE
  8
0
 10
20.0708
 20
-32.2407
 11
20.409
 21
-31.4809
  0
LINE
  8
0
 10
20.409
 20
-31.4809
 11
21.0271
 21
-30.9244
  0
LINE
  8
0
 10
21.0271
 20
-30.9244
 11
21.818
 21
-30.6674
  0
LINE
  8
0
 10
21.818
 20
-30.6674
 11
22.6451
 21
-30.7544
  0
LINE
  8
0
 10
22.6451
 20
-30.7544
 11
23.3653
 21
-31.1702
  0
LINE
  8
0
 10
23.3653
 20
-31.1702
 11
23.8542
 21
-31.843
  0
LINE
  8
0
 10
23.8542
 20
-31.843
 11
24.0271
 21
-32.6565
  0
LINE
  8
0
 10
24.0271
 20
-32.6565
 11
23.8542
 21
-33.47
  0
LINE
  8
0
 10
23.8542
 20
-33.47
 11
23.3653
 21
-34.1428
  0
LINE
  8
0
 10
23.3653
 20
-34.1428
 11
22.6451
 21
-34.5586
  0
LINE
  8
0
 10
22.6451
 20
-34.5586
 11
21.818
 21
-34.6455
  0
LINE
  8
0
 10
21.818
 20
-34.6455
 11
21.0271
 21
-34.3885
  0
LINE
  8
0
 10
-20.6954
 20
-35.8455
 11
-21.3134
 21
-35.289
  0
LINE
  8
0
 10
-21.3134
 20
-35.289
 11
-21.6517
 21
-34.5293
  0
LINE
  8
0
 10
-21.6517
 20
-34.5293
 11
-21.6517
 21
-33.6976
  0
LINE
  8
0
 10
-21.6517
 20
-33.6976
 11
-21.3134
 21
-32.9379
  0
LINE
  8
0
 10
-21.3134
 20
-32.9379
 11
-20.6954
 21
-32.3814
  0
LINE
  8
0
 10
-20.6954
 20
-32.3814
 11
-19.9045
 21
-32.1244
  0
LINE
  8
0
 10
-19.9045
 20
-32.1244
 11
-19.0774
 21
-32.2113
  0
LINE
  8
0
 10
-19.0774
 20
-32.2113
 11
-18.3572
 21
-32.6272
  0
LINE
  8
0
 10
-18.3572
 20
-32.6272
 11
-17.8683
 21
-33.3
  0
LINE
  8
0
 10
-17.8683
 20
-33.3
 11
-17.6954
 21
-34.1135
  0
LINE
  8
0
 10
-17.6954
 20
-34.1135
 11
-17.8683
 21
-34.9269
  0
LINE
  8
0
 10
-17.8683
 20
-34.9269
 11
-18.3572
 21
-35.5998
  0
LINE
  8
0
 10
-18.3572
 20
-35.5998
 11
-19.0774
 21
-36.0156
  0
LINE
  8
0
 10
-19.0774
 20
-36.0156
 11
-19.9045
 21
-36.1025
  0
LINE
  8
0
 10
-19.9045
 20
-36.1025
 11
-20.6954
 21
-35.8455
  0
LINE
  8
0
 10
16.2678
 20
-37.1363
 11
15.6498
 21
-36.5798
  0
LINE
  8
0
 10
15.6498
 20
-36.5798
 11
15.3115
 21
-35.8201
  0
LINE
  8
0
 10
15.3115
 20
-35.8201
 11
15.3115
 21
-34.9884
  0
LINE
  8
0
 10
15.3115
 20
-34.9884
 11
15.6498
 21
-34.2287
  0
LINE
  8
0
 10
15.6498
 20
-34.2287
 11
16.2678
 21
-33.6722
  0
LINE
  8
0
 10
16.2678
 20
-33.6722
 11
17.0587
 21
-33.4152
  0
LINE
  8
0
 10
17.0587
 20
-33.4152
 11
17.8858
 21
-33.5021
  0
LINE
  8
0
 10
17.8858
 20
-33.5021
 11
18.6061
 21
-33.918
  0
LINE
  8
0
 10
18.6061
 20
-33.918
 11
19.0949
 21
-34.5908
  0
LINE
  8
0
 10
19.0949
 20
-34.5908
 11
19.2678
 21
-35.4043
  0
LINE
  8
0
 10
19.2678
 20
-35.4043
 11
19.0949
 21
-36.2177
  0
LINE
  8
0
 10
19.0949
 20
-36.2177
 11
18.6061
 21
-36.8905
  0
LINE
  8
0
 10
18.6061
 20
-36.8905
 11
17.8858
 21
-37.3064
  0
LINE
  8
0
 10
17.8858
 20
-37.3064
 11
17.0587
 21
-37.3933
  0
LINE
  8
0
 10
17.0587
 20
-37.3933
 11
16.2678
 21
-37.1363
  0
LINE
  8
0
 10
-15.7561
 20
-38.2546
 11
-16.3741
 21
-37.6981
  0
LINE
  8
0
 10
-16.3741
 20
-37.6981
 11
-16.7124
 21
-36.9384
  0
LINE
  8
0
 10
-16.7124
 20
-36.9384
 11
-16.7124
 21
-36.1067
  0
LINE
  8
0
 10
-16.7124
 20
-36.1067
 11
-16.3741
 21
-35.347
  0
LINE
  8
0
 10
-16.3741
 20
-35.347
 11
-15.7561
 21
-34.7905
  0
LINE
  8
0
 10
-15.7561
 20
-34.7905
 11
-14.9651
 21
-34.5335
  0
LINE
  8
0
 10
-14.9651
 20
-34.5335
 11
-14.138
 21
-34.6204
  0
LINE
  8
0
 10
-14.138
 20
-34.6204
 11
-13.4178
 21
-35.0363
  0
LINE
  8
0
 10
-13.4178
 20
-35.0363
 11
-12.929
 21
-35.7091
  0
LINE
  8
0
 10
-12.929
 20
-35.7091
 11
-12.7561
 21
-36.5226
  0
LINE
  8
0
 10
-12.7561
 20
-36.5226
 11
-12.929
 21
-37.336
  0
LINE
  8
0
 10
-12.929
 20
-37.336
 11
-13.4178
 21
-38.0088
  0
LINE
  8
0
 10
-13.4178
 20
-38.0088
 11
-14.138
 21
-38.4247
  0
LINE
  8
0
 10
-14.138
 20
-38.4247
 11
-14.9651
 21
-38.5116
  0
LINE
  8
0
 10
-14.9651
 20
-38.5116
 11
-15.7561
 21
-38.2546
  0
LINE
  8
0
 10
11.1724
 20
-39.195
 11
10.5544
 21
-38.6385
  0
LINE
  8
0
 10
10.5544
 20
-38.6385
 11
10.2161
 21
-37.8787
  0
LINE
  8
0
 10
10.2161
 20
-37.8787
 11
10.2161
 21
-37.0471
  0
LINE
  8
0
 10
10.2161
 20
-37.0471
 11
10.5544
 21
-36.2873
  0
LINE
  8
0
 10
10.5544
 20
-36.2873
 11
11.1724
 21
-35.7309
  0
LINE
  8
0
 10
11.1724
 20
-35.7309
 11
11.9634
 21
-35.4739
  0
LINE
  8
0
 10
11.9634
 20
-35.4739
 11
12.7905
 21
-35.5608
  0
LINE
  8
0
 10
12.7905
 20
-35.5608
 11
13.5107
 21
-35.9766
  0
LINE
  8
0
 10
13.5107
 20
-35.9766
 11
13.9995
 21
-36.6494
  0
LINE
  8
0
 10
13.9995
 20
-36.6494
 11
14.1724
 21
-37.4629
  0
LINE
  8
0
 10
14.1724
 20
-37.4629
 11
13.9995
 21
-38.2764
  0
LINE
  8
0
 10
13.9995
 20
-38.2764
 11
13.5107
 21
-38.9492
  0
LINE
  8
0
 10
13.5107
 20
-38.9492
 11
12.7905
 21
-39.365
  0
LINE
  8
0
 10
12.7905
 20
-39.365
 11
11.9634
 21
-39.452
  0
LINE
  8
0
 10
11.9634
 20
-39.452
 11
11.1724
 21
-39.195
  0
LINE
  8
0
 10
-10.5295
 20
-39.9528
 11
-11.1475
 21
-39.3963
  0
LINE
  8
0
 10
-11.1475
 20
-39.3963
 11
-11.4858
 21
-38.6366
  0
LINE
  8
0
 10
-11.4858
 20
-38.6366
 11
-11.4858
 21
-37.8049
  0
LINE
  8
0
 10
-11.4858
 20
-37.8049
 11
-11.1475
 21
-37.0452
  0
LINE
  8
0
 10
-11.1475
 20
-37.0452
 11
-10.5295
 21
-36.4887
  0
LINE
  8
0
 10
-10.5295
 20
-36.4887
 11
-9.73856
 21
-36.2317
  0
LINE
  8
0
 10
-9.73856
 20
-36.2317
 11
-8.91147
 21
-36.3186
  0
LINE
  8
0
 10
-8.91147
 20
-36.3186
 11
-8.19124
 21
-36.7345
  0
LINE
  8
0
 10
-8.19124
 20
-36.7345
 11
-7.70241
 21
-37.4073
  0
LINE
  8
0
 10
-7.70241
 20
-37.4073
 11
-7.5295
 21
-38.2208
  0
LINE
  8
0
 10
-7.5295
 20
-38.2208
 11
-7.70241
 21
-39.0342
  0
LINE
  8
0
 10
-7.70241
 20
-39.0342
 11
-8.19124
 21
-39.707
  0
LINE
  8
0
 10
-8.19124
 20
-39.707
 11
-8.91147
 21
-40.1229
  0
LINE
  8
0
 10
-8.91147
 20
-40.1229
 11
-9.73856
 21
-40.2098
  0
LINE
  8
0
 10
-9.73856
 20
-40.2098
 11
-10.5295
 21
-39.9528
  0
LINE
  8
0
 10
5.84015
 20
-40.5245
 11
5.22211
 21
-39.968
  0
LINE
  8
0
 10
5.22211
 20
-39.968
 11
4.88385
 21
-39.2082
  0
LINE
  8
0
 10
4.88385
 20
-39.2082
 11
4.88385
 21
-38.3766
  0
LINE
  8
0
 10
4.88385
 20
-38.3766
 11
5.22211
 21
-37.6168
  0
LINE
  8
0
 10
5.22211
 20
-37.6168
 11
5.84015
 21
-37.0603
  0
LINE
  8
0
 10
5.84015
 20
-37.0603
 11
6.63109
 21
-36.8034
  0
LINE
  8
0
 10
6.63109
 20
-36.8034
 11
7.45818
 21
-36.8903
  0
LINE
  8
0
 10
7.45818
 20
-36.8903
 11
8.17841
 21
-37.3061
  0
LINE
  8
0
 10
8.17841
 20
-37.3061
 11
8.66724
 21
-37.9789
  0
LINE
  8
0
 10
8.66724
 20
-37.9789
 11
8.84015
 21
-38.7924
  0
LINE
  8
0
 10
8.84015
 20
-38.7924
 11
8.66724
 21
-39.6059
  0
LINE
  8
0
 10
8.66724
 20
-39.6059
 11
8.17841
 21
-40.2787
  0
LINE
  8
0
 10
8.17841
 20
-40.2787
 11
7.45818
 21
-40.6945
  0
LINE
  8
0
 10
7.45818
 20
-40.6945
 11
6.63109
 21
-40.7814
  0
LINE
  8
0
 10
6.63109
 20
-40.7814
 11
5.84015
 21
-40.5245
  0
LINE
  8
0
 10
-5.11746
 20
-40.9071
 11
-5.73549
 21
-40.3506
  0
LINE
  8
0
 10
-5.73549
 20
-40.3506
 11
-6.07375
 21
-39.5909
  0
LINE
  8
0
 10
-6.07375
 20
-39.5909
 11
-6.07375
 21
-38.7592
  0
LINE
  8
0
 10
-6.07375
 20
-38.7592
 11
-5.73549
 21
-37.9995
  0
LINE
  8
0
 10
-5.73549
 20
-37.9995
 11
-5.11746
 21
-37.443
  0
LINE
  8
0
 10
-5.11746
 20
-37.443
 11
-4.32651
 21
-37.186
  0
LINE
  8
0
 10
-4.32651
 20
-37.186
 11
-3.49942
 21
-37.2729
  0
LINE
  8
0
 10
-3.49942
 20
-37.2729
 11
-2.77919
 21
-37.6888
  0
LINE
  8
0
 10
-2.77919
 20
-37.6888
 11
-2.29036
 21
-38.3616
  0
LINE
  8
0
 10
-2.29036
 20
-38.3616
 11
-2.11746
 21
-39.175
  0
LINE
  8
0
 10
-2.11746
 20
-39.175
 11
-2.29036
 21
-39.9885
  0
LINE
  8
0
 10
-2.29036
 20
-39.9885
 11
-2.77919
 21
-40.6613
  0
LINE
  8
0
 10
-2.77919
 20
-40.6613
 11
-3.49942
 21
-41.0772
  0
LINE
  8
0
 10
-3.49942
 20
-41.0772
 11
-4.32651
 21
-41.1641
  0
LINE
  8
0
 10
-4.32651
 20
-41.1641
 11
-5.11746
 21
-40.9071
  0
LINE
  8
0
 10
0.37471
 20
-41.0989
 11
-0.243301
 21
-40.5424
  0
LINE
  8
0
 10
-0.243301
 20
-40.5424
 11
-0.581573
 21
-39.7827
  0
LINE
  8
0
 10
-0.581573
 20
-39.7827
 11
-0.581573
 21
-38.951
  0
LINE
  8
0
 10
-0.581573
 20
-38.951
 11
-0.243301
 21
-38.1913
  0
LINE
  8
0
 10
-0.243301
 20
-38.1913
 11
0.37471
 21
-37.6348
  0
LINE
  8
0
 10
0.37471
 20
-37.6348
 11
1.16565
 21
-37.3778
  0
LINE
  8
0
 10
1.16565
 20
-37.3778
 11
1.99275
 21
-37.4647
  0
LINE
  8
0
 10
1.99275
 20
-37.4647
 11
2.71297
 21
-37.8806
  0
LINE
  8
0
 10
2.71297
 20
-37.8806
 11
3.2018
 21
-38.5534
  0
LINE
  8
0
 10
3.2018
 20
-38.5534
 11
3.37471
 21
-39.3669
  0
LINE
  8
0
 10
3.37471
 20
-39.3669
 11
3.2018
 21
-40.1803
  0
LINE
  8
0
 10
3.2018
 20
-40.1803
 11
2.71297
 21
-40.8531
  0
LINE
  8
0
 10
2.71297
 20
-40.8531
 11
1.99275
 21
-41.269
  0
LINE
  8
0
 10
1.99275
 20
-41.269
 11
1.16565
 21
-41.3559
  0
LINE
  8
0
 10
1.16565
 20
-41.3559
 11
0.37471
 21
-41.0989
  0
ENDSEC
  0
SECTION
  2
OBJECTS
  0
DICTIONARY
  0
ENDSEC
  0
EOF
