<?xml version="1.0" encoding="UTF-8" standalone="no"?>
<svg
   xmlns:dc="http://purl.org/dc/elements/1.1/"
   xmlns:cc="http://creativecommons.org/ns#"
   xmlns:rdf="http://www.w3.org/1999/02/22-rdf-syntax-ns#"
   xmlns:svg="http://www.w3.org/2000/svg"
   xmlns="http://www.w3.org/2000/svg"
   xmlns:sodipodi="http://sodipodi.sourceforge.net/DTD/sodipodi-0.dtd"
   xmlns:inkscape="http://www.inkscape.org/namespaces/inkscape"
   sodipodi:docname="2345.svg"
   inkscape:version="1.0beta1 (32d4812, 2019-09-19)"
   id="svg950"
   version="1.1"
   viewBox="0 0 210 297"
   height="297mm"
   width="210mm">
  <defs
     id="defs944" />
  <sodipodi:namedview
     inkscape:window-maximized="0"
     inkscape:window-y="23"
     inkscape:window-x="0"
     inkscape:window-height="907"
     inkscape:window-width="1600"
     showgrid="false"
     inkscape:document-rotation="0"
     inkscape:current-layer="layer1"
     inkscape:document-units="mm"
     inkscape:cy="560"
     inkscape:cx="400"
     inkscape:zoom="0.35"
     inkscape:pageshadow="2"
     inkscape:pageopacity="0.0"
     borderopacity="1.0"
     bordercolor="#666666"
     pagecolor="#ffffff"
     id="base" />
  <metadata
     id="metadata947">
    <rdf:RDF>
      <cc:Work
         rdf:about="">
        <dc:format>image/svg+xml</dc:format>
        <dc:type
           rdf:resource="http://purl.org/dc/dcmitype/StillImage" />
        <dc:title></dc:title>
      </cc:Work>
    </rdf:RDF>
  </metadata>
  <g
     id="layer1"
     inkscape:groupmode="layer"
     inkscape:label="Ebene 1">
    <g
       aria-label="2"
       transform="matrix(3.8637594,0,0,3.9068604,-171.71291,-662.11408)"
       style="font-style:normal;font-weight:normal;font-size:24.9283px;line-height:1.25;font-family:sans-serif;-inkscape-font-specification:'Arial Narrow';letter-spacing:0px;word-spacing:0px;fill:#000000;fill-opacity:1;stroke:none;stroke-width:0.16489"
       id="text3743-4-6-8-62">
      <path
         d="m 55.696368,241.24725 v 3.1769 h -9.834981 q 0.158236,-1.80146 0.961588,-3.42034 0.815525,-1.63104 3.15255,-4.27237 1.850145,-2.10576 2.276165,-2.84825 0.632945,-1.08331 0.632945,-2.17879 0,-1.16851 -0.523396,-1.76494 -0.523397,-0.59643 -1.375437,-0.59643 -1.862317,0 -2.008381,2.78739 l -2.78739,-0.34081 q 0.255612,-2.72653 1.509329,-4.0046 1.265889,-1.27806 3.359474,-1.27806 2.300509,0 3.469022,1.49716 1.168512,1.49716 1.168512,3.43251 0,1.09548 -0.3043,2.1301 -0.292128,1.02245 -0.9129,2.06924 -0.620773,1.03462 -2.069241,2.6535 -1.351093,1.5215 -1.716253,2.00838 -0.352989,0.48688 -0.572085,0.94941 z"
         style="font-style:normal;font-variant:normal;font-weight:bold;font-stretch:condensed;font-family:Arial;-inkscape-font-specification:'Arial Bold Condensed';stroke-width:0.16489"
         id="path4548"
         inkscape:connector-curvature="0" />
    </g>
    <g
       aria-label="3"
       transform="matrix(3.973641,0,0,3.9068626,-281.86211,-730.46355)"
       style="font-style:normal;font-weight:normal;font-size:24.512px;line-height:1.25;font-family:sans-serif;-inkscape-font-specification:'Arial Narrow';letter-spacing:0px;word-spacing:0px;fill:#000000;fill-opacity:1;stroke:none;stroke-width:0.162136"
       id="text3743-4-6-8-07">
      <path
         d="m 72.663691,237.61433 2.669027,-0.39496 q 0.107719,1.24474 0.682218,1.90303 0.574499,0.65828 1.352467,0.65828 0.84978,0 1.436248,-0.77797 0.586468,-0.77797 0.586468,-2.15437 0,-1.28066 -0.562531,-2.01075 -0.56253,-0.73009 -1.364435,-0.73009 -0.526624,0 -1.256717,0.25134 l 0.299218,-2.74084 q 1.065217,0.0239 1.687592,-0.5745 0.610405,-0.59844 0.610405,-1.68759 0,-0.90963 -0.442843,-1.42428 -0.442843,-0.51466 -1.13703,-0.51466 -0.694186,0 -1.208842,0.59844 -0.502687,0.58647 -0.598437,1.74744 l -2.54934,-0.52663 q 0.394968,-2.40571 1.543967,-3.49487 1.148998,-1.08915 2.896433,-1.08915 1.962873,0 3.111871,1.40034 1.160967,1.40034 1.160967,3.0999 0,1.149 -0.526624,2.07059 -0.514656,0.92159 -1.555935,1.61578 1.208842,0.32316 1.962872,1.42428 0.765999,1.10112 0.765999,2.75281 0,2.40571 -1.436248,3.98559 -1.42428,1.5679 -3.399121,1.5679 -1.89106,0 -3.20762,-1.32853 -1.304592,-1.32853 -1.520029,-3.62653 z"
         style="font-style:normal;font-variant:normal;font-weight:bold;font-stretch:condensed;font-family:Arial;-inkscape-font-specification:'Arial Bold Condensed';stroke-width:0.162136"
         id="path4551"
         inkscape:connector-curvature="0" />
    </g>
    <g
       aria-label="4"
       transform="matrix(3.6133317,0,0,3.9068604,-255.06078,-720.10481)"
       style="font-style:normal;font-weight:normal;font-size:24.9283px;line-height:1.25;font-family:sans-serif;-inkscape-font-specification:'Arial Narrow';letter-spacing:0px;word-spacing:0px;fill:#000000;fill-opacity:1;stroke:none;stroke-width:0.16489"
       id="text3743-4-6-8-352">
      <path
         d="M 97.112458,241.54375 V 237.953 H 91.12383 v -2.99431 l 6.341616,-11.33214 h 2.361369 v 11.31997 h 1.813625 v 3.00648 h -1.813625 v 3.59075 z m 0,-6.59723 v -6.09818 l -3.359474,6.09818 z"
         style="font-style:normal;font-variant:normal;font-weight:bold;font-stretch:condensed;font-family:Arial;-inkscape-font-specification:'Arial Bold Condensed';stroke-width:0.16489"
         id="path4554"
         inkscape:connector-curvature="0" />
    </g>
    <g
       aria-label="5"
       transform="matrix(3.8611333,0,0,3.9068604,-355.08018,-658.33184)"
       style="font-style:normal;font-weight:normal;font-size:24.9452px;line-height:1.25;font-family:sans-serif;-inkscape-font-specification:'Arial Narrow';letter-spacing:0px;word-spacing:0px;fill:#000000;fill-opacity:1;stroke:none;stroke-width:0.165002"
       id="text3743-4-6-8-9">
      <path
         d="m 110.12813,238.75307 2.80146,-0.35323 q 0.10963,1.1693 0.71864,1.83922 0.60901,0.66992 1.33983,0.66992 0.8648,0 1.486,-0.85262 0.62119,-0.8648 0.62119,-2.64313 0,-1.68087 -0.62119,-2.48477 -0.60902,-0.8039 -1.55908,-0.8039 -1.20585,0 -2.16809,1.30329 l -2.27771,-0.40195 1.43727,-9.29356 h 7.41779 v 3.20342 H 114.038 l -0.45067,3.03289 q 0.95006,-0.57247 1.92448,-0.57247 1.7296,0 2.93545,1.36419 1.52254,1.74178 1.52254,4.59196 0,2.3508 -1.30329,4.324 -1.29111,1.97321 -3.70281,1.97321 -1.94884,0 -3.26432,-1.26675 -1.30329,-1.27893 -1.57125,-3.62972 z"
         style="font-style:normal;font-variant:normal;font-weight:bold;font-stretch:condensed;font-family:Arial;-inkscape-font-specification:'Arial Bold Condensed';stroke-width:0.165002"
         id="path4557"
         inkscape:connector-curvature="0" />
    </g>
  </g>
</svg>
