<?xml version="1.0" encoding="UTF-8" standalone="no"?>
<svg
   xmlns:dc="http://purl.org/dc/elements/1.1/"
   xmlns:cc="http://creativecommons.org/ns#"
   xmlns:rdf="http://www.w3.org/1999/02/22-rdf-syntax-ns#"
   xmlns:svg="http://www.w3.org/2000/svg"
   xmlns="http://www.w3.org/2000/svg"
   xmlns:sodipodi="http://sodipodi.sourceforge.net/DTD/sodipodi-0.dtd"
   xmlns:inkscape="http://www.inkscape.org/namespaces/inkscape"
   sodipodi:docname="6789.svg"
   inkscape:version="1.0beta1 (32d4812, 2019-09-19)"
   id="svg2230"
   version="1.1"
   viewBox="0 0 210 297"
   height="297mm"
   width="210mm">
  <defs
     id="defs2224" />
  <sodipodi:namedview
     inkscape:window-maximized="0"
     inkscape:window-y="23"
     inkscape:window-x="0"
     inkscape:window-height="907"
     inkscape:window-width="1600"
     showgrid="false"
     inkscape:document-rotation="0"
     inkscape:current-layer="layer1"
     inkscape:document-units="mm"
     inkscape:cy="560"
     inkscape:cx="400"
     inkscape:zoom="0.35"
     inkscape:pageshadow="2"
     inkscape:pageopacity="0.0"
     borderopacity="1.0"
     bordercolor="#666666"
     pagecolor="#ffffff"
     id="base" />
  <metadata
     id="metadata2227">
    <rdf:RDF>
      <cc:Work
         rdf:about="">
        <dc:format>image/svg+xml</dc:format>
        <dc:type
           rdf:resource="http://purl.org/dc/dcmitype/StillImage" />
        <dc:title></dc:title>
      </cc:Work>
    </rdf:RDF>
  </metadata>
  <g
     id="layer1"
     inkscape:groupmode="layer"
     inkscape:label="Ebene 1">
    <g
       aria-label="6"
       transform="matrix(3.9538482,0,0,3.9068589,-518.0163,-654.86742)"
       style="font-style:normal;font-weight:normal;font-size:24.512px;line-height:1.25;font-family:sans-serif;-inkscape-font-specification:'Arial Narrow';letter-spacing:0px;word-spacing:0px;fill:#000000;fill-opacity:1;stroke:none;stroke-width:0.162136"
       id="text3743-4-6-8-04">
      <path
         d="m 141.35607,229.02078 -2.66903,0.35907 q -0.1915,-1.96288 -1.5679,-1.96288 -0.89766,0 -1.4961,0.98144 -0.58646,0.98144 -0.74206,3.96165 0.51466,-0.74206 1.149,-1.11309 0.63434,-0.37103 1.40034,-0.37103 1.68759,0 2.94431,1.57987 1.25672,1.5679 1.25672,4.17709 0,2.77674 -1.32853,4.35662 -1.32853,1.57987 -3.2914,1.57987 -2.15437,0 -3.57865,-2.04665 -1.41231,-2.05863 -1.41231,-6.81021 0,-4.8234 1.47215,-6.94187 1.47215,-2.11846 3.78212,-2.11846 1.59184,0 2.681,1.08915 1.10112,1.07719 1.40034,3.27943 z m -6.23571,7.33684 q 0,1.66365 0.6104,2.54934 0.62238,0.87372 1.41231,0.87372 0.766,0 1.26869,-0.7301 0.51465,-0.73009 0.51465,-2.39374 0,-1.7235 -0.55056,-2.51344 -0.55056,-0.78993 -1.36443,-0.78993 -0.78994,0 -1.3405,0.75403 -0.55056,0.75403 -0.55056,2.25012 z"
         style="font-style:normal;font-variant:normal;font-weight:bold;font-stretch:condensed;font-family:Arial;-inkscape-font-specification:'Arial Bold Condensed';stroke-width:0.162136"
         id="path4560"
         inkscape:connector-curvature="0" />
    </g>
    <g
       aria-label="8"
       transform="matrix(4.01651,0,0,3.9068589,-632.78839,-657.72856)"
       style="font-style:normal;font-weight:normal;font-size:24.4956px;line-height:1.25;font-family:sans-serif;-inkscape-font-specification:'Arial Narrow';letter-spacing:0px;word-spacing:0px;fill:#000000;fill-opacity:1;stroke:none;stroke-width:0.162028"
       id="text3743-4-6-8-23">
      <path
         d="m 175.93761,233.52979 q -1.01667,-0.52627 -1.53098,-1.43529 -0.51431,-0.90902 -0.51431,-2.18882 0,-2.0692 1.17215,-3.2892 1.17216,-1.23196 3.15764,-1.23196 2.10509,0 3.20548,1.31568 1.10039,1.30373 1.10039,3.18156 0,1.2798 -0.53824,2.2247 -0.52627,0.93294 -1.44725,1.42333 1.23196,0.59804 1.84196,1.68646 0.61,1.07647 0.61,2.65529 0,1.62666 -0.61,2.87058 -0.59804,1.24392 -1.66255,1.90176 -1.0645,0.65784 -2.39214,0.65784 -2.08117,0 -3.4447,-1.43529 -1.35156,-1.44725 -1.35156,-3.88724 0,-1.57882 0.62196,-2.71509 0.62195,-1.13627 1.78215,-1.73431 z m 0.56215,-3.38489 q 0,1.02862 0.47843,1.57882 0.49039,0.55019 1.23196,0.55019 0.75353,0 1.24392,-0.55019 0.49039,-0.5502 0.49039,-1.57882 0,-0.99274 -0.49039,-1.54294 -0.47843,-0.55019 -1.20804,-0.55019 -0.76549,0 -1.25588,0.56215 -0.49039,0.5502 -0.49039,1.53098 z m -0.25117,7.51135 q 0,1.41136 0.59803,2.17685 0.59804,0.76549 1.43529,0.76549 0.83725,0 1.39941,-0.72961 0.57412,-0.7296 0.57412,-2.18881 0,-1.25588 -0.58608,-1.98549 -0.57412,-0.7296 -1.42333,-0.7296 -0.83725,0 -1.42333,0.74156 -0.57411,0.72961 -0.57411,1.94961 z"
         style="font-style:normal;font-variant:normal;font-weight:bold;font-stretch:condensed;font-family:Arial;-inkscape-font-specification:'Arial Bold Condensed';stroke-width:0.162028"
         id="path4563"
         inkscape:connector-curvature="0" />
    </g>
    <g
       aria-label="7"
       transform="matrix(3.8918436,0,0,3.9068589,-592.22233,-742.24466)"
       style="font-style:normal;font-weight:normal;font-size:25.3765px;line-height:1.25;font-family:sans-serif;-inkscape-font-specification:'Arial Narrow';letter-spacing:0px;word-spacing:0px;fill:#000000;fill-opacity:1;stroke:none;stroke-width:0.167855"
       id="text3743-4-6-8-76">
      <path
         d="m 153.93723,229.74097 v -3.23402 h 9.76401 v 2.52774 q -1.20192,1.44973 -2.44101,4.12616 -1.22669,2.66404 -1.90819,5.72458 -0.66911,3.04815 -0.66911,5.53872 h -2.75077 q 0.0991,-3.86595 1.28865,-7.71951 1.18952,-3.85356 3.20924,-6.96367 z"
         style="font-style:normal;font-variant:normal;font-weight:bold;font-stretch:condensed;font-family:Arial;-inkscape-font-specification:'Arial Bold Condensed';stroke-width:0.167855"
         id="path4566"
         inkscape:connector-curvature="0" />
    </g>
    <g
       aria-label="9"
       transform="matrix(3.956487,0,0,3.9068589,-705.45578,-748.02188)"
       style="font-style:normal;font-weight:normal;font-size:24.4956px;line-height:1.25;font-family:sans-serif;-inkscape-font-specification:'Arial Narrow';letter-spacing:0px;word-spacing:0px;fill:#000000;fill-opacity:1;stroke:none;stroke-width:0.162028"
       id="text3743-4-6-8-621">
      <path
         d="m 195.54206,240.37625 2.66724,-0.35883 q 0.19138,1.94961 1.5549,1.94961 0.92098,0 1.50705,-0.96882 0.58608,-0.98079 0.75353,-3.95901 -0.51431,0.7296 -1.16019,1.10039 -0.64588,0.37078 -1.43529,0.37078 -1.63862,0 -2.90646,-1.56686 -1.25588,-1.56685 -1.25588,-4.16234 0,-2.77489 1.32764,-4.36567 1.32765,-1.59078 3.27725,-1.59078 2.17685,0 3.58822,2.05725 1.41137,2.04529 1.41137,6.7937 0,4.83214 -1.47117,6.9492 -1.47117,2.11705 -3.81548,2.11705 -1.62666,0 -2.69117,-1.06451 -1.05254,-1.07647 -1.35156,-3.30116 z m 6.24351,-7.3439 q 0,-1.65058 -0.62196,-2.53568 -0.62196,-0.88509 -1.41137,-0.88509 -0.76549,0 -1.2798,0.7296 -0.50235,0.72961 -0.50235,2.42803 0,1.69843 0.55019,2.48784 0.56216,0.78941 1.37549,0.78941 0.77745,0 1.32764,-0.75353 0.56216,-0.75353 0.56216,-2.26058 z"
         style="font-style:normal;font-variant:normal;font-weight:bold;font-stretch:condensed;font-family:Arial;-inkscape-font-specification:'Arial Bold Condensed';stroke-width:0.162028"
         id="path4569"
         inkscape:connector-curvature="0" />
    </g>
  </g>
</svg>
