<?xml version="1.0" encoding="UTF-8" standalone="no"?>
<svg
   xmlns:dc="http://purl.org/dc/elements/1.1/"
   xmlns:cc="http://creativecommons.org/ns#"
   xmlns:rdf="http://www.w3.org/1999/02/22-rdf-syntax-ns#"
   xmlns:svg="http://www.w3.org/2000/svg"
   xmlns="http://www.w3.org/2000/svg"
   xmlns:sodipodi="http://sodipodi.sourceforge.net/DTD/sodipodi-0.dtd"
   xmlns:inkscape="http://www.inkscape.org/namespaces/inkscape"
   sodipodi:docname="C.svg"
   inkscape:version="1.0beta2 (2b71d25, 2019-12-03)"
   id="svg333"
   version="1.1"
   viewBox="0 0 210 297"
   height="297mm"
   width="210mm">
  <defs
     id="defs327" />
  <sodipodi:namedview
     inkscape:window-maximized="0"
     inkscape:window-y="23"
     inkscape:window-x="0"
     inkscape:window-height="880"
     inkscape:window-width="1600"
     showgrid="false"
     inkscape:document-rotation="0"
     inkscape:current-layer="layer1"
     inkscape:document-units="mm"
     inkscape:cy="560"
     inkscape:cx="400"
     inkscape:zoom="0.35"
     inkscape:pageshadow="2"
     inkscape:pageopacity="0.0"
     borderopacity="1.0"
     bordercolor="#666666"
     pagecolor="#ffffff"
     id="base" />
  <metadata
     id="metadata330">
    <rdf:RDF>
      <cc:Work
         rdf:about="">
        <dc:format>image/svg+xml</dc:format>
        <dc:type
           rdf:resource="http://purl.org/dc/dcmitype/StillImage" />
        <dc:title></dc:title>
      </cc:Work>
    </rdf:RDF>
  </metadata>
  <g
     id="layer1"
     inkscape:groupmode="layer"
     inkscape:label="Ebene 1">
    <g
       aria-label="C"
       transform="matrix(3.5557826,0,0,3.9068626,-177.82174,-339.61716)"
       style="font-style:normal;font-weight:normal;font-size:24.2048px;line-height:1.25;font-family:sans-serif;-inkscape-font-specification:'Arial Narrow';letter-spacing:0px;word-spacing:0px;fill:#000000;fill-opacity:1;stroke:none;stroke-width:0.160104"
       id="text3743-4-6">
      <path
         d="m 60.270384,155.79247 2.777401,1.0755 q -0.65003,2.90741 -2.162828,4.25475 -1.512797,1.33551 -3.722899,1.33551 -2.777402,0 -4.502936,-2.13919 -1.985547,-2.47011 -1.985547,-6.66576 0,-4.43202 1.997366,-6.93759 1.737353,-2.17465 4.668398,-2.17465 2.387383,0 3.99473,1.63098 1.146417,1.15824 1.67826,3.43925 l -2.836495,0.82732 q -0.271831,-1.40643 -1.087323,-2.15101 -0.803674,-0.7564 -1.902816,-0.7564 -1.571891,0 -2.564664,1.37097 -0.992773,1.37097 -0.992773,4.52657 0,3.27379 0.969135,4.65658 0.969136,1.3828 2.51739,1.3828 1.134598,0 1.961909,-0.87459 0.827311,-0.88641 1.193692,-2.80104 z"
         style="font-style:normal;font-variant:normal;font-weight:bold;font-stretch:condensed;font-family:Arial;-inkscape-font-specification:'Arial Bold Condensed';stroke-width:0.160104"
         id="path4460"
         inkscape:connector-curvature="0" />
    </g>
  </g>
</svg>
