<?xml version="1.0" encoding="UTF-8" standalone="no"?>
<svg
   xmlns:dc="http://purl.org/dc/elements/1.1/"
   xmlns:cc="http://creativecommons.org/ns#"
   xmlns:rdf="http://www.w3.org/1999/02/22-rdf-syntax-ns#"
   xmlns:svg="http://www.w3.org/2000/svg"
   xmlns="http://www.w3.org/2000/svg"
   xmlns:sodipodi="http://sodipodi.sourceforge.net/DTD/sodipodi-0.dtd"
   xmlns:inkscape="http://www.inkscape.org/namespaces/inkscape"
   sodipodi:docname="D.svg"
   inkscape:version="1.0beta2 (2b71d25, 2019-12-03)"
   id="svg377"
   version="1.1"
   viewBox="0 0 210 297"
   height="297mm"
   width="210mm">
  <defs
     id="defs371" />
  <sodipodi:namedview
     inkscape:window-maximized="0"
     inkscape:window-y="23"
     inkscape:window-x="0"
     inkscape:window-height="880"
     inkscape:window-width="1600"
     showgrid="false"
     inkscape:document-rotation="0"
     inkscape:current-layer="layer1"
     inkscape:document-units="mm"
     inkscape:cy="560"
     inkscape:cx="400"
     inkscape:zoom="0.35"
     inkscape:pageshadow="2"
     inkscape:pageopacity="0.0"
     borderopacity="1.0"
     bordercolor="#666666"
     pagecolor="#ffffff"
     id="base" />
  <metadata
     id="metadata374">
    <rdf:RDF>
      <cc:Work
         rdf:about="">
        <dc:format>image/svg+xml</dc:format>
        <dc:type
           rdf:resource="http://purl.org/dc/dcmitype/StillImage" />
        <dc:title></dc:title>
      </cc:Work>
    </rdf:RDF>
  </metadata>
  <g
     id="layer1"
     inkscape:groupmode="layer"
     inkscape:label="Ebene 1">
    <g
       aria-label="D"
       transform="matrix(3.5715448,0,0,3.9068626,-251.44663,-343.39937)"
       style="font-style:normal;font-weight:normal;font-size:25.0303px;line-height:1.25;font-family:sans-serif;-inkscape-font-specification:'Arial Narrow';letter-spacing:0px;word-spacing:0px;fill:#000000;fill-opacity:1;stroke:none;stroke-width:0.165565"
       id="text3743-4-6-8">
      <path
         d="m 71.064237,145.31564 h 5.414268 q 2.053266,0 3.092121,0.46443 1.051077,0.45221 1.931049,1.53995 0.879971,1.08774 1.381066,2.82324 0.501095,1.7355 0.501095,4.3143 0,2.32215 -0.525539,4.04543 -0.525538,1.71105 -1.332179,2.71324 -0.80664,1.00219 -1.955492,1.51551 -1.136629,0.50109 -2.933238,0.50109 h -5.573151 z m 2.957681,3.03101 v 11.86739 h 2.224372 q 1.429954,0 2.065488,-0.26888 0.647757,-0.26888 1.051077,-0.80664 0.415542,-0.54998 0.684422,-1.72327 0.268881,-1.1733 0.268881,-3.09213 0,-1.99215 -0.281102,-3.141 -0.26888,-1.14886 -0.855528,-1.80883 -0.574426,-0.65998 -1.40551,-0.86775 -0.623313,-0.15889 -2.407699,-0.15889 z"
         style="font-style:normal;font-variant:normal;font-weight:bold;font-stretch:condensed;font-family:Arial;-inkscape-font-specification:'Arial Bold Condensed';stroke-width:0.165565"
         id="path4463"
         inkscape:connector-curvature="0" />
    </g>
  </g>
</svg>
