<?xml version="1.0" encoding="UTF-8" standalone="no"?>
<svg
   xmlns:dc="http://purl.org/dc/elements/1.1/"
   xmlns:cc="http://creativecommons.org/ns#"
   xmlns:rdf="http://www.w3.org/1999/02/22-rdf-syntax-ns#"
   xmlns:svg="http://www.w3.org/2000/svg"
   xmlns="http://www.w3.org/2000/svg"
   xmlns:sodipodi="http://sodipodi.sourceforge.net/DTD/sodipodi-0.dtd"
   xmlns:inkscape="http://www.inkscape.org/namespaces/inkscape"
   sodipodi:docname="EFGH.svg"
   inkscape:version="1.0beta2 (2b71d25, 2019-12-03)"
   id="svg421"
   version="1.1"
   viewBox="0 0 210 297"
   height="297mm"
   width="210mm">
  <defs
     id="defs415" />
  <sodipodi:namedview
     inkscape:window-maximized="0"
     inkscape:window-y="23"
     inkscape:window-x="0"
     inkscape:window-height="880"
     inkscape:window-width="1600"
     showgrid="false"
     inkscape:document-rotation="0"
     inkscape:current-layer="layer1"
     inkscape:document-units="mm"
     inkscape:cy="560"
     inkscape:cx="400"
     inkscape:zoom="0.35"
     inkscape:pageshadow="2"
     inkscape:pageopacity="0.0"
     borderopacity="1.0"
     bordercolor="#666666"
     pagecolor="#ffffff"
     id="base" />
  <metadata
     id="metadata418">
    <rdf:RDF>
      <cc:Work
         rdf:about="">
        <dc:format>image/svg+xml</dc:format>
        <dc:type
           rdf:resource="http://purl.org/dc/dcmitype/StillImage" />
        <dc:title></dc:title>
      </cc:Work>
    </rdf:RDF>
  </metadata>
  <g
     id="layer1"
     inkscape:groupmode="layer"
     inkscape:label="Ebene 1">
    <g
       aria-label="E"
       transform="matrix(3.9388589,0,0,3.9068626,-352.21066,-347.7772)"
       style="font-style:normal;font-weight:normal;font-size:25.0303px;line-height:1.25;font-family:sans-serif;-inkscape-font-specification:'Arial Narrow';letter-spacing:0px;word-spacing:0px;fill:#000000;fill-opacity:1;stroke:none;stroke-width:0.165565"
       id="text3743-4-6-8-0">
      <path
         d="m 90.709362,163.7729 v -17.91719 h 10.901868 v 3.03101 h -7.944187 v 3.97209 h 7.381987 v 3.01879 h -7.381987 v 4.87651 h 8.213067 v 3.01879 z"
         style="font-style:normal;font-variant:normal;font-weight:bold;font-stretch:condensed;font-family:Arial;-inkscape-font-specification:'Arial Bold Condensed';stroke-width:0.165565"
         id="path4466"
         inkscape:connector-curvature="0" />
    </g>
    <g
       aria-label="F"
       transform="matrix(4.3690713,0,0,3.9068604,-484.02402,-431.14209)"
       style="font-style:normal;font-weight:normal;font-size:25.0303px;line-height:1.25;font-family:sans-serif;-inkscape-font-specification:'Arial Narrow';letter-spacing:0px;word-spacing:0px;fill:#000000;fill-opacity:1;stroke:none;stroke-width:0.165565"
       id="text3743-4-6-8-5">
      <path
         d="m 112.26587,163.0528 v -17.9172 h 10.07079 v 3.03101 h -7.11311 v 4.24098 h 6.14758 v 3.03101 h -6.14758 v 7.6142 z"
         style="font-style:normal;font-variant:normal;font-weight:bold;font-stretch:condensed;font-family:Arial;-inkscape-font-specification:'Arial Bold Condensed';stroke-width:0.165565"
         id="path4469"
         inkscape:connector-curvature="0" />
    </g>
    <g
       aria-label="G"
       transform="matrix(3.312193,0,0,3.9068626,-371.84749,-433.09213)"
       style="font-style:normal;font-weight:normal;font-size:24.2048px;line-height:1.25;font-family:sans-serif;-inkscape-font-specification:'Arial Narrow';letter-spacing:0px;word-spacing:0px;fill:#000000;fill-opacity:1;stroke:none;stroke-width:0.160104"
       id="text3743-4-6-8-3">
      <path
         d="m 140.00295,156.69259 v -2.91923 h 6.1812 v 6.90214 q -0.93368,1.09914 -2.6474,1.89099 -1.71371,0.79186 -3.43925,0.79186 -2.10373,0 -3.71108,-1.02823 -1.60734,-1.04005 -2.55284,-3.09651 -0.93368,-2.06827 -0.93368,-4.85749 0,-2.86014 0.9455,-4.89296 0.95731,-2.03282 2.47011,-3.03741 1.52462,-1.00459 3.64017,-1.00459 2.54103,0 4.06564,1.30006 1.53644,1.28824 1.97373,3.79381 l -2.83649,0.65003 q -0.31911,-1.33552 -1.17006,-2.04464 -0.85095,-0.70913 -2.03282,-0.70913 -1.8319,0 -2.9665,1.43007 -1.1346,1.41825 -1.1346,4.33747 0,3.13197 1.22915,4.76295 1.05187,1.40643 2.84831,1.40643 0.83913,0 1.73736,-0.39002 0.91004,-0.40183 1.61916,-1.08732 v -2.19828 z"
         style="font-style:normal;font-variant:normal;font-weight:bold;font-stretch:condensed;font-family:Arial;-inkscape-font-specification:'Arial Bold Condensed';stroke-width:0.160104"
         id="path4472"
         inkscape:connector-curvature="0" />
    </g>
    <g
       aria-label="H"
       transform="matrix(3.7462208,0,0,3.9068626,-510.98142,-345.17436)"
       style="font-style:normal;font-weight:normal;font-size:25.0303px;line-height:1.25;font-family:sans-serif;-inkscape-font-specification:'Arial Narrow';letter-spacing:0px;word-spacing:0px;fill:#000000;fill-opacity:1;stroke:none;stroke-width:0.165565"
       id="text3743-4-6-8-1">
      <path
         d="m 153.80332,162.3327 v -17.91719 h 2.95768 v 7.05199 h 5.81759 v -7.05199 h 2.9699 v 17.91719 h -2.9699 v -7.83419 H 156.761 v 7.83419 z"
         style="font-style:normal;font-variant:normal;font-weight:bold;font-stretch:condensed;font-family:Arial;-inkscape-font-specification:'Arial Bold Condensed';stroke-width:0.165565"
         id="path4475"
         inkscape:connector-curvature="0" />
    </g>
  </g>
</svg>
