<?xml version="1.0" encoding="UTF-8" standalone="no"?>
<!-- Created with Inkscape (http://www.inkscape.org/) -->

<svg
   xmlns:dc="http://purl.org/dc/elements/1.1/"
   xmlns:cc="http://creativecommons.org/ns#"
   xmlns:rdf="http://www.w3.org/1999/02/22-rdf-syntax-ns#"
   xmlns:svg="http://www.w3.org/2000/svg"
   xmlns="http://www.w3.org/2000/svg"
   xmlns:sodipodi="http://sodipodi.sourceforge.net/DTD/sodipodi-0.dtd"
   xmlns:inkscape="http://www.inkscape.org/namespaces/inkscape"
   width="210mm"
   height="297mm"
   viewBox="0 0 210 297"
   version="1.1"
   id="svg4264"
   inkscape:version="0.92.4 (5da689c313, 2019-01-14)"
   sodipodi:docname="Letters_Path.svg">
  <defs
     id="defs4258" />
  <sodipodi:namedview
     id="base"
     pagecolor="#ffffff"
     bordercolor="#666666"
     borderopacity="1.0"
     inkscape:pageopacity="0.0"
     inkscape:pageshadow="2"
     inkscape:zoom="0.49497475"
     inkscape:cx="-296.23264"
     inkscape:cy="-208.81906"
     inkscape:document-units="mm"
     inkscape:current-layer="layer1"
     showgrid="false"
     inkscape:window-width="1680"
     inkscape:window-height="997"
     inkscape:window-x="1672"
     inkscape:window-y="1050"
     inkscape:window-maximized="1" />
  <metadata
     id="metadata4261">
    <rdf:RDF>
      <cc:Work
         rdf:about="">
        <dc:format>image/svg+xml</dc:format>
        <dc:type
           rdf:resource="http://purl.org/dc/dcmitype/StillImage" />
        <dc:title></dc:title>
      </cc:Work>
    </rdf:RDF>
  </metadata>
  <g
     inkscape:label="Ebene 1"
     inkscape:groupmode="layer"
     id="layer1">
    <g
       aria-label="A"
       transform="matrix(0.88399658,0,0,1.1312261,-10.494507,129.06108)"
       style="font-style:normal;font-weight:normal;font-size:22.87215424px;line-height:1.25;font-family:sans-serif;-inkscape-font-specification:'Arial Narrow';letter-spacing:0px;word-spacing:0px;fill:#000000;fill-opacity:1;stroke:none;stroke-width:0.15128958"
       id="text3743">
      <path
         d="m 25.340321,148.45743 h -2.948363 l -1.172645,-3.71896 h -5.360661 l -1.105636,3.71896 H 11.87166 l 5.226645,-16.37235 h 2.870187 z m -4.992115,-6.47747 -1.842728,-6.07541 -1.820391,6.07541 z"
         style="font-style:normal;font-variant:normal;font-weight:bold;font-stretch:condensed;font-family:Arial;-inkscape-font-specification:'Arial Bold Condensed';stroke-width:0.15128958"
         id="path4454"
         inkscape:connector-curvature="0" />
    </g>
    <g
       aria-label="B"
       transform="matrix(0.96740756,0,0,1.0336905,-16.5547,129.3843)"
       style="font-style:normal;font-weight:normal;font-size:25.03029633px;line-height:1.25;font-family:sans-serif;-inkscape-font-specification:'Arial Narrow';letter-spacing:0px;word-spacing:0px;fill:#000000;fill-opacity:1;stroke:none;stroke-width:0.16556478"
       id="text3743-4">
      <path
         d="m 32.617793,144.2355 h 5.878697 q 2.407699,0 3.385445,0.43999 0.977746,0.43998 1.649947,1.55217 0.6722,1.11218 0.6722,2.51769 0,1.29552 -0.574426,2.34659 -0.574425,1.03886 -1.491062,1.53995 1.307735,0.46443 2.041044,1.58884 0.745532,1.12441 0.745532,2.73769 0,1.95549 -0.941081,3.31211 -0.94108,1.3444 -2.224372,1.66217 -0.892193,0.21999 -4.143198,0.21999 h -4.998726 z m 2.957681,2.98213 v 4.14319 h 1.955492 q 1.759943,0 2.175485,-0.0611 0.757753,-0.12221 1.185517,-0.63553 0.427763,-0.52554 0.427763,-1.41773 0,-0.79442 -0.354432,-1.28329 -0.342211,-0.5011 -0.843306,-0.62332 -0.488873,-0.12221 -2.835464,-0.12221 z m 0,7.12532 v 4.79095 h 2.749911 q 1.80883,0 2.322146,-0.18332 0.513317,-0.19555 0.855528,-0.74553 0.354433,-0.56221 0.354433,-1.41774 0,-0.87997 -0.378877,-1.44217 -0.366655,-0.57443 -0.989968,-0.7822 -0.611091,-0.21999 -2.517695,-0.21999 z"
         style="font-style:normal;font-variant:normal;font-weight:bold;font-stretch:condensed;font-family:Arial;-inkscape-font-specification:'Arial Bold Condensed';stroke-width:0.16556478"
         id="path4457"
         inkscape:connector-curvature="0" />
    </g>
    <g
       aria-label="C"
       transform="matrix(0.96216243,0,0,1.0336905,-18.75621,129.06847)"
       style="font-style:normal;font-weight:normal;font-size:24.20475769px;line-height:1.25;font-family:sans-serif;-inkscape-font-specification:'Arial Narrow';letter-spacing:0px;word-spacing:0px;fill:#000000;fill-opacity:1;stroke:none;stroke-width:0.16010419"
       id="text3743-4-6">
      <path
         d="m 60.270384,155.79247 2.777401,1.0755 q -0.65003,2.90741 -2.162828,4.25475 -1.512797,1.33551 -3.722899,1.33551 -2.777402,0 -4.502936,-2.13919 -1.985547,-2.47011 -1.985547,-6.66576 0,-4.43202 1.997366,-6.93759 1.737353,-2.17465 4.668398,-2.17465 2.387383,0 3.99473,1.63098 1.146417,1.15824 1.67826,3.43925 l -2.836495,0.82732 q -0.271831,-1.40643 -1.087323,-2.15101 -0.803674,-0.7564 -1.902816,-0.7564 -1.571891,0 -2.564664,1.37097 -0.992773,1.37097 -0.992773,4.52657 0,3.27379 0.969135,4.65658 0.969136,1.3828 2.51739,1.3828 1.134598,0 1.961909,-0.87459 0.827311,-0.88641 1.193692,-2.80104 z"
         style="font-style:normal;font-variant:normal;font-weight:bold;font-stretch:condensed;font-family:Arial;-inkscape-font-specification:'Arial Bold Condensed';stroke-width:0.16010419"
         id="path4460"
         inkscape:connector-curvature="0" />
    </g>
    <g
       aria-label="D"
       transform="matrix(0.96642756,0,0,1.0336905,-23.678437,128.26777)"
       style="font-style:normal;font-weight:normal;font-size:25.03029633px;line-height:1.25;font-family:sans-serif;-inkscape-font-specification:'Arial Narrow';letter-spacing:0px;word-spacing:0px;fill:#000000;fill-opacity:1;stroke:none;stroke-width:0.16556478"
       id="text3743-4-6-8">
      <path
         d="m 71.064237,145.31564 h 5.414268 q 2.053266,0 3.092121,0.46443 1.051077,0.45221 1.931049,1.53995 0.879971,1.08774 1.381066,2.82324 0.501095,1.7355 0.501095,4.3143 0,2.32215 -0.525539,4.04543 -0.525538,1.71105 -1.332179,2.71324 -0.80664,1.00219 -1.955492,1.51551 -1.136629,0.50109 -2.933238,0.50109 h -5.573151 z m 2.957681,3.03101 v 11.86739 h 2.224372 q 1.429954,0 2.065488,-0.26888 0.647757,-0.26888 1.051077,-0.80664 0.415542,-0.54998 0.684422,-1.72327 0.268881,-1.1733 0.268881,-3.09213 0,-1.99215 -0.281102,-3.141 -0.26888,-1.14886 -0.855528,-1.80883 -0.574426,-0.65998 -1.40551,-0.86775 -0.623313,-0.15889 -2.407699,-0.15889 z"
         style="font-style:normal;font-variant:normal;font-weight:bold;font-stretch:condensed;font-family:Arial;-inkscape-font-specification:'Arial Bold Condensed';stroke-width:0.16556478"
         id="path4463"
         inkscape:connector-curvature="0" />
    </g>
    <g
       aria-label="E"
       transform="matrix(1.0658194,0,0,1.0336905,-36.679799,127.70951)"
       style="font-style:normal;font-weight:normal;font-size:25.03029633px;line-height:1.25;font-family:sans-serif;-inkscape-font-specification:'Arial Narrow';letter-spacing:0px;word-spacing:0px;fill:#000000;fill-opacity:1;stroke:none;stroke-width:0.16556478"
       id="text3743-4-6-8-0">
      <path
         d="m 90.709362,163.7729 v -17.91719 h 10.901868 v 3.03101 h -7.944187 v 3.97209 h 7.381987 v 3.01879 h -7.381987 v 4.87651 h 8.213067 v 3.01879 z"
         style="font-style:normal;font-variant:normal;font-weight:bold;font-stretch:condensed;font-family:Arial;-inkscape-font-specification:'Arial Bold Condensed';stroke-width:0.16556478"
         id="path4466"
         inkscape:connector-curvature="0" />
    </g>
    <g
       aria-label="F"
       transform="matrix(1.182231,0,0,1.0336905,-57.72419,128.45387)"
       style="font-style:normal;font-weight:normal;font-size:25.03029633px;line-height:1.25;font-family:sans-serif;-inkscape-font-specification:'Arial Narrow';letter-spacing:0px;word-spacing:0px;fill:#000000;fill-opacity:1;stroke:none;stroke-width:0.16556478"
       id="text3743-4-6-8-5">
      <path
         d="m 112.26587,163.0528 v -17.9172 h 10.07079 v 3.03101 h -7.11311 v 4.24098 h 6.14758 v 3.03101 h -6.14758 v 7.6142 z"
         style="font-style:normal;font-variant:normal;font-weight:bold;font-stretch:condensed;font-family:Arial;-inkscape-font-specification:'Arial Bold Condensed';stroke-width:0.16556478"
         id="path4469"
         inkscape:connector-curvature="0" />
    </g>
    <g
       aria-label="G"
       transform="matrix(0.89624932,0,0,1.0336905,-29.111444,128.13803)"
       style="font-style:normal;font-weight:normal;font-size:24.20475769px;line-height:1.25;font-family:sans-serif;-inkscape-font-specification:'Arial Narrow';letter-spacing:0px;word-spacing:0px;fill:#000000;fill-opacity:1;stroke:none;stroke-width:0.16010419"
       id="text3743-4-6-8-3">
      <path
         d="m 140.00295,156.69259 v -2.91923 h 6.1812 v 6.90214 q -0.93368,1.09914 -2.6474,1.89099 -1.71371,0.79186 -3.43925,0.79186 -2.10373,0 -3.71108,-1.02823 -1.60734,-1.04005 -2.55284,-3.09651 -0.93368,-2.06827 -0.93368,-4.85749 0,-2.86014 0.9455,-4.89296 0.95731,-2.03282 2.47011,-3.03741 1.52462,-1.00459 3.64017,-1.00459 2.54103,0 4.06564,1.30006 1.53644,1.28824 1.97373,3.79381 l -2.83649,0.65003 q -0.31911,-1.33552 -1.17006,-2.04464 -0.85095,-0.70913 -2.03282,-0.70913 -1.8319,0 -2.9665,1.43007 -1.1346,1.41825 -1.1346,4.33747 0,3.13197 1.22915,4.76295 1.05187,1.40643 2.84831,1.40643 0.83913,0 1.73736,-0.39002 0.91004,-0.40183 1.61916,-1.08732 v -2.19828 z"
         style="font-style:normal;font-variant:normal;font-weight:bold;font-stretch:condensed;font-family:Arial;-inkscape-font-specification:'Arial Bold Condensed';stroke-width:0.16010419"
         id="path4472"
         inkscape:connector-curvature="0" />
    </g>
    <g
       aria-label="H"
       transform="matrix(0.96740756,0,0,1.0336905,-43.790495,129.19823)"
       style="font-style:normal;font-weight:normal;font-size:25.03029633px;line-height:1.25;font-family:sans-serif;-inkscape-font-specification:'Arial Narrow';letter-spacing:0px;word-spacing:0px;fill:#000000;fill-opacity:1;stroke:none;stroke-width:0.16556478"
       id="text3743-4-6-8-1">
      <path
         d="m 153.80332,162.3327 v -17.91719 h 2.95768 v 7.05199 h 5.81759 v -7.05199 h 2.9699 v 17.91719 h -2.9699 v -7.83419 H 156.761 v 7.83419 z"
         style="font-style:normal;font-variant:normal;font-weight:bold;font-stretch:condensed;font-family:Arial;-inkscape-font-specification:'Arial Bold Condensed';stroke-width:0.16556478"
         id="path4475"
         inkscape:connector-curvature="0" />
    </g>
    <g
       aria-label="I"
       transform="matrix(0.96740756,0,0,1.0336905,-45.147727,128.08168)"
       style="font-style:normal;font-weight:normal;font-size:25.03029633px;line-height:1.25;font-family:sans-serif;-inkscape-font-specification:'Arial Narrow';letter-spacing:0px;word-spacing:0px;fill:#000000;fill-opacity:1;stroke:none;stroke-width:0.16556478"
       id="text3743-4-6-8-2">
      <path
         d="m 175.63459,163.41286 v -17.9172 h 2.95768 v 17.9172 z"
         style="font-style:normal;font-variant:normal;font-weight:bold;font-stretch:condensed;font-family:Arial;-inkscape-font-specification:'Arial Bold Condensed';stroke-width:0.16556478"
         id="path4478"
         inkscape:connector-curvature="0" />
    </g>
    <g
       aria-label="J"
       transform="matrix(0.96740756,0,0,1.0336905,-55.107659,125.53276)"
       style="font-style:normal;font-weight:normal;font-size:24.61060333px;line-height:1.25;font-family:sans-serif;-inkscape-font-specification:'Arial Narrow';letter-spacing:0px;word-spacing:0px;fill:#000000;fill-opacity:1;stroke:none;stroke-width:0.1627887"
       id="text3743-4-6-8-8">
      <path
         d="m 202.84538,147.96151 h 2.92011 v 11.15168 q 0,2.7038 -0.54076,4.02566 -0.54076,1.32186 -1.62229,2.03085 -1.0695,0.709 -2.64371,0.709 -2.07893,0 -3.25658,-1.43001 -1.17766,-1.43001 -1.18967,-4.31407 l 2.75187,-0.38454 q 0.0481,1.55018 0.39655,2.19909 0.46866,0.88926 1.40598,0.88926 0.91328,0 1.34589,-0.6369 0.43261,-0.64891 0.43261,-2.86002 z"
         style="font-style:normal;font-variant:normal;font-weight:bold;font-stretch:condensed;font-family:Arial;-inkscape-font-specification:'Arial Bold Condensed';stroke-width:0.1627887"
         id="path4481"
         inkscape:connector-curvature="0" />
    </g>
    <g
       aria-label="K"
       transform="matrix(0.93241571,0,0,1.072483,139.26479,102.02907)"
       style="font-style:normal;font-weight:normal;font-size:24.12493134px;line-height:1.25;font-family:sans-serif;-inkscape-font-specification:'Arial Narrow';letter-spacing:0px;word-spacing:0px;fill:#000000;fill-opacity:1;stroke:none;stroke-width:0.15957616"
       id="text3743-4-6-8-05">
      <path
         d="m 11.513327,181.79396 v -17.26912 h 2.8507 v 7.66862 l 5.783858,-7.66862 h 3.851979 l -5.336228,6.72624 5.618942,10.54288 h -3.698842 l -3.899098,-8.10447 -2.320611,2.88604 v 5.21843 z"
         style="font-style:normal;font-variant:normal;font-weight:bold;font-stretch:condensed;font-family:Arial;-inkscape-font-specification:'Arial Bold Condensed';stroke-width:0.15957616"
         id="path4484"
         inkscape:connector-curvature="0" />
    </g>
    <g
       aria-label="L"
       transform="matrix(0.96738637,0,0,1.0336905,133.74825,100.91253)"
       style="font-style:normal;font-weight:normal;font-size:25.23687363px;line-height:1.25;font-family:sans-serif;-inkscape-font-specification:'Arial Narrow';letter-spacing:0px;word-spacing:0px;fill:#000000;fill-opacity:1;stroke:none;stroke-width:0.1669312"
       id="text3743-4-6-8-6">
      <path
         d="m 32.305347,189.6965 v -17.91719 h 2.982091 v 14.87349 h 7.442906 v 3.0437 z"
         style="font-style:normal;font-variant:normal;font-weight:bold;font-stretch:condensed;font-family:Arial;-inkscape-font-specification:'Arial Bold Condensed';stroke-width:0.1669312"
         id="path4487"
         inkscape:connector-curvature="0" />
    </g>
    <g
       aria-label="M"
       transform="matrix(0.90096542,0,0,1.1099205,128.76805,101.65689)"
       style="font-style:normal;font-weight:normal;font-size:23.31119728px;line-height:1.25;font-family:sans-serif;-inkscape-font-specification:'Arial Narrow';letter-spacing:0px;word-spacing:0px;fill:#000000;fill-opacity:1;stroke:none;stroke-width:0.15419368"
       id="text3743-4-6-8-65">
      <path
         d="m 56.863392,175.99739 v -16.68663 h 4.131819 l 2.481368,11.38242 2.458603,-11.38242 h 4.143201 v 16.68663 H 67.517338 V 162.86208 L 64.79694,175.99739 H 62.133453 L 59.43582,162.86208 v 13.13531 z"
         style="font-style:normal;font-variant:normal;font-weight:bold;font-stretch:condensed;font-family:Arial;-inkscape-font-specification:'Arial Bold Condensed';stroke-width:0.15419368"
         id="path4490"
         inkscape:connector-curvature="0" />
    </g>
    <g
       aria-label="N"
       transform="matrix(1.021131,0,0,1.0336905,-71.830129,78.91253)"
       style="font-style:normal;font-weight:normal;font-size:25.03029633px;line-height:1.25;font-family:sans-serif;-inkscape-font-specification:'Arial Narrow';letter-spacing:0px;word-spacing:0px;fill:#000000;fill-opacity:1;stroke:none;stroke-width:0.16556478"
       id="text3743-4-6-8-56">
      <path
         d="m 70.343699,189.6965 v -17.91719 h 2.884351 l 6.013138,11.96516 v -11.96516 h 2.762132 v 17.91719 h -2.982125 l -5.915363,-11.68406 v 11.68406 z"
         style="font-style:normal;font-variant:normal;font-weight:bold;font-stretch:condensed;font-family:Arial;-inkscape-font-specification:'Arial Bold Condensed';stroke-width:0.16556478"
         id="path4493"
         inkscape:connector-curvature="0" />
    </g>
    <g
       aria-label="O"
       transform="matrix(0.9142344,0,0,1.0938114,-70.312684,80.45757)"
       style="font-style:normal;font-weight:normal;font-size:22.87435341px;line-height:1.25;font-family:sans-serif;-inkscape-font-specification:'Arial Narrow';letter-spacing:0px;word-spacing:0px;fill:#000000;fill-opacity:1;stroke:none;stroke-width:0.15130413"
       id="text3743-4-6-8-15">
      <path
         d="m 93.315986,169.49171 q 0,-2.9263 0.860022,-4.81389 0.871191,-1.89875 2.267331,-2.82578 1.39614,-0.92704 3.384243,-0.92704 2.881628,0 4.691028,2.20032 1.82057,2.20031 1.82057,6.26587 0,4.11024 -1.92109,6.42224 -1.68654,2.04395 -4.579339,2.04395 -2.91514,0 -4.601677,-2.02161 -1.921088,-2.312 -1.921088,-6.34406 z m 2.79228,-0.11169 q 0,2.82579 1.072235,4.24427 1.072235,1.40731 2.65825,1.40731 1.597179,0 2.647079,-1.39614 1.0499,-1.40731 1.0499,-4.31128 0,-2.84813 -1.02756,-4.21076 -1.01639,-1.36263 -2.669419,-1.36263 -1.653029,0 -2.691757,1.3738 -1.038728,1.3738 -1.038728,4.25543 z"
         style="font-style:normal;font-variant:normal;font-weight:bold;font-stretch:condensed;font-family:Arial;-inkscape-font-specification:'Arial Bold Condensed';stroke-width:0.15130413"
         id="path4496"
         inkscape:connector-curvature="0" />
    </g>
    <g
       aria-label="P"
       transform="matrix(1.0577188,0,0,1.0336905,-86.685242,80.40123)"
       style="font-style:normal;font-weight:normal;font-size:25.03029633px;line-height:1.25;font-family:sans-serif;-inkscape-font-specification:'Arial Narrow';letter-spacing:0px;word-spacing:0px;fill:#000000;fill-opacity:1;stroke:none;stroke-width:0.16556478"
       id="text3743-4-6-8-39">
      <path
         d="m 110.31783,188.25632 v -17.9172 h 4.76651 q 2.66436,0 3.48322,0.25666 1.30774,0.41554 2.15104,1.77217 0.85553,1.35662 0.85553,3.49544 0,1.94327 -0.73331,3.26322 -0.73331,1.30774 -1.83327,1.8455 -1.09997,0.52554 -3.78877,0.52554 h -1.94327 v 6.75867 z m 2.95768,-14.88618 v 5.08427 h 1.63773 q 1.64994,0 2.23659,-0.23221 0.59887,-0.23222 0.97775,-0.83108 0.37887,-0.6111 0.37887,-1.49107 0,-0.89219 -0.3911,-1.50328 -0.39109,-0.61109 -0.96552,-0.81886 -0.57443,-0.20777 -2.43214,-0.20777 z"
         style="font-style:normal;font-variant:normal;font-weight:bold;font-stretch:condensed;font-family:Arial;-inkscape-font-specification:'Arial Bold Condensed';stroke-width:0.16556478"
         id="path4499"
         inkscape:connector-curvature="0" />
    </g>
    <g
       aria-label="Q"
       transform="matrix(0.93248553,0,0,1.0724027,-86.079043,78.916282)"
       style="font-style:normal;font-weight:normal;font-size:21.59328461px;line-height:1.25;font-family:sans-serif;-inkscape-font-specification:'Arial Narrow';letter-spacing:0px;word-spacing:0px;fill:#000000;fill-opacity:1;stroke:none;stroke-width:0.14283039"
       id="text3743-4-6-8-35">
      <path
         d="m 151.29235,179.33421 q 0.93838,0.81186 2.04546,1.30741 l -0.93838,2.20361 q -0.56935,-0.21087 -1.11762,-0.56936 -0.12652,-0.0738 -1.7186,-1.38121 -1.25469,0.66425 -2.86786,0.66425 -2.74134,0 -4.43886,-2.04546 -1.68697,-2.056 -1.68697,-5.94659 0,-3.90113 1.69752,-5.94659 1.70806,-2.04545 4.47048,-2.04545 2.73079,0 4.41777,2.056 1.69752,2.04546 1.69752,5.93604 0,1.88731 -0.37957,3.24743 -0.36903,1.36012 -1.18089,2.51992 z m -2.056,-1.76078 q 0.98056,-1.37067 0.98056,-3.99602 0,-2.72025 -0.98056,-4.02766 -0.98055,-1.3074 -2.51992,-1.3074 -1.53936,0 -2.53046,1.3074 -0.98055,1.30741 -0.98055,4.01711 0,2.75188 0.98055,4.08037 0.9911,1.31795 2.45666,1.31795 0.54827,0 1.04382,-0.22141 -0.80132,-0.63262 -1.58154,-0.97001 l 0.71696,-1.78187 q 1.26523,0.52718 2.41448,1.58154 z"
         style="font-style:normal;font-variant:normal;font-weight:bold;font-stretch:condensed;font-family:Arial;-inkscape-font-specification:'Arial Bold Condensed';stroke-width:0.14283039"
         id="path4502"
         inkscape:connector-curvature="0" />
    </g>
    <g
       aria-label="R"
       transform="matrix(0.93414082,0,0,1.0705024,-94.001064,81.1456)"
       style="font-style:normal;font-weight:normal;font-size:24.1695652px;line-height:1.25;font-family:sans-serif;-inkscape-font-specification:'Arial Narrow';letter-spacing:0px;word-spacing:0px;fill:#000000;fill-opacity:1;stroke:none;stroke-width:0.1598714"
       id="text3743-4-6-8-80">
      <path
         d="m 164.85851,181.08731 v -17.30106 h 6.03059 q 2.3131,0 3.30443,0.47206 0.99133,0.46026 1.62862,1.61681 0.63728,1.14475 0.63728,2.74976 0,2.02986 -0.97953,3.26903 -0.96772,1.23916 -2.76156,1.5578 0.92052,0.66089 1.5224,1.45159 0.60188,0.7789 1.64041,2.80877 l 1.72303,3.37524 h -3.41065 l -2.07707,-3.76469 q -1.12114,-2.04167 -1.5224,-2.54914 -0.40125,-0.51926 -0.84971,-0.70809 -0.44846,-0.20063 -1.43979,-0.20063 h -0.59007 v 7.22255 z m 2.85598,-9.98411 h 2.12427 q 1.94726,0 2.47833,-0.16522 0.53107,-0.17702 0.86151,-0.69629 0.33044,-0.51927 0.33044,-1.38078 0,-0.82611 -0.33044,-1.32177 -0.33044,-0.50747 -0.89692,-0.69629 -0.40125,-0.12982 -2.3249,-0.12982 h -2.24229 z"
         style="font-style:normal;font-variant:normal;font-weight:bold;font-stretch:condensed;font-family:Arial;-inkscape-font-specification:'Arial Bold Condensed';stroke-width:0.1598714"
         id="path4505"
         inkscape:connector-curvature="0" />
    </g>
    <g
       aria-label="S"
       transform="matrix(1.0317801,0,0,1.0336905,-109.10783,81.189306)"
       style="font-style:normal;font-weight:normal;font-size:24.18880272px;line-height:1.25;font-family:sans-serif;-inkscape-font-specification:'Arial Narrow';letter-spacing:0px;word-spacing:0px;fill:#000000;fill-opacity:1;stroke:none;stroke-width:0.15999866"
       id="text3743-4-6-8-66">
      <path
         d="m 178.43707,181.55303 2.79919,-0.33071 q 0.47244,3.31887 3.09446,3.31887 1.29921,0 2.0433,-0.67322 0.74409,-0.68503 0.74409,-1.68896 0,-0.59055 -0.25984,-1.00393 -0.25985,-0.41339 -0.79134,-0.67323 -0.53149,-0.27165 -2.57478,-0.89763 -1.8307,-0.55511 -2.68109,-1.20471 -0.85038,-0.64961 -1.35825,-1.70078 -0.49606,-1.06298 -0.49606,-2.27951 0,-1.41731 0.63779,-2.55116 0.6496,-1.13385 1.78345,-1.71259 1.13385,-0.57874 2.79919,-0.57874 2.50392,0 3.90942,1.35826 1.4055,1.35826 1.48818,3.8858 l -2.87006,0.15354 q -0.18897,-1.39369 -0.81495,-1.9488 -0.62598,-0.55512 -1.78345,-0.55512 -1.15748,0 -1.78346,0.48425 -0.62598,0.48425 -0.62598,1.20472 0,0.70865 0.56693,1.1929 0.56693,0.48425 2.61022,1.06299 2.1614,0.62598 3.11809,1.32282 0.96849,0.68504 1.47636,1.78345 0.50787,1.08661 0.50787,2.64565 0,2.25589 -1.39369,3.79132 -1.38188,1.53542 -4.33461,1.53542 -5.22044,0 -5.81098,-5.9409 z"
         style="font-style:normal;font-variant:normal;font-weight:bold;font-stretch:condensed;font-family:Arial;-inkscape-font-specification:'Arial Bold Condensed';stroke-width:0.15999866"
         id="path4508"
         inkscape:connector-curvature="0" />
    </g>
    <g
       aria-label="T"
       transform="matrix(1.020062,0,0,1.0336905,-112.5044,80.773421)"
       style="font-style:normal;font-weight:normal;font-size:25.03029633px;line-height:1.25;font-family:sans-serif;-inkscape-font-specification:'Arial Narrow';letter-spacing:0px;word-spacing:0px;fill:#000000;fill-opacity:1;stroke:none;stroke-width:0.16556478"
       id="text3743-4-6-8-24">
      <path
         d="m 202.88486,187.89626 v -14.88619 h -4.36319 v -3.03101 h 11.67184 v 3.03101 h -4.35097 v 14.88619 z"
         style="font-style:normal;font-variant:normal;font-weight:bold;font-stretch:condensed;font-family:Arial;-inkscape-font-specification:'Arial Bold Condensed';stroke-width:0.16556478"
         id="path4511"
         inkscape:connector-curvature="0" />
    </g>
    <g
       transform="scale(1.0510473,0.95143197)"
       style="font-style:normal;font-weight:normal;font-size:27.19435501px;line-height:1.25;font-family:sans-serif;-inkscape-font-specification:'Arial Narrow';letter-spacing:0px;word-spacing:0px;fill:#000000;fill-opacity:1;stroke:none;stroke-width:0.1798791"
       id="text3743-4-6-8-36" />
    <g
       aria-label="V"
       transform="matrix(0.91771787,0,0,1.0896595,91.38933,53.604262)"
       style="font-style:normal;font-weight:normal;font-size:23.74464607px;line-height:1.25;font-family:sans-serif;-inkscape-font-specification:'Arial Narrow';letter-spacing:0px;word-spacing:0px;fill:#000000;fill-opacity:1;stroke:none;stroke-width:0.15706074"
       id="text3743-4-6-8-361">
      <path
         d="m 36.149742,203.17883 -4.973854,-16.9969 h 3.049239 l 3.524596,12.57956 3.408655,-12.57956 h 2.991269 l -4.985448,16.9969 z"
         style="font-style:normal;font-variant:normal;font-weight:bold;font-stretch:condensed;font-family:Arial;-inkscape-font-specification:'Arial Bold Condensed';stroke-width:0.15706074"
         id="path4515"
         inkscape:connector-curvature="0" />
    </g>
    <g
       aria-label="W"
       transform="matrix(0.77280642,0,0,1.2939851,85.860288,51.371179)"
       style="font-style:normal;font-weight:normal;font-size:19.99526596px;line-height:1.25;font-family:sans-serif;-inkscape-font-specification:'Arial Narrow';letter-spacing:0px;word-spacing:0px;fill:#000000;fill-opacity:1;stroke:none;stroke-width:0.1322602"
       id="text3743-4-6-8-58">
      <path
         d="m 66.388127,172.82179 -2.802071,-14.31301 h 2.431065 l 1.757396,9.83165 2.147929,-9.83165 h 2.821598 l 2.060059,9.99763 1.806213,-9.99763 h 2.382248 l -2.850887,14.31301 h -2.518935 l -2.343195,-10.70059 -2.323669,10.70059 z"
         style="font-style:normal;font-variant:normal;font-weight:bold;font-stretch:condensed;font-family:Arial;-inkscape-font-specification:'Arial Bold Condensed';stroke-width:0.1322602"
         id="path4518"
         inkscape:connector-curvature="0" />
    </g>
    <g
       aria-label="X"
       transform="matrix(0.91812821,0,0,1.0891725,82.670741,52.4877)"
       style="font-style:normal;font-weight:normal;font-size:23.75526237px;line-height:1.25;font-family:sans-serif;-inkscape-font-specification:'Arial Narrow';letter-spacing:0px;word-spacing:0px;fill:#000000;fill-opacity:1;stroke:none;stroke-width:0.15713097"
       id="text3743-4-6-8-51">
      <path
         d="m 73.333178,204.29482 4.767292,-8.87343 -4.32652,-8.13107 h 3.294186 l 2.79542,5.46324 2.737422,-5.46324 h 3.259389 l -4.32652,8.25866 4.767292,8.74584 h -3.39858 l -3.097,-5.88082 -3.096999,5.88082 z"
         style="font-style:normal;font-variant:normal;font-weight:bold;font-stretch:condensed;font-family:Arial;-inkscape-font-specification:'Arial Bold Condensed';stroke-width:0.15713097"
         id="path4521"
         inkscape:connector-curvature="0" />
    </g>
    <g
       aria-label="Y"
       transform="matrix(0.91567436,0,0,1.0920913,77.236279,51.371165)"
       style="font-style:normal;font-weight:normal;font-size:23.69177437px;line-height:1.25;font-family:sans-serif;-inkscape-font-specification:'Arial Narrow';letter-spacing:0px;word-spacing:0px;fill:#000000;fill-opacity:1;stroke:none;stroke-width:0.15671103"
       id="text3743-4-6-8-7">
      <path
         d="m 100.93603,204.77119 v -7.13761 l -5.090034,-9.82144 h 3.285383 l 3.273811,6.70959 3.21598,-6.70959 h 3.22754 l -5.11317,9.84458 v 7.11447 z"
         style="font-style:normal;font-variant:normal;font-weight:bold;font-stretch:condensed;font-family:Arial;-inkscape-font-specification:'Arial Bold Condensed';stroke-width:0.15671103"
         id="path4524"
         inkscape:connector-curvature="0" />
    </g>
    <g
       aria-label="Z"
       transform="matrix(0.9970923,0,0,1.0336905,71.893657,51.278117)"
       style="font-style:normal;font-weight:normal;font-size:25.03029633px;line-height:1.25;font-family:sans-serif;-inkscape-font-specification:'Arial Narrow';letter-spacing:0px;word-spacing:0px;fill:#000000;fill-opacity:1;stroke:none;stroke-width:0.16556478"
       id="text3743-4-6-8-74">
      <path
         d="m 108.4216,216.43024 v -3.26323 l 7.72419,-11.62296 h -6.85644 v -3.03101 h 10.7552 v 2.81102 l -8.04196,12.08739 h 8.35973 v 3.01879 z"
         style="font-style:normal;font-variant:normal;font-weight:bold;font-stretch:condensed;font-family:Arial;-inkscape-font-specification:'Arial Bold Condensed';stroke-width:0.16556478"
         id="path4527"
         inkscape:connector-curvature="0" />
    </g>
    <g
       aria-label="Ä"
       transform="matrix(1.0259548,0,0,1.0336905,13.632696,30.238095)"
       style="font-style:normal;font-weight:normal;font-size:19.70698929px;line-height:1.25;font-family:sans-serif;-inkscape-font-specification:'Arial Narrow';letter-spacing:0px;word-spacing:0px;fill:#000000;fill-opacity:1;stroke:none;stroke-width:0.13035336"
       id="text3743-4-6-8-73">
      <path
         d="m 143.51473,215.26009 h -2.54036 l -1.01037,-3.20431 h -4.61882 l -0.95263,3.20431 h -2.48262 l 4.50335,-14.10667 h 2.473 z m -4.30128,-5.58108 -1.58773,-5.23467 -1.56847,5.23467 z m -4.14733,-10.01708 v -2.31904 h 1.90527 v 2.31904 z m 3.39677,0 v -2.31904 h 1.90526 v 2.31904 z"
         style="font-style:normal;font-variant:normal;font-weight:bold;font-stretch:condensed;font-family:Arial;-inkscape-font-specification:'Arial Bold Condensed';stroke-width:0.13035336"
         id="path4530"
         inkscape:connector-curvature="0" />
    </g>
    <g
       aria-label="Ö"
       transform="matrix(1.075398,0,0,1.0336905,-2.8918673,27.970238)"
       style="font-style:normal;font-weight:normal;font-size:19.44589996px;line-height:1.25;font-family:sans-serif;-inkscape-font-specification:'Arial Narrow';letter-spacing:0px;word-spacing:0px;fill:#000000;fill-opacity:1;stroke:none;stroke-width:0.12862636"
       id="text3743-4-6-8-18">
      <path
         d="m 156.28224,210.25406 q 0,-2.4877 0.73112,-4.09237 0.74062,-1.61416 1.9275,-2.40225 1.18688,-0.78809 2.87701,-0.78809 2.44972,0 3.98792,1.87053 1.5477,1.87052 1.5477,5.32673 0,3.49418 -1.63315,5.45966 -1.43376,1.7376 -3.89298,1.7376 -2.47821,0 -3.91197,-1.71861 -1.63315,-1.96548 -1.63315,-5.3932 z m 2.37377,-0.095 q 0,2.40226 0.91152,3.60813 0.91153,1.19638 2.25983,1.19638 1.35779,0 2.25033,-1.18688 0.89254,-1.19638 0.89254,-3.6651 0,-2.42124 -0.87355,-3.57964 -0.86405,-1.1584 -2.26932,-1.1584 -1.40527,0 -2.28831,1.16789 -0.88304,1.1679 -0.88304,3.61762 z m 0.54122,-8.42212 v -2.28831 h 1.88002 v 2.28831 z m 3.35176,0 v -2.28831 h 1.88002 v 2.28831 z"
         style="font-style:normal;font-variant:normal;font-weight:bold;font-stretch:condensed;font-family:Arial;-inkscape-font-specification:'Arial Bold Condensed';stroke-width:0.12862636"
         id="path4533"
         inkscape:connector-curvature="0" />
    </g>
    <g
       aria-label="Ü"
       transform="matrix(1.3075154,0,0,1.0336905,-56.499213,29.104167)"
       style="font-style:normal;font-weight:normal;font-size:19.44589996px;line-height:1.25;font-family:sans-serif;-inkscape-font-specification:'Arial Narrow';letter-spacing:0px;word-spacing:0px;fill:#000000;fill-opacity:1;stroke:none;stroke-width:0.12862636"
       id="text3743-4-6-8-665">
      <path
         d="m 182.23592,201.76852 h 2.29781 v 7.53909 q 0,1.75659 0.0855,2.28831 0.15192,0.92102 0.72163,1.42426 0.5792,0.50324 1.51921,0.50324 0.79758,0 1.30082,-0.35132 0.50324,-0.36081 0.68365,-0.98749 0.1899,-0.63617 0.1899,-2.71559 v -7.7005 h 2.3073 v 7.31121 q 0,2.80104 -0.30384,4.05439 -0.29435,1.24385 -1.3483,2.02245 -1.04446,0.7691 -2.76307,0.7691 -1.78507,0 -2.79155,-0.63617 -0.99698,-0.64566 -1.45274,-1.80406 -0.44627,-1.1679 -0.44627,-4.29177 z m 1.96548,-1.47173 v -2.28831 h 1.88002 v 2.28831 z m 3.35176,0 v -2.28831 h 1.88002 v 2.28831 z"
         style="font-style:normal;font-variant:normal;font-weight:bold;font-stretch:condensed;font-family:Arial;-inkscape-font-specification:'Arial Bold Condensed';stroke-width:0.12862636"
         id="path4536"
         inkscape:connector-curvature="0" />
    </g>
    <g
       aria-label="ß"
       transform="matrix(0.89640891,0,0,1.0336905,-122.25979,8.5566888)"
       style="font-style:normal;font-weight:normal;font-size:24.22073555px;line-height:1.25;font-family:sans-serif;-inkscape-font-specification:'Arial Narrow';letter-spacing:0px;word-spacing:0px;fill:#000000;fill-opacity:1;stroke:none;stroke-width:0.16020988"
       id="text3743-4-6-8-67">
      <path
         d="m 203.32215,214.9095 v -11.25886 q 0,-2.30617 0.28383,-3.34691 0.41393,-1.52562 1.43101,-2.27069 1.01709,-0.7569 2.53088,-0.7569 1.88042,0 2.90933,0.9816 1.02891,0.96978 1.02891,2.61367 0,1.01708 -0.59133,2.34165 -0.62681,1.39553 -0.62681,1.75033 0,0.34297 0.1774,0.69776 0.18923,0.34297 1.24179,1.63206 0.9816,1.19448 1.3364,2.06965 0.36662,0.86333 0.36662,1.79763 0,1.80946 -1.00526,2.92115 -1.00525,1.1117 -2.43626,1.1117 -0.9816,0 -1.83311,-0.60316 -0.85151,-0.61498 -1.31275,-1.63206 l 1.90407,-1.36005 q 0.39028,0.9343 1.00526,0.9343 0.37845,0 0.66228,-0.34297 0.28384,-0.34297 0.28384,-0.87517 0,-0.4494 -0.21288,-0.83968 -0.20105,-0.39027 -1.40736,-1.78581 -1.64388,-1.91589 -1.64388,-3.00393 0,-0.7096 0.63863,-2.30618 0.48489,-1.22996 0.56767,-1.5611 0.0946,-0.33114 0.0946,-0.68594 0,-0.54402 -0.34297,-0.89881 -0.33115,-0.3548 -0.82786,-0.3548 -0.48489,0 -0.86334,0.31932 -0.36662,0.31931 -0.49671,0.93429 -0.13009,0.61498 -0.13009,2.51905 v 11.25886 z"
         style="font-style:normal;font-variant:normal;font-weight:bold;font-stretch:condensed;font-family:Arial;-inkscape-font-specification:'Arial Bold Condensed';stroke-width:0.16020988"
         id="path4539"
         inkscape:connector-curvature="0" />
    </g>
    <g
       aria-label="0"
       transform="matrix(0.96740756,0,0,1.0336905,-8.235851,-1.0912757)"
       style="font-style:normal;font-weight:normal;font-size:24.51196671px;line-height:1.25;font-family:sans-serif;-inkscape-font-specification:'Arial Narrow';letter-spacing:0px;word-spacing:0px;fill:#000000;fill-opacity:1;stroke:none;stroke-width:0.16213624"
       id="text3743-4-6-8-03">
      <path
         d="m 13.181127,227.89263 q 2.094529,0 3.387152,1.99878 1.292623,1.98681 1.292623,6.9658 0,4.96702 -1.292623,6.9658 -1.292623,1.98681 -3.375183,1.98681 -2.094529,0 -3.3871518,-1.97484 -1.2926233,-1.97484 -1.2926233,-7.01368 0,-4.94308 1.2926233,-6.92989 1.2926228,-1.99878 3.3751828,-1.99878 z m 0,2.78871 q -0.813874,0 -1.304592,1.07719 -0.478749,1.07719 -0.478749,5.09868 0,4.02149 0.478749,5.09868 0.490718,1.06522 1.304592,1.06522 0.825843,0 1.304592,-1.07719 0.478749,-1.07718 0.478749,-5.08671 0,-4.02149 -0.478749,-5.09868 -0.478749,-1.07719 -1.304592,-1.07719 z"
         style="font-style:normal;font-variant:normal;font-weight:bold;font-stretch:condensed;font-family:Arial;-inkscape-font-specification:'Arial Bold Condensed';stroke-width:0.16213624"
         id="path4542"
         inkscape:connector-curvature="0" />
    </g>
    <g
       aria-label="1"
       transform="matrix(1.4070722,0,0,1.0336905,-25.111479,0.34107817)"
       style="font-style:normal;font-weight:normal;font-size:24.92827034px;line-height:1.25;font-family:sans-serif;-inkscape-font-specification:'Arial Narrow';letter-spacing:0px;word-spacing:0px;fill:#000000;fill-opacity:1;stroke:none;stroke-width:0.16488992"
       id="text3743-4-6-8-679">
      <path
         d="m 34.933871,244.42415 h -2.497358 l 0.08395,-13.14155 c -1.046793,1.17663 -2.642029,2.29223 -4.013408,2.84403 v -3.10386 c 0.779009,-0.31647 1.586418,-0.88044 2.422229,-1.69191 0.835811,-0.81958 1.41601,-1.76088 1.740597,-2.82391 h 2.263994 z"
         style="font-style:normal;font-variant:normal;font-weight:bold;font-stretch:condensed;font-family:Arial;-inkscape-font-specification:'Arial Bold Condensed';stroke-width:0.16488992"
         id="path4545"
         inkscape:connector-curvature="0"
         sodipodi:nodetypes="ccccccccc" />
    </g>
    <g
       aria-label="2"
       transform="matrix(0.91947305,0,0,1.0336905,-12.168309,0.34107817)"
       style="font-style:normal;font-weight:normal;font-size:24.92827034px;line-height:1.25;font-family:sans-serif;-inkscape-font-specification:'Arial Narrow';letter-spacing:0px;word-spacing:0px;fill:#000000;fill-opacity:1;stroke:none;stroke-width:0.16488992"
       id="text3743-4-6-8-62">
      <path
         d="m 55.696368,241.24725 v 3.1769 h -9.834981 q 0.158236,-1.80146 0.961588,-3.42034 0.815525,-1.63104 3.15255,-4.27237 1.850145,-2.10576 2.276165,-2.84825 0.632945,-1.08331 0.632945,-2.17879 0,-1.16851 -0.523396,-1.76494 -0.523397,-0.59643 -1.375437,-0.59643 -1.862317,0 -2.008381,2.78739 l -2.78739,-0.34081 q 0.255612,-2.72653 1.509329,-4.0046 1.265889,-1.27806 3.359474,-1.27806 2.300509,0 3.469022,1.49716 1.168512,1.49716 1.168512,3.43251 0,1.09548 -0.3043,2.1301 -0.292128,1.02245 -0.9129,2.06924 -0.620773,1.03462 -2.069241,2.6535 -1.351093,1.5215 -1.716253,2.00838 -0.352989,0.48688 -0.572085,0.94941 z"
         style="font-style:normal;font-variant:normal;font-weight:bold;font-stretch:condensed;font-family:Arial;-inkscape-font-specification:'Arial Bold Condensed';stroke-width:0.16488992"
         id="path4548"
         inkscape:connector-curvature="0" />
    </g>
    <g
       aria-label="3"
       transform="matrix(0.94562198,0,0,1.0336905,-23.712383,2.258326)"
       style="font-style:normal;font-weight:normal;font-size:24.51196671px;line-height:1.25;font-family:sans-serif;-inkscape-font-specification:'Arial Narrow';letter-spacing:0px;word-spacing:0px;fill:#000000;fill-opacity:1;stroke:none;stroke-width:0.16213624"
       id="text3743-4-6-8-07">
      <path
         d="m 72.663691,237.61433 2.669027,-0.39496 q 0.107719,1.24474 0.682218,1.90303 0.574499,0.65828 1.352467,0.65828 0.84978,0 1.436248,-0.77797 0.586468,-0.77797 0.586468,-2.15437 0,-1.28066 -0.562531,-2.01075 -0.56253,-0.73009 -1.364435,-0.73009 -0.526624,0 -1.256717,0.25134 l 0.299218,-2.74084 q 1.065217,0.0239 1.687592,-0.5745 0.610405,-0.59844 0.610405,-1.68759 0,-0.90963 -0.442843,-1.42428 -0.442843,-0.51466 -1.13703,-0.51466 -0.694186,0 -1.208842,0.59844 -0.502687,0.58647 -0.598437,1.74744 l -2.54934,-0.52663 q 0.394968,-2.40571 1.543967,-3.49487 1.148998,-1.08915 2.896433,-1.08915 1.962873,0 3.111871,1.40034 1.160967,1.40034 1.160967,3.0999 0,1.149 -0.526624,2.07059 -0.514656,0.92159 -1.555935,1.61578 1.208842,0.32316 1.962872,1.42428 0.765999,1.10112 0.765999,2.75281 0,2.40571 -1.436248,3.98559 -1.42428,1.5679 -3.399121,1.5679 -1.89106,0 -3.20762,-1.32853 -1.304592,-1.32853 -1.520029,-3.62653 z"
         style="font-style:normal;font-variant:normal;font-weight:bold;font-stretch:condensed;font-family:Arial;-inkscape-font-specification:'Arial Bold Condensed';stroke-width:0.16213624"
         id="path4551"
         inkscape:connector-curvature="0" />
    </g>
    <g
       aria-label="4"
       transform="matrix(0.85987785,0,0,1.0336905,-18.355363,3.3185203)"
       style="font-style:normal;font-weight:normal;font-size:24.92827034px;line-height:1.25;font-family:sans-serif;-inkscape-font-specification:'Arial Narrow';letter-spacing:0px;word-spacing:0px;fill:#000000;fill-opacity:1;stroke:none;stroke-width:0.16488992"
       id="text3743-4-6-8-352">
      <path
         d="M 97.112458,241.54375 V 237.953 H 91.12383 v -2.99431 l 6.341616,-11.33214 h 2.361369 v 11.31997 h 1.813625 v 3.00648 h -1.813625 v 3.59075 z m 0,-6.59723 v -6.09818 l -3.359474,6.09818 z"
         style="font-style:normal;font-variant:normal;font-weight:bold;font-stretch:condensed;font-family:Arial;-inkscape-font-specification:'Arial Bold Condensed';stroke-width:0.16488992"
         id="path4554"
         inkscape:connector-curvature="0" />
    </g>
    <g
       aria-label="5"
       transform="matrix(0.91884812,0,0,1.0336905,-26.191026,1.1417852)"
       style="font-style:normal;font-weight:normal;font-size:24.94521713px;line-height:1.25;font-family:sans-serif;-inkscape-font-specification:'Arial Narrow';letter-spacing:0px;word-spacing:0px;fill:#000000;fill-opacity:1;stroke:none;stroke-width:0.165002"
       id="text3743-4-6-8-9">
      <path
         d="m 110.12813,238.75307 2.80146,-0.35323 q 0.10963,1.1693 0.71864,1.83922 0.60901,0.66992 1.33983,0.66992 0.8648,0 1.486,-0.85262 0.62119,-0.8648 0.62119,-2.64313 0,-1.68087 -0.62119,-2.48477 -0.60902,-0.8039 -1.55908,-0.8039 -1.20585,0 -2.16809,1.30329 l -2.27771,-0.40195 1.43727,-9.29356 h 7.41779 v 3.20342 H 114.038 l -0.45067,3.03289 q 0.95006,-0.57247 1.92448,-0.57247 1.7296,0 2.93545,1.36419 1.52254,1.74178 1.52254,4.59196 0,2.3508 -1.30329,4.324 -1.29111,1.97321 -3.70281,1.97321 -1.94884,0 -3.26432,-1.26675 -1.30329,-1.27893 -1.57125,-3.62972 z"
         style="font-style:normal;font-variant:normal;font-weight:bold;font-stretch:condensed;font-family:Arial;-inkscape-font-specification:'Arial Bold Condensed';stroke-width:0.165002"
         id="path4557"
         inkscape:connector-curvature="0" />
    </g>
    <g
       aria-label="6"
       transform="matrix(0.94091182,0,0,1.0336905,-34.219611,2.258326)"
       style="font-style:normal;font-weight:normal;font-size:24.51196671px;line-height:1.25;font-family:sans-serif;-inkscape-font-specification:'Arial Narrow';letter-spacing:0px;word-spacing:0px;fill:#000000;fill-opacity:1;stroke:none;stroke-width:0.16213624"
       id="text3743-4-6-8-04">
      <path
         d="m 141.35607,229.02078 -2.66903,0.35907 q -0.1915,-1.96288 -1.5679,-1.96288 -0.89766,0 -1.4961,0.98144 -0.58646,0.98144 -0.74206,3.96165 0.51466,-0.74206 1.149,-1.11309 0.63434,-0.37103 1.40034,-0.37103 1.68759,0 2.94431,1.57987 1.25672,1.5679 1.25672,4.17709 0,2.77674 -1.32853,4.35662 -1.32853,1.57987 -3.2914,1.57987 -2.15437,0 -3.57865,-2.04665 -1.41231,-2.05863 -1.41231,-6.81021 0,-4.8234 1.47215,-6.94187 1.47215,-2.11846 3.78212,-2.11846 1.59184,0 2.681,1.08915 1.10112,1.07719 1.40034,3.27943 z m -6.23571,7.33684 q 0,1.66365 0.6104,2.54934 0.62238,0.87372 1.41231,0.87372 0.766,0 1.26869,-0.7301 0.51465,-0.73009 0.51465,-2.39374 0,-1.7235 -0.55056,-2.51344 -0.55056,-0.78993 -1.36443,-0.78993 -0.78994,0 -1.3405,0.75403 -0.55056,0.75403 -0.55056,2.25012 z"
         style="font-style:normal;font-variant:normal;font-weight:bold;font-stretch:condensed;font-family:Arial;-inkscape-font-specification:'Arial Bold Condensed';stroke-width:0.16213624"
         id="path4560"
         inkscape:connector-curvature="0" />
    </g>
    <g
       aria-label="8"
       transform="matrix(0.95582368,0,0,1.0336905,-45.867428,1.5013234)"
       style="font-style:normal;font-weight:normal;font-size:24.49560356px;line-height:1.25;font-family:sans-serif;-inkscape-font-specification:'Arial Narrow';letter-spacing:0px;word-spacing:0px;fill:#000000;fill-opacity:1;stroke:none;stroke-width:0.16202801"
       id="text3743-4-6-8-23">
      <path
         d="m 175.93761,233.52979 q -1.01667,-0.52627 -1.53098,-1.43529 -0.51431,-0.90902 -0.51431,-2.18882 0,-2.0692 1.17215,-3.2892 1.17216,-1.23196 3.15764,-1.23196 2.10509,0 3.20548,1.31568 1.10039,1.30373 1.10039,3.18156 0,1.2798 -0.53824,2.2247 -0.52627,0.93294 -1.44725,1.42333 1.23196,0.59804 1.84196,1.68646 0.61,1.07647 0.61,2.65529 0,1.62666 -0.61,2.87058 -0.59804,1.24392 -1.66255,1.90176 -1.0645,0.65784 -2.39214,0.65784 -2.08117,0 -3.4447,-1.43529 -1.35156,-1.44725 -1.35156,-3.88724 0,-1.57882 0.62196,-2.71509 0.62195,-1.13627 1.78215,-1.73431 z m 0.56215,-3.38489 q 0,1.02862 0.47843,1.57882 0.49039,0.55019 1.23196,0.55019 0.75353,0 1.24392,-0.55019 0.49039,-0.5502 0.49039,-1.57882 0,-0.99274 -0.49039,-1.54294 -0.47843,-0.55019 -1.20804,-0.55019 -0.76549,0 -1.25588,0.56215 -0.49039,0.5502 -0.49039,1.53098 z m -0.25117,7.51135 q 0,1.41136 0.59803,2.17685 0.59804,0.76549 1.43529,0.76549 0.83725,0 1.39941,-0.72961 0.57412,-0.7296 0.57412,-2.18881 0,-1.25588 -0.58608,-1.98549 -0.57412,-0.7296 -1.42333,-0.7296 -0.83725,0 -1.42333,0.74156 -0.57411,0.72961 -0.57411,1.94961 z"
         style="font-style:normal;font-variant:normal;font-weight:bold;font-stretch:condensed;font-family:Arial;-inkscape-font-specification:'Arial Bold Condensed';stroke-width:0.16202801"
         id="path4563"
         inkscape:connector-curvature="0" />
    </g>
    <g
       aria-label="7"
       transform="matrix(0.92615636,0,0,1.0336905,-37.569945,0.34107817)"
       style="font-style:normal;font-weight:normal;font-size:25.37649727px;line-height:1.25;font-family:sans-serif;-inkscape-font-specification:'Arial Narrow';letter-spacing:0px;word-spacing:0px;fill:#000000;fill-opacity:1;stroke:none;stroke-width:0.16785474"
       id="text3743-4-6-8-76">
      <path
         d="m 153.93723,229.74097 v -3.23402 h 9.76401 v 2.52774 q -1.20192,1.44973 -2.44101,4.12616 -1.22669,2.66404 -1.90819,5.72458 -0.66911,3.04815 -0.66911,5.53872 h -2.75077 q 0.0991,-3.86595 1.28865,-7.71951 1.18952,-3.85356 3.20924,-6.96367 z"
         style="font-style:normal;font-variant:normal;font-weight:bold;font-stretch:condensed;font-family:Arial;-inkscape-font-specification:'Arial Bold Condensed';stroke-width:0.16785474"
         id="path4566"
         inkscape:connector-curvature="0" />
    </g>
    <g
       aria-label="9"
       transform="matrix(0.94153978,0,0,1.0336905,-48.851611,0.01260234)"
       style="font-style:normal;font-weight:normal;font-size:24.49560356px;line-height:1.25;font-family:sans-serif;-inkscape-font-specification:'Arial Narrow';letter-spacing:0px;word-spacing:0px;fill:#000000;fill-opacity:1;stroke:none;stroke-width:0.16202801"
       id="text3743-4-6-8-621">
      <path
         d="m 195.54206,240.37625 2.66724,-0.35883 q 0.19138,1.94961 1.5549,1.94961 0.92098,0 1.50705,-0.96882 0.58608,-0.98079 0.75353,-3.95901 -0.51431,0.7296 -1.16019,1.10039 -0.64588,0.37078 -1.43529,0.37078 -1.63862,0 -2.90646,-1.56686 -1.25588,-1.56685 -1.25588,-4.16234 0,-2.77489 1.32764,-4.36567 1.32765,-1.59078 3.27725,-1.59078 2.17685,0 3.58822,2.05725 1.41137,2.04529 1.41137,6.7937 0,4.83214 -1.47117,6.9492 -1.47117,2.11705 -3.81548,2.11705 -1.62666,0 -2.69117,-1.06451 -1.05254,-1.07647 -1.35156,-3.30116 z m 6.24351,-7.3439 q 0,-1.65058 -0.62196,-2.53568 -0.62196,-0.88509 -1.41137,-0.88509 -0.76549,0 -1.2798,0.7296 -0.50235,0.72961 -0.50235,2.42803 0,1.69843 0.55019,2.48784 0.56216,0.78941 1.37549,0.78941 0.77745,0 1.32764,-0.75353 0.56216,-0.75353 0.56216,-2.26058 z"
         style="font-style:normal;font-variant:normal;font-weight:bold;font-stretch:condensed;font-family:Arial;-inkscape-font-specification:'Arial Bold Condensed';stroke-width:0.16202801"
         id="path4569"
         inkscape:connector-curvature="0" />
    </g>
    <g
       aria-label="."
       transform="matrix(0.96740756,0,0,1.0336905,20.428611,-54.410785)"
       style="font-style:normal;font-weight:normal;font-size:25.03029633px;line-height:1.25;font-family:sans-serif;-inkscape-font-specification:'Arial Narrow';letter-spacing:0px;word-spacing:0px;fill:#000000;fill-opacity:1;stroke:none;stroke-width:0.16556478"
       id="text3743-4-6-8-37">
      <path
         d="m 9.8938541,276.10855 v -3.43433 h 2.8232409 v 3.43433 z"
         style="font-style:normal;font-variant:normal;font-weight:bold;font-stretch:condensed;font-family:Arial;-inkscape-font-specification:'Arial Bold Condensed';stroke-width:0.16556478"
         id="path4572"
         inkscape:connector-curvature="0" />
    </g>
    <g
       aria-label="!"
       transform="matrix(0.96740756,0,0,1.0336905,-17.245095,-54.782965)"
       style="font-style:normal;font-weight:normal;font-size:25.03029633px;line-height:1.25;font-family:sans-serif;-inkscape-font-specification:'Arial Narrow';letter-spacing:0px;word-spacing:0px;fill:#000000;fill-opacity:1;stroke:none;stroke-width:0.16556478"
       id="text3743-4-6-8-72">
      <path
         d="m 34.064758,271.84875 -0.73331,-9.09304 v -4.20431 h 3.043235 v 4.20431 l -0.721088,9.09304 z m -0.611091,4.61985 v -3.43434 h 2.811019 v 3.43434 z"
         style="font-style:normal;font-variant:normal;font-weight:bold;font-stretch:condensed;font-family:Arial;-inkscape-font-specification:'Arial Bold Condensed';stroke-width:0.16556478"
         id="path4575"
         inkscape:connector-curvature="0" />
    </g>
    <g
       aria-label="?"
       transform="matrix(1.1403553,0,0,1.0336905,-18.893368,-55.155166)"
       style="font-style:normal;font-weight:normal;font-size:24.77678108px;line-height:1.25;font-family:sans-serif;-inkscape-font-specification:'Arial Narrow';letter-spacing:0px;word-spacing:0px;fill:#000000;fill-opacity:1;stroke:none;stroke-width:0.16388789"
       id="text3743-4-6-8-248">
      <path
         d="m 62.429217,272.25562 h -2.52849 l -0.0121,-0.77428 q 0,-1.56065 0.411333,-2.52849 0.411334,-0.96784 1.596941,-2.12925 1.318686,-1.30659 1.584843,-1.79051 0.266157,-0.48392 0.266157,-1.12512 0,-1.05253 -0.689588,-1.73002 -0.67749,-0.67749 -1.717921,-0.67749 -2.238137,0 -2.758353,2.98822 l -2.552686,-0.38714 q 0.108882,-2.27443 1.560647,-3.7262 1.463862,-1.46386 3.665705,-1.46386 2.238137,0 3.726196,1.46386 1.488058,1.46387 1.488058,3.65361 0,1.11302 -0.520215,2.11716 -0.520216,0.99204 -2.238137,2.72206 -0.883157,0.89525 -1.100922,1.43966 -0.205666,0.54441 -0.18147,1.94779 z m -2.52849,4.57305 v -3.39954 h 2.794647 v 3.39954 z"
         style="font-style:normal;font-variant:normal;font-weight:bold;font-stretch:condensed;font-family:Arial;-inkscape-font-specification:'Arial Bold Condensed';stroke-width:0.16388789"
         id="path4578"
         inkscape:connector-curvature="0" />
    </g>
    <g
       aria-label="-"
       transform="matrix(0.96740756,0,0,1.0336905,-80.598218,-54.428572)"
       style="font-style:normal;font-weight:normal;font-size:25.03029633px;line-height:1.25;font-family:sans-serif;-inkscape-font-specification:'Arial Narrow';letter-spacing:0px;word-spacing:0px;fill:#000000;fill-opacity:1;stroke:none;stroke-width:0.16556478"
       id="text3743-4-6-8-374">
      <path
         d="m 83.313612,270.24968 v -3.43433 h 5.536487 v 3.43433 z"
         style="font-style:normal;font-variant:normal;font-weight:bold;font-stretch:condensed;font-family:Arial;-inkscape-font-specification:'Arial Bold Condensed';stroke-width:0.16556478"
         id="path4581"
         inkscape:connector-curvature="0" />
    </g>
    <g
       transform="scale(0.96740756,1.0336905)"
       style="font-style:normal;font-weight:normal;font-size:25.03029633px;line-height:1.25;font-family:sans-serif;-inkscape-font-specification:'Arial Narrow';letter-spacing:0px;word-spacing:0px;fill:#000000;fill-opacity:1;stroke:none;stroke-width:0.16556478"
       id="text3743-4-6-8-566" />
    <g
       aria-label="U"
       transform="matrix(1.03313,0,0,1.0336905,93.201128,52.544047)"
       style="font-style:normal;font-weight:normal;font-size:24.61060333px;line-height:1.25;font-family:sans-serif;-inkscape-font-specification:'Arial Narrow';letter-spacing:0px;word-spacing:0px;fill:#000000;fill-opacity:1;stroke:none;stroke-width:0.1627887"
       id="text3743-4-6-8-361-9">
      <path
         d="m 11.42051,197.28838 h 2.908089 v 9.54142 q 0,2.22312 0.108152,2.89607 0.19227,1.16564 0.913284,1.80253 0.73303,0.6369 1.922703,0.6369 1.009419,0 1.646315,-0.44463 0.636895,-0.45664 0.865217,-1.24975 0.240337,-0.80514 0.240337,-3.43684 v -9.7457 h 2.920106 v 9.25301 q 0,3.54499 -0.38454,5.13122 -0.372524,1.57421 -1.7064,2.5596 -1.321858,0.97336 -3.496917,0.97336 -2.259176,0 -3.532967,-0.80513 -1.261774,-0.81715 -1.838585,-2.28321 -0.564794,-1.47808 -0.564794,-5.43164 z"
         style="font-style:normal;font-variant:normal;font-weight:bold;font-stretch:condensed;font-family:Arial;-inkscape-font-specification:'Arial Bold Condensed';stroke-width:0.1627887"
         id="path4585"
         inkscape:connector-curvature="0" />
    </g>
  </g>
</svg>
