<?xml version="1.0" encoding="UTF-8" standalone="no"?>
<svg
   xmlns:dc="http://purl.org/dc/elements/1.1/"
   xmlns:cc="http://creativecommons.org/ns#"
   xmlns:rdf="http://www.w3.org/1999/02/22-rdf-syntax-ns#"
   xmlns:svg="http://www.w3.org/2000/svg"
   xmlns="http://www.w3.org/2000/svg"
   xmlns:sodipodi="http://sodipodi.sourceforge.net/DTD/sodipodi-0.dtd"
   xmlns:inkscape="http://www.inkscape.org/namespaces/inkscape"
   sodipodi:docname="MNOP.svg"
   inkscape:version="1.0beta2 (2b71d25, 2019-12-03)"
   id="svg561"
   version="1.1"
   viewBox="0 0 210 297"
   height="297mm"
   width="210mm">
  <defs
     id="defs555" />
  <sodipodi:namedview
     inkscape:window-maximized="0"
     inkscape:window-y="23"
     inkscape:window-x="0"
     inkscape:window-height="880"
     inkscape:window-width="1600"
     showgrid="false"
     inkscape:document-rotation="0"
     inkscape:current-layer="layer1"
     inkscape:document-units="mm"
     inkscape:cy="560"
     inkscape:cx="400"
     inkscape:zoom="0.35"
     inkscape:pageshadow="2"
     inkscape:pageopacity="0.0"
     borderopacity="1.0"
     bordercolor="#666666"
     pagecolor="#ffffff"
     id="base" />
  <metadata
     id="metadata558">
    <rdf:RDF>
      <cc:Work
         rdf:about="">
        <dc:format>image/svg+xml</dc:format>
        <dc:type
           rdf:resource="http://purl.org/dc/dcmitype/StillImage" />
        <dc:title></dc:title>
      </cc:Work>
    </rdf:RDF>
  </metadata>
  <g
     id="layer1"
     inkscape:groupmode="layer"
     inkscape:label="Ebene 1">
    <g
       aria-label="M"
       transform="matrix(3.329552,0,0,4.1949753,-180.12203,-447.33892)"
       style="font-style:normal;font-weight:normal;font-size:23.3112px;line-height:1.25;font-family:sans-serif;-inkscape-font-specification:'Arial Narrow';letter-spacing:0px;word-spacing:0px;fill:#000000;fill-opacity:1;stroke:none;stroke-width:0.154194"
       id="text3743-4-6-8-65">
      <path
         d="m 56.863392,175.99739 v -16.68663 h 4.131819 l 2.481368,11.38242 2.458603,-11.38242 h 4.143201 v 16.68663 H 67.517338 V 162.86208 L 64.79694,175.99739 H 62.133453 L 59.43582,162.86208 v 13.13531 z"
         style="font-style:normal;font-variant:normal;font-weight:bold;font-stretch:condensed;font-family:Arial;-inkscape-font-specification:'Arial Bold Condensed';stroke-width:0.154194"
         id="path4490"
         inkscape:connector-curvature="0" />
    </g>
    <g
       aria-label="N"
       transform="matrix(3.7737076,0,0,3.9068626,-176.95728,-453.25357)"
       style="font-style:normal;font-weight:normal;font-size:25.0303px;line-height:1.25;font-family:sans-serif;-inkscape-font-specification:'Arial Narrow';letter-spacing:0px;word-spacing:0px;fill:#000000;fill-opacity:1;stroke:none;stroke-width:0.165565"
       id="text3743-4-6-8-56">
      <path
         d="m 70.343699,189.6965 v -17.91719 h 2.884351 l 6.013138,11.96516 v -11.96516 h 2.762132 v 17.91719 h -2.982125 l -5.915363,-11.68406 v 11.68406 z"
         style="font-style:normal;font-variant:normal;font-weight:bold;font-stretch:condensed;font-family:Arial;-inkscape-font-specification:'Arial Bold Condensed';stroke-width:0.165565"
         id="path4493"
         inkscape:connector-curvature="0" />
    </g>
    <g
       aria-label="O"
       transform="matrix(3.3785875,0,0,4.134091,-306.27101,-542.66401)"
       style="font-style:normal;font-weight:normal;font-size:22.8744px;line-height:1.25;font-family:sans-serif;-inkscape-font-specification:'Arial Narrow';letter-spacing:0px;word-spacing:0px;fill:#000000;fill-opacity:1;stroke:none;stroke-width:0.151304"
       id="text3743-4-6-8-15">
      <path
         d="m 93.315986,169.49171 q 0,-2.9263 0.860022,-4.81389 0.871191,-1.89875 2.267331,-2.82578 1.39614,-0.92704 3.384243,-0.92704 2.881628,0 4.691028,2.20032 1.82057,2.20031 1.82057,6.26587 0,4.11024 -1.92109,6.42224 -1.68654,2.04395 -4.579339,2.04395 -2.91514,0 -4.601677,-2.02161 -1.921088,-2.312 -1.921088,-6.34406 z m 2.79228,-0.11169 q 0,2.82579 1.072235,4.24427 1.072235,1.40731 2.65825,1.40731 1.597179,0 2.647079,-1.39614 1.0499,-1.40731 1.0499,-4.31128 0,-2.84813 -1.02756,-4.21076 -1.01639,-1.36263 -2.669419,-1.36263 -1.653029,0 -2.691757,1.3738 -1.038728,1.3738 -1.038728,4.25543 z"
         style="font-style:normal;font-variant:normal;font-weight:bold;font-stretch:condensed;font-family:Arial;-inkscape-font-specification:'Arial Bold Condensed';stroke-width:0.151304"
         id="path4496"
         inkscape:connector-curvature="0" />
    </g>
    <g
       aria-label="P"
       transform="matrix(3.9089221,0,0,3.9068604,-332.3793,-542.87659)"
       style="font-style:normal;font-weight:normal;font-size:25.0303px;line-height:1.25;font-family:sans-serif;-inkscape-font-specification:'Arial Narrow';letter-spacing:0px;word-spacing:0px;fill:#000000;fill-opacity:1;stroke:none;stroke-width:0.165565"
       id="text3743-4-6-8-39">
      <path
         d="m 110.31783,188.25632 v -17.9172 h 4.76651 q 2.66436,0 3.48322,0.25666 1.30774,0.41554 2.15104,1.77217 0.85553,1.35662 0.85553,3.49544 0,1.94327 -0.73331,3.26322 -0.73331,1.30774 -1.83327,1.8455 -1.09997,0.52554 -3.78877,0.52554 h -1.94327 v 6.75867 z m 2.95768,-14.88618 v 5.08427 h 1.63773 q 1.64994,0 2.23659,-0.23221 0.59887,-0.23222 0.97775,-0.83108 0.37887,-0.6111 0.37887,-1.49107 0,-0.89219 -0.3911,-1.50328 -0.39109,-0.61109 -0.96552,-0.81886 -0.57443,-0.20777 -2.43214,-0.20777 z"
         style="font-style:normal;font-variant:normal;font-weight:bold;font-stretch:condensed;font-family:Arial;-inkscape-font-specification:'Arial Bold Condensed';stroke-width:0.165565"
         id="path4499"
         inkscape:connector-curvature="0" />
    </g>
  </g>
</svg>
