<?xml version="1.0" encoding="UTF-8" standalone="no"?>
<svg
   xmlns:dc="http://purl.org/dc/elements/1.1/"
   xmlns:cc="http://creativecommons.org/ns#"
   xmlns:rdf="http://www.w3.org/1999/02/22-rdf-syntax-ns#"
   xmlns:svg="http://www.w3.org/2000/svg"
   xmlns="http://www.w3.org/2000/svg"
   xmlns:sodipodi="http://sodipodi.sourceforge.net/DTD/sodipodi-0.dtd"
   xmlns:inkscape="http://www.inkscape.org/namespaces/inkscape"
   sodipodi:docname="QRST.svg"
   inkscape:version="1.0beta2 (2b71d25, 2019-12-03)"
   id="svg623"
   version="1.1"
   viewBox="0 0 210 297"
   height="297mm"
   width="210mm">
  <defs
     id="defs617" />
  <sodipodi:namedview
     inkscape:window-maximized="0"
     inkscape:window-y="23"
     inkscape:window-x="0"
     inkscape:window-height="880"
     inkscape:window-width="1600"
     showgrid="false"
     inkscape:document-rotation="0"
     inkscape:current-layer="layer1"
     inkscape:document-units="mm"
     inkscape:cy="560"
     inkscape:cx="400"
     inkscape:zoom="0.35"
     inkscape:pageshadow="2"
     inkscape:pageopacity="0.0"
     borderopacity="1.0"
     bordercolor="#666666"
     pagecolor="#ffffff"
     id="base" />
  <metadata
     id="metadata620">
    <rdf:RDF>
      <cc:Work
         rdf:about="">
        <dc:format>image/svg+xml</dc:format>
        <dc:type
           rdf:resource="http://purl.org/dc/dcmitype/StillImage" />
        <dc:title></dc:title>
      </cc:Work>
    </rdf:RDF>
  </metadata>
  <g
     id="layer1"
     inkscape:groupmode="layer"
     inkscape:label="Ebene 1">
    <g
       aria-label="Q"
       transform="matrix(3.446037,0,0,4.0531753,-456.16434,-458.1142)"
       style="font-style:normal;font-weight:normal;font-size:21.5933px;line-height:1.25;font-family:sans-serif;-inkscape-font-specification:'Arial Narrow';letter-spacing:0px;word-spacing:0px;fill:#000000;fill-opacity:1;stroke:none;stroke-width:0.14283"
       id="text3743-4-6-8-35">
      <path
         d="m 151.29235,179.33421 q 0.93838,0.81186 2.04546,1.30741 l -0.93838,2.20361 q -0.56935,-0.21087 -1.11762,-0.56936 -0.12652,-0.0738 -1.7186,-1.38121 -1.25469,0.66425 -2.86786,0.66425 -2.74134,0 -4.43886,-2.04546 -1.68697,-2.056 -1.68697,-5.94659 0,-3.90113 1.69752,-5.94659 1.70806,-2.04545 4.47048,-2.04545 2.73079,0 4.41777,2.056 1.69752,2.04546 1.69752,5.93604 0,1.88731 -0.37957,3.24743 -0.36903,1.36012 -1.18089,2.51992 z m -2.056,-1.76078 q 0.98056,-1.37067 0.98056,-3.99602 0,-2.72025 -0.98056,-4.02766 -0.98055,-1.3074 -2.51992,-1.3074 -1.53936,0 -2.53046,1.3074 -0.98055,1.30741 -0.98055,4.01711 0,2.75188 0.98055,4.08037 0.9911,1.31795 2.45666,1.31795 0.54827,0 1.04382,-0.22141 -0.80132,-0.63262 -1.58154,-0.97001 l 0.71696,-1.78187 q 1.26523,0.52718 2.41448,1.58154 z"
         style="font-style:normal;font-variant:normal;font-weight:bold;font-stretch:condensed;font-family:Arial;-inkscape-font-specification:'Arial Bold Condensed';stroke-width:0.14283"
         id="path4502"
         inkscape:connector-curvature="0" />
    </g>
    <g
       aria-label="R"
       transform="matrix(3.4521528,0,0,4.0459949,-542.50429,-600.12326)"
       style="font-style:normal;font-weight:normal;font-size:24.1696px;line-height:1.25;font-family:sans-serif;-inkscape-font-specification:'Arial Narrow';letter-spacing:0px;word-spacing:0px;fill:#000000;fill-opacity:1;stroke:none;stroke-width:0.159871"
       id="text3743-4-6-8-80">
      <path
         d="m 164.85851,181.08731 v -17.30106 h 6.03059 q 2.3131,0 3.30443,0.47206 0.99133,0.46026 1.62862,1.61681 0.63728,1.14475 0.63728,2.74976 0,2.02986 -0.97953,3.26903 -0.96772,1.23916 -2.76156,1.5578 0.92052,0.66089 1.5224,1.45159 0.60188,0.7789 1.64041,2.80877 l 1.72303,3.37524 h -3.41065 l -2.07707,-3.76469 q -1.12114,-2.04167 -1.5224,-2.54914 -0.40125,-0.51926 -0.84971,-0.70809 -0.44846,-0.20063 -1.43979,-0.20063 h -0.59007 v 7.22255 z m 2.85598,-9.98411 h 2.12427 q 1.94726,0 2.47833,-0.16522 0.53107,-0.17702 0.86151,-0.69629 0.33044,-0.51927 0.33044,-1.38078 0,-0.82611 -0.33044,-1.32177 -0.33044,-0.50747 -0.89692,-0.69629 -0.40125,-0.12982 -2.3249,-0.12982 h -2.24229 z"
         style="font-style:normal;font-variant:normal;font-weight:bold;font-stretch:condensed;font-family:Arial;-inkscape-font-specification:'Arial Bold Condensed';stroke-width:0.159871"
         id="path4505"
         inkscape:connector-curvature="0" />
    </g>
    <g
       aria-label="S"
       transform="matrix(3.8130629,0,0,3.9068604,-560.91621,-595.42184)"
       style="font-style:normal;font-weight:normal;font-size:24.1888px;line-height:1.25;font-family:sans-serif;-inkscape-font-specification:'Arial Narrow';letter-spacing:0px;word-spacing:0px;fill:#000000;fill-opacity:1;stroke:none;stroke-width:0.159999"
       id="text3743-4-6-8-66">
      <path
         d="m 178.43707,181.55303 2.79919,-0.33071 q 0.47244,3.31887 3.09446,3.31887 1.29921,0 2.0433,-0.67322 0.74409,-0.68503 0.74409,-1.68896 0,-0.59055 -0.25984,-1.00393 -0.25985,-0.41339 -0.79134,-0.67323 -0.53149,-0.27165 -2.57478,-0.89763 -1.8307,-0.55511 -2.68109,-1.20471 -0.85038,-0.64961 -1.35825,-1.70078 -0.49606,-1.06298 -0.49606,-2.27951 0,-1.41731 0.63779,-2.55116 0.6496,-1.13385 1.78345,-1.71259 1.13385,-0.57874 2.79919,-0.57874 2.50392,0 3.90942,1.35826 1.4055,1.35826 1.48818,3.8858 l -2.87006,0.15354 q -0.18897,-1.39369 -0.81495,-1.9488 -0.62598,-0.55512 -1.78345,-0.55512 -1.15748,0 -1.78346,0.48425 -0.62598,0.48425 -0.62598,1.20472 0,0.70865 0.56693,1.1929 0.56693,0.48425 2.61022,1.06299 2.1614,0.62598 3.11809,1.32282 0.96849,0.68504 1.47636,1.78345 0.50787,1.08661 0.50787,2.64565 0,2.25589 -1.39369,3.79132 -1.38188,1.53542 -4.33461,1.53542 -5.22044,0 -5.81098,-5.9409 z"
         style="font-style:normal;font-variant:normal;font-weight:bold;font-stretch:condensed;font-family:Arial;-inkscape-font-specification:'Arial Bold Condensed';stroke-width:0.159999"
         id="path4508"
         inkscape:connector-curvature="0" />
    </g>
    <g
       aria-label="T"
       transform="matrix(3.769757,0,0,3.9068604,-635.82548,-454.87465)"
       style="font-style:normal;font-weight:normal;font-size:25.0303px;line-height:1.25;font-family:sans-serif;-inkscape-font-specification:'Arial Narrow';letter-spacing:0px;word-spacing:0px;fill:#000000;fill-opacity:1;stroke:none;stroke-width:0.165565"
       id="text3743-4-6-8-24">
      <path
         d="m 202.88486,187.89626 v -14.88619 h -4.36319 v -3.03101 h 11.67184 v 3.03101 h -4.35097 v 14.88619 z"
         style="font-style:normal;font-variant:normal;font-weight:bold;font-stretch:condensed;font-family:Arial;-inkscape-font-specification:'Arial Bold Condensed';stroke-width:0.165565"
         id="path4511"
         inkscape:connector-curvature="0" />
    </g>
  </g>
</svg>
