<?xml version="1.0" encoding="UTF-8" standalone="no"?>
<svg
   xmlns:dc="http://purl.org/dc/elements/1.1/"
   xmlns:cc="http://creativecommons.org/ns#"
   xmlns:rdf="http://www.w3.org/1999/02/22-rdf-syntax-ns#"
   xmlns:svg="http://www.w3.org/2000/svg"
   xmlns="http://www.w3.org/2000/svg"
   xmlns:sodipodi="http://sodipodi.sourceforge.net/DTD/sodipodi-0.dtd"
   xmlns:inkscape="http://www.inkscape.org/namespaces/inkscape"
   sodipodi:docname="Sonderzeichen.svg"
   inkscape:version="1.0beta2 (2b71d25, 2019-12-03)"
   id="svg127"
   version="1.1"
   viewBox="0 0 210 297"
   height="297mm"
   width="210mm">
  <defs
     id="defs121" />
  <sodipodi:namedview
     inkscape:window-maximized="0"
     inkscape:window-y="23"
     inkscape:window-x="0"
     inkscape:window-height="880"
     inkscape:window-width="1600"
     showgrid="false"
     inkscape:document-rotation="0"
     inkscape:current-layer="layer1"
     inkscape:document-units="mm"
     inkscape:cy="560"
     inkscape:cx="400"
     inkscape:zoom="0.35"
     inkscape:pageshadow="2"
     inkscape:pageopacity="0.0"
     borderopacity="1.0"
     bordercolor="#666666"
     pagecolor="#ffffff"
     id="base" />
  <metadata
     id="metadata124">
    <rdf:RDF>
      <cc:Work
         rdf:about="">
        <dc:format>image/svg+xml</dc:format>
        <dc:type
           rdf:resource="http://purl.org/dc/dcmitype/StillImage" />
        <dc:title></dc:title>
      </cc:Work>
    </rdf:RDF>
  </metadata>
  <g
     id="layer1"
     inkscape:groupmode="layer"
     inkscape:label="Ebene 1">
    <g
       aria-label="ß"
       transform="matrix(3.4694584,0,0,3.9068604,-598.9928,-699.10387)"
       style="font-style:normal;font-weight:normal;font-size:24.2207px;line-height:1.25;font-family:sans-serif;-inkscape-font-specification:'Arial Narrow';letter-spacing:0px;word-spacing:0px;fill:#000000;fill-opacity:1;stroke:none;stroke-width:0.16021"
       id="text3743-4-6-8-67">
      <path
         d="m 203.32215,214.9095 v -11.25886 q 0,-2.30617 0.28383,-3.34691 0.41393,-1.52562 1.43101,-2.27069 1.01709,-0.7569 2.53088,-0.7569 1.88042,0 2.90933,0.9816 1.02891,0.96978 1.02891,2.61367 0,1.01708 -0.59133,2.34165 -0.62681,1.39553 -0.62681,1.75033 0,0.34297 0.1774,0.69776 0.18923,0.34297 1.24179,1.63206 0.9816,1.19448 1.3364,2.06965 0.36662,0.86333 0.36662,1.79763 0,1.80946 -1.00526,2.92115 -1.00525,1.1117 -2.43626,1.1117 -0.9816,0 -1.83311,-0.60316 -0.85151,-0.61498 -1.31275,-1.63206 l 1.90407,-1.36005 q 0.39028,0.9343 1.00526,0.9343 0.37845,0 0.66228,-0.34297 0.28384,-0.34297 0.28384,-0.87517 0,-0.4494 -0.21288,-0.83968 -0.20105,-0.39027 -1.40736,-1.78581 -1.64388,-1.91589 -1.64388,-3.00393 0,-0.7096 0.63863,-2.30618 0.48489,-1.22996 0.56767,-1.5611 0.0946,-0.33114 0.0946,-0.68594 0,-0.54402 -0.34297,-0.89881 -0.33115,-0.3548 -0.82786,-0.3548 -0.48489,0 -0.86334,0.31932 -0.36662,0.31931 -0.49671,0.93429 -0.13009,0.61498 -0.13009,2.51905 v 11.25886 z"
         style="font-style:normal;font-variant:normal;font-weight:bold;font-stretch:condensed;font-family:Arial;-inkscape-font-specification:'Arial Bold Condensed';stroke-width:0.16021"
         id="path4539"
         inkscape:connector-curvature="0" />
    </g>
    <g
       aria-label="."
       transform="matrix(3.5420286,0,0,3.4941313,-7.7562922,-820.80509)"
       style="font-style:normal;font-weight:normal;font-size:25.0303px;line-height:1.25;font-family:sans-serif;-inkscape-font-specification:'Arial Narrow';letter-spacing:0px;word-spacing:0px;fill:#000000;fill-opacity:1;stroke:none;stroke-width:0.165565"
       id="text3743-4-6-8-37">
      <path
         d="m 9.8938541,276.10855 v -3.43433 h 2.8232409 v 3.43433 z"
         style="font-style:normal;font-variant:normal;font-weight:bold;font-stretch:condensed;font-family:Arial;-inkscape-font-specification:'Arial Bold Condensed';stroke-width:0.165565"
         id="path4572"
         inkscape:connector-curvature="0" />
    </g>
    <g
       aria-label="!"
       transform="matrix(3.6145746,0,0,3.9068604,-96.851693,-796.37871)"
       style="font-style:normal;font-weight:normal;font-size:25.0303px;line-height:1.25;font-family:sans-serif;-inkscape-font-specification:'Arial Narrow';letter-spacing:0px;word-spacing:0px;fill:#000000;fill-opacity:1;stroke:none;stroke-width:0.165565"
       id="text3743-4-6-8-72">
      <path
         d="m 34.064758,271.84875 -0.73331,-9.09304 v -4.20431 h 3.043235 v 4.20431 l -0.721088,9.09304 z m -0.611091,4.61985 v -3.43434 h 2.811019 v 3.43434 z"
         style="font-style:normal;font-variant:normal;font-weight:bold;font-stretch:condensed;font-family:Arial;-inkscape-font-specification:'Arial Bold Condensed';stroke-width:0.165565"
         id="path4575"
         inkscape:connector-curvature="0" />
    </g>
    <g
       aria-label="?"
       transform="matrix(4.2143148,0,0,3.9068626,-134.11707,-803.83366)"
       style="font-style:normal;font-weight:normal;font-size:24.7768px;line-height:1.25;font-family:sans-serif;-inkscape-font-specification:'Arial Narrow';letter-spacing:0px;word-spacing:0px;fill:#000000;fill-opacity:1;stroke:none;stroke-width:0.163888"
       id="text3743-4-6-8-248">
      <path
         d="m 62.429217,272.25562 h -2.52849 l -0.0121,-0.77428 q 0,-1.56065 0.411333,-2.52849 0.411334,-0.96784 1.596941,-2.12925 1.318686,-1.30659 1.584843,-1.79051 0.266157,-0.48392 0.266157,-1.12512 0,-1.05253 -0.689588,-1.73002 -0.67749,-0.67749 -1.717921,-0.67749 -2.238137,0 -2.758353,2.98822 l -2.552686,-0.38714 q 0.108882,-2.27443 1.560647,-3.7262 1.463862,-1.46386 3.665705,-1.46386 2.238137,0 3.726196,1.46386 1.488058,1.46387 1.488058,3.65361 0,1.11302 -0.520215,2.11716 -0.520216,0.99204 -2.238137,2.72206 -0.883157,0.89525 -1.100922,1.43966 -0.205666,0.54441 -0.18147,1.94779 z m -2.52849,4.57305 v -3.39954 h 2.794647 v 3.39954 z"
         style="font-style:normal;font-variant:normal;font-weight:bold;font-stretch:condensed;font-family:Arial;-inkscape-font-specification:'Arial Bold Condensed';stroke-width:0.163888"
         id="path4578"
         inkscape:connector-curvature="0" />
    </g>
  </g>
</svg>
