<?xml version="1.0" encoding="UTF-8" standalone="no"?>
<svg
   xmlns:dc="http://purl.org/dc/elements/1.1/"
   xmlns:cc="http://creativecommons.org/ns#"
   xmlns:rdf="http://www.w3.org/1999/02/22-rdf-syntax-ns#"
   xmlns:svg="http://www.w3.org/2000/svg"
   xmlns="http://www.w3.org/2000/svg"
   xmlns:sodipodi="http://sodipodi.sourceforge.net/DTD/sodipodi-0.dtd"
   xmlns:inkscape="http://www.inkscape.org/namespaces/inkscape"
   sodipodi:docname="UVWX.svg"
   inkscape:version="1.0beta2 (2b71d25, 2019-12-03)"
   id="svg685"
   version="1.1"
   viewBox="0 0 210 297"
   height="297mm"
   width="210mm">
  <defs
     id="defs679" />
  <sodipodi:namedview
     inkscape:window-maximized="0"
     inkscape:window-y="23"
     inkscape:window-x="0"
     inkscape:window-height="880"
     inkscape:window-width="1600"
     showgrid="false"
     inkscape:document-rotation="0"
     inkscape:current-layer="layer1"
     inkscape:document-units="mm"
     inkscape:cy="560"
     inkscape:cx="400"
     inkscape:zoom="0.35"
     inkscape:pageshadow="2"
     inkscape:pageopacity="0.0"
     borderopacity="1.0"
     bordercolor="#666666"
     pagecolor="#ffffff"
     id="base" />
  <metadata
     id="metadata682">
    <rdf:RDF>
      <cc:Work
         rdf:about="">
        <dc:format>image/svg+xml</dc:format>
        <dc:type
           rdf:resource="http://purl.org/dc/dcmitype/StillImage" />
        <dc:title></dc:title>
      </cc:Work>
    </rdf:RDF>
  </metadata>
  <g
     id="layer1"
     inkscape:groupmode="layer"
     inkscape:label="Ebene 1">
    <g
       aria-label="V"
       transform="matrix(3.3914612,0,0,4.1183981,-83.655174,-692.121)"
       style="font-style:normal;font-weight:normal;font-size:23.7446px;line-height:1.25;font-family:sans-serif;-inkscape-font-specification:'Arial Narrow';letter-spacing:0px;word-spacing:0px;fill:#000000;fill-opacity:1;stroke:none;stroke-width:0.157061"
       id="text3743-4-6-8-361">
      <path
         d="m 36.149742,203.17883 -4.973854,-16.9969 h 3.049239 l 3.524596,12.57956 3.408655,-12.57956 h 2.991269 l -4.985448,16.9969 z"
         style="font-style:normal;font-variant:normal;font-weight:bold;font-stretch:condensed;font-family:Arial;-inkscape-font-specification:'Arial Bold Condensed';stroke-width:0.157061"
         id="path4515"
         inkscape:connector-curvature="0" />
    </g>
    <g
       aria-label="W"
       transform="matrix(2.8559359,0,0,4.8906554,-88.580594,-701.31747)"
       style="font-style:normal;font-weight:normal;font-size:19.9953px;line-height:1.25;font-family:sans-serif;-inkscape-font-specification:'Arial Narrow';letter-spacing:0px;word-spacing:0px;fill:#000000;fill-opacity:1;stroke:none;stroke-width:0.13226"
       id="text3743-4-6-8-58">
      <path
         d="m 66.388127,172.82179 -2.802071,-14.31301 h 2.431065 l 1.757396,9.83165 2.147929,-9.83165 h 2.821598 l 2.060059,9.99763 1.806213,-9.99763 h 2.382248 l -2.850887,14.31301 h -2.518935 l -2.343195,-10.70059 -2.323669,10.70059 z"
         style="font-style:normal;font-variant:normal;font-weight:bold;font-stretch:condensed;font-family:Arial;-inkscape-font-specification:'Arial Bold Condensed';stroke-width:0.13226"
         id="path4518"
         inkscape:connector-curvature="0" />
    </g>
    <g
       aria-label="X"
       transform="matrix(3.3929775,0,0,4.1165574,-146.09237,-582.9482)"
       style="font-style:normal;font-weight:normal;font-size:23.7553px;line-height:1.25;font-family:sans-serif;-inkscape-font-specification:'Arial Narrow';letter-spacing:0px;word-spacing:0px;fill:#000000;fill-opacity:1;stroke:none;stroke-width:0.157131"
       id="text3743-4-6-8-51">
      <path
         d="m 73.333178,204.29482 4.767292,-8.87343 -4.32652,-8.13107 h 3.294186 l 2.79542,5.46324 2.737422,-5.46324 h 3.259389 l -4.32652,8.25866 4.767292,8.74584 h -3.39858 l -3.097,-5.88082 -3.096999,5.88082 z"
         style="font-style:normal;font-variant:normal;font-weight:bold;font-stretch:condensed;font-family:Arial;-inkscape-font-specification:'Arial Bold Condensed';stroke-width:0.157131"
         id="path4521"
         inkscape:connector-curvature="0" />
    </g>
    <g
       aria-label="U"
       transform="matrix(3.8180515,0,0,3.9068626,-20.652463,-572.90806)"
       style="font-style:normal;font-weight:normal;font-size:24.6106px;line-height:1.25;font-family:sans-serif;-inkscape-font-specification:'Arial Narrow';letter-spacing:0px;word-spacing:0px;fill:#000000;fill-opacity:1;stroke:none;stroke-width:0.162789"
       id="text3743-4-6-8-361-9">
      <path
         d="m 11.42051,197.28838 h 2.908089 v 9.54142 q 0,2.22312 0.108152,2.89607 0.19227,1.16564 0.913284,1.80253 0.73303,0.6369 1.922703,0.6369 1.009419,0 1.646315,-0.44463 0.636895,-0.45664 0.865217,-1.24975 0.240337,-0.80514 0.240337,-3.43684 v -9.7457 h 2.920106 v 9.25301 q 0,3.54499 -0.38454,5.13122 -0.372524,1.57421 -1.7064,2.5596 -1.321858,0.97336 -3.496917,0.97336 -2.259176,0 -3.532967,-0.80513 -1.261774,-0.81715 -1.838585,-2.28321 -0.564794,-1.47808 -0.564794,-5.43164 z"
         style="font-style:normal;font-variant:normal;font-weight:bold;font-stretch:condensed;font-family:Arial;-inkscape-font-specification:'Arial Bold Condensed';stroke-width:0.162789"
         id="path4585"
         inkscape:connector-curvature="0" />
    </g>
  </g>
</svg>
