<?xml version="1.0" encoding="UTF-8" standalone="no"?>
<svg
   xmlns:dc="http://purl.org/dc/elements/1.1/"
   xmlns:cc="http://creativecommons.org/ns#"
   xmlns:rdf="http://www.w3.org/1999/02/22-rdf-syntax-ns#"
   xmlns:svg="http://www.w3.org/2000/svg"
   xmlns="http://www.w3.org/2000/svg"
   xmlns:sodipodi="http://sodipodi.sourceforge.net/DTD/sodipodi-0.dtd"
   xmlns:inkscape="http://www.inkscape.org/namespaces/inkscape"
   sodipodi:docname="YZ01.svg"
   inkscape:version="1.0beta2 (2b71d25, 2019-12-03)"
   id="svg747"
   version="1.1"
   viewBox="0 0 210 297"
   height="297mm"
   width="210mm">
  <defs
     id="defs741" />
  <sodipodi:namedview
     inkscape:window-maximized="0"
     inkscape:window-y="23"
     inkscape:window-x="0"
     inkscape:window-height="880"
     inkscape:window-width="1600"
     showgrid="false"
     inkscape:document-rotation="0"
     inkscape:current-layer="layer1"
     inkscape:document-units="mm"
     inkscape:cy="560"
     inkscape:cx="400"
     inkscape:zoom="0.35"
     inkscape:pageshadow="2"
     inkscape:pageopacity="0.0"
     borderopacity="1.0"
     bordercolor="#666666"
     pagecolor="#ffffff"
     id="base" />
  <metadata
     id="metadata744">
    <rdf:RDF>
      <cc:Work
         rdf:about="">
        <dc:format>image/svg+xml</dc:format>
        <dc:type
           rdf:resource="http://purl.org/dc/dcmitype/StillImage" />
        <dc:title></dc:title>
      </cc:Work>
    </rdf:RDF>
  </metadata>
  <g
     id="layer1"
     inkscape:groupmode="layer"
     inkscape:label="Ebene 1">
    <g
       aria-label="Y"
       transform="matrix(3.3839089,0,0,4.1275897,-307.44784,-571.63258)"
       style="font-style:normal;font-weight:normal;font-size:23.6918px;line-height:1.25;font-family:sans-serif;-inkscape-font-specification:'Arial Narrow';letter-spacing:0px;word-spacing:0px;fill:#000000;fill-opacity:1;stroke:none;stroke-width:0.156711"
       id="text3743-4-6-8-7">
      <path
         d="m 100.93603,204.77119 v -7.13761 l -5.090034,-9.82144 h 3.285383 l 3.273811,6.70959 3.21598,-6.70959 h 3.22754 l -5.11317,9.84458 v 7.11447 z"
         style="font-style:normal;font-variant:normal;font-weight:bold;font-stretch:condensed;font-family:Arial;-inkscape-font-specification:'Arial Bold Condensed';stroke-width:0.156711"
         id="path4524"
         inkscape:connector-curvature="0" />
    </g>
    <g
       aria-label="Z"
       transform="matrix(3.6848699,0,0,3.9068604,-301.1094,-568.20411)"
       style="font-style:normal;font-weight:normal;font-size:25.0303px;line-height:1.25;font-family:sans-serif;-inkscape-font-specification:'Arial Narrow';letter-spacing:0px;word-spacing:0px;fill:#000000;fill-opacity:1;stroke:none;stroke-width:0.165565"
       id="text3743-4-6-8-74">
      <path
         d="m 108.4216,216.43024 v -3.26323 l 7.72419,-11.62296 h -6.85644 v -3.03101 h 10.7552 v 2.81102 l -8.04196,12.08739 h 8.35973 v 3.01879 z"
         style="font-style:normal;font-variant:normal;font-weight:bold;font-stretch:condensed;font-family:Arial;-inkscape-font-specification:'Arial Bold Condensed';stroke-width:0.165565"
         id="path4527"
         inkscape:connector-curvature="0" />
    </g>
    <g
       aria-label="0"
       transform="matrix(4.0652228,0,0,3.9068626,-9.6091644,-788.14131)"
       style="font-style:normal;font-weight:normal;font-size:24.512px;line-height:1.25;font-family:sans-serif;-inkscape-font-specification:'Arial Narrow';letter-spacing:0px;word-spacing:0px;fill:#000000;fill-opacity:1;stroke:none;stroke-width:0.162136"
       id="text3743-4-6-8-03">
      <path
         d="m 13.181127,227.89263 q 2.094529,0 3.387152,1.99878 1.292623,1.98681 1.292623,6.9658 0,4.96702 -1.292623,6.9658 -1.292623,1.98681 -3.375183,1.98681 -2.094529,0 -3.3871518,-1.97484 -1.2926233,-1.97484 -1.2926233,-7.01368 0,-4.94308 1.2926233,-6.92989 1.2926228,-1.99878 3.3751828,-1.99878 z m 0,2.78871 q -0.813874,0 -1.304592,1.07719 -0.478749,1.07719 -0.478749,5.09868 0,4.02149 0.478749,5.09868 0.490718,1.06522 1.304592,1.06522 0.825843,0 1.304592,-1.07719 0.478749,-1.07718 0.478749,-5.08671 0,-4.02149 -0.478749,-5.09868 -0.478749,-1.07719 -1.304592,-1.07719 z"
         style="font-style:normal;font-variant:normal;font-weight:bold;font-stretch:condensed;font-family:Arial;-inkscape-font-specification:'Arial Bold Condensed';stroke-width:0.162136"
         id="path4542"
         inkscape:connector-curvature="0" />
    </g>
    <g
       aria-label="1"
       transform="matrix(5.912722,0,0,3.9068604,-70.346573,-783.48312)"
       style="font-style:normal;font-weight:normal;font-size:24.9283px;line-height:1.25;font-family:sans-serif;-inkscape-font-specification:'Arial Narrow';letter-spacing:0px;word-spacing:0px;fill:#000000;fill-opacity:1;stroke:none;stroke-width:0.16489"
       id="text3743-4-6-8-679">
      <path
         d="m 34.933871,244.42415 h -2.497358 l 0.08395,-13.14155 c -1.046793,1.17663 -2.642029,2.29223 -4.013408,2.84403 v -3.10386 c 0.779009,-0.31647 1.586418,-0.88044 2.422229,-1.69191 0.835811,-0.81958 1.41601,-1.76088 1.740597,-2.82391 h 2.263994 z"
         style="font-style:normal;font-variant:normal;font-weight:bold;font-stretch:condensed;font-family:Arial;-inkscape-font-specification:'Arial Bold Condensed';stroke-width:0.16489"
         id="path4545"
         inkscape:connector-curvature="0"
         sodipodi:nodetypes="ccccccccc" />
    </g>
  </g>
</svg>
