<?xml version="1.0" encoding="UTF-8" standalone="no"?>
<svg
   xmlns:dc="http://purl.org/dc/elements/1.1/"
   xmlns:cc="http://creativecommons.org/ns#"
   xmlns:rdf="http://www.w3.org/1999/02/22-rdf-syntax-ns#"
   xmlns:svg="http://www.w3.org/2000/svg"
   xmlns="http://www.w3.org/2000/svg"
   xmlns:sodipodi="http://sodipodi.sourceforge.net/DTD/sodipodi-0.dtd"
   xmlns:inkscape="http://www.inkscape.org/namespaces/inkscape"
   sodipodi:docname="ÄÖÜ-.svg"
   inkscape:version="1.0beta1 (32d4812, 2019-09-19)"
   id="svg2855"
   version="1.1"
   viewBox="0 0 210 297"
   height="297mm"
   width="210mm">
  <defs
     id="defs2849" />
  <sodipodi:namedview
     inkscape:window-maximized="0"
     inkscape:window-y="23"
     inkscape:window-x="0"
     inkscape:window-height="907"
     inkscape:window-width="1600"
     showgrid="false"
     inkscape:document-rotation="0"
     inkscape:current-layer="layer1"
     inkscape:document-units="mm"
     inkscape:cy="560"
     inkscape:cx="400"
     inkscape:zoom="0.35"
     inkscape:pageshadow="2"
     inkscape:pageopacity="0.0"
     borderopacity="1.0"
     bordercolor="#666666"
     pagecolor="#ffffff"
     id="base" />
  <metadata
     id="metadata2852">
    <rdf:RDF>
      <cc:Work
         rdf:about="">
        <dc:format>image/svg+xml</dc:format>
        <dc:type
           rdf:resource="http://purl.org/dc/dcmitype/StillImage" />
        <dc:title></dc:title>
      </cc:Work>
    </rdf:RDF>
  </metadata>
  <g
     id="layer1"
     inkscape:groupmode="layer"
     inkscape:label="Ebene 1">
    <g
       aria-label="Ä"
       transform="matrix(3.7915345,0,0,3.9068604,-495.64126,-547.88229)"
       style="font-style:normal;font-weight:normal;font-size:19.707px;line-height:1.25;font-family:sans-serif;-inkscape-font-specification:'Arial Narrow';letter-spacing:0px;word-spacing:0px;fill:#000000;fill-opacity:1;stroke:none;stroke-width:0.130353"
       id="text3743-4-6-8-73">
      <path
         d="m 143.51473,215.26009 h -2.54036 l -1.01037,-3.20431 h -4.61882 l -0.95263,3.20431 h -2.48262 l 4.50335,-14.10667 h 2.473 z m -4.30128,-5.58108 -1.58773,-5.23467 -1.56847,5.23467 z m -4.14733,-10.01708 v -2.31904 h 1.90527 v 2.31904 z m 3.39677,0 v -2.31904 h 1.90526 v 2.31904 z"
         style="font-style:normal;font-variant:normal;font-weight:bold;font-stretch:condensed;font-family:Arial;-inkscape-font-specification:'Arial Bold Condensed';stroke-width:0.130353"
         id="path4530"
         inkscape:connector-curvature="0" />
    </g>
    <g
       aria-label="Ö"
       transform="matrix(3.9742576,0,0,3.9068517,-566.38082,-554.68666)"
       style="font-style:normal;font-weight:normal;font-size:19.4459px;line-height:1.25;font-family:sans-serif;-inkscape-font-specification:'Arial Narrow';letter-spacing:0px;word-spacing:0px;fill:#000000;fill-opacity:1;stroke:none;stroke-width:0.128626"
       id="text3743-4-6-8-18">
      <path
         d="m 156.28224,210.25406 q 0,-2.4877 0.73112,-4.09237 0.74062,-1.61416 1.9275,-2.40225 1.18688,-0.78809 2.87701,-0.78809 2.44972,0 3.98792,1.87053 1.5477,1.87052 1.5477,5.32673 0,3.49418 -1.63315,5.45966 -1.43376,1.7376 -3.89298,1.7376 -2.47821,0 -3.91197,-1.71861 -1.63315,-1.96548 -1.63315,-5.3932 z m 2.37377,-0.095 q 0,2.40226 0.91152,3.60813 0.91153,1.19638 2.25983,1.19638 1.35779,0 2.25033,-1.18688 0.89254,-1.19638 0.89254,-3.6651 0,-2.42124 -0.87355,-3.57964 -0.86405,-1.1584 -2.26932,-1.1584 -1.40527,0 -2.28831,1.16789 -0.88304,1.1679 -0.88304,3.61762 z m 0.54122,-8.42212 v -2.28831 h 1.88002 v 2.28831 z m 3.35176,0 v -2.28831 h 1.88002 v 2.28831 z"
         style="font-style:normal;font-variant:normal;font-weight:bold;font-stretch:condensed;font-family:Arial;-inkscape-font-specification:'Arial Bold Condensed';stroke-width:0.128626"
         id="path4533"
         inkscape:connector-curvature="0" />
    </g>
    <g
       aria-label="Ü"
       transform="matrix(4.8320744,0,0,3.9068626,-820.58842,-634.08377)"
       style="font-style:normal;font-weight:normal;font-size:19.4459px;line-height:1.25;font-family:sans-serif;-inkscape-font-specification:'Arial Narrow';letter-spacing:0px;word-spacing:0px;fill:#000000;fill-opacity:1;stroke:none;stroke-width:0.128626"
       id="text3743-4-6-8-665">
      <path
         d="m 182.23592,201.76852 h 2.29781 v 7.53909 q 0,1.75659 0.0855,2.28831 0.15192,0.92102 0.72163,1.42426 0.5792,0.50324 1.51921,0.50324 0.79758,0 1.30082,-0.35132 0.50324,-0.36081 0.68365,-0.98749 0.1899,-0.63617 0.1899,-2.71559 v -7.7005 h 2.3073 v 7.31121 q 0,2.80104 -0.30384,4.05439 -0.29435,1.24385 -1.3483,2.02245 -1.04446,0.7691 -2.76307,0.7691 -1.78507,0 -2.79155,-0.63617 -0.99698,-0.64566 -1.45274,-1.80406 -0.44627,-1.1679 -0.44627,-4.29177 z m 1.96548,-1.47173 v -2.28831 h 1.88002 v 2.28831 z m 3.35176,0 v -2.28831 h 1.88002 v 2.28831 z"
         style="font-style:normal;font-variant:normal;font-weight:bold;font-stretch:condensed;font-family:Arial;-inkscape-font-specification:'Arial Bold Condensed';stroke-width:0.128626"
         id="path4536"
         inkscape:connector-curvature="0" />
    </g>
    <g
       aria-label="-"
       transform="matrix(5.7798384,0,0,3.2029537,-474.05931,-688.94321)"
       style="font-style:normal;font-weight:normal;font-size:25.0303px;line-height:1.25;font-family:sans-serif;-inkscape-font-specification:'Arial Narrow';letter-spacing:0px;word-spacing:0px;fill:#000000;fill-opacity:1;stroke:none;stroke-width:0.165565"
       id="text3743-4-6-8-374">
      <path
         d="m 83.313612,270.24968 v -3.43433 h 5.536487 v 3.43433 z"
         style="font-style:normal;font-variant:normal;font-weight:bold;font-stretch:condensed;font-family:Arial;-inkscape-font-specification:'Arial Bold Condensed';stroke-width:0.165565"
         id="path4581"
         inkscape:connector-curvature="0" />
    </g>
  </g>
</svg>
